<?xml version="1.0" standalone="no"?>
<!DOCTYPE svg PUBLIC "-//W3C//DTD SVG 20010904//EN"
 "http://www.w3.org/TR/2001/REC-SVG-20010904/DTD/svg10.dtd">
<svg version="1.0" xmlns="http://www.w3.org/2000/svg"
 width="16.000000pt" height="16.000000pt" viewBox="0 0 16.000000 16.000000"
 preserveAspectRatio="xMidYMid meet">
<metadata>
Created by potrace 1.11, written by Peter Selinger 2001-2013
</metadata>
<g transform="translate(0.000000,16.000000) scale(0.002532,-0.002532)"
fill="#000000" stroke="none">
<path d="M2139 6238 c0 -91 -5 -177 -14 -278 -3 -36 -8 -92 -10 -125 -5 -85
-21 -223 -41 -360 -2 -16 -6 -46 -8 -65 -13 -100 -35 -229 -52 -315 -3 -11 -7
-36 -10 -55 -3 -19 -23 -116 -45 -215 -47 -210 -42 -189 -69 -290 -12 -44 -23
-87 -25 -95 -2 -8 -8 -28 -15 -45 -6 -16 -11 -32 -11 -35 1 -8 -55 -192 -77
-250 -3 -8 -6 -17 -7 -20 -7 -31 -81 -235 -105 -295 -83 -200 -242 -533 -320
-670 -22 -38 -43 -77 -47 -85 -17 -36 -149 -256 -160 -268 -7 -7 -13 -17 -13
-22 0 -8 -237 -370 -249 -380 -3 -3 -20 -25 -36 -50 -16 -25 -32 -47 -35 -50
-3 -3 -45 -58 -93 -123 -96 -129 -113 -151 -139 -179 -10 -10 -18 -22 -18 -27
0 -5 -3 -11 -7 -13 -5 -2 -28 -28 -53 -58 -24 -30 -60 -73 -80 -95 -19 -23
-53 -62 -75 -89 -40 -48 -58 -68 -167 -185 l-57 -62 706 -706 706 -707 121
125 c129 133 197 206 261 283 22 26 51 59 65 74 14 15 39 45 57 67 18 22 56
69 85 106 68 84 94 117 167 214 33 44 67 87 76 96 8 9 15 21 15 27 0 5 4 12 8
14 5 1 43 53 85 113 42 61 81 115 86 121 5 6 21 30 36 55 16 24 31 46 34 49 3
3 11 14 18 25 6 11 37 61 69 110 77 121 214 346 214 351 0 2 15 27 33 56 18
29 42 71 52 93 11 22 23 42 26 45 3 3 14 23 25 45 10 22 21 42 24 45 3 3 21
36 40 75 28 59 34 67 42 50 4 -11 31 -60 58 -110 28 -49 58 -107 67 -128 10
-20 21 -37 25 -37 5 0 8 -4 8 -10 0 -12 157 -277 263 -443 45 -70 87 -135 92
-145 6 -9 12 -19 15 -22 3 -3 30 -41 59 -85 124 -182 353 -491 408 -551 12
-14 23 -28 23 -32 1 -6 51 -67 95 -113 8 -9 15 -18 15 -21 0 -3 15 -22 33 -41
17 -19 41 -46 52 -59 58 -69 203 -226 302 -327 l111 -115 706 707 707 707 -33
33 c-61 63 -119 127 -216 241 -147 172 -176 207 -217 261 -21 28 -43 53 -49
57 -6 4 -8 8 -4 8 4 0 -3 11 -15 24 -25 28 -20 21 -113 146 -104 141 -274 386
-274 396 0 2 -5 10 -11 17 -15 17 -93 140 -135 212 -19 33 -52 88 -73 122 -22
34 -37 64 -35 66 3 2 -2 10 -11 17 -8 7 -15 16 -15 20 0 5 -16 37 -36 72 -68
119 -190 369 -259 528 -15 36 -33 79 -40 95 -8 17 -21 50 -30 75 -9 25 -21 54
-26 65 -21 46 -145 421 -153 460 -1 6 -5 16 -9 23 -5 6 -6 12 -3 12 3 0 1 11
-4 24 -9 25 -76 278 -84 318 -2 13 -10 46 -16 73 -6 28 -14 59 -16 70 -2 11
-6 31 -9 45 -22 111 -22 109 -24 113 -1 1 -4 18 -7 37 -2 19 -6 46 -10 60 -3
14 -8 43 -10 65 -3 22 -7 46 -10 54 -2 8 -7 30 -10 50 -2 20 -9 65 -14 101 -5
36 -12 85 -15 110 -3 25 -7 55 -9 67 -3 12 -7 50 -11 85 -3 35 -8 81 -11 103
-2 22 -6 67 -9 100 -2 33 -7 92 -10 130 -3 39 -8 122 -10 185 -2 63 -4 121 -4
128 -1 9 -208 12 -1001 12 l-1000 0 -1 -82z"/>
</g>
</svg>
