<?xml version="1.0" encoding="UTF-8"?>
<svg width="546px" height="460px" viewBox="0 0 546 460" version="1.1" xmlns="http://www.w3.org/2000/svg" xmlns:xlink="http://www.w3.org/1999/xlink">
    <!-- Generator: Sketch 48.2 (47327) - http://www.bohemiancoding.com/sketch -->
    <title>Group</title>
    <desc>Created with Sketch.</desc>
    <defs></defs>
    <g id="Artboard-4" stroke="none" stroke-width="1" fill="none" fill-rule="evenodd" transform="translate(-357.000000, -426.000000)">
        <g id="Group" transform="translate(357.000000, 426.000000)" fill-rule="nonzero">
            <g id="polyplannerBannerBackground">
                <path d="M497.107201,0 L545,0 L545,48.0945702 L545,304.90543 C545,331.46742 523.557755,353 497.107201,353 L47.8927988,353 C21.4423404,353 0,331.46742 0,304.90543 L0,48.0945702 L0,0 L47.8927988,0 L497.107201,0 Z" id="Combined-Shape" fill="#FFBE7D"></path>
                <path d="M495.200203,459.976427 C494.675309,459.992105 494.14846,460 493.619768,460 L278.9855,460 C250.274636,460 227,436.717552 227,407.997749 L227,209.002251 C227,180.282205 250.274706,157 278.9855,157 L493.620115,157 L546,157 L546,221.688574 L545.605269,221.688574 L545.605269,351.065721 L545.634593,351.065721 L545.634593,459.976427 L495.200203,459.976427 Z" id="Combined-Shape" fill="#FFEB57"></path>
                <path d="M0,414.440696 L0,255.559304 C0,230.397629 19.6673754,210 43.9283042,210 L367.071989,210 C391.332713,210 411,230.397599 411,255.559304 L411,414.440696 L411,460 L367.071696,460 L43.9283042,460 L0,460 L0,414.440696 Z" id="Combined-Shape" fill="#16AC61"></path>
            </g>
            <g id="Group-4" transform="translate(279.000000, 168.000000)">
                <path d="M0,18.2904982 C0,8.1889365 8.18638554,0 18.2848005,0 L67.47425,0 C77.5725796,0 85.7589286,8.1889365 85.7589286,18.2904982 L85.7589286,94.7095018 C85.7589286,104.810978 77.5725796,113 67.4741281,113 L18.2848005,113 C8.18636116,113 0,104.810978 0,94.7095018 L0,18.2904982 Z" id="path1_fill" fill-opacity="0.804913949" fill="#FFFFFF" style="mix-blend-mode: screen;"></path>
                <g id="P" transform="translate(19.169643, 20.178571)" fill="#04522B">
                    <g id="path5_fill-link">
                        <path d="M0,0 L0,74.6607143 L15.9613987,74.6607143 L15.9613987,51.1885803 L30.5419671,51.1885803 C47.1662,51.1885803 56.5,40.2037494 56.5,25.7058332 C56.5,11.3752616 47.2766724,0 30.70775,0 L0,0 Z" id="path5_fill"></path>
                    </g>
                </g>
            </g>
        </g>
    </g>
</svg>