<svg width="810" height="102" viewBox="0 0 810 102" fill="none" xmlns="http://www.w3.org/2000/svg">
<g filter="url(#filter0_d)">
<rect x="4" y="1" width="802" height="64" fill="#01A6C6"/>
</g>
<path d="M395.5 31C392.85 31 390.45 31.99 388.6 33.6L385 30V39H394L390.38 35.38C391.77 34.22 393.54 33.5 395.5 33.5C399.04 33.5 402.05 35.81 403.1 39L405.47 38.22C404.08 34.03 400.15 31 395.5 31Z" fill="white" fill-opacity="0.33"/>
<path d="M450.4 33.6C448.55 31.99 446.15 31 443.5 31C438.85 31 434.92 34.03 433.54 38.22L435.9 39C436.95 35.81 439.95 33.5 443.5 33.5C445.45 33.5 447.23 34.22 448.62 35.38L445 39H454V30L450.4 33.6Z" fill="white" fill-opacity="0.33"/>
<path d="M484 40.2501V44.0001H487.75L498.81 32.9401L495.06 29.1901L484 40.2501ZM501.71 30.0401C502.1 29.6501 502.1 29.0201 501.71 28.6301L499.37 26.2901C498.98 25.9001 498.35 25.9001 497.96 26.2901L496.13 28.1201L499.88 31.8701L501.71 30.0401V30.0401Z" fill="white"/>
<circle cx="540" cy="35" r="11.5" fill="black" stroke="white"/>
<path d="M96.1758 25.7812V35.4492C96.1693 36.7904 95.7461 37.8874 94.9062 38.7402C94.0729 39.5931 92.9401 40.0716 91.5078 40.1758L91.0098 40.1953C89.4538 40.1953 88.2135 39.7754 87.2891 38.9355C86.3646 38.0957 85.8958 36.9401 85.8828 35.4688V25.7812H87.7383V35.4102C87.7383 36.4388 88.0215 37.2396 88.5879 37.8125C89.1543 38.3789 89.9616 38.6621 91.0098 38.6621C92.071 38.6621 92.8815 38.3789 93.4414 37.8125C94.0078 37.2461 94.291 36.4486 94.291 35.4199V25.7812H96.1758ZM100.561 29.4336L100.619 30.7617C101.426 29.7461 102.481 29.2383 103.783 29.2383C106.016 29.2383 107.143 30.498 107.162 33.0176V40H105.355V33.0078C105.349 32.2461 105.173 31.6829 104.828 31.3184C104.49 30.9538 103.959 30.7715 103.236 30.7715C102.65 30.7715 102.136 30.9277 101.693 31.2402C101.251 31.5527 100.906 31.9629 100.658 32.4707V40H98.8516V29.4336H100.561ZM112.338 26.875V29.4336H114.311V30.8301H112.338V37.3828C112.338 37.806 112.426 38.125 112.602 38.3398C112.777 38.5482 113.077 38.6523 113.5 38.6523C113.708 38.6523 113.995 38.6133 114.359 38.5352V40C113.884 40.1302 113.422 40.1953 112.973 40.1953C112.165 40.1953 111.557 39.9512 111.146 39.4629C110.736 38.9746 110.531 38.2812 110.531 37.3828V30.8301H108.607V29.4336H110.531V26.875H112.338ZM118.393 40H116.586V29.4336H118.393V40ZM116.439 26.6309C116.439 26.3379 116.527 26.0905 116.703 25.8887C116.885 25.6868 117.152 25.5859 117.504 25.5859C117.855 25.5859 118.122 25.6868 118.305 25.8887C118.487 26.0905 118.578 26.3379 118.578 26.6309C118.578 26.9238 118.487 27.168 118.305 27.3633C118.122 27.5586 117.855 27.6562 117.504 27.6562C117.152 27.6562 116.885 27.5586 116.703 27.3633C116.527 27.168 116.439 26.9238 116.439 26.6309ZM123.744 26.875V29.4336H125.717V30.8301H123.744V37.3828C123.744 37.806 123.832 38.125 124.008 38.3398C124.184 38.5482 124.483 38.6523 124.906 38.6523C125.115 38.6523 125.401 38.6133 125.766 38.5352V40C125.29 40.1302 124.828 40.1953 124.379 40.1953C123.572 40.1953 122.963 39.9512 122.553 39.4629C122.143 38.9746 121.938 38.2812 121.938 37.3828V30.8301H120.014V29.4336H121.938V26.875H123.744ZM129.799 40H127.992V25H129.799V40ZM137.084 40.1953C135.652 40.1953 134.486 39.7266 133.588 38.7891C132.689 37.8451 132.24 36.5853 132.24 35.0098V34.6777C132.24 33.6296 132.439 32.6953 132.836 31.875C133.24 31.0482 133.799 30.4036 134.516 29.9414C135.238 29.4727 136.02 29.2383 136.859 29.2383C138.233 29.2383 139.301 29.6908 140.062 30.5957C140.824 31.5007 141.205 32.7962 141.205 34.4824V35.2344H134.047C134.073 36.276 134.376 37.1191 134.955 37.7637C135.541 38.4017 136.283 38.7207 137.182 38.7207C137.82 38.7207 138.36 38.5905 138.803 38.3301C139.245 38.0697 139.633 37.7246 139.965 37.2949L141.068 38.1543C140.183 39.515 138.855 40.1953 137.084 40.1953ZM136.859 30.7227C136.13 30.7227 135.518 30.9896 135.023 31.5234C134.529 32.0508 134.223 32.793 134.105 33.75H139.398V33.6133C139.346 32.6953 139.099 31.9857 138.656 31.4844C138.214 30.9766 137.615 30.7227 136.859 30.7227ZM142.865 34.6289C142.865 33.0078 143.249 31.7057 144.018 30.7227C144.786 29.7331 145.792 29.2383 147.035 29.2383C148.272 29.2383 149.252 29.6615 149.975 30.5078V25H151.781V40H150.121L150.033 38.8672C149.311 39.7526 148.305 40.1953 147.016 40.1953C145.792 40.1953 144.792 39.694 144.018 38.6914C143.249 37.6888 142.865 36.3802 142.865 34.7656V34.6289ZM144.672 34.834C144.672 36.0319 144.919 36.9694 145.414 37.6465C145.909 38.3236 146.592 38.6621 147.465 38.6621C148.611 38.6621 149.447 38.1478 149.975 37.1191V32.2656C149.434 31.2695 148.604 30.7715 147.484 30.7715C146.599 30.7715 145.909 31.1133 145.414 31.7969C144.919 32.4805 144.672 33.4928 144.672 34.834ZM170.766 40H168.881L161.723 29.043V40H159.838V25.7812H161.723L168.9 36.7871V25.7812H170.766V40ZM173.334 34.6191C173.334 33.584 173.536 32.653 173.939 31.8262C174.35 30.9993 174.916 30.3613 175.639 29.9121C176.368 29.4629 177.198 29.2383 178.129 29.2383C179.568 29.2383 180.73 29.7363 181.615 30.7324C182.507 31.7285 182.953 33.0534 182.953 34.707V34.834C182.953 35.8626 182.755 36.7871 182.357 37.6074C181.967 38.4212 181.404 39.056 180.668 39.5117C179.939 39.9674 179.099 40.1953 178.148 40.1953C176.716 40.1953 175.554 39.6973 174.662 38.7012C173.777 37.7051 173.334 36.3867 173.334 34.7461V34.6191ZM175.15 34.834C175.15 36.0059 175.421 36.9466 175.961 37.6562C176.508 38.3659 177.237 38.7207 178.148 38.7207C179.066 38.7207 179.796 38.3626 180.336 37.6465C180.876 36.9238 181.146 35.9147 181.146 34.6191C181.146 33.4603 180.87 32.5228 180.316 31.8066C179.77 31.084 179.04 30.7227 178.129 30.7227C177.237 30.7227 176.518 31.0775 175.971 31.7871C175.424 32.4967 175.15 33.5124 175.15 34.834ZM187.67 26.875V29.4336H189.643V30.8301H187.67V37.3828C187.67 37.806 187.758 38.125 187.934 38.3398C188.109 38.5482 188.409 38.6523 188.832 38.6523C189.04 38.6523 189.327 38.6133 189.691 38.5352V40C189.216 40.1302 188.754 40.1953 188.305 40.1953C187.497 40.1953 186.889 39.9512 186.479 39.4629C186.068 38.9746 185.863 38.2812 185.863 37.3828V30.8301H183.939V29.4336H185.863V26.875H187.67ZM196.146 40.1953C194.714 40.1953 193.549 39.7266 192.65 38.7891C191.752 37.8451 191.303 36.5853 191.303 35.0098V34.6777C191.303 33.6296 191.501 32.6953 191.898 31.875C192.302 31.0482 192.862 30.4036 193.578 29.9414C194.301 29.4727 195.082 29.2383 195.922 29.2383C197.296 29.2383 198.363 29.6908 199.125 30.5957C199.887 31.5007 200.268 32.7962 200.268 34.4824V35.2344H193.109C193.135 36.276 193.438 37.1191 194.018 37.7637C194.604 38.4017 195.346 38.7207 196.244 38.7207C196.882 38.7207 197.423 38.5905 197.865 38.3301C198.308 38.0697 198.695 37.7246 199.027 37.2949L200.131 38.1543C199.245 39.515 197.917 40.1953 196.146 40.1953ZM195.922 30.7227C195.193 30.7227 194.581 30.9896 194.086 31.5234C193.591 32.0508 193.285 32.793 193.168 33.75H198.461V33.6133C198.409 32.6953 198.161 31.9857 197.719 31.4844C197.276 30.9766 196.677 30.7227 195.922 30.7227Z" fill="#B2E4ED"/>
<rect x="86" y="49" width="115" height="1" fill="white"/>
<path d="M684.3 40.5H682.665V29.6631L679.387 30.8672V29.3906L684.045 27.6416H684.3V40.5Z" fill="white"/>
<path d="M774 29C775.1 29 776 28.1 776 27C776 25.9 775.1 25 774 25C772.9 25 772 25.9 772 27C772 28.1 772.9 29 774 29ZM774 31C772.9 31 772 31.9 772 33C772 34.1 772.9 35 774 35C775.1 35 776 34.1 776 33C776 31.9 775.1 31 774 31ZM774 37C772.9 37 772 37.9 772 39C772 40.1 772.9 41 774 41C775.1 41 776 40.1 776 39C776 37.9 775.1 37 774 37Z" fill="white"/>
<path d="M730 28L728.59 29.41L733.17 34L728.59 38.59L730 40L736 34L730 28Z" fill="white"/>
<path d="M636.41 29.41L635 28L629 34L635 40L636.41 38.59L631.83 34L636.41 29.41Z" fill="white" fill-opacity="0.33"/>
<path d="M50 32H37.83L43.42 26.41L42 25L34 33L42 41L43.41 39.59L37.83 34H50V32Z" fill="white"/>
<path d="M597 42V28C597 26.9 596.1 26 595 26H581C579.9 26 579 26.9 579 28V42C579 43.1 579.9 44 581 44H595C596.1 44 597 43.1 597 42ZM584.5 36.5L587 39.51L590.5 35L595 41H581L584.5 36.5Z" fill="white"/>
<path d="M27.362 91.866C28.778 91.866 29.9 91.38 30.728 90.408C31.568 89.436 31.988 88.164 31.988 86.592V86.448C31.988 84.948 31.568 83.706 30.728 82.722C29.9 81.726 28.766 81.228 27.326 81.228C25.862 81.228 24.71 81.714 23.87 82.686C23.03 83.658 22.61 84.924 22.61 86.484V86.628C22.61 88.164 23.06 89.424 23.96 90.408C24.872 91.38 26.006 91.866 27.362 91.866ZM27.362 93.162C25.49 93.162 23.96 92.538 22.772 91.29C21.584 90.03 20.99 88.482 20.99 86.646V86.502C20.99 84.642 21.578 83.088 22.754 81.84C23.942 80.592 25.466 79.968 27.326 79.968C29.186 79.968 30.698 80.592 31.862 81.84C33.026 83.076 33.608 84.618 33.608 86.466V86.61C33.608 88.458 33.026 90.012 31.862 91.272C30.698 92.532 29.198 93.162 27.362 93.162ZM36.1378 93V79.086H37.6498V93H36.1378ZM44.2533 93.162C42.9933 93.162 41.9673 92.742 41.1753 91.902C40.3953 91.062 40.0053 89.922 40.0053 88.482V88.338C40.0053 86.898 40.4133 85.722 41.2293 84.81C42.0453 83.886 43.1013 83.424 44.3973 83.424C45.7893 83.424 46.8153 83.982 47.4753 85.098V79.086H48.9693V93H47.4753V91.38C47.1873 91.86 46.7433 92.28 46.1433 92.64C45.5433 92.988 44.9133 93.162 44.2533 93.162ZM44.4153 91.92C45.3393 91.92 46.0893 91.62 46.6653 91.02C47.2413 90.408 47.5293 89.52 47.5293 88.356V88.212C47.5293 87.036 47.2653 86.154 46.7373 85.566C46.2213 84.966 45.4893 84.666 44.5413 84.666C43.6053 84.666 42.8733 84.984 42.3453 85.62C41.8173 86.244 41.5533 87.126 41.5533 88.266V88.41C41.5533 89.55 41.8173 90.42 42.3453 91.02C42.8853 91.62 43.5753 91.92 44.4153 91.92Z" fill="#929292"/>
<defs>
<filter id="filter0_d" x="0" y="0" width="810" height="72" filterUnits="userSpaceOnUse" color-interpolation-filters="sRGB">
<feFlood flood-opacity="0" result="BackgroundImageFix"/>
<feColorMatrix in="SourceAlpha" type="matrix" values="0 0 0 0 0 0 0 0 0 0 0 0 0 0 0 0 0 0 127 0"/>
<feOffset dy="3"/>
<feGaussianBlur stdDeviation="2"/>
<feColorMatrix type="matrix" values="0 0 0 0 0 0 0 0 0 0 0 0 0 0 0 0 0 0 0.18 0"/>
<feBlend mode="normal" in2="BackgroundImageFix" result="effect1_dropShadow"/>
<feBlend mode="normal" in="SourceGraphic" in2="effect1_dropShadow" result="shape"/>
</filter>
</defs>
</svg>
