<svg width="287" height="316" viewBox="0 0 287 316" fill="none" xmlns="http://www.w3.org/2000/svg">
<path fill-rule="evenodd" clip-rule="evenodd" d="M153.578 56.3659C147.663 59.9263 141.852 61.6465 139.124 60.9443C132.284 59.1834 131.655 34.1915 136.948 24.3389C142.24 14.4863 169.449 10.1919 170.82 29.713C171.296 36.4882 168.448 42.5346 164.239 47.4683L171.785 82.5963H149.865L153.578 56.3659Z" fill="#B28B67"/>
<path fill-rule="evenodd" clip-rule="evenodd" d="M127.239 10.6803C127.692 9.08682 128.913 7.72243 130.559 7.31765C130.958 7.21947 131.37 7.17981 131.78 7.19634C131.928 7.20222 131.969 7.24463 132.038 7.14177C132.089 7.06551 132.09 6.87921 132.111 6.78959C132.176 6.51092 132.258 6.23571 132.359 5.96764C132.703 5.05331 133.282 4.24412 133.979 3.56247C135.284 2.28721 137.047 1.4071 138.878 1.24787C139.88 1.16077 140.875 1.32341 141.823 1.64905C142.313 1.81762 142.789 2.02753 143.252 2.2596C143.392 2.32945 143.845 2.67156 143.985 2.6494C144.139 2.62496 144.45 2.24121 144.576 2.14488C146.13 0.954156 148.049 0.486001 149.984 0.500318C152.169 0.516432 154.272 0.625459 156.095 1.95558C156.48 2.23719 156.848 2.54552 157.197 2.87015C157.381 3.04106 157.56 3.21837 157.73 3.40306C157.833 3.51448 157.933 3.62842 158.029 3.74541C158.192 3.944 158.166 4.00924 158.395 3.87068C159.271 3.3386 160.288 3.08976 161.311 3.21538C161.919 3.29002 162.51 3.47225 163.072 3.71211C163.263 3.79376 163.705 4.11946 163.909 4.12263C164.111 4.12575 164.547 3.82383 164.756 3.74709C165.88 3.33249 167.092 3.23029 168.274 3.42187C169.493 3.61956 170.691 4.10538 171.724 4.77673C172.221 5.09968 172.654 5.45749 173.003 5.93769C173.153 6.14502 173.289 6.36433 173.459 6.55656C173.559 6.66912 173.757 6.78462 173.81 6.92707C173.778 6.84177 175.143 6.31605 175.272 6.28244C175.959 6.10338 176.658 6.13969 177.33 6.36061C178.594 6.77605 179.681 7.70769 180.574 8.66287C181.033 9.15349 181.435 9.69581 181.776 10.2736C181.939 10.5503 182.088 10.835 182.225 11.1257C182.291 11.2666 182.335 11.4427 182.422 11.5696C182.535 11.7331 182.61 11.7362 182.814 11.8075C183.848 12.1695 184.791 12.7821 185.51 13.6099C186.236 14.4474 186.707 15.4788 186.905 16.565C186.916 16.6289 186.923 16.8941 186.961 16.9287C187.012 16.9764 187.22 16.9553 187.299 16.9645C187.572 16.9965 187.842 17.044 188.109 17.1071C188.601 17.2234 189.08 17.3946 189.533 17.6186C191.3 18.4914 192.563 20.1279 193.181 21.9692C193.83 23.9016 193.818 26.1155 193.043 28.0119C192.918 28.3181 192.769 28.6154 192.594 28.8967C192.486 29.0693 192.452 29.0698 192.521 29.2509C192.599 29.4524 192.741 29.6483 192.834 29.8452C193.135 30.4878 193.346 31.1693 193.479 31.8654C193.697 33.0072 193.805 34.2072 193.59 35.3577C193.49 35.892 193.316 36.4142 193.05 36.89C192.914 37.1326 192.756 37.3627 192.577 37.5756C192.484 37.6861 192.385 37.7916 192.282 37.8928C192.223 37.9505 192.145 38.0011 192.095 38.0656C191.972 38.2229 191.947 38.0936 192.01 38.3246C192.098 38.6475 192.299 38.9661 192.421 39.2804C192.548 39.6042 192.662 39.9325 192.767 40.264C192.978 40.9353 193.157 41.6188 193.269 42.314C193.484 43.6487 193.446 45.0709 192.814 46.2959C192.544 46.8199 192.156 47.2795 191.686 47.6371C191.456 47.812 191.206 47.9628 190.945 48.0866C190.811 48.1504 190.639 48.1777 190.578 48.3075C190.512 48.4471 190.61 48.7243 190.632 48.8803C190.826 50.2379 190.924 51.6632 190.52 52.9936C190.148 54.219 189.328 55.3008 188.264 56.0171C186.201 57.4066 183.419 57.3283 181.25 56.2159C180.685 55.9259 180.156 55.5659 179.684 55.1412C178.483 56.7562 176.011 56.7051 174.256 56.2449C172.068 55.6716 170.313 54.1526 169.302 52.1569C167.919 53.838 165.017 53.2925 164.059 51.4688C163.824 51.0224 163.685 50.5305 163.616 50.0327C163.58 49.7709 163.603 49.5069 163.576 49.2472C163.541 48.9162 163.32 48.5947 163.193 48.2746C162.945 47.6515 162.791 47.008 162.785 46.336C162.781 45.9851 162.826 45.6432 162.859 45.2951C162.889 44.9818 162.802 44.6899 162.753 44.3807C163.314 44.4729 163.997 44.3219 164.526 44.1594C165.044 44 165.53 43.5801 165.896 43.1967C166.746 42.3062 167.265 41.139 167.62 39.9773C168.4 37.4275 168.08 34.3683 165.513 32.969C164.316 32.3171 160.733 32.3192 159.308 32.6414C157.81 32.9802 156.111 36.2816 156.028 36.5919C155.976 36.7839 156.002 37.0216 155.825 37.1496C155.437 37.431 154.797 36.9427 154.511 36.7017C154.017 36.2858 153.664 35.7324 153.359 35.1714C152.694 33.9494 152.157 32.6388 151.779 31.301C151.487 30.2695 151.3 29.2059 150.918 28.2008C150.538 27.2006 149.94 26.3067 149.009 25.7401C147.996 25.1237 146.835 24.7991 145.724 24.4118C144.622 24.0279 143.539 23.5587 142.685 22.7442C142.497 22.5651 142.314 22.3748 142.163 22.1639C142.044 21.9974 141.926 21.6787 141.744 21.5732C141.461 21.409 141.049 21.836 140.804 21.991C139.598 22.756 138.592 23.8229 137.781 24.9884C136.974 26.1476 136.312 27.2629 135.774 28.5573C135.374 29.5173 135.125 30.7467 134.423 31.5334C134.11 31.8847 131.78 32.0972 131.026 31.7905C130.271 31.4838 129.426 30.6875 129.172 30.1884C128.913 29.6776 128.851 29.1165 128.962 28.5573C129.027 28.2283 129.16 27.921 129.233 27.5978C129.294 27.3264 129.35 27.0698 129.482 26.8212C129.733 26.35 130.161 26.0113 130.678 25.8697C130.14 25.3747 129.695 24.7825 129.387 24.1206C129.066 23.4329 128.795 22.5965 128.718 21.8417C128.655 21.2287 128.752 20.5935 129.088 20.0666C129.441 19.5139 130.065 19.1534 130.605 18.8086C129.78 18.1637 129.074 17.3794 128.493 16.511C127.364 14.8223 126.665 12.6936 127.239 10.6803Z" fill="#191847"/>
<path fill-rule="evenodd" clip-rule="evenodd" d="M231.594 196.619C240.43 196.619 247.594 203.782 247.594 212.619V293.729C247.594 302.566 240.43 309.729 231.594 309.729H129.334C120.497 309.729 113.334 302.566 113.334 293.729V212.619C113.334 203.782 120.497 196.619 129.334 196.619H231.594ZM218.02 222.16C220.23 222.16 222.02 223.951 222.02 226.16V280.188C222.02 282.398 220.23 284.188 218.02 284.188H142.907C140.698 284.188 138.907 282.398 138.907 280.188V226.16C138.907 223.951 140.698 222.16 142.907 222.16H218.02Z" fill="#C5CFD6"/>
<path fill-rule="evenodd" clip-rule="evenodd" d="M71.5846 246.406C68.1876 258.29 59.7246 280.815 48.0222 306.683L36.9021 303.442C46.6306 243.918 54.7272 204.51 59.3649 192.516C62.4291 184.591 85.6113 185.52 82.9444 201.465C81.826 208.152 77.4011 226.057 71.5846 246.406ZM117.291 204.246C135.426 207.998 173.026 221.263 183.763 225.502C190.51 228.166 186.16 237.2 180.404 236.41C179.429 236.276 175.98 235.89 170.834 235.316C154.305 233.469 120.265 229.665 94.4475 225.954C80.8534 224 88.1661 198.569 102.281 201.26C107.029 202.166 112.08 203.168 117.291 204.246Z" fill="#B28B67"/>
<path fill-rule="evenodd" clip-rule="evenodd" d="M58.6514 185.799C60.5054 179.756 144.785 158.307 144.785 158.307H151.691V164.735L93.6152 194.262C93.6924 195.215 93.6451 196.222 93.4577 197.284C93.8771 219.173 84.4969 235.526 75.2098 251.716C69.1366 262.304 63.1032 272.822 59.8761 284.773L38.5391 281.594C39.1606 280.007 40.1435 272.848 41.4872 263.061C44.8755 238.383 50.5585 196.992 58.5314 186.041C58.5592 186.002 58.5875 185.964 58.6164 185.927C58.6266 185.884 58.6383 185.841 58.6514 185.799Z" fill="#1F28CF"/>
<path fill-rule="evenodd" clip-rule="evenodd" d="M146.868 211.798C152.181 210.736 157.075 209.788 161.262 209.054C188.309 204.316 196.196 189.856 191.533 158.307H141.699C133.559 160.643 91.254 178.362 69.3043 187.786C54.7769 194.023 59.3562 216.508 67.5831 222.36C67.6277 222.719 67.7758 222.963 68.0395 223.072C99.2306 235.984 125.829 235.02 142.909 234.402C150.063 234.143 155.547 233.944 158.999 234.85L164.409 217.808L146.868 211.798Z" fill="#2B44FF"/>
<path fill-rule="evenodd" clip-rule="evenodd" d="M178.056 224.81C178.108 223.64 179.095 222.703 180.26 222.831C182.192 223.042 184.918 223.441 186.266 224.098C188.487 225.179 192.386 227.993 192.386 227.993C191.129 230.566 169.804 274.235 169.804 274.235C169.804 274.235 162.957 273.131 164.378 269.016C165.799 264.901 166.67 262.145 166.67 262.145L167.569 236.07C167.588 235.507 168.069 235.071 168.632 235.106L172.572 235.353C172.572 235.353 176.007 232.576 177.105 230.329C177.75 229.009 177.978 226.585 178.056 224.81Z" fill="#E4E4E4"/>
<path fill-rule="evenodd" clip-rule="evenodd" d="M50.643 300.942C51.7164 300.476 52.9895 300.951 53.3853 302.053C54.0421 303.88 54.8789 306.503 54.8789 308.002C54.8789 310.469 54.0558 315.203 54.0558 315.203C51.1898 315.203 2.5421 315.203 2.5421 315.203C2.5421 315.203 0.534119 308.573 4.86036 308.044C9.1866 307.515 12.0481 307.089 12.0481 307.089L35.9104 296.465C36.4248 296.236 37.0267 296.476 37.2415 296.997L38.7465 300.643C38.7465 300.643 42.7515 302.509 45.2554 302.509C46.7273 302.509 49.0107 301.65 50.643 300.942Z" fill="#E4E4E4"/>
<path fill-rule="evenodd" clip-rule="evenodd" d="M72.8048 169.032L98.6777 143.824L107.271 158.674L80.3667 174.517C73.6207 185.13 69.6586 189.716 68.4805 188.274C67.4872 187.058 67.9425 185.726 68.3618 184.499C68.6885 183.543 68.9934 182.651 68.5747 181.927C67.6185 180.275 62.2169 181.221 57.1294 182.338C52.0419 183.455 53.2191 180.959 54.3004 179.656C59.1087 175.781 65.2768 172.239 72.8048 169.032ZM225.308 205.657C222.632 200.234 213.517 147.379 213.517 147.379L194.431 147.454C194.431 147.454 212.108 204.448 213.517 207.935C215.347 212.465 212.239 219.047 210.13 223.51C209.804 224.201 209.502 224.84 209.246 225.414C212.171 226.721 213.576 225.141 215.057 223.475C216.731 221.594 218.501 219.603 222.669 221.539C224.279 222.287 225.803 223.172 227.291 224.036C232.433 227.021 237.157 229.764 243.583 225.804C244.602 225.176 245.718 222.812 243.021 220.965C236.301 216.363 226.617 208.308 225.308 205.657Z" fill="#B28B67"/>
<path fill-rule="evenodd" clip-rule="evenodd" d="M159.279 67.3921L151.381 66.0392C137.784 99.9634 114.045 130.788 80.1632 158.513L105.766 189.578C139.643 150.102 160.526 109.373 159.279 67.3921Z" fill="#191847"/>
<path fill-rule="evenodd" clip-rule="evenodd" d="M193.707 166.517H123.38C123.38 166.517 147.82 107.168 147.82 65.6851L169.034 62.5283C185.706 89.3085 190.415 122.28 193.707 166.517Z" fill="#DDE3E9"/>
<path fill-rule="evenodd" clip-rule="evenodd" d="M225.672 196.619C217.981 109.958 169.498 62.5283 169.498 62.5283L169.481 62.5433C169.479 62.5383 169.476 62.5333 169.473 62.5283H168.088C165.603 62.6138 160.517 62.8363 160.517 62.8363L155.391 77.467C154.577 104.224 145.891 185.313 145.891 185.313H191.924C191.846 189.031 191.673 192.802 191.394 196.619H225.672Z" fill="#2F3676"/>
<path fill-rule="evenodd" clip-rule="evenodd" d="M191.92 185.673C192.287 169.482 190.849 154.279 188.45 140.522C187.195 156.847 184.572 176.49 179.095 185.673H191.92Z" fill="black" fill-opacity="0.1"/>
<path fill-rule="evenodd" clip-rule="evenodd" d="M181.73 157.395L158.998 146.841V157.395H181.73Z" fill="white" fill-opacity="0.2"/>
</svg>
