<svg width="496" height="81" viewBox="0 0 496 81" fill="none" xmlns="http://www.w3.org/2000/svg">
<path d="M31.445 64.2296C25.6311 64.2296 20.3204 62.86 15.5128 60.1208C10.7053 57.3257 6.90391 53.5523 4.10881 48.8006C1.3696 43.993 0 38.6823 0 32.8685C0 27.0547 1.3696 21.7719 4.10881 17.0203C6.90391 12.2127 10.7053 8.43928 15.5128 5.70008C20.3204 2.90497 25.6311 1.50742 31.445 1.50742C40.5011 1.50742 47.992 4.77769 53.9176 11.3182L45.9515 19.0327C42.0943 14.5047 37.2867 12.2406 31.5288 12.2406C27.7834 12.2406 24.3733 13.1071 21.2987 14.8401C18.2241 16.5171 15.7924 18.9209 14.0035 22.0515C12.2705 25.182 11.404 28.7877 11.404 32.8685C11.404 36.9494 12.2705 40.5551 14.0035 43.6856C15.7924 46.8161 18.2241 49.2478 21.2987 50.9808C24.3733 52.6579 27.7834 53.4964 31.5288 53.4964C37.8457 53.4964 43.1285 50.869 47.3771 45.6142L55.427 53.2448C52.4641 56.8226 48.9423 59.5618 44.8615 61.4625C40.8365 63.3072 36.3643 64.2296 31.445 64.2296Z" fill="#45464D"/>
<path d="M113.532 20.1228H123.846V25.4894H124.517C125.858 23.4211 127.647 21.7999 129.883 20.6259C132.175 19.3961 134.719 18.7812 137.514 18.7812C140.533 18.7812 143.16 19.5079 145.396 20.9614C147.632 22.3589 149.226 24.1478 150.176 26.328C151.573 24.0919 153.474 22.2751 155.878 20.8775C158.338 19.48 161.216 18.7812 164.515 18.7812C169.378 18.7812 173.068 20.2905 175.583 23.3092C178.155 26.2721 179.441 30.297 179.441 35.3841V62.888H168.54V37.3966C168.54 34.7133 167.897 32.6449 166.611 31.1914C165.381 29.738 163.648 29.0113 161.412 29.0113C158.561 29.0113 156.269 30.1573 154.536 32.4492C152.859 34.6853 152.021 37.6481 152.021 41.3377V62.888H141.036V37.3966C141.036 34.7133 140.365 32.6449 139.023 31.1914C137.738 29.738 135.893 29.0113 133.489 29.0113C130.806 29.0113 128.626 30.1573 126.948 32.4492C125.327 34.6853 124.517 37.6481 124.517 41.3377V62.888H113.532V20.1228Z" fill="#45464D"/>
<path d="M209.974 64.2296C205.726 64.2296 201.896 63.2513 198.486 61.2947C195.076 59.3382 192.393 56.6549 190.436 53.2448C188.536 49.7789 187.585 45.8937 187.585 41.5892C187.585 37.5084 188.536 33.735 190.436 30.2691C192.337 26.7472 194.965 23.9521 198.319 21.8837C201.673 19.8154 205.418 18.7812 209.555 18.7812C213.971 18.7812 217.773 19.7315 220.959 21.6322C224.145 23.5329 226.549 26.1323 228.17 29.4305C229.848 32.7288 230.686 36.3903 230.686 40.4153C230.686 41.7011 230.602 42.9309 230.434 44.1048H198.319C198.878 47.5149 200.219 50.1143 202.344 51.9032C204.524 53.6362 207.123 54.5026 210.142 54.5026C212.658 54.5026 214.81 53.9716 216.599 52.9094C218.443 51.7914 219.897 50.31 220.959 48.4652L229.848 52.8256C225.487 60.4283 218.863 64.2296 209.974 64.2296ZM220.121 36.3065C220.009 34.9648 219.506 33.6511 218.611 32.3654C217.773 31.0237 216.571 29.9337 215.005 29.0951C213.496 28.2007 211.707 27.7535 209.639 27.7535C207.011 27.7535 204.747 28.5361 202.847 30.1014C201.002 31.6107 199.66 33.6791 198.822 36.3065H220.121Z" fill="#45464D"/>
<path d="M275.884 64.2296C270.629 64.2296 265.99 62.7482 261.965 59.7854C257.94 56.8226 255.117 52.6299 253.495 47.2074L264.145 43.0147C264.983 46.2012 266.409 48.7447 268.421 50.6454C270.434 52.5461 272.949 53.4964 275.968 53.4964C278.484 53.4964 280.636 52.8815 282.425 51.6516C284.214 50.3659 285.108 48.605 285.108 46.3689C285.108 44.1328 284.242 42.316 282.509 40.9184C280.832 39.465 277.813 37.9277 273.452 36.3065L269.763 34.9648C265.906 33.6232 262.607 31.5828 259.868 28.8436C257.129 26.0485 255.759 22.5546 255.759 18.3619C255.759 15.2314 256.57 12.3804 258.191 9.80889C259.812 7.23739 262.104 5.22491 265.067 3.77146C268.03 2.2621 271.384 1.50742 275.13 1.50742C280.552 1.50742 284.829 2.79317 287.959 5.36466C291.09 7.88026 293.242 10.8431 294.416 14.2531L284.437 18.4458C283.822 16.601 282.732 15.0637 281.167 13.8338C279.658 12.5481 277.701 11.9052 275.297 11.9052C272.838 11.9052 270.797 12.4922 269.176 13.6661C267.611 14.7842 266.828 16.2656 266.828 18.1104C266.828 19.8992 267.583 21.4365 269.092 22.7223C270.601 23.9521 273.089 25.154 276.555 26.328L280.328 27.5858C285.527 29.3746 289.496 31.7505 292.236 34.7133C295.031 37.6202 296.428 41.4495 296.428 46.2012C296.428 50.1143 295.422 53.4405 293.41 56.1797C291.397 58.863 288.798 60.8755 285.611 62.2171C282.481 63.5588 279.238 64.2296 275.884 64.2296Z" fill="#45464D"/>
<path d="M365.158 60.8755L347.13 20.1228H359.624L370.693 46.7043H371.363L382.013 20.1228H394.255L367.842 81.0002H356.018L365.158 60.8755Z" fill="#45464D"/>
<path d="M421.466 2.84907H432.786V26.8311H458.026V2.84907H469.346V62.888H458.026V37.5643H432.786V62.888H421.466V2.84907Z" fill="#45464D"/>
<path d="M487.823 15.427C485.867 15.427 484.189 14.7283 482.792 13.3307C481.394 11.9332 480.696 10.2561 480.696 8.29953C480.696 6.34295 481.394 4.69384 482.792 3.35219C484.189 1.95464 485.867 1.25586 487.823 1.25586C489.78 1.25586 491.429 1.95464 492.77 3.35219C494.168 4.69384 494.867 6.34295 494.867 8.29953C494.867 10.2561 494.168 11.9332 492.77 13.3307C491.429 14.7283 489.78 15.427 487.823 15.427ZM482.289 20.1228H493.274V62.888H482.289V20.1228Z" fill="#45464D"/>
<circle cx="83.295" cy="42.1973" r="21.795" fill="#61C4EE"/>
<circle cx="487.615" cy="8.15239" r="8.15239" fill="#5FD58E"/>
<path d="M340 44C340 54.4934 331.493 63 321 63C310.507 63 302 54.4934 302 44C302 33.5066 310.507 25 321 25C326.822 25 340 25.001 340 25.001C340 25.001 340 39.3284 340 44Z" fill="#FAB752"/>
</svg>
