<svg width="91" height="89" viewBox="0 0 91 89" fill="none" xmlns="http://www.w3.org/2000/svg">
<path d="M91 43C91 67.8528 69.8528 89 45 89C20.1472 89 0 72.8528 0 48C0 23.1472 13.1472 0 38 0C62.8528 0 91 18.1472 91 43Z" fill="#F75129"/>
<path fill-rule="evenodd" clip-rule="evenodd" d="M30.255 35C29.0096 35 28 36.0096 28 37.255V58.8385C28 60.0839 29.0096 61.0935 30.255 61.0935H60.5364C61.7818 61.0935 62.7914 60.0839 62.7914 58.8385V37.255C62.7914 36.0096 61.7818 35 60.5364 35H30.255ZM31.3809 37.5781H59.4086C60.043 37.5781 60.2955 38.3984 59.7709 38.7551L46.3005 47.915C45.7539 48.2867 45.0357 48.2867 44.489 47.915L31.0186 38.7551C30.494 38.3984 30.7465 37.5781 31.3809 37.5781Z" fill="white"/>
</svg>
