<?xml version="1.0" encoding="UTF-8"?>
<svg width="34px" height="46px" viewBox="0 0 34 46" version="1.1" xmlns="http://www.w3.org/2000/svg" xmlns:xlink="http://www.w3.org/1999/xlink">
    <!-- Generator: Sketch 52 (66869) - http://www.bohemiancoding.com/sketch -->
    <title>Shape</title>
    <desc>Created with Sketch.</desc>
    <g id="Welcome" stroke="none" stroke-width="1" fill="none" fill-rule="evenodd">
        <g id="Desktop-HD-Copy-8" transform="translate(-398.000000, -1006.000000)" fill="#DDBA0E" fill-rule="nonzero">
            <path d="M415.247307,1013.31429 C408.364684,1013.31429 402.657143,1019.02183 402.657143,1026.03035 C402.657143,1030.31101 404.335831,1033.75232 407.693208,1036.06052 L407.693208,1040.1733 C407.693208,1040.63494 407.986979,1041.09658 408.322717,1041.39035 C408.616487,1041.68412 409.078126,1041.85199 409.497799,1041.85199 L409.665667,1041.85199 L421.206651,1040.92871 C422.087963,1040.84478 422.843372,1040.13133 422.843372,1039.25002 L422.843372,1036.10248 C425.781077,1033.96215 427.879438,1030.26904 427.879438,1026.03035 C427.837471,1019.02183 422.12993,1013.31429 415.247307,1013.31429 Z M420.283372,1033.66838 C419.737799,1033.96215 419.444028,1034.5497 419.444028,1035.13724 L419.444028,1037.69724 L411.050585,1038.36871 L411.050585,1035.13724 C411.050585,1034.5497 410.798782,1034.00412 410.295176,1033.66838 C407.399438,1031.9897 406.056487,1029.47166 406.056487,1026.03035 C406.01452,1020.86838 410.169274,1016.67166 415.247307,1016.67166 C420.32534,1016.67166 424.480094,1020.86838 424.480094,1026.03035 C424.438126,1029.38773 422.927307,1032.2415 420.283372,1033.66838 Z M422.633536,1044.49593 C422.717471,1045.4192 422.004028,1046.21658 421.080749,1046.30052 L409.6237,1047.13986 L409.497799,1047.13986 C408.616487,1047.13986 407.903044,1046.46838 407.81911,1045.58707 C407.735176,1044.66379 408.448618,1043.86642 409.371897,1043.78248 L420.828946,1042.94314 C421.794192,1042.8592 422.591569,1043.57265 422.633536,1044.49593 Z M418.982389,1049.78379 C419.066323,1050.70707 418.352881,1051.50445 417.429602,1051.58838 L413.316815,1051.92412 L413.190913,1051.92412 C412.309602,1051.92412 411.596159,1051.25265 411.512225,1050.37133 C411.42829,1049.44806 412.141733,1048.65068 413.065012,1048.56674 L417.219766,1048.23101 C418.143044,1048.18904 418.940422,1048.86052 418.982389,1049.78379 Z M421.463188,1006.54998 C422.011874,1006.7695 422.258293,1007.40547 422.038773,1007.95415 L421.03924,1010.38725 L421.002805,1010.45876 C420.747758,1010.95932 420.159912,1011.17021 419.635063,1010.96284 C419.086378,1010.74332 418.839959,1010.10735 419.059479,1009.55866 L420.071156,1007.10172 C420.314513,1006.56518 420.926648,1006.30662 421.463188,1006.54998 Z M407.991767,1006.43373 C408.564694,1006.28882 409.137866,1006.65849 409.28278,1007.23141 L409.904282,1009.78735 L409.916837,1009.86661 C410.004721,1010.42149 409.653103,1010.93763 409.106599,1011.07836 C408.533673,1011.22327 407.960501,1010.8536 407.815587,1010.28067 L407.189899,1007.69832 C407.071408,1007.12121 407.414656,1006.55222 407.991767,1006.43373 Z M398.430506,1013.42098 C398.839583,1012.99448 399.521556,1013.00425 399.948054,1013.41332 L401.829556,1015.25153 L401.882209,1015.3121 C402.250776,1015.73609 402.226102,1016.36013 401.837215,1016.76908 C401.428138,1017.19558 400.746165,1017.18581 400.319667,1016.77674 L398.420614,1014.91834 C398.014306,1014.49171 398.003879,1013.82729 398.430506,1013.42098 Z M431.427774,1013.40766 C431.832279,1013.8385 431.786838,1014.51902 431.356,1014.92353 L429.421843,1016.70625 L429.3586,1016.75566 C428.915903,1017.10153 428.294008,1017.04423 427.905974,1016.63447 C427.501469,1016.20363 427.54691,1015.52311 427.977748,1015.1186 L429.932986,1013.31941 C430.380294,1012.93599 431.044351,1012.96035 431.427774,1013.40766 Z" id="Shape"></path>
        </g>
    </g>
</svg>