<?xml version="1.0" standalone="no"?>
<!DOCTYPE svg PUBLIC "-//W3C//DTD SVG 20010904//EN"
 "http://www.w3.org/TR/2001/REC-SVG-20010904/DTD/svg10.dtd">
<svg version="1.0" xmlns="http://www.w3.org/2000/svg"
 width="142.000000pt" height="142.000000pt" viewBox="0 0 142.000000 142.000000"
 preserveAspectRatio="xMidYMid meet">
<metadata>
Created by potrace 1.11, written by Peter Selinger 2001-2013
</metadata>
<g transform="translate(0.000000,142.000000) scale(0.100000,-0.100000)"
fill="#000000" stroke="none">
<path d="M460 1406 c-204 -55 -346 -251 -327 -452 7 -77 43 -168 88 -227 59
-78 179 -155 221 -141 13 4 18 2 14 -4 -3 -6 8 -9 28 -8 19 1 32 -2 30 -6 -3
-5 6 -8 20 -8 14 0 26 4 26 10 0 5 -8 7 -17 4 -15 -5 -16 -4 -3 5 11 8 18 7
27 -5 8 -11 21 -14 43 -10 18 2 33 6 35 8 11 11 7 58 -5 74 -9 10 -10 15 -2
10 8 -5 12 1 12 19 0 18 -4 24 -12 19 -10 -6 -10 -5 -1 7 16 20 21 91 5 97 -6
2 -12 8 -12 13 0 6 5 7 11 3 7 -4 10 4 9 22 -5 76 -1 92 30 106 17 7 30 16 30
19 0 3 11 5 25 4 14 -2 25 1 25 7 0 6 -7 7 -16 4 -8 -3 -12 -2 -9 4 8 13 35
13 35 0 0 -12 83 -1 91 12 4 6 9 5 12 -3 5 -11 8 -11 16 3 7 10 19 14 33 10
14 -3 19 -1 14 6 -3 6 3 16 14 22 13 7 20 7 20 0 0 -5 -7 -10 -15 -10 -8 0
-14 -6 -13 -12 2 -8 -7 -13 -20 -12 -12 0 -21 -4 -19 -9 5 -17 70 -14 75 3 5
13 3 13 -14 0 -18 -14 -18 -14 -5 2 15 20 33 14 29 -9 -2 -9 3 -18 10 -20 7
-3 12 5 12 21 0 14 -4 26 -10 26 -5 0 -10 8 -10 18 0 14 2 15 10 2 8 -12 10
-10 10 8 0 20 -4 22 -22 17 -23 -7 -23 -7 -3 8 20 15 20 16 1 69 -33 95 -118
193 -205 237 -93 48 -226 63 -321 37z m250 -308 c0 -4 -9 -7 -20 -5 -29 5 -33
13 -5 13 14 0 25 -4 25 -8z m40 2 c0 -5 -4 -10 -10 -10 -5 0 -10 5 -10 10 0 6
5 10 10 10 6 0 10 -4 10 -10z m40 0 c0 -5 -4 -10 -10 -10 -5 0 -10 5 -10 10 0
6 5 10 10 10 6 0 10 -4 10 -10z m40 6 c0 -2 -7 -7 -16 -10 -8 -3 -12 -2 -9 4
6 10 25 14 25 6z m66 -8 c-9 -5 -23 -5 -32 0 -12 6 -7 9 16 9 23 0 28 -3 16
-9z m59 2 c3 -6 -1 -7 -9 -4 -18 7 -21 14 -7 14 6 0 13 -4 16 -10z m31 -7 c-2
-9 -8 -18 -15 -19 -6 -1 -7 0 -2 2 6 3 7 12 4 20 -3 8 -1 14 5 14 6 0 9 -8 8
-17z m-123 -21 c-2 -6 6 -12 17 -12 11 0 19 6 18 13 -2 7 7 12 20 12 12 0 22
-4 21 -9 0 -5 5 -13 13 -18 10 -8 10 -9 -2 -5 -8 2 -14 10 -12 16 1 6 -7 11
-18 11 -11 0 -19 -6 -17 -12 1 -8 -8 -13 -23 -13 -15 0 -24 5 -22 13 1 6 -7
12 -18 12 -11 0 -19 -6 -17 -12 1 -7 -4 -13 -12 -13 -8 0 -15 6 -17 13 -1 7 0
8 3 2 5 -12 24 -14 22 -2 -3 18 3 23 24 20 12 -2 21 -9 20 -16z m-181 -28 c-8
-15 -9 -15 -15 0 -4 10 -3 15 3 11 6 -3 10 2 11 12 0 10 3 13 5 6 3 -7 1 -20
-4 -29z m48 26 c0 -5 -4 -10 -10 -10 -5 0 -10 5 -10 10 0 6 5 10 10 10 6 0 10
-4 10 -10z m34 -5 c3 -8 1 -15 -4 -15 -6 0 -10 7 -10 15 0 8 2 15 4 15 2 0 6
-7 10 -15z m-12 -38 c6 -11 5 -17 -2 -17 -5 0 -10 6 -10 13 0 7 -9 13 -20 13
-14 0 -18 -5 -15 -17 7 -20 -10 -34 -21 -18 -5 8 -3 9 6 4 10 -6 12 -4 7 9 -4
10 -5 21 -2 25 8 14 47 5 57 -12z m71 -20 c-4 -6 0 -8 10 -4 10 3 17 2 17 -4
0 -6 -8 -9 -17 -7 -10 2 -17 9 -16 14 1 6 -7 16 -18 22 -17 11 -20 10 -17 -5
2 -10 10 -24 18 -31 13 -11 12 -12 -6 -3 -18 9 -25 37 -15 59 0 1 12 -5 26
-14 14 -9 22 -21 18 -27z m27 33 c0 -5 -4 -10 -10 -10 -5 0 -10 5 -10 10 0 6
5 10 10 10 6 0 10 -4 10 -10z m80 0 c0 -5 -4 -10 -10 -10 -5 0 -10 5 -10 10 0
6 5 10 10 10 6 0 10 -4 10 -10z m-30 -14 c0 -3 -4 -8 -10 -11 -5 -3 -10 -1
-10 4 0 6 5 11 10 11 6 0 10 -2 10 -4z m-213 -55 c-5 -2 -13 3 -18 10 -15 24
-10 30 9 12 10 -10 14 -20 9 -22z m34 16 c-10 -9 -11 -8 -5 6 3 10 9 15 12 12
3 -3 0 -11 -7 -18z m-98 -134 c-5 -12 -3 -14 7 -8 9 5 11 4 6 -4 -4 -6 -12 -9
-17 -6 -12 8 -12 35 1 35 5 0 6 -7 3 -17z m-40 -14 c-8 -8 -13 -7 -18 2 -5 8
-4 10 3 5 7 -4 12 -2 12 5 0 7 3 9 7 6 4 -4 2 -12 -4 -18z m27 -24 c0 -8 -2
-15 -4 -15 -2 0 -6 7 -10 15 -3 8 -1 15 4 15 6 0 10 -7 10 -15z m-39 -15 c6 0
7 5 3 12 -4 7 -3 8 5 4 6 -4 9 -12 6 -17 -7 -10 -41 -7 -52 6 -5 4 -2 5 5 1 7
-4 12 -2 13 6 0 10 2 10 6 1 2 -7 9 -13 14 -13z m-43 -25 c-3 -3 -9 2 -12 12
-6 14 -5 15 5 6 7 -7 10 -15 7 -18z m99 9 c-2 -3 -17 -7 -33 -10 -17 -2 -24
-1 -17 4 13 8 58 14 50 6z m-61 -32 c1 -7 0 -8 -3 -2 -2 5 -9 10 -14 10 -6 0
-7 -5 -3 -12 4 -7 3 -8 -5 -4 -14 9 -4 29 12 23 6 -2 12 -9 13 -15z m69 10
c-15 -11 -19 -46 -4 -36 8 4 10 3 5 -5 -16 -26 -28 7 -17 47 1 1 7 2 14 2 7 0
8 -3 2 -8z m-111 -17 c3 -8 1 -15 -4 -15 -6 0 -10 7 -10 15 0 8 2 15 4 15 2 0
6 -7 10 -15z m73 -7 c-3 -8 -6 -5 -6 6 -1 11 2 17 5 13 3 -3 4 -12 1 -19z
m-90 -39 c-1 -11 -11 -25 -22 -30 -17 -9 -18 -8 -5 3 8 7 17 22 18 33 3 16 1
18 -9 8 -7 -7 -17 -13 -23 -13 -5 0 -1 6 9 14 24 17 34 12 32 -15z m81 13 c2
-7 9 -9 14 -6 7 4 8 2 4 -4 -10 -16 -26 -15 -26 1 0 7 -9 13 -20 13 -14 0 -18
-5 -15 -17 7 -20 -10 -34 -21 -18 -5 8 -3 9 6 4 10 -6 12 -4 7 9 -4 10 -5 21
-2 25 7 12 48 6 53 -7z m-22 -48 c-3 -15 -8 -29 -11 -32 -3 -3 -3 5 -1 19 2
13 5 27 5 32 1 4 3 7 6 7 3 0 3 -12 1 -26z m69 8 c-3 -3 -11 0 -18 7 -9 10 -8
11 6 5 10 -3 15 -9 12 -12z m-95 -18 c0 -2 -7 -4 -15 -4 -8 0 -15 4 -15 10 0
5 7 7 15 4 8 -4 15 -8 15 -10z m67 10 c-3 -3 -12 -4 -19 -1 -8 3 -5 6 6 6 11
1 17 -2 13 -5z m-105 -39 c-2 -15 3 -21 18 -22 18 -2 19 1 10 13 -8 8 -8 14
-2 14 13 0 24 -28 13 -34 -17 -11 -46 2 -46 20 0 10 -9 22 -20 26 -17 6 -16 7
5 5 19 -2 24 -7 22 -22z m120 6 c-2 -9 3 -11 15 -7 14 6 15 4 6 -5 -12 -12
-37 -3 -28 11 3 5 -4 8 -15 7 -14 -1 -18 -6 -15 -18 7 -20 -10 -35 -21 -18 -5
8 -3 9 6 4 10 -6 12 -4 7 9 -9 24 -2 34 25 32 13 -1 22 -7 20 -15z m-157 -11
c-3 -5 -11 -10 -16 -10 -6 0 -7 5 -4 10 3 6 11 10 16 10 6 0 7 -4 4 -10z m19
-26 c3 -8 2 -12 -4 -9 -6 3 -10 10 -10 16 0 14 7 11 14 -7z m117 -11 c-12 -20
-14 -14 -5 12 4 9 9 14 11 11 3 -2 0 -13 -6 -23z"/>
<path d="M790 870 c0 -5 5 -12 10 -15 6 -3 10 -11 10 -17 0 -5 -9 0 -19 13
-22 28 -31 23 -34 -17 -1 -19 3 -29 12 -29 18 0 26 -21 12 -30 -7 -4 -8 0 -4
11 4 11 2 15 -4 11 -19 -12 -23 -47 -5 -47 13 0 12 -3 -4 -16 -15 -12 -16 -15
-2 -10 15 4 48 -30 48 -51 0 -4 -9 5 -19 21 -19 28 -19 28 -31 7 -10 -19 -9
-22 7 -19 13 2 18 -4 20 -22 1 -23 1 -23 -4 -2 -4 19 -7 21 -19 11 -11 -9 -12
-14 -3 -19 8 -6 8 -13 0 -28 -7 -14 -8 -23 -1 -27 6 -4 7 -12 3 -18 -4 -6 -7
-27 -6 -45 0 -20 -5 -36 -13 -39 -8 -3 -11 -10 -7 -16 3 -6 1 -7 -6 -3 -17 11
-53 -3 -44 -17 4 -7 -2 -5 -12 3 -14 11 -17 11 -11 1 7 -10 3 -11 -15 -6 -22
7 -23 7 -9 -11 13 -18 13 -18 -5 -2 -17 16 -19 16 -31 0 -8 -9 -14 -12 -14 -5
0 7 -23 11 -65 12 -49 0 -64 -3 -59 -12 4 -7 -3 -2 -15 11 -13 13 -28 21 -34
19 -15 -5 -18 -39 -4 -56 10 -12 9 -13 -2 -6 -9 5 -12 4 -7 -3 4 -6 9 -30 11
-54 7 -61 50 -142 109 -202 173 -177 455 -178 629 -2 133 136 162 319 77 492
-47 96 -150 192 -227 210 -15 4 -32 9 -38 12 -11 7 -24 9 -112 16 -35 3 -63 1
-63 -4z m50 -10 c0 -5 -4 -10 -10 -10 -5 0 -10 5 -10 10 0 6 5 10 10 10 6 0
10 -4 10 -10z m26 -5 c-3 -9 0 -15 9 -15 8 0 15 -5 15 -10 0 -7 -6 -7 -20 0
-16 9 -19 40 -3 40 3 0 3 -7 -1 -15z m-63 -45 c-3 -3 -10 3 -17 12 -7 10 -17
14 -21 10 -5 -4 -5 -1 -1 6 6 11 12 10 26 -5 9 -10 15 -20 13 -23z m167 29
c12 -8 10 -9 -9 -4 -13 4 -21 3 -18 -2 3 -5 1 -15 -4 -23 -7 -11 -8 -8 -5 10
3 14 5 26 5 28 2 5 17 1 31 -9z m-53 -21 c-3 -8 -6 -5 -6 6 -1 11 2 17 5 13 3
-3 4 -12 1 -19z m-67 2 c0 -5 -7 -7 -15 -4 -8 4 -15 8 -15 10 0 2 7 4 15 4 8
0 15 -4 15 -10z m116 -20 c0 -12 -4 -16 -9 -11 -5 5 -6 14 -3 20 10 15 12 14
12 -9z m-141 0 c-3 -5 0 -10 7 -11 10 0 10 -2 1 -6 -7 -2 -13 -9 -13 -14 0 -6
4 -8 9 -4 5 3 12 1 15 -4 4 -5 -2 -8 -11 -7 -21 3 -27 56 -7 56 3 0 2 -4 -1
-10z m80 -20 c0 -17 -7 -24 -25 -27 -18 -2 -21 -1 -10 6 8 5 18 7 22 5 4 -3 8
3 8 13 0 11 -8 19 -19 20 -14 1 -18 -3 -14 -13 3 -8 1 -14 -5 -14 -8 0 -9 17
-3 37 1 2 11 1 24 -1 15 -2 22 -10 22 -26z m53 -13 c17 6 15 -4 -3 -11 -9 -3
-19 3 -25 17 -10 19 -9 20 2 6 7 -9 19 -14 26 -12z m-152 -33 c3 -16 2 -26 -1
-23 -3 4 -8 19 -11 35 -3 16 -2 26 1 23 3 -4 8 -19 11 -35z m118 1 c-4 -8 -8
-15 -10 -15 -2 0 -4 7 -4 15 0 8 4 15 10 15 5 0 7 -7 4 -15z m-77 -1 c-3 -3
-12 -4 -19 -1 -8 3 -5 6 6 6 11 1 17 -2 13 -5z m43 -4 c0 -5 -6 -10 -14 -10
-16 0 -16 -31 -1 -43 6 -5 4 -7 -4 -5 -20 6 -21 47 -2 58 20 12 21 12 21 0z
m-50 -30 c0 -5 -4 -10 -10 -10 -5 0 -10 5 -10 10 0 6 5 10 10 10 6 0 10 -4 10
-10z m70 0 c0 -5 -4 -10 -10 -10 -5 0 -10 5 -10 10 0 6 5 10 10 10 6 0 10 -4
10 -10z m-60 -40 c0 -5 -8 -10 -17 -10 -15 0 -16 2 -3 10 19 12 20 12 20 0z
m55 -10 c4 -6 -1 -7 -11 -3 -12 4 -15 3 -10 -5 5 -8 2 -10 -9 -6 -10 4 -15 2
-13 -7 2 -9 -5 -13 -20 -12 -13 2 -21 -1 -17 -7 8 -13 -20 -24 -41 -16 -13 5
-13 9 3 30 10 13 20 22 22 20 2 -2 -4 -13 -14 -24 -18 -19 -17 -20 3 -20 12 0
21 6 20 13 -2 7 6 11 20 10 13 -2 21 1 17 6 -3 6 3 14 12 20 23 13 30 13 38 1z
m-45 -64 c0 -2 -7 -6 -15 -10 -8 -3 -15 -1 -15 4 0 6 7 10 15 10 8 0 15 -2 15
-4z m-45 -24 c-3 -3 -11 0 -18 7 -9 10 -8 11 6 5 10 -3 15 -9 12 -12z m-32 1
c3 -5 0 -17 -4 -28 -9 -19 -9 -19 -5 2 2 12 -1 24 -8 27 -8 3 -8 5 1 5 6 1 14
-2 16 -6z m-362 -126 c-10 -9 -11 -8 -5 6 3 10 9 15 12 12 3 -3 0 -11 -7 -18z
m299 10 c-8 -7 -17 -21 -18 -31 -3 -18 -2 -19 15 -5 16 13 17 13 4 -3 -7 -10
-17 -15 -22 -12 -13 7 -5 44 12 55 20 13 27 10 9 -4z m40 -1 c0 -2 -7 -7 -16
-10 -8 -3 -12 -2 -9 4 6 10 25 14 25 6z m-233 -12 c-3 -3 -12 -4 -19 -1 -8 3
-5 6 6 6 11 1 17 -2 13 -5z m19 -30 c-3 -9 -11 -12 -18 -8 -7 5 -9 2 -6 -8 4
-8 2 -21 -3 -29 -5 -9 -7 -4 -5 16 1 17 8 29 14 28 7 -2 12 7 13 20 0 12 3 16
6 9 3 -7 2 -20 -1 -28z m45 1 c15 10 22 -22 10 -42 -9 -15 -10 -13 -5 10 5 20
3 27 -7 25 -8 -2 -14 6 -15 17 -1 15 0 16 3 2 3 -9 9 -15 14 -12z m-144 10 c0
-8 -4 -15 -9 -15 -4 0 -8 7 -8 15 0 8 4 15 8 15 5 0 9 -7 9 -15z m63 -2 c0 -3
-7 -3 -15 1 -18 6 -19 1 -5 -24 9 -16 7 -18 -11 -15 -12 3 -24 7 -28 11 -3 4
2 4 13 0 14 -5 17 -3 12 10 -8 21 1 34 19 27 8 -3 15 -7 15 -10z m120 7 c0 -5
-4 -10 -10 -10 -5 0 -10 5 -10 10 0 6 5 10 10 10 6 0 10 -4 10 -10z m54 -26
c3 -8 2 -12 -4 -9 -6 3 -10 10 -10 16 0 14 7 11 14 -7z m-20 -25 c-8 -13 28
-7 39 6 5 6 7 4 4 -5 -4 -18 -53 -21 -49 -2 1 6 -5 12 -13 12 -8 0 -15 5 -15
10 0 7 7 7 20 0 11 -6 18 -16 14 -21z m81 6 c0 -23 -1 -24 -12 -8 -10 13 -10
18 0 25 6 4 12 8 12 8 0 0 0 -11 0 -25z m-275 -22 c0 -7 -39 17 -46 28 -3 6 5
3 20 -6 14 -10 26 -19 26 -22z m105 27 c3 -5 2 -10 -4 -10 -5 0 -13 5 -16 10
-3 6 -2 10 4 10 5 0 13 -4 16 -10z m-37 -35 c-6 -14 -13 -23 -15 -21 -5 5 15
46 22 46 3 0 -1 -11 -7 -25z m103 8 c13 -16 12 -17 -3 -5 -14 11 -17 10 -23
-8 -4 -12 -9 -19 -12 -17 -4 5 14 47 21 47 2 0 10 -8 17 -17z m-194 -18 c0 -8
-4 -12 -9 -9 -5 3 -6 10 -3 15 9 13 12 11 12 -6z m43 5 c-8 -5 -19 -10 -25
-10 -5 0 -3 5 5 10 8 5 20 10 25 10 6 0 3 -5 -5 -10z m87 4 c-3 -3 -12 -4 -19
-1 -8 3 -5 6 6 6 11 1 17 -2 13 -5z m120 -10 c-3 -3 -12 -4 -19 -1 -8 3 -5 6
6 6 11 1 17 -2 13 -5z"/>
</g>
</svg>
