<?xml version="1.0" encoding="UTF-8"?>
<svg width="28px" height="20px" viewBox="0 0 28 20" version="1.1" xmlns="http://www.w3.org/2000/svg" xmlns:xlink="http://www.w3.org/1999/xlink">
    <!-- Generator: Sketch 51.3 (57544) - http://www.bohemiancoding.com/sketch -->
    <title>Shape</title>
    <desc>Created with Sketch.</desc>
    <defs></defs>
    <g id="Welcome" stroke="none" stroke-width="1" fill="none" fill-rule="evenodd">
        <g id="Desktop-HD-Copy" transform="translate(-1042.000000, -858.000000)" fill="#FFFFFF" fill-rule="nonzero">
            <g id="Group-4" transform="translate(856.000000, 844.000000)">
                <path d="M208.575,21.7133333 C207.781667,17.6883333 204.246667,14.6666667 200,14.6666667 C196.628333,14.6666667 193.7,16.58 192.241667,19.38 C188.73,19.7533333 186,22.7283333 186,26.3333333 C186,30.195 189.138333,33.3333333 193,33.3333333 L208.166667,33.3333333 C211.386667,33.3333333 214,30.72 214,27.5 C214,24.42 211.608333,21.9233333 208.575,21.7133333 Z M205.833333,25.1666667 L200.408333,30.5916667 C200.175,30.825 199.813333,30.825 199.58,30.5916667 L194.166667,25.1666667 L197.666667,25.1666667 L197.666667,20.5 L202.333333,20.5 L202.333333,25.1666667 L205.833333,25.1666667 Z" id="Shape"></path>
            </g>
        </g>
    </g>
</svg>