<?xml version="1.0" encoding="UTF-8"?>
<svg width="260px" height="104px" viewBox="0 0 260 104" version="1.1" xmlns="http://www.w3.org/2000/svg" xmlns:xlink="http://www.w3.org/1999/xlink">
    <!-- Generator: Sketch 52 (66869) - http://www.bohemiancoding.com/sketch -->
    <title>Combined Shape</title>
    <desc>Created with Sketch.</desc>
    <g id="Welcome" stroke="none" stroke-width="1" fill="none" fill-rule="evenodd">
        <g id="Desktop-HD-Copy-8" transform="translate(-672.000000, -167.000000)" fill="#A2FFD6">
            <path d="M771.488786,241.68394 C751.521977,241.68394 751.145217,221.328809 751.145217,221.328809 C751.145217,221.328809 749.847651,199.414765 771.09748,198.870656 C791.807625,198.338063 791.65343,220.718487 791.65343,220.718487 C791.65343,220.718487 791.455595,241.436356 771.488786,241.68394 Z M737.514376,215.018834 L737.356394,167 L750.896469,167 L750.896469,199.155665 C750.896469,199.155665 757.825065,189.262389 774.344304,189.353074 C790.864999,189.443759 806.361605,200.786552 805.993573,220.492494 C805.976961,221.378465 805.931666,222.246438 805.858787,223.096238 C812.700576,214.224021 830.505857,213.681476 836.245365,213.652294 C840.031889,213.633499 851.027152,213.600247 851.027152,213.600247 C851.094564,205.571998 849.211342,199.7543 835.97285,199.50274 C821.982791,199.238167 820.912811,208.123746 820.912811,208.123746 L807.126421,208.123746 C808.866214,187.949752 837.235025,190.063439 837.235025,190.063439 C865.352835,191.230159 864.383256,207.191238 864.726051,213.730365 C865.02008,219.370235 864.759039,227.366678 864.726051,236.321653 C864.690193,245.276628 865,249.803271 865,249.803271 L852.460007,249.872667 L851.912109,242.311395 C846.79313,248.828835 839.724951,251.931414 827.645366,251.999365 C816.805103,252.061648 803.684168,247.554093 803.025818,234.055382 C797.891116,245.096257 786.725859,251 774.422857,251 C756.891166,251 750.71318,241.106724 750.71318,241.106724 L750.160405,248.826445 L737,248.826445 C737.501861,243.5365 737.581868,235.53321 737.581868,235.53321 L737.546606,224.815274 L685.629052,224.815274 C685.629052,224.815274 686.365529,242.378813 705.33918,242.729593 C720.097587,243.002422 722.221815,233.158929 722.221815,233.158929 L736.044465,233.131502 C736.044465,233.131502 734.584509,252 704.927619,252 C670.414319,252 672.011461,222.138953 672.011461,222.138953 C671.845393,215.586729 673.467085,189.994227 706.081432,190.000001 C729.554099,190.004694 735.927525,204.723255 737.514376,215.018834 Z M830.426453,242.914272 C853.904337,243.223663 851.154804,222.747507 851.154804,222.747507 L836.88219,222.76341 C836.88219,222.76341 815.93009,221.908972 816.749069,233.129437 C817.514979,243.64293 830.426453,242.914272 830.426453,242.914272 Z M858,192 L874.088897,192 L895.971639,235.585462 L917.901883,192 L932,192 L891.946895,271 L876.71592,271 L888.181256,248.791737 L858,192 Z M686.066606,215.513109 L723.917187,215.513109 C723.917187,215.513109 724.094776,199.156369 705.581784,199.160699 C686.821855,199.166473 686.066606,215.513109 686.066606,215.513109 Z" id="Combined-Shape"></path>
        </g>
    </g>
</svg>