<svg width="92" height="92" viewBox="0 0 92 92" fill="none" xmlns="http://www.w3.org/2000/svg">
<path d="M92 47C92 71.8528 71.8528 92 47 92C22.1472 92 0.5 77.3528 0.5 52.5C0.5 27.6472 30.1472 0.5 55 0.5C79.8528 0.5 92 22.1472 92 47Z" fill="#B45BEB"/>
<path fill-rule="evenodd" clip-rule="evenodd" d="M46.9981 26.4004C35.4032 26.4004 26 35.8513 26 47.5103C26 56.8368 32.0166 64.7481 40.3614 67.5395C41.4121 67.7338 41.795 67.082 41.795 66.5222C41.795 66.022 41.7769 64.6937 41.7666 62.9326C35.9254 64.2077 34.6929 60.1024 34.6929 60.1024C33.7376 57.6635 32.3608 57.0143 32.3608 57.0143C30.4541 55.7055 32.5052 55.7314 32.5052 55.7314C34.613 55.8804 35.7217 57.9072 35.7217 57.9072C37.5948 61.1326 40.6373 60.2009 41.8336 59.6605C42.0244 58.2972 42.5672 57.3668 43.1666 56.8394C38.5037 56.3067 33.601 54.4951 33.601 46.4062C33.601 44.1021 34.4196 42.2166 35.7629 40.7419C35.5463 40.208 34.8257 38.0607 35.9692 35.1554C35.9692 35.1554 37.7315 34.5878 41.7434 37.3195C43.418 36.8504 45.2151 36.6171 47.0006 36.6081C48.7849 36.6171 50.5807 36.8504 52.2579 37.3195C56.2672 34.5878 58.027 35.1554 58.027 35.1554C59.173 38.0607 58.4524 40.208 58.2371 40.7419C59.583 42.2166 60.3952 44.1021 60.3952 46.4062C60.3952 54.5158 55.4847 56.3003 50.8076 56.8225C51.5605 57.4743 52.2321 58.7624 52.2321 60.7322C52.2321 63.5533 52.2063 65.8302 52.2063 66.5222C52.2063 67.0872 52.5853 67.7442 53.6502 67.5382C61.9886 64.7403 68 56.8342 68 47.5103C68 35.8513 58.5968 26.4004 46.9981 26.4004Z" fill="white"/>
</svg>
