<svg width="353" height="317" viewBox="0 0 353 317" fill="none" xmlns="http://www.w3.org/2000/svg">
<rect x="14.5" y="116.5" width="323" height="63" rx="7.5" fill="white" stroke="#C2E9F0"/>
<circle cx="296" cy="148" r="18" fill="#F7F7F7"/>
<path d="M301.835 148.833H296.835V153.833H295.168V148.833H290.168V147.167H295.168V142.167H296.835V147.167H301.835V148.833Z" fill="#BCBCBC"/>
<mask id="mask0" mask-type="alpha" maskUnits="userSpaceOnUse" x="38" y="130" width="36" height="36">
<circle cx="56" cy="148" r="17.5" fill="#F9CF3E" stroke="#F0F0F0"/>
</mask>
<g mask="url(#mask0)">
<circle cx="56" cy="148" r="18" fill="white"/>
<path d="M51.4492 141.988V148.97H61.544V137.875L51.4492 141.988Z" fill="#F9CF3E"/>
<path d="M43.625 167.746V226.539H68.375V167.746C68.375 166.608 68.0336 163.99 66.6681 162.625C65.3026 161.259 63.2543 160.918 62.4009 160.918V148.97H50.5991V160.918C49.7457 160.918 46.6974 161.259 45.3319 162.625C43.9664 163.99 43.625 166.608 43.625 167.746Z" fill="white" stroke="black"/>
<circle cx="56" cy="148" r="17.5" stroke="#EBEBEB"/>
</g>
<g filter="url(#filter0_d)">
<mask id="mask1" mask-type="alpha" maskUnits="userSpaceOnUse" x="95" y="127" width="42" height="42">
<circle cx="116" cy="148" r="20.5" fill="#F9CF3E" stroke="#F0F0F0"/>
</mask>
<g mask="url(#mask1)">
<circle cx="116" cy="148" r="20.5" fill="white" stroke="#F0F0F0"/>
<path d="M116 138C114.594 138 111.5 147 111.5 151H120.5C120.5 147 117.406 138 116 138Z" fill="#C273F2"/>
<path d="M98 193V227H134V193L121 151H111L98 193Z" stroke="black" stroke-linecap="round" stroke-linejoin="round"/>
<circle cx="116" cy="148" r="20.5" stroke="#01A6C6"/>
</g>
</g>
<mask id="mask2" mask-type="alpha" maskUnits="userSpaceOnUse" x="158" y="130" width="36" height="36">
<circle cx="176" cy="148" r="17.5" fill="#F9CF3E" stroke="#F0F0F0"/>
</mask>
<g mask="url(#mask2)">
<circle cx="176" cy="148" r="17.5" stroke="#F0F0F0"/>
<path fill-rule="evenodd" clip-rule="evenodd" d="M171.342 139.253C171.821 138.805 172.449 138.556 173.102 138.556H183.407C184.839 138.556 186 139.731 186 141.181V156.18H185.259V141.181C185.259 140.145 184.43 139.306 183.407 139.306H173.102C172.636 139.306 172.187 139.484 171.845 139.804L167.335 144.026C166.956 144.381 166.741 144.88 166.741 145.403V156.18H166V145.403C166 144.671 166.302 143.973 166.832 143.476L171.342 139.253Z" fill="#484848"/>
<path d="M166 179.234V156.18H176H186V179.234C186 180.891 184.657 182.234 183 182.234H169C167.343 182.234 166 180.891 166 179.234Z" fill="#E9EEF4"/>
<path fill-rule="evenodd" clip-rule="evenodd" d="M166 180.198V156.18H166.741L166.796 179.432C166.796 180.537 167.625 181.433 168.648 181.433H183.352C184.375 181.433 185.204 180.537 185.204 179.432L185.258 156.18H186V180.198C186 181.746 184.839 183 183.407 183H168.593C167.161 183 166 181.746 166 180.198Z" fill="#CBD2DB"/>
<circle cx="176" cy="148" r="17.5" stroke="#F0F0F0"/>
</g>
<mask id="mask3" mask-type="alpha" maskUnits="userSpaceOnUse" x="218" y="130" width="36" height="36">
<circle cx="236" cy="148" r="17.5" fill="#F9CF3E" stroke="#F0F0F0"/>
</mask>
<g mask="url(#mask3)">
<circle cx="236" cy="148" r="17.5" stroke="#F0F0F0"/>
<path fill-rule="evenodd" clip-rule="evenodd" d="M233.603 151.183C231.691 150.348 230.295 151.505 228.493 150.717C225.326 149.332 224.519 146.499 225.799 143.571C227.079 140.644 230.685 139.393 233.852 140.778C235.653 141.566 236.451 144.093 238.15 144.836C239.849 145.579 241.608 144.17 243.41 144.957C246.577 146.342 247.47 149.56 246.189 152.488C244.909 155.416 241.303 156.667 238.136 155.282C236.335 154.494 234.877 151.741 233.603 151.183Z" fill="#FBFBFB" stroke="#1C6776" stroke-linecap="round" stroke-linejoin="round" stroke-dasharray="2 3"/>
</g>
<g filter="url(#filter1_d)">
<path d="M59 24C59 19.5817 62.5817 16 67 16H165C169.418 16 173 19.5817 173 24V86C173 90.4183 169.418 94 165 94H132.128C130.117 94 128.179 94.7575 126.702 96.1216L118.035 104.122C116.886 105.182 115.114 105.182 113.965 104.122L105.298 96.1216C103.821 94.7575 101.883 94 99.8721 94H67C62.5817 94 59 90.4183 59 86V24Z" fill="white"/>
</g>
<path fill-rule="evenodd" clip-rule="evenodd" d="M78 30.75H87V32.25H78V42.75H76.5V32.25C76.5 31.425 77.175 30.75 78 30.75ZM81 33.75H89.25C90.075 33.75 90.75 34.425 90.75 35.25V45.75C90.75 46.575 90.075 47.25 89.25 47.25H81C80.175 47.25 79.5 46.575 79.5 45.75V35.25C79.5 34.425 80.175 33.75 81 33.75ZM81 45.75H89.25V35.25H81V45.75ZM82.4977 39.975V41.025H84.5977V43.125H85.6477V41.025H87.7477V39.975H85.6477V37.875H84.5977V39.975H82.4977Z" fill="#7A7A7A"/>
<path d="M101.984 34.408H104.732C105.62 34.408 106.396 34.588 107.06 34.948C107.724 35.308 108.232 35.816 108.584 36.472C108.944 37.12 109.124 37.864 109.124 38.704C109.124 39.544 108.944 40.292 108.584 40.948C108.232 41.596 107.724 42.1 107.06 42.46C106.396 42.82 105.62 43 104.732 43H101.984V34.408ZM104.708 41.716C105.668 41.716 106.416 41.452 106.952 40.924C107.496 40.388 107.768 39.648 107.768 38.704C107.768 37.768 107.496 37.032 106.952 36.496C106.416 35.96 105.668 35.692 104.708 35.692H103.328V41.716H104.708ZM112.672 43.192C111.928 43.192 111.36 42.972 110.968 42.532C110.584 42.084 110.392 41.464 110.392 40.672V36.88H111.712V40.492C111.712 40.988 111.828 41.36 112.06 41.608C112.3 41.856 112.612 41.98 112.996 41.98C113.308 41.98 113.584 41.9 113.824 41.74C114.064 41.572 114.248 41.352 114.376 41.08C114.504 40.808 114.568 40.516 114.568 40.204V36.88H115.888V43H114.64V42.208H114.568C114.4 42.496 114.14 42.732 113.788 42.916C113.436 43.1 113.064 43.192 112.672 43.192ZM117.376 36.88H118.636V37.684H118.696C118.872 37.404 119.132 37.168 119.476 36.976C119.82 36.784 120.208 36.688 120.64 36.688C121.192 36.688 121.692 36.828 122.14 37.108C122.588 37.388 122.94 37.776 123.196 38.272C123.46 38.76 123.592 39.316 123.592 39.94C123.592 40.564 123.46 41.124 123.196 41.62C122.94 42.108 122.588 42.492 122.14 42.772C121.692 43.052 121.192 43.192 120.64 43.192C120.208 43.192 119.82 43.096 119.476 42.904C119.132 42.712 118.872 42.48 118.696 42.208H118.636L118.696 43.06V45.592H117.376V36.88ZM120.448 41.98C120.768 41.98 121.068 41.896 121.348 41.728C121.628 41.56 121.852 41.32 122.02 41.008C122.188 40.696 122.272 40.34 122.272 39.94C122.272 39.54 122.188 39.188 122.02 38.884C121.852 38.572 121.628 38.332 121.348 38.164C121.068 37.996 120.768 37.912 120.448 37.912C120.128 37.912 119.828 37.996 119.548 38.164C119.276 38.332 119.056 38.572 118.888 38.884C118.72 39.188 118.636 39.54 118.636 39.94C118.636 40.34 118.72 40.696 118.888 41.008C119.056 41.32 119.276 41.56 119.548 41.728C119.828 41.896 120.128 41.98 120.448 41.98ZM124.678 34.408H125.998V43H124.678V34.408ZM128.305 35.992C128.057 35.992 127.845 35.908 127.669 35.74C127.501 35.564 127.417 35.352 127.417 35.104C127.417 34.856 127.501 34.648 127.669 34.48C127.845 34.304 128.057 34.216 128.305 34.216C128.553 34.216 128.761 34.304 128.929 34.48C129.105 34.648 129.193 34.856 129.193 35.104C129.193 35.352 129.105 35.564 128.929 35.74C128.761 35.908 128.553 35.992 128.305 35.992ZM127.645 36.88H128.965V43H127.645V36.88ZM133.381 43.192C132.773 43.192 132.225 43.052 131.737 42.772C131.257 42.492 130.881 42.108 130.609 41.62C130.345 41.124 130.213 40.564 130.213 39.94C130.213 39.316 130.345 38.76 130.609 38.272C130.881 37.776 131.257 37.388 131.737 37.108C132.225 36.828 132.773 36.688 133.381 36.688C134.053 36.688 134.625 36.84 135.097 37.144C135.569 37.448 135.905 37.86 136.105 38.38L134.893 38.884C134.621 38.236 134.105 37.912 133.345 37.912C133.017 37.912 132.713 37.996 132.433 38.164C132.161 38.332 131.941 38.572 131.773 38.884C131.613 39.188 131.533 39.54 131.533 39.94C131.533 40.34 131.613 40.696 131.773 41.008C131.941 41.32 132.161 41.56 132.433 41.728C132.713 41.896 133.017 41.98 133.345 41.98C133.729 41.98 134.057 41.896 134.329 41.728C134.609 41.552 134.821 41.304 134.965 40.984L136.153 41.5C135.921 42.02 135.569 42.432 135.097 42.736C134.625 43.04 134.053 43.192 133.381 43.192ZM139.137 43.192C138.697 43.192 138.305 43.108 137.961 42.94C137.617 42.764 137.349 42.52 137.157 42.208C136.965 41.888 136.869 41.528 136.869 41.128C136.869 40.496 137.105 39.996 137.577 39.628C138.057 39.26 138.661 39.076 139.389 39.076C139.749 39.076 140.073 39.112 140.361 39.184C140.649 39.248 140.877 39.32 141.045 39.4V39.088C141.045 38.712 140.905 38.408 140.625 38.176C140.345 37.936 139.985 37.816 139.545 37.816C139.233 37.816 138.937 37.884 138.657 38.02C138.385 38.156 138.165 38.344 137.997 38.584L137.073 37.876C137.345 37.5 137.697 37.208 138.129 37C138.561 36.792 139.041 36.688 139.569 36.688C140.457 36.688 141.141 36.908 141.621 37.348C142.101 37.78 142.341 38.392 142.341 39.184V43H141.045V42.268H140.985C140.809 42.532 140.561 42.752 140.241 42.928C139.921 43.104 139.553 43.192 139.137 43.192ZM139.365 42.1C139.685 42.1 139.973 42.024 140.229 41.872C140.485 41.72 140.685 41.516 140.829 41.26C140.973 41.004 141.045 40.728 141.045 40.432C140.861 40.328 140.645 40.244 140.397 40.18C140.157 40.116 139.905 40.084 139.641 40.084C139.145 40.084 138.781 40.184 138.549 40.384C138.317 40.576 138.201 40.828 138.201 41.14C138.201 41.42 138.309 41.652 138.525 41.836C138.741 42.012 139.021 42.1 139.365 42.1ZM146.171 43.096C145.899 43.096 145.643 43.052 145.403 42.964C145.163 42.876 144.967 42.76 144.815 42.616C144.471 42.272 144.299 41.804 144.299 41.212V38.044H143.231V36.88H144.299V35.152H145.619V36.88H147.107V38.044H145.619V40.924C145.619 41.252 145.683 41.484 145.811 41.62C145.931 41.78 146.139 41.86 146.435 41.86C146.571 41.86 146.691 41.844 146.795 41.812C146.899 41.772 147.011 41.712 147.131 41.632V42.916C146.867 43.036 146.547 43.096 146.171 43.096ZM150.923 43.192C150.323 43.192 149.783 43.052 149.303 42.772C148.831 42.492 148.459 42.108 148.187 41.62C147.923 41.124 147.791 40.568 147.791 39.952C147.791 39.368 147.919 38.828 148.175 38.332C148.439 37.828 148.803 37.428 149.267 37.132C149.731 36.836 150.259 36.688 150.851 36.688C151.467 36.688 151.999 36.824 152.447 37.096C152.903 37.368 153.247 37.74 153.479 38.212C153.719 38.684 153.839 39.216 153.839 39.808C153.839 39.92 153.827 40.06 153.803 40.228H149.111C149.159 40.796 149.359 41.236 149.711 41.548C150.071 41.852 150.487 42.004 150.959 42.004C151.335 42.004 151.659 41.92 151.931 41.752C152.211 41.576 152.435 41.34 152.603 41.044L153.719 41.572C153.431 42.076 153.055 42.472 152.591 42.76C152.127 43.048 151.571 43.192 150.923 43.192ZM152.495 39.22C152.479 39.004 152.411 38.792 152.291 38.584C152.171 38.368 151.987 38.188 151.739 38.044C151.499 37.9 151.203 37.828 150.851 37.828C150.427 37.828 150.067 37.956 149.771 38.212C149.483 38.46 149.283 38.796 149.171 39.22H152.495Z" fill="#7A7A7A"/>
<path d="M101.984 66.408H104.732C105.62 66.408 106.396 66.588 107.06 66.948C107.724 67.308 108.232 67.816 108.584 68.472C108.944 69.12 109.124 69.864 109.124 70.704C109.124 71.544 108.944 72.292 108.584 72.948C108.232 73.596 107.724 74.1 107.06 74.46C106.396 74.82 105.62 75 104.732 75H101.984V66.408ZM104.708 73.716C105.668 73.716 106.416 73.452 106.952 72.924C107.496 72.388 107.768 71.648 107.768 70.704C107.768 69.768 107.496 69.032 106.952 68.496C106.416 67.96 105.668 67.692 104.708 67.692H103.328V73.716H104.708ZM113.06 75.192C112.46 75.192 111.92 75.052 111.44 74.772C110.968 74.492 110.596 74.108 110.324 73.62C110.06 73.124 109.928 72.568 109.928 71.952C109.928 71.368 110.056 70.828 110.312 70.332C110.576 69.828 110.94 69.428 111.404 69.132C111.868 68.836 112.396 68.688 112.988 68.688C113.604 68.688 114.136 68.824 114.584 69.096C115.04 69.368 115.384 69.74 115.616 70.212C115.856 70.684 115.976 71.216 115.976 71.808C115.976 71.92 115.964 72.06 115.94 72.228H111.248C111.296 72.796 111.496 73.236 111.848 73.548C112.208 73.852 112.624 74.004 113.096 74.004C113.472 74.004 113.796 73.92 114.068 73.752C114.348 73.576 114.572 73.34 114.74 73.044L115.856 73.572C115.568 74.076 115.192 74.472 114.728 74.76C114.264 75.048 113.708 75.192 113.06 75.192ZM114.632 71.22C114.616 71.004 114.548 70.792 114.428 70.584C114.308 70.368 114.124 70.188 113.876 70.044C113.636 69.9 113.34 69.828 112.988 69.828C112.564 69.828 112.204 69.956 111.908 70.212C111.62 70.46 111.42 70.796 111.308 71.22H114.632ZM117.178 66.408H118.498V75H117.178V66.408ZM122.787 75.192C122.187 75.192 121.647 75.052 121.167 74.772C120.695 74.492 120.323 74.108 120.051 73.62C119.787 73.124 119.655 72.568 119.655 71.952C119.655 71.368 119.783 70.828 120.039 70.332C120.303 69.828 120.667 69.428 121.131 69.132C121.595 68.836 122.123 68.688 122.715 68.688C123.331 68.688 123.863 68.824 124.311 69.096C124.767 69.368 125.111 69.74 125.343 70.212C125.583 70.684 125.703 71.216 125.703 71.808C125.703 71.92 125.691 72.06 125.667 72.228H120.975C121.023 72.796 121.223 73.236 121.575 73.548C121.935 73.852 122.351 74.004 122.823 74.004C123.199 74.004 123.523 73.92 123.795 73.752C124.075 73.576 124.299 73.34 124.467 73.044L125.583 73.572C125.295 74.076 124.919 74.472 124.455 74.76C123.991 75.048 123.435 75.192 122.787 75.192ZM124.359 71.22C124.343 71.004 124.275 70.792 124.155 70.584C124.035 70.368 123.851 70.188 123.603 70.044C123.363 69.9 123.067 69.828 122.715 69.828C122.291 69.828 121.931 69.956 121.635 70.212C121.347 70.46 121.147 70.796 121.035 71.22H124.359ZM129.237 75.096C128.965 75.096 128.709 75.052 128.469 74.964C128.229 74.876 128.033 74.76 127.881 74.616C127.537 74.272 127.365 73.804 127.365 73.212V70.044H126.297V68.88H127.365V67.152H128.685V68.88H130.173V70.044H128.685V72.924C128.685 73.252 128.749 73.484 128.877 73.62C128.997 73.78 129.205 73.86 129.501 73.86C129.637 73.86 129.757 73.844 129.861 73.812C129.965 73.772 130.077 73.712 130.197 73.632V74.916C129.933 75.036 129.613 75.096 129.237 75.096ZM133.99 75.192C133.39 75.192 132.85 75.052 132.37 74.772C131.898 74.492 131.526 74.108 131.254 73.62C130.99 73.124 130.858 72.568 130.858 71.952C130.858 71.368 130.986 70.828 131.242 70.332C131.506 69.828 131.87 69.428 132.334 69.132C132.798 68.836 133.326 68.688 133.918 68.688C134.534 68.688 135.066 68.824 135.514 69.096C135.97 69.368 136.314 69.74 136.546 70.212C136.786 70.684 136.906 71.216 136.906 71.808C136.906 71.92 136.894 72.06 136.87 72.228H132.178C132.226 72.796 132.426 73.236 132.778 73.548C133.138 73.852 133.554 74.004 134.026 74.004C134.402 74.004 134.726 73.92 134.998 73.752C135.278 73.576 135.502 73.34 135.67 73.044L136.786 73.572C136.498 74.076 136.122 74.472 135.658 74.76C135.194 75.048 134.638 75.192 133.99 75.192ZM135.562 71.22C135.546 71.004 135.478 70.792 135.358 70.584C135.238 70.368 135.054 70.188 134.806 70.044C134.566 69.9 134.27 69.828 133.918 69.828C133.494 69.828 133.134 69.956 132.838 70.212C132.55 70.46 132.35 70.796 132.238 71.22H135.562Z" fill="#7A7A7A"/>
<path d="M87.4008 68.4501V76.9501H80.6008V68.4501H87.4008ZM86.1258 63.3501H81.8758L81.0258 64.2001H78.0508V65.9001H89.9508V64.2001H86.9758L86.1258 63.3501ZM89.1008 66.7501H78.9008V76.9501C78.9008 77.8851 79.6658 78.6501 80.6008 78.6501H87.4008C88.3358 78.6501 89.1008 77.8851 89.1008 76.9501V66.7501Z" fill="#7A7A7A"/>
<path d="M7.16211 242.245C6.76628 242.245 6.40137 242.202 6.06738 242.115C5.0778 241.88 4.25521 241.286 3.59961 240.334C2.95638 239.369 2.38737 237.903 1.89258 235.936C1.79362 235.553 1.69466 235.132 1.5957 234.675C1.50911 234.205 1.44727 233.809 1.41016 233.487C1.39779 233.462 1.3916 233.431 1.3916 233.394C1.36686 233.246 1.34212 233.06 1.31738 232.838C1.29264 232.615 1.26172 232.405 1.22461 232.207C1.07617 231.094 1.00195 229.9 1.00195 228.626C1.00195 227.426 1.06999 226.313 1.20605 225.286C1.23079 225.051 1.2679 224.766 1.31738 224.432C1.35449 224.185 1.38542 223.956 1.41016 223.746C1.53385 222.83 1.70085 221.897 1.91113 220.944C2.12142 219.979 2.31934 219.256 2.50488 218.773C2.77702 217.982 3.17904 217.586 3.71094 217.586H3.80371C4.5459 217.623 4.99121 218.532 5.13965 220.313C5.16439 220.622 5.17676 221.093 5.17676 221.723C5.17676 222.861 5.13965 224.333 5.06543 226.139C5.01595 227.092 4.99121 228.02 4.99121 228.923C4.99121 230.729 5.07161 232.163 5.23242 233.227C5.33138 233.871 5.43652 234.44 5.54785 234.934C5.67155 235.417 5.83236 235.949 6.03027 236.53C6.25293 237.235 6.46322 237.742 6.66113 238.052C6.85905 238.361 7.09408 238.534 7.36621 238.571C7.7373 238.645 8.12695 238.682 8.53516 238.682C9.14128 238.682 9.71029 238.602 10.2422 238.441C10.4648 238.367 10.6689 238.33 10.8545 238.33C11.2874 238.33 11.5781 238.515 11.7266 238.886C11.776 239.01 11.8008 239.134 11.8008 239.258C11.8008 239.616 11.5719 240.012 11.1143 240.445C10.9906 240.569 10.8359 240.705 10.6504 240.853C10.4648 240.989 10.2917 241.107 10.1309 241.206C9.80924 241.404 9.44434 241.595 9.03613 241.781C8.6403 241.954 8.30013 242.078 8.01562 242.152C7.76823 242.214 7.48372 242.245 7.16211 242.245ZM17.1074 242.041C16.8477 242.041 16.6188 242.022 16.4209 241.985C16.3096 241.96 16.1673 241.917 15.9941 241.855C15.821 241.781 15.654 241.707 15.4932 241.633C15.2829 241.534 15.1035 241.435 14.9551 241.336C14.819 241.224 14.6582 241.076 14.4727 240.89C14.2376 240.643 14.0459 240.402 13.8975 240.167C13.749 239.932 13.582 239.585 13.3965 239.128C13.0749 238.262 12.9141 237.303 12.9141 236.252C12.9141 234.903 13.1738 233.574 13.6934 232.262C14.3118 230.84 15.1221 229.788 16.124 229.108C16.3343 228.972 16.526 228.879 16.6992 228.83C16.8724 228.768 17.0765 228.737 17.3115 228.737L18.1094 228.644C18.2949 228.62 18.4928 228.607 18.7031 228.607C19.3835 228.632 20.002 228.793 20.5586 229.09C20.9792 229.325 21.3441 229.634 21.6533 230.017C21.9749 230.401 22.3027 230.927 22.6367 231.594C23.0326 232.436 23.2305 233.444 23.2305 234.619C23.2305 235.039 23.1995 235.417 23.1377 235.751C23.0758 236.072 22.9583 236.493 22.7852 237.012C22.2161 238.806 21.276 240.148 19.9648 241.039C19.3464 241.472 18.7835 241.762 18.2764 241.911C17.8929 241.997 17.5033 242.041 17.1074 242.041ZM17.2373 238.59C17.361 238.59 17.5094 238.54 17.6826 238.441C17.9176 238.317 18.1836 238.101 18.4805 237.792C18.7897 237.47 19.0371 237.161 19.2227 236.864C19.4082 236.555 19.5505 236.27 19.6494 236.01C19.7607 235.738 19.8473 235.429 19.9092 235.083C19.9834 234.712 20.0205 234.365 20.0205 234.044C20.0205 233.252 19.8102 232.634 19.3896 232.188C19.2165 232.015 19.0309 231.891 18.833 231.817C18.6351 231.731 18.3753 231.681 18.0537 231.669H17.7383C17.6146 231.669 17.528 231.681 17.4785 231.706C17.429 231.718 17.3734 231.749 17.3115 231.799C17.262 231.848 17.194 231.935 17.1074 232.058C17.0208 232.17 16.9466 232.3 16.8848 232.448C16.3776 233.475 16.124 234.594 16.124 235.806C16.124 237.043 16.3343 237.872 16.7549 238.293C16.9157 238.491 17.0765 238.59 17.2373 238.59ZM34.3447 242.746C34.1468 242.746 33.9489 242.684 33.751 242.56C33.5283 242.424 33.3428 242.189 33.1943 241.855C33.0583 241.521 32.9284 241.014 32.8047 240.334C32.681 239.715 32.6191 239.016 32.6191 238.237C32.6191 237.136 32.7428 235.689 32.9902 233.895L33.0273 233.673C32.7552 233.969 32.3841 234.582 31.9141 235.51C31.444 236.425 31.0049 237.39 30.5967 238.404C30.2503 239.295 29.972 239.981 29.7617 240.464C29.5638 240.946 29.3968 241.305 29.2607 241.54C29.137 241.775 29.0133 241.96 28.8896 242.096C28.4567 242.529 27.999 242.746 27.5166 242.746C27.3682 242.746 27.2259 242.727 27.0898 242.69C26.5579 242.529 26.1374 242.134 25.8281 241.503C25.7168 241.243 25.6055 240.89 25.4941 240.445C25.3828 240 25.3086 239.567 25.2715 239.146C25.2467 238.812 25.2344 238.324 25.2344 237.68C25.2344 237.099 25.2406 236.487 25.2529 235.844C25.2777 235.2 25.3086 234.681 25.3457 234.285C25.4076 233.506 25.5065 232.708 25.6426 231.891C25.791 231.075 25.9271 230.487 26.0508 230.129C26.2363 229.634 26.4775 229.3 26.7744 229.127C26.8363 229.077 26.8919 229.046 26.9414 229.034C27.0033 229.009 27.0775 228.997 27.1641 228.997H27.3311C27.7764 229.009 28.1227 229.269 28.3701 229.776C28.432 229.9 28.4753 230.005 28.5 230.092C28.5371 230.166 28.5618 230.277 28.5742 230.426C28.5866 230.562 28.5928 230.778 28.5928 231.075V231.409C28.5928 232.213 28.5247 233.345 28.3887 234.804C28.3268 235.67 28.2959 236.307 28.2959 236.716C28.2959 236.901 28.3021 237 28.3145 237.012C28.3392 237.012 28.3949 236.932 28.4814 236.771C28.568 236.61 28.667 236.413 28.7783 236.177C29.5947 234.557 30.609 232.937 31.8213 231.316C32.6006 230.191 33.4355 229.628 34.3262 229.628C35.2044 229.628 35.7982 230.11 36.1074 231.075C36.1569 231.186 36.1878 231.298 36.2002 231.409C36.2126 231.52 36.2188 231.681 36.2188 231.891C36.2311 232.102 36.2373 232.436 36.2373 232.893C36.2373 233.438 36.2249 233.889 36.2002 234.248C36.1878 234.594 36.1569 234.965 36.1074 235.361L35.8291 237.736C35.693 238.973 35.5632 240.006 35.4395 240.835C35.3281 241.651 35.2354 242.134 35.1611 242.282C34.9508 242.591 34.6787 242.746 34.3447 242.746ZM42.5088 249.574L42.1191 249.537C41.5749 249.438 41.1234 249.209 40.7646 248.85C40.4183 248.504 40.2451 248.139 40.2451 247.756C40.2451 247.595 40.2822 247.434 40.3564 247.273C40.542 246.952 40.8203 246.791 41.1914 246.791C41.3522 246.791 41.5192 246.816 41.6924 246.865C41.8532 246.927 41.9893 246.958 42.1006 246.958C42.2119 246.958 42.3109 246.914 42.3975 246.828C42.4964 246.741 42.6139 246.599 42.75 246.401C43.1953 245.795 43.5169 244.972 43.7148 243.933C43.9251 242.894 44.0303 241.527 44.0303 239.833L44.0117 238.664C43.9993 238.169 43.987 237.755 43.9746 237.421C43.9622 237.074 43.9499 236.883 43.9375 236.845C43.9128 236.845 43.8695 236.876 43.8076 236.938C43.7581 236.988 43.6901 237.062 43.6035 237.161C43.2324 237.594 42.818 237.915 42.3604 238.126C41.915 238.336 41.4697 238.441 41.0244 238.441C40.5296 238.441 40.0658 238.311 39.6328 238.052C39.1999 237.779 38.8535 237.377 38.5938 236.845C38.3711 236.388 38.2598 235.868 38.2598 235.287C38.2598 234.953 38.2969 234.6 38.3711 234.229C38.4453 233.895 38.5381 233.567 38.6494 233.246C38.7731 232.924 38.9463 232.541 39.1689 232.095C40.0843 230.314 41.2161 229.083 42.5645 228.403C43.0716 228.18 43.554 228.069 44.0117 228.069C44.4941 228.094 44.89 228.211 45.1992 228.422C45.3353 228.545 45.4466 228.688 45.5332 228.848C45.6198 228.997 45.6631 229.127 45.6631 229.238C45.6631 229.374 45.7373 229.523 45.8857 229.683C46.1702 230.017 46.4424 230.679 46.7021 231.669C46.9743 232.658 47.1846 233.79 47.333 235.064C47.4196 235.918 47.4629 236.92 47.4629 238.07C47.4629 239.938 47.3577 241.676 47.1475 243.284C46.8753 245.139 46.362 246.624 45.6074 247.737C45.224 248.294 44.7477 248.739 44.1787 249.073C43.6221 249.407 43.0654 249.574 42.5088 249.574ZM41.6182 234.73C41.6429 234.718 41.6615 234.699 41.6738 234.675C41.7604 234.613 41.8408 234.538 41.915 234.452C42.0016 234.353 42.1253 234.198 42.2861 233.988C42.7933 233.271 43.1644 232.423 43.3994 231.446C43.3994 231.434 43.4056 231.415 43.418 231.39C43.4551 231.217 43.4736 231.1 43.4736 231.038C43.4736 231.001 43.4674 230.982 43.4551 230.982H43.4365C43.4242 230.982 43.3561 231.044 43.2324 231.168C42.8366 231.601 42.4964 232.114 42.2119 232.708C41.9274 233.289 41.7419 233.858 41.6553 234.415L41.6182 234.73ZM59.208 247.756C59.0843 247.756 58.9606 247.737 58.8369 247.7C58.07 247.552 57.5752 246.766 57.3525 245.344C57.1917 244.539 57.0804 243.606 57.0186 242.542C56.9567 241.466 56.9196 239.944 56.9072 237.977L56.8887 236.289C56.8887 231.131 57.2227 227.908 57.8906 226.622C58.1628 226.127 58.4844 225.88 58.8555 225.88H58.8926C59.2513 225.88 59.5605 226.108 59.8203 226.566C59.9316 226.801 60.012 227.141 60.0615 227.587C60.111 228.02 60.1357 228.694 60.1357 229.609C60.1357 230.054 60.1296 230.518 60.1172 231.001C60.1048 231.471 60.0924 231.83 60.0801 232.077C60.0553 232.324 60.0368 232.59 60.0244 232.875C60.0244 233.159 60.0244 233.388 60.0244 233.561V234.192C60.7048 232.262 61.348 230.821 61.9541 229.869C62.5602 228.904 63.2777 228.298 64.1064 228.051C64.2301 228.013 64.3415 227.989 64.4404 227.976C64.5394 227.964 64.6569 227.958 64.793 227.958H65.0713C65.43 227.97 65.7393 228.038 65.999 228.162C66.2712 228.273 66.5557 228.477 66.8525 228.774C67.0133 228.935 67.1432 229.083 67.2422 229.219C67.3411 229.356 67.4401 229.529 67.5391 229.739C67.972 230.716 68.1885 231.805 68.1885 233.005C68.1885 233.895 68.071 234.774 67.8359 235.639C67.6999 236.097 67.5143 236.573 67.2793 237.068C67.0443 237.563 66.8216 237.94 66.6113 238.2C66.166 238.719 65.6836 239.109 65.1641 239.369C64.6693 239.616 64.1868 239.74 63.7168 239.74C63.2962 239.74 62.8447 239.641 62.3623 239.443C62.2386 239.394 62.1335 239.357 62.0469 239.332C61.9603 239.307 61.917 239.295 61.917 239.295C61.9046 239.332 61.8613 239.561 61.7871 239.981C61.7624 240.229 61.7253 240.513 61.6758 240.835C61.6016 241.354 61.5397 241.812 61.4902 242.208C61.4036 242.826 61.3109 243.587 61.2119 244.49C61.1006 245.492 60.9521 246.216 60.7666 246.661C60.5811 247.106 60.3089 247.409 59.9502 247.57C59.6904 247.694 59.443 247.756 59.208 247.756ZM62.4551 237.254C62.5664 237.254 62.7767 237.179 63.0859 237.031C63.321 236.907 63.5127 236.777 63.6611 236.641C63.8219 236.505 63.9642 236.332 64.0879 236.122C64.5208 235.38 64.7373 234.359 64.7373 233.06C64.7373 232.677 64.7126 232.318 64.6631 231.984C64.626 231.65 64.5827 231.452 64.5332 231.39H64.4961C64.3353 231.452 64.0879 231.854 63.7539 232.596C63.4323 233.326 63.1292 234.167 62.8447 235.12C62.7705 235.33 62.6963 235.584 62.6221 235.881C62.5479 236.177 62.4798 236.45 62.418 236.697C62.3685 236.944 62.3438 237.093 62.3438 237.142C62.3438 237.217 62.3809 237.254 62.4551 237.254ZM72.4375 242.616L72.1592 242.579C71.8994 242.529 71.652 242.412 71.417 242.226C71.1943 242.028 71.015 241.793 70.8789 241.521C70.4336 240.42 70.2109 238.658 70.2109 236.233L70.2295 235.064C70.3532 232.133 70.6872 230.098 71.2314 228.96C71.6149 228.242 72.085 227.859 72.6416 227.809H72.7158C72.9632 227.809 73.1982 227.89 73.4209 228.051C73.6436 228.211 73.8229 228.446 73.959 228.756C74.1074 229.04 74.1816 229.479 74.1816 230.073L74.1445 230.982L74.0146 232.596C74.361 231.953 74.6455 231.465 74.8682 231.131C75.0908 230.784 75.3382 230.475 75.6104 230.203C75.8949 229.931 76.1423 229.739 76.3525 229.628C76.5628 229.516 76.804 229.455 77.0762 229.442H77.2803C77.3792 229.442 77.4658 229.455 77.54 229.479C77.6143 229.492 77.7008 229.516 77.7998 229.553C78.3936 229.838 78.876 230.438 79.2471 231.353C79.3584 231.638 79.4141 231.873 79.4141 232.058C79.4141 232.343 79.2842 232.541 79.0244 232.652C78.9131 232.714 78.7956 232.745 78.6719 232.745C78.3997 232.745 78.0843 232.59 77.7256 232.281C77.6266 232.207 77.5339 232.139 77.4473 232.077C77.3607 232.015 77.305 231.984 77.2803 231.984C77.2184 231.984 77.0947 232.077 76.9092 232.262C76.736 232.448 76.5814 232.646 76.4453 232.856C75.7155 233.945 75.1217 235.893 74.6641 238.701C74.5156 239.592 74.3981 240.247 74.3115 240.668C74.2249 241.088 74.1383 241.385 74.0518 241.558C73.9775 241.719 73.8662 241.868 73.7178 242.004C73.3219 242.412 72.8952 242.616 72.4375 242.616ZM86.1123 242.152C85.766 242.152 85.432 242.115 85.1104 242.041C83.4404 241.682 82.2282 240.866 81.4736 239.592C80.8428 238.503 80.5273 237.34 80.5273 236.103C80.5273 234.965 80.7933 233.846 81.3252 232.745C81.8695 231.644 82.5807 230.778 83.459 230.147C84.1888 229.578 85.0052 229.294 85.9082 229.294H86.001C87.0029 229.294 87.8503 229.622 88.543 230.277C89.1615 230.797 89.4707 231.477 89.4707 232.318C89.4707 233.147 89.1305 234.007 88.4502 234.897C88.141 235.305 87.7204 235.701 87.1885 236.085C86.6566 236.456 86.168 236.709 85.7227 236.845C85.5866 236.895 85.4567 236.938 85.333 236.975C84.8877 237.161 84.4857 237.254 84.127 237.254C83.9909 237.254 83.8548 237.229 83.7188 237.179L83.6445 237.161C83.6322 237.161 83.626 237.167 83.626 237.179L83.6445 237.272C83.7559 237.619 83.96 237.928 84.2568 238.2C84.4548 238.373 84.6712 238.54 84.9062 238.701C85.1536 238.862 85.3887 238.979 85.6113 239.053C86.0072 239.227 86.4277 239.313 86.873 239.313C87.1576 239.313 87.4359 239.258 87.708 239.146C87.807 239.109 88.0173 239.004 88.3389 238.831C88.6729 238.645 89.0068 238.435 89.3408 238.2C89.6872 237.94 89.9469 237.748 90.1201 237.625C90.3057 237.501 90.4355 237.421 90.5098 237.384C90.5964 237.346 90.6768 237.328 90.751 237.328C90.9242 237.328 91.0417 237.371 91.1035 237.458C91.1654 237.532 91.1963 237.687 91.1963 237.922V238.163C91.1592 238.769 90.9674 239.326 90.6211 239.833C90.4603 240.068 90.2376 240.315 89.9531 240.575C89.681 240.835 89.4027 241.064 89.1182 241.261C88.1533 241.855 87.1514 242.152 86.1123 242.152ZM83.8486 234.47C84.0713 234.47 84.2816 234.433 84.4795 234.359C85.1475 234.099 85.6546 233.648 86.001 233.005C86.1123 232.77 86.168 232.566 86.168 232.392C86.168 232.269 86.1432 232.163 86.0938 232.077C86.0195 231.978 85.9268 231.904 85.8154 231.854C85.7041 231.792 85.5928 231.755 85.4814 231.743H85.3701C85.1475 231.78 84.9062 231.922 84.6465 232.17C84.3867 232.405 84.1579 232.695 83.96 233.042C83.8486 233.24 83.7435 233.481 83.6445 233.765C83.5456 234.05 83.4961 234.248 83.4961 234.359C83.4961 234.384 83.5023 234.409 83.5146 234.433C83.527 234.446 83.5579 234.458 83.6074 234.47C83.6569 234.47 83.7373 234.47 83.8486 234.47ZM96.0205 242.616C95.7113 242.616 95.3958 242.579 95.0742 242.505C93.9733 242.257 93.2188 241.713 92.8105 240.872C92.6868 240.637 92.5817 240.377 92.4951 240.093C92.4085 239.808 92.359 239.561 92.3467 239.35L92.3281 239.146C92.3281 238.478 92.625 237.835 93.2188 237.217C93.2435 237.192 93.262 237.167 93.2744 237.142C93.3734 237.043 93.4476 236.975 93.4971 236.938C93.5589 236.889 93.6084 236.858 93.6455 236.845C93.695 236.833 93.763 236.827 93.8496 236.827C94.1465 236.827 94.332 236.957 94.4062 237.217C94.431 237.266 94.4434 237.346 94.4434 237.458C94.4434 237.594 94.4124 237.854 94.3506 238.237L94.3135 238.534C94.3135 238.831 94.363 239.115 94.4619 239.387C94.5609 239.66 94.6908 239.845 94.8516 239.944C95.0495 240.055 95.2598 240.111 95.4824 240.111L95.7793 240.074C96.2741 239.963 96.6576 239.715 96.9297 239.332C97.0286 239.196 97.0781 239.047 97.0781 238.886C97.0781 238.33 96.4782 237.483 95.2783 236.344C94.0537 235.182 93.3177 234.093 93.0703 233.079C93.0085 232.893 92.9714 232.733 92.959 232.596C92.9466 232.46 92.9404 232.256 92.9404 231.984C92.9404 231.638 92.9714 231.335 93.0332 231.075C93.1074 230.815 93.2435 230.512 93.4414 230.166C93.6146 229.857 93.862 229.541 94.1836 229.219C94.5052 228.898 94.8083 228.663 95.0928 228.514C95.637 228.242 96.1875 228.106 96.7441 228.106H96.8369C97.3564 228.106 97.8574 228.224 98.3398 228.459C98.513 228.545 98.6553 228.632 98.7666 228.719C98.8903 228.793 99.0264 228.898 99.1748 229.034C99.5088 229.368 99.7376 229.665 99.8613 229.925C99.985 230.184 100.047 230.5 100.047 230.871C100.047 231.069 100.035 231.223 100.01 231.335C99.9974 231.446 99.9727 231.551 99.9355 231.65C99.6263 232.355 99.2119 232.745 98.6924 232.819H98.5625C98.4141 232.819 98.3027 232.776 98.2285 232.689C98.1543 232.59 98.0801 232.405 98.0059 232.133C97.944 231.935 97.8822 231.786 97.8203 231.687C97.7708 231.588 97.7028 231.489 97.6162 231.39C97.2699 231.032 96.9359 230.852 96.6143 230.852C96.4287 230.852 96.2679 230.914 96.1318 231.038C96.0576 231.075 96.0143 231.118 96.002 231.168C95.9896 231.205 95.9834 231.267 95.9834 231.353C95.9834 231.427 95.9896 231.496 96.002 231.557C96.0143 231.619 96.0452 231.693 96.0947 231.78C96.1566 231.867 96.2493 231.99 96.373 232.151C96.472 232.287 96.5895 232.429 96.7256 232.578C96.874 232.714 97.0905 232.893 97.375 233.116C97.7585 233.438 98.0801 233.734 98.3398 234.007C98.612 234.266 98.8656 234.557 99.1006 234.879C99.9417 236.017 100.362 237.167 100.362 238.33V238.59C100.3 239.604 99.9046 240.495 99.1748 241.261C98.5934 241.868 97.8451 242.282 96.9297 242.505C96.6204 242.579 96.3174 242.616 96.0205 242.616ZM105.706 242.616C105.397 242.616 105.081 242.579 104.76 242.505C103.659 242.257 102.904 241.713 102.496 240.872C102.372 240.637 102.267 240.377 102.181 240.093C102.094 239.808 102.045 239.561 102.032 239.35L102.014 239.146C102.014 238.478 102.311 237.835 102.904 237.217C102.929 237.192 102.948 237.167 102.96 237.142C103.059 237.043 103.133 236.975 103.183 236.938C103.244 236.889 103.294 236.858 103.331 236.845C103.381 236.833 103.449 236.827 103.535 236.827C103.832 236.827 104.018 236.957 104.092 237.217C104.117 237.266 104.129 237.346 104.129 237.458C104.129 237.594 104.098 237.854 104.036 238.237L103.999 238.534C103.999 238.831 104.049 239.115 104.147 239.387C104.246 239.66 104.376 239.845 104.537 239.944C104.735 240.055 104.945 240.111 105.168 240.111L105.465 240.074C105.96 239.963 106.343 239.715 106.615 239.332C106.714 239.196 106.764 239.047 106.764 238.886C106.764 238.33 106.164 237.483 104.964 236.344C103.739 235.182 103.003 234.093 102.756 233.079C102.694 232.893 102.657 232.733 102.645 232.596C102.632 232.46 102.626 232.256 102.626 231.984C102.626 231.638 102.657 231.335 102.719 231.075C102.793 230.815 102.929 230.512 103.127 230.166C103.3 229.857 103.548 229.541 103.869 229.219C104.191 228.898 104.494 228.663 104.778 228.514C105.323 228.242 105.873 228.106 106.43 228.106H106.522C107.042 228.106 107.543 228.224 108.025 228.459C108.199 228.545 108.341 228.632 108.452 228.719C108.576 228.793 108.712 228.898 108.86 229.034C109.194 229.368 109.423 229.665 109.547 229.925C109.671 230.184 109.732 230.5 109.732 230.871C109.732 231.069 109.72 231.223 109.695 231.335C109.683 231.446 109.658 231.551 109.621 231.65C109.312 232.355 108.897 232.745 108.378 232.819H108.248C108.1 232.819 107.988 232.776 107.914 232.689C107.84 232.59 107.766 232.405 107.691 232.133C107.63 231.935 107.568 231.786 107.506 231.687C107.456 231.588 107.388 231.489 107.302 231.39C106.955 231.032 106.621 230.852 106.3 230.852C106.114 230.852 105.953 230.914 105.817 231.038C105.743 231.075 105.7 231.118 105.688 231.168C105.675 231.205 105.669 231.267 105.669 231.353C105.669 231.427 105.675 231.496 105.688 231.557C105.7 231.619 105.731 231.693 105.78 231.78C105.842 231.867 105.935 231.99 106.059 232.151C106.158 232.287 106.275 232.429 106.411 232.578C106.56 232.714 106.776 232.893 107.061 233.116C107.444 233.438 107.766 233.734 108.025 234.007C108.298 234.266 108.551 234.557 108.786 234.879C109.627 236.017 110.048 237.167 110.048 238.33V238.59C109.986 239.604 109.59 240.495 108.86 241.261C108.279 241.868 107.531 242.282 106.615 242.505C106.306 242.579 106.003 242.616 105.706 242.616ZM121.812 247.756C121.688 247.756 121.564 247.737 121.44 247.7C120.674 247.552 120.179 246.766 119.956 245.344C119.795 244.539 119.684 243.606 119.622 242.542C119.56 241.466 119.523 239.944 119.511 237.977L119.492 236.289C119.492 231.131 119.826 227.908 120.494 226.622C120.766 226.127 121.088 225.88 121.459 225.88H121.496C121.855 225.88 122.164 226.108 122.424 226.566C122.535 226.801 122.616 227.141 122.665 227.587C122.715 228.02 122.739 228.694 122.739 229.609C122.739 230.054 122.733 230.518 122.721 231.001C122.708 231.471 122.696 231.83 122.684 232.077C122.659 232.324 122.64 232.59 122.628 232.875C122.628 233.159 122.628 233.388 122.628 233.561V234.192C123.308 232.262 123.951 230.821 124.558 229.869C125.164 228.904 125.881 228.298 126.71 228.051C126.834 228.013 126.945 227.989 127.044 227.976C127.143 227.964 127.26 227.958 127.396 227.958H127.675C128.034 227.97 128.343 228.038 128.603 228.162C128.875 228.273 129.159 228.477 129.456 228.774C129.617 228.935 129.747 229.083 129.846 229.219C129.945 229.356 130.044 229.529 130.143 229.739C130.576 230.716 130.792 231.805 130.792 233.005C130.792 233.895 130.674 234.774 130.439 235.639C130.303 236.097 130.118 236.573 129.883 237.068C129.648 237.563 129.425 237.94 129.215 238.2C128.77 238.719 128.287 239.109 127.768 239.369C127.273 239.616 126.79 239.74 126.32 239.74C125.9 239.74 125.448 239.641 124.966 239.443C124.842 239.394 124.737 239.357 124.65 239.332C124.564 239.307 124.521 239.295 124.521 239.295C124.508 239.332 124.465 239.561 124.391 239.981C124.366 240.229 124.329 240.513 124.279 240.835C124.205 241.354 124.143 241.812 124.094 242.208C124.007 242.826 123.914 243.587 123.815 244.49C123.704 245.492 123.556 246.216 123.37 246.661C123.185 247.106 122.912 247.409 122.554 247.57C122.294 247.694 122.047 247.756 121.812 247.756ZM125.059 237.254C125.17 237.254 125.38 237.179 125.689 237.031C125.924 236.907 126.116 236.777 126.265 236.641C126.425 236.505 126.568 236.332 126.691 236.122C127.124 235.38 127.341 234.359 127.341 233.06C127.341 232.677 127.316 232.318 127.267 231.984C127.229 231.65 127.186 231.452 127.137 231.39H127.1C126.939 231.452 126.691 231.854 126.357 232.596C126.036 233.326 125.733 234.167 125.448 235.12C125.374 235.33 125.3 235.584 125.226 235.881C125.151 236.177 125.083 236.45 125.021 236.697C124.972 236.944 124.947 237.093 124.947 237.142C124.947 237.217 124.984 237.254 125.059 237.254ZM138.028 242.152C137.682 242.152 137.348 242.115 137.026 242.041C135.356 241.682 134.144 240.866 133.39 239.592C132.759 238.503 132.443 237.34 132.443 236.103C132.443 234.965 132.709 233.846 133.241 232.745C133.785 231.644 134.497 230.778 135.375 230.147C136.105 229.578 136.921 229.294 137.824 229.294H137.917C138.919 229.294 139.766 229.622 140.459 230.277C141.077 230.797 141.387 231.477 141.387 232.318C141.387 233.147 141.047 234.007 140.366 234.897C140.057 235.305 139.636 235.701 139.104 236.085C138.573 236.456 138.084 236.709 137.639 236.845C137.503 236.895 137.373 236.938 137.249 236.975C136.804 237.161 136.402 237.254 136.043 237.254C135.907 237.254 135.771 237.229 135.635 237.179L135.561 237.161C135.548 237.161 135.542 237.167 135.542 237.179L135.561 237.272C135.672 237.619 135.876 237.928 136.173 238.2C136.371 238.373 136.587 238.54 136.822 238.701C137.07 238.862 137.305 238.979 137.527 239.053C137.923 239.227 138.344 239.313 138.789 239.313C139.074 239.313 139.352 239.258 139.624 239.146C139.723 239.109 139.933 239.004 140.255 238.831C140.589 238.645 140.923 238.435 141.257 238.2C141.603 237.94 141.863 237.748 142.036 237.625C142.222 237.501 142.352 237.421 142.426 237.384C142.512 237.346 142.593 237.328 142.667 237.328C142.84 237.328 142.958 237.371 143.02 237.458C143.081 237.532 143.112 237.687 143.112 237.922V238.163C143.075 238.769 142.883 239.326 142.537 239.833C142.376 240.068 142.154 240.315 141.869 240.575C141.597 240.835 141.319 241.064 141.034 241.261C140.069 241.855 139.067 242.152 138.028 242.152ZM135.765 234.47C135.987 234.47 136.198 234.433 136.396 234.359C137.063 234.099 137.571 233.648 137.917 233.005C138.028 232.77 138.084 232.566 138.084 232.392C138.084 232.269 138.059 232.163 138.01 232.077C137.936 231.978 137.843 231.904 137.731 231.854C137.62 231.792 137.509 231.755 137.397 231.743H137.286C137.063 231.78 136.822 231.922 136.562 232.17C136.303 232.405 136.074 232.695 135.876 233.042C135.765 233.24 135.66 233.481 135.561 233.765C135.462 234.05 135.412 234.248 135.412 234.359C135.412 234.384 135.418 234.409 135.431 234.433C135.443 234.446 135.474 234.458 135.523 234.47C135.573 234.47 135.653 234.47 135.765 234.47ZM153.874 242.746C153.676 242.746 153.478 242.684 153.28 242.56C153.058 242.424 152.872 242.189 152.724 241.855C152.588 241.521 152.458 241.014 152.334 240.334C152.21 239.715 152.148 239.016 152.148 238.237C152.148 237.136 152.272 235.689 152.52 233.895L152.557 233.673C152.285 233.969 151.913 234.582 151.443 235.51C150.973 236.425 150.534 237.39 150.126 238.404C149.78 239.295 149.501 239.981 149.291 240.464C149.093 240.946 148.926 241.305 148.79 241.54C148.666 241.775 148.543 241.96 148.419 242.096C147.986 242.529 147.528 242.746 147.046 242.746C146.897 242.746 146.755 242.727 146.619 242.69C146.087 242.529 145.667 242.134 145.357 241.503C145.246 241.243 145.135 240.89 145.023 240.445C144.912 240 144.838 239.567 144.801 239.146C144.776 238.812 144.764 238.324 144.764 237.68C144.764 237.099 144.77 236.487 144.782 235.844C144.807 235.2 144.838 234.681 144.875 234.285C144.937 233.506 145.036 232.708 145.172 231.891C145.32 231.075 145.456 230.487 145.58 230.129C145.766 229.634 146.007 229.3 146.304 229.127C146.366 229.077 146.421 229.046 146.471 229.034C146.533 229.009 146.607 228.997 146.693 228.997H146.86C147.306 229.009 147.652 229.269 147.899 229.776C147.961 229.9 148.005 230.005 148.029 230.092C148.066 230.166 148.091 230.277 148.104 230.426C148.116 230.562 148.122 230.778 148.122 231.075V231.409C148.122 232.213 148.054 233.345 147.918 234.804C147.856 235.67 147.825 236.307 147.825 236.716C147.825 236.901 147.831 237 147.844 237.012C147.868 237.012 147.924 236.932 148.011 236.771C148.097 236.61 148.196 236.413 148.308 236.177C149.124 234.557 150.138 232.937 151.351 231.316C152.13 230.191 152.965 229.628 153.855 229.628C154.734 229.628 155.327 230.11 155.637 231.075C155.686 231.186 155.717 231.298 155.729 231.409C155.742 231.52 155.748 231.681 155.748 231.891C155.76 232.102 155.767 232.436 155.767 232.893C155.767 233.438 155.754 233.889 155.729 234.248C155.717 234.594 155.686 234.965 155.637 235.361L155.358 237.736C155.222 238.973 155.092 240.006 154.969 240.835C154.857 241.651 154.765 242.134 154.69 242.282C154.48 242.591 154.208 242.746 153.874 242.746ZM172.354 242.931C172.132 242.931 171.903 242.907 171.668 242.857C170.814 242.672 170.072 242.164 169.441 241.336C169.243 241.088 169.083 240.853 168.959 240.631C168.848 240.396 168.73 240.074 168.606 239.666C168.297 238.763 168.087 237.841 167.976 236.901C167.864 235.961 167.802 234.65 167.79 232.968L167.771 230.648C166.337 230.537 165.502 230.147 165.267 229.479C165.229 229.368 165.211 229.257 165.211 229.145C165.211 228.898 165.285 228.663 165.434 228.44C165.607 228.205 165.91 228.007 166.343 227.846C166.788 227.673 167.221 227.587 167.642 227.587C167.716 227.587 167.784 227.587 167.846 227.587C167.908 227.574 167.951 227.562 167.976 227.55C167.988 227.537 168.019 227.438 168.068 227.253C168.118 227.067 168.161 226.844 168.198 226.585C168.507 224.766 168.94 223.548 169.497 222.929C169.819 222.583 170.146 222.41 170.48 222.41C171.037 222.435 171.47 222.88 171.779 223.746C171.854 224.018 171.909 224.352 171.946 224.748C171.996 225.131 172.033 225.676 172.058 226.381C172.058 226.64 172.058 226.857 172.058 227.03C172.07 227.191 172.076 227.321 172.076 227.42C172.089 227.506 172.101 227.574 172.113 227.624C172.126 227.673 172.138 227.704 172.15 227.717C172.163 227.729 172.181 227.735 172.206 227.735L172.948 227.884C173.332 227.958 173.715 228.088 174.099 228.273C174.482 228.446 174.767 228.626 174.952 228.811C175.15 229.046 175.249 229.275 175.249 229.498C175.249 229.918 174.934 230.252 174.303 230.5C173.845 230.648 173.375 230.722 172.893 230.722L171.983 230.667C171.971 230.939 171.959 231.124 171.946 231.223C171.934 231.298 171.928 231.372 171.928 231.446C171.928 231.508 171.922 231.607 171.909 231.743C171.909 231.867 171.909 232.052 171.909 232.3C171.909 232.918 171.922 233.617 171.946 234.396C171.983 235.176 172.027 235.745 172.076 236.103C172.175 236.883 172.274 237.489 172.373 237.922C172.484 238.355 172.614 238.701 172.763 238.961C172.874 239.196 172.979 239.313 173.078 239.313C173.14 239.313 173.22 239.264 173.319 239.165C173.468 239.016 173.604 238.837 173.728 238.627C173.864 238.404 174.012 238.082 174.173 237.662C174.346 237.229 174.494 236.926 174.618 236.753C174.742 236.58 174.878 236.493 175.026 236.493C175.224 236.493 175.36 236.555 175.435 236.678C175.521 236.802 175.589 237.056 175.639 237.439C175.676 237.674 175.694 237.928 175.694 238.2C175.694 238.967 175.583 239.734 175.36 240.501C175.15 241.144 174.853 241.651 174.47 242.022C173.851 242.628 173.146 242.931 172.354 242.931ZM181.91 242.041C181.65 242.041 181.422 242.022 181.224 241.985C181.112 241.96 180.97 241.917 180.797 241.855C180.624 241.781 180.457 241.707 180.296 241.633C180.086 241.534 179.906 241.435 179.758 241.336C179.622 241.224 179.461 241.076 179.275 240.89C179.04 240.643 178.849 240.402 178.7 240.167C178.552 239.932 178.385 239.585 178.199 239.128C177.878 238.262 177.717 237.303 177.717 236.252C177.717 234.903 177.977 233.574 178.496 232.262C179.115 230.84 179.925 229.788 180.927 229.108C181.137 228.972 181.329 228.879 181.502 228.83C181.675 228.768 181.879 228.737 182.114 228.737L182.912 228.644C183.098 228.62 183.296 228.607 183.506 228.607C184.186 228.632 184.805 228.793 185.361 229.09C185.782 229.325 186.147 229.634 186.456 230.017C186.778 230.401 187.105 230.927 187.439 231.594C187.835 232.436 188.033 233.444 188.033 234.619C188.033 235.039 188.002 235.417 187.94 235.751C187.879 236.072 187.761 236.493 187.588 237.012C187.019 238.806 186.079 240.148 184.768 241.039C184.149 241.472 183.586 241.762 183.079 241.911C182.696 241.997 182.306 242.041 181.91 242.041ZM182.04 238.59C182.164 238.59 182.312 238.54 182.485 238.441C182.72 238.317 182.986 238.101 183.283 237.792C183.592 237.47 183.84 237.161 184.025 236.864C184.211 236.555 184.353 236.27 184.452 236.01C184.563 235.738 184.65 235.429 184.712 235.083C184.786 234.712 184.823 234.365 184.823 234.044C184.823 233.252 184.613 232.634 184.192 232.188C184.019 232.015 183.834 231.891 183.636 231.817C183.438 231.731 183.178 231.681 182.856 231.669H182.541C182.417 231.669 182.331 231.681 182.281 231.706C182.232 231.718 182.176 231.749 182.114 231.799C182.065 231.848 181.997 231.935 181.91 232.058C181.824 232.17 181.749 232.3 181.688 232.448C181.18 233.475 180.927 234.594 180.927 235.806C180.927 237.043 181.137 237.872 181.558 238.293C181.718 238.491 181.879 238.59 182.04 238.59ZM206.699 243.748C206.538 243.748 206.347 243.692 206.124 243.581C205.901 243.482 205.71 243.315 205.549 243.08C205.252 242.536 204.937 241.484 204.603 239.926C204.59 239.876 204.572 239.851 204.547 239.851C204.51 239.851 204.405 239.926 204.231 240.074C204.219 240.074 204.213 240.08 204.213 240.093C203.384 240.699 202.518 241.002 201.615 241.002C201.059 241.002 200.527 240.897 200.02 240.686C199.512 240.464 199.079 240.142 198.721 239.721C198.288 239.214 197.972 238.658 197.774 238.052C197.589 237.433 197.484 236.648 197.459 235.695C197.459 234.619 197.7 233.592 198.183 232.615C198.665 231.625 199.308 230.883 200.112 230.388C200.508 230.141 200.873 229.968 201.207 229.869C201.541 229.77 201.894 229.714 202.265 229.702C202.537 229.702 202.827 229.72 203.137 229.758C203.458 229.795 203.743 229.844 203.99 229.906C204.102 229.931 204.188 229.943 204.25 229.943C204.349 229.943 204.417 229.832 204.454 229.609C204.491 229.386 204.528 229.022 204.565 228.514C204.603 227.921 204.683 227.11 204.807 226.084C204.943 224.921 205.141 223.857 205.4 222.892C205.673 221.927 205.957 221.241 206.254 220.833C206.538 220.449 206.817 220.258 207.089 220.258C207.497 220.245 207.806 220.579 208.017 221.26C208.078 221.569 208.109 222.144 208.109 222.985C208.109 224.16 208.054 225.323 207.942 226.473C207.881 227.352 207.819 228.397 207.757 229.609C207.695 230.809 207.664 232.3 207.664 234.081C207.664 235.256 207.664 236.258 207.664 237.087C207.676 237.915 207.695 238.868 207.72 239.944C207.732 240.6 207.744 241.367 207.757 242.245C207.757 242.468 207.751 242.635 207.738 242.746C207.738 242.87 207.732 242.956 207.72 243.006C207.707 243.067 207.695 243.117 207.683 243.154C207.571 243.364 207.417 243.513 207.219 243.599C207.021 243.698 206.848 243.748 206.699 243.748ZM202.005 237.699C202.314 237.674 202.636 237.594 202.97 237.458C203.316 237.309 203.755 237.093 204.287 236.808C204.275 236.153 204.269 235.596 204.269 235.138C204.269 234.273 204.256 233.673 204.231 233.339C204.219 232.992 204.176 232.801 204.102 232.763C203.792 232.541 203.242 232.429 202.45 232.429C201.906 232.491 201.473 232.782 201.151 233.302C200.842 233.821 200.688 234.489 200.688 235.305C200.688 235.701 200.712 236.035 200.762 236.307C200.824 236.58 200.929 236.845 201.077 237.105C201.188 237.328 201.3 237.483 201.411 237.569C201.522 237.656 201.671 237.699 201.856 237.699H202.005ZM215.735 242.152C215.389 242.152 215.055 242.115 214.733 242.041C213.063 241.682 211.851 240.866 211.097 239.592C210.466 238.503 210.15 237.34 210.15 236.103C210.15 234.965 210.416 233.846 210.948 232.745C211.493 231.644 212.204 230.778 213.082 230.147C213.812 229.578 214.628 229.294 215.531 229.294H215.624C216.626 229.294 217.473 229.622 218.166 230.277C218.785 230.797 219.094 231.477 219.094 232.318C219.094 233.147 218.754 234.007 218.073 234.897C217.764 235.305 217.343 235.701 216.812 236.085C216.28 236.456 215.791 236.709 215.346 236.845C215.21 236.895 215.08 236.938 214.956 236.975C214.511 237.161 214.109 237.254 213.75 237.254C213.614 237.254 213.478 237.229 213.342 237.179L213.268 237.161C213.255 237.161 213.249 237.167 213.249 237.179L213.268 237.272C213.379 237.619 213.583 237.928 213.88 238.2C214.078 238.373 214.294 238.54 214.529 238.701C214.777 238.862 215.012 238.979 215.234 239.053C215.63 239.227 216.051 239.313 216.496 239.313C216.781 239.313 217.059 239.258 217.331 239.146C217.43 239.109 217.64 239.004 217.962 238.831C218.296 238.645 218.63 238.435 218.964 238.2C219.31 237.94 219.57 237.748 219.743 237.625C219.929 237.501 220.059 237.421 220.133 237.384C220.219 237.346 220.3 237.328 220.374 237.328C220.547 237.328 220.665 237.371 220.727 237.458C220.788 237.532 220.819 237.687 220.819 237.922V238.163C220.782 238.769 220.59 239.326 220.244 239.833C220.083 240.068 219.861 240.315 219.576 240.575C219.304 240.835 219.026 241.064 218.741 241.261C217.776 241.855 216.774 242.152 215.735 242.152ZM213.472 234.47C213.694 234.47 213.905 234.433 214.103 234.359C214.771 234.099 215.278 233.648 215.624 233.005C215.735 232.77 215.791 232.566 215.791 232.392C215.791 232.269 215.766 232.163 215.717 232.077C215.643 231.978 215.55 231.904 215.438 231.854C215.327 231.792 215.216 231.755 215.104 231.743H214.993C214.771 231.78 214.529 231.922 214.27 232.17C214.01 232.405 213.781 232.695 213.583 233.042C213.472 233.24 213.367 233.481 213.268 233.765C213.169 234.05 213.119 234.248 213.119 234.359C213.119 234.384 213.125 234.409 213.138 234.433C213.15 234.446 213.181 234.458 213.23 234.47C213.28 234.47 213.36 234.47 213.472 234.47ZM225.848 242.616C225.687 242.616 225.52 242.585 225.347 242.523C225.087 242.424 224.852 242.313 224.642 242.189C224.444 242.053 224.227 241.868 223.992 241.633C223.547 241.237 223.225 240.705 223.027 240.037C222.842 239.357 222.706 238.299 222.619 236.864L222.322 232.058C222.298 231.551 222.285 230.908 222.285 230.129C222.285 229.473 222.291 228.836 222.304 228.218C222.316 227.587 222.341 227.123 222.378 226.826C222.39 226.665 222.403 226.48 222.415 226.269C222.44 226.059 222.458 225.867 222.471 225.694C222.743 222.045 223.485 220.01 224.697 219.59C224.784 219.565 224.877 219.552 224.976 219.552H224.994C225.637 219.552 226.095 220.103 226.367 221.204C226.441 221.575 226.479 222.057 226.479 222.651C226.479 223.319 226.435 224.08 226.349 224.933C226.138 226.69 225.934 229.096 225.736 232.151C225.712 232.547 225.693 233.066 225.681 233.71C225.668 234.353 225.662 235.009 225.662 235.677C225.662 236.357 225.668 236.982 225.681 237.551C225.693 238.12 225.712 238.528 225.736 238.775C225.823 239.579 225.922 240.136 226.033 240.445C226.145 240.754 226.312 240.952 226.534 241.039C226.856 241.138 227.017 241.354 227.017 241.688C227.017 241.96 226.899 242.183 226.664 242.356C226.429 242.529 226.157 242.616 225.848 242.616ZM234.067 242.152C233.721 242.152 233.387 242.115 233.065 242.041C231.396 241.682 230.183 240.866 229.429 239.592C228.798 238.503 228.482 237.34 228.482 236.103C228.482 234.965 228.748 233.846 229.28 232.745C229.825 231.644 230.536 230.778 231.414 230.147C232.144 229.578 232.96 229.294 233.863 229.294H233.956C234.958 229.294 235.805 229.622 236.498 230.277C237.117 230.797 237.426 231.477 237.426 232.318C237.426 233.147 237.086 234.007 236.405 234.897C236.096 235.305 235.675 235.701 235.144 236.085C234.612 236.456 234.123 236.709 233.678 236.845C233.542 236.895 233.412 236.938 233.288 236.975C232.843 237.161 232.441 237.254 232.082 237.254C231.946 237.254 231.81 237.229 231.674 237.179L231.6 237.161C231.587 237.161 231.581 237.167 231.581 237.179L231.6 237.272C231.711 237.619 231.915 237.928 232.212 238.2C232.41 238.373 232.626 238.54 232.861 238.701C233.109 238.862 233.344 238.979 233.566 239.053C233.962 239.227 234.383 239.313 234.828 239.313C235.113 239.313 235.391 239.258 235.663 239.146C235.762 239.109 235.972 239.004 236.294 238.831C236.628 238.645 236.962 238.435 237.296 238.2C237.642 237.94 237.902 237.748 238.075 237.625C238.261 237.501 238.391 237.421 238.465 237.384C238.551 237.346 238.632 237.328 238.706 237.328C238.879 237.328 238.997 237.371 239.059 237.458C239.12 237.532 239.151 237.687 239.151 237.922V238.163C239.114 238.769 238.923 239.326 238.576 239.833C238.415 240.068 238.193 240.315 237.908 240.575C237.636 240.835 237.358 241.064 237.073 241.261C236.108 241.855 235.106 242.152 234.067 242.152ZM231.804 234.47C232.026 234.47 232.237 234.433 232.435 234.359C233.103 234.099 233.61 233.648 233.956 233.005C234.067 232.77 234.123 232.566 234.123 232.392C234.123 232.269 234.098 232.163 234.049 232.077C233.975 231.978 233.882 231.904 233.771 231.854C233.659 231.792 233.548 231.755 233.437 231.743H233.325C233.103 231.78 232.861 231.922 232.602 232.17C232.342 232.405 232.113 232.695 231.915 233.042C231.804 233.24 231.699 233.481 231.6 233.765C231.501 234.05 231.451 234.248 231.451 234.359C231.451 234.384 231.457 234.409 231.47 234.433C231.482 234.446 231.513 234.458 231.562 234.47C231.612 234.47 231.692 234.47 231.804 234.47ZM245.831 242.931C245.608 242.931 245.38 242.907 245.145 242.857C244.291 242.672 243.549 242.164 242.918 241.336C242.72 241.088 242.559 240.853 242.436 240.631C242.324 240.396 242.207 240.074 242.083 239.666C241.774 238.763 241.563 237.841 241.452 236.901C241.341 235.961 241.279 234.65 241.267 232.968L241.248 230.648C239.813 230.537 238.978 230.147 238.743 229.479C238.706 229.368 238.688 229.257 238.688 229.145C238.688 228.898 238.762 228.663 238.91 228.44C239.083 228.205 239.386 228.007 239.819 227.846C240.265 227.673 240.698 227.587 241.118 227.587C241.192 227.587 241.26 227.587 241.322 227.587C241.384 227.574 241.427 227.562 241.452 227.55C241.465 227.537 241.495 227.438 241.545 227.253C241.594 227.067 241.638 226.844 241.675 226.585C241.984 224.766 242.417 223.548 242.974 222.929C243.295 222.583 243.623 222.41 243.957 222.41C244.514 222.435 244.947 222.88 245.256 223.746C245.33 224.018 245.386 224.352 245.423 224.748C245.472 225.131 245.509 225.676 245.534 226.381C245.534 226.64 245.534 226.857 245.534 227.03C245.547 227.191 245.553 227.321 245.553 227.42C245.565 227.506 245.577 227.574 245.59 227.624C245.602 227.673 245.615 227.704 245.627 227.717C245.639 227.729 245.658 227.735 245.683 227.735L246.425 227.884C246.808 227.958 247.192 228.088 247.575 228.273C247.959 228.446 248.243 228.626 248.429 228.811C248.627 229.046 248.726 229.275 248.726 229.498C248.726 229.918 248.41 230.252 247.779 230.5C247.322 230.648 246.852 230.722 246.369 230.722L245.46 230.667C245.448 230.939 245.435 231.124 245.423 231.223C245.41 231.298 245.404 231.372 245.404 231.446C245.404 231.508 245.398 231.607 245.386 231.743C245.386 231.867 245.386 232.052 245.386 232.3C245.386 232.918 245.398 233.617 245.423 234.396C245.46 235.176 245.503 235.745 245.553 236.103C245.652 236.883 245.751 237.489 245.85 237.922C245.961 238.355 246.091 238.701 246.239 238.961C246.351 239.196 246.456 239.313 246.555 239.313C246.617 239.313 246.697 239.264 246.796 239.165C246.944 239.016 247.08 238.837 247.204 238.627C247.34 238.404 247.489 238.082 247.649 237.662C247.823 237.229 247.971 236.926 248.095 236.753C248.218 236.58 248.354 236.493 248.503 236.493C248.701 236.493 248.837 236.555 248.911 236.678C248.998 236.802 249.066 237.056 249.115 237.439C249.152 237.674 249.171 237.928 249.171 238.2C249.171 238.967 249.06 239.734 248.837 240.501C248.627 241.144 248.33 241.651 247.946 242.022C247.328 242.628 246.623 242.931 245.831 242.931ZM256.778 242.152C256.432 242.152 256.098 242.115 255.776 242.041C254.106 241.682 252.894 240.866 252.14 239.592C251.509 238.503 251.193 237.34 251.193 236.103C251.193 234.965 251.459 233.846 251.991 232.745C252.535 231.644 253.247 230.778 254.125 230.147C254.855 229.578 255.671 229.294 256.574 229.294H256.667C257.669 229.294 258.516 229.622 259.209 230.277C259.827 230.797 260.137 231.477 260.137 232.318C260.137 233.147 259.797 234.007 259.116 234.897C258.807 235.305 258.386 235.701 257.854 236.085C257.323 236.456 256.834 236.709 256.389 236.845C256.253 236.895 256.123 236.938 255.999 236.975C255.554 237.161 255.152 237.254 254.793 237.254C254.657 237.254 254.521 237.229 254.385 237.179L254.311 237.161C254.298 237.161 254.292 237.167 254.292 237.179L254.311 237.272C254.422 237.619 254.626 237.928 254.923 238.2C255.121 238.373 255.337 238.54 255.572 238.701C255.82 238.862 256.055 238.979 256.277 239.053C256.673 239.227 257.094 239.313 257.539 239.313C257.824 239.313 258.102 239.258 258.374 239.146C258.473 239.109 258.683 239.004 259.005 238.831C259.339 238.645 259.673 238.435 260.007 238.2C260.353 237.94 260.613 237.748 260.786 237.625C260.972 237.501 261.102 237.421 261.176 237.384C261.262 237.346 261.343 237.328 261.417 237.328C261.59 237.328 261.708 237.371 261.77 237.458C261.831 237.532 261.862 237.687 261.862 237.922V238.163C261.825 238.769 261.633 239.326 261.287 239.833C261.126 240.068 260.904 240.315 260.619 240.575C260.347 240.835 260.069 241.064 259.784 241.261C258.819 241.855 257.817 242.152 256.778 242.152ZM254.515 234.47C254.737 234.47 254.948 234.433 255.146 234.359C255.813 234.099 256.321 233.648 256.667 233.005C256.778 232.77 256.834 232.566 256.834 232.392C256.834 232.269 256.809 232.163 256.76 232.077C256.686 231.978 256.593 231.904 256.481 231.854C256.37 231.792 256.259 231.755 256.147 231.743H256.036C255.813 231.78 255.572 231.922 255.312 232.17C255.053 232.405 254.824 232.695 254.626 233.042C254.515 233.24 254.41 233.481 254.311 233.765C254.212 234.05 254.162 234.248 254.162 234.359C254.162 234.384 254.168 234.409 254.181 234.433C254.193 234.446 254.224 234.458 254.273 234.47C254.323 234.47 254.403 234.47 254.515 234.47ZM275.5 242.041C275.24 242.041 275.011 242.022 274.813 241.985C274.702 241.96 274.56 241.917 274.387 241.855C274.214 241.781 274.047 241.707 273.886 241.633C273.675 241.534 273.496 241.435 273.348 241.336C273.212 241.224 273.051 241.076 272.865 240.89C272.63 240.643 272.438 240.402 272.29 240.167C272.142 239.932 271.975 239.585 271.789 239.128C271.467 238.262 271.307 237.303 271.307 236.252C271.307 234.903 271.566 233.574 272.086 232.262C272.704 230.84 273.515 229.788 274.517 229.108C274.727 228.972 274.919 228.879 275.092 228.83C275.265 228.768 275.469 228.737 275.704 228.737L276.502 228.644C276.688 228.62 276.885 228.607 277.096 228.607C277.776 228.632 278.395 228.793 278.951 229.09C279.372 229.325 279.737 229.634 280.046 230.017C280.368 230.401 280.695 230.927 281.029 231.594C281.425 232.436 281.623 233.444 281.623 234.619C281.623 235.039 281.592 235.417 281.53 235.751C281.468 236.072 281.351 236.493 281.178 237.012C280.609 238.806 279.669 240.148 278.357 241.039C277.739 241.472 277.176 241.762 276.669 241.911C276.285 241.997 275.896 242.041 275.5 242.041ZM275.63 238.59C275.754 238.59 275.902 238.54 276.075 238.441C276.31 238.317 276.576 238.101 276.873 237.792C277.182 237.47 277.43 237.161 277.615 236.864C277.801 236.555 277.943 236.27 278.042 236.01C278.153 235.738 278.24 235.429 278.302 235.083C278.376 234.712 278.413 234.365 278.413 234.044C278.413 233.252 278.203 232.634 277.782 232.188C277.609 232.015 277.424 231.891 277.226 231.817C277.028 231.731 276.768 231.681 276.446 231.669H276.131C276.007 231.669 275.921 231.681 275.871 231.706C275.822 231.718 275.766 231.749 275.704 231.799C275.655 231.848 275.587 231.935 275.5 232.058C275.413 232.17 275.339 232.3 275.277 232.448C274.77 233.475 274.517 234.594 274.517 235.806C274.517 237.043 274.727 237.872 275.147 238.293C275.308 238.491 275.469 238.59 275.63 238.59ZM285.854 242.616L285.575 242.579C285.315 242.529 285.068 242.412 284.833 242.226C284.61 242.028 284.431 241.793 284.295 241.521C283.85 240.42 283.627 238.658 283.627 236.233L283.646 235.064C283.769 232.133 284.103 230.098 284.647 228.96C285.031 228.242 285.501 227.859 286.058 227.809H286.132C286.379 227.809 286.614 227.89 286.837 228.051C287.06 228.211 287.239 228.446 287.375 228.756C287.523 229.04 287.598 229.479 287.598 230.073L287.561 230.982L287.431 232.596C287.777 231.953 288.062 231.465 288.284 231.131C288.507 230.784 288.754 230.475 289.026 230.203C289.311 229.931 289.558 229.739 289.769 229.628C289.979 229.516 290.22 229.455 290.492 229.442H290.696C290.795 229.442 290.882 229.455 290.956 229.479C291.03 229.492 291.117 229.516 291.216 229.553C291.81 229.838 292.292 230.438 292.663 231.353C292.774 231.638 292.83 231.873 292.83 232.058C292.83 232.343 292.7 232.541 292.44 232.652C292.329 232.714 292.212 232.745 292.088 232.745C291.816 232.745 291.5 232.59 291.142 232.281C291.043 232.207 290.95 232.139 290.863 232.077C290.777 232.015 290.721 231.984 290.696 231.984C290.634 231.984 290.511 232.077 290.325 232.262C290.152 232.448 289.997 232.646 289.861 232.856C289.132 233.945 288.538 235.893 288.08 238.701C287.932 239.592 287.814 240.247 287.728 240.668C287.641 241.088 287.554 241.385 287.468 241.558C287.394 241.719 287.282 241.868 287.134 242.004C286.738 242.412 286.311 242.616 285.854 242.616ZM307.247 242.616C307.062 242.616 306.876 242.61 306.69 242.597C305.33 242.474 304.229 241.793 303.388 240.556C303.041 240.037 302.763 239.4 302.553 238.645C302.355 237.891 302.256 237.13 302.256 236.363C302.256 236.153 302.262 235.942 302.274 235.732C302.312 235.262 302.367 234.879 302.441 234.582C302.516 234.273 302.646 233.864 302.831 233.357C303.4 231.823 304.198 230.58 305.225 229.628C305.509 229.368 305.825 229.114 306.171 228.867C306.53 228.62 306.839 228.44 307.099 228.329C307.655 228.081 308.206 227.952 308.75 227.939C309.665 227.939 310.525 228.236 311.329 228.83C311.675 229.09 311.941 229.442 312.127 229.887C312.325 230.32 312.424 230.76 312.424 231.205C312.424 231.39 312.405 231.576 312.368 231.761C312.319 231.997 312.201 232.269 312.016 232.578C311.842 232.887 311.651 233.147 311.44 233.357C310.946 233.79 310.494 234.007 310.086 234.007C309.789 234.007 309.573 233.889 309.437 233.654C309.424 233.605 309.418 233.549 309.418 233.487C309.418 233.388 309.437 233.246 309.474 233.06C309.56 232.702 309.604 232.343 309.604 231.984C309.604 231.663 309.566 231.421 309.492 231.26C309.43 231.124 309.338 231.007 309.214 230.908C309.103 230.797 308.985 230.729 308.861 230.704L308.806 230.685C308.62 230.685 308.367 230.79 308.045 231.001C307.736 231.211 307.439 231.471 307.154 231.78C306.177 232.968 305.688 234.266 305.688 235.677C305.688 236.233 305.769 236.784 305.93 237.328C306.239 238.293 306.703 238.917 307.321 239.202C307.457 239.251 307.606 239.276 307.767 239.276C308.274 239.276 308.892 239.053 309.622 238.608C310.055 238.348 310.426 237.977 310.735 237.495C310.946 237.198 311.181 236.975 311.44 236.827C311.713 236.666 311.972 236.586 312.22 236.586C312.43 236.586 312.622 236.641 312.795 236.753C312.968 236.864 313.092 237.037 313.166 237.272C313.215 237.408 313.24 237.551 313.24 237.699C313.24 238.045 313.11 238.454 312.851 238.924C312.146 240.321 311.106 241.367 309.733 242.059C308.979 242.43 308.15 242.616 307.247 242.616ZM319.438 242.041C319.178 242.041 318.949 242.022 318.751 241.985C318.64 241.96 318.497 241.917 318.324 241.855C318.151 241.781 317.984 241.707 317.823 241.633C317.613 241.534 317.434 241.435 317.285 241.336C317.149 241.224 316.988 241.076 316.803 240.89C316.568 240.643 316.376 240.402 316.228 240.167C316.079 239.932 315.912 239.585 315.727 239.128C315.405 238.262 315.244 237.303 315.244 236.252C315.244 234.903 315.504 233.574 316.023 232.262C316.642 230.84 317.452 229.788 318.454 229.108C318.664 228.972 318.856 228.879 319.029 228.83C319.202 228.768 319.407 228.737 319.642 228.737L320.439 228.644C320.625 228.62 320.823 228.607 321.033 228.607C321.714 228.632 322.332 228.793 322.889 229.09C323.309 229.325 323.674 229.634 323.983 230.017C324.305 230.401 324.633 230.927 324.967 231.594C325.363 232.436 325.561 233.444 325.561 234.619C325.561 235.039 325.53 235.417 325.468 235.751C325.406 236.072 325.288 236.493 325.115 237.012C324.546 238.806 323.606 240.148 322.295 241.039C321.676 241.472 321.114 241.762 320.606 241.911C320.223 241.997 319.833 242.041 319.438 242.041ZM319.567 238.59C319.691 238.59 319.84 238.54 320.013 238.441C320.248 238.317 320.514 238.101 320.811 237.792C321.12 237.47 321.367 237.161 321.553 236.864C321.738 236.555 321.881 236.27 321.979 236.01C322.091 235.738 322.177 235.429 322.239 235.083C322.313 234.712 322.351 234.365 322.351 234.044C322.351 233.252 322.14 232.634 321.72 232.188C321.547 232.015 321.361 231.891 321.163 231.817C320.965 231.731 320.705 231.681 320.384 231.669H320.068C319.945 231.669 319.858 231.681 319.809 231.706C319.759 231.718 319.703 231.749 319.642 231.799C319.592 231.848 319.524 231.935 319.438 232.058C319.351 232.17 319.277 232.3 319.215 232.448C318.708 233.475 318.454 234.594 318.454 235.806C318.454 237.043 318.664 237.872 319.085 238.293C319.246 238.491 319.407 238.59 319.567 238.59ZM329.884 247.756C329.76 247.756 329.636 247.737 329.513 247.7C328.746 247.552 328.251 246.766 328.028 245.344C327.868 244.539 327.756 243.606 327.694 242.542C327.632 241.466 327.595 239.944 327.583 237.977L327.564 236.289C327.564 231.131 327.898 227.908 328.566 226.622C328.839 226.127 329.16 225.88 329.531 225.88H329.568C329.927 225.88 330.236 226.108 330.496 226.566C330.607 226.801 330.688 227.141 330.737 227.587C330.787 228.02 330.812 228.694 330.812 229.609C330.812 230.054 330.805 230.518 330.793 231.001C330.781 231.471 330.768 231.83 330.756 232.077C330.731 232.324 330.713 232.59 330.7 232.875C330.7 233.159 330.7 233.388 330.7 233.561V234.192C331.381 232.262 332.024 230.821 332.63 229.869C333.236 228.904 333.953 228.298 334.782 228.051C334.906 228.013 335.017 227.989 335.116 227.976C335.215 227.964 335.333 227.958 335.469 227.958H335.747C336.106 227.97 336.415 228.038 336.675 228.162C336.947 228.273 337.231 228.477 337.528 228.774C337.689 228.935 337.819 229.083 337.918 229.219C338.017 229.356 338.116 229.529 338.215 229.739C338.648 230.716 338.864 231.805 338.864 233.005C338.864 233.895 338.747 234.774 338.512 235.639C338.376 236.097 338.19 236.573 337.955 237.068C337.72 237.563 337.497 237.94 337.287 238.2C336.842 238.719 336.359 239.109 335.84 239.369C335.345 239.616 334.863 239.74 334.393 239.74C333.972 239.74 333.521 239.641 333.038 239.443C332.914 239.394 332.809 239.357 332.723 239.332C332.636 239.307 332.593 239.295 332.593 239.295C332.58 239.332 332.537 239.561 332.463 239.981C332.438 240.229 332.401 240.513 332.352 240.835C332.277 241.354 332.215 241.812 332.166 242.208C332.079 242.826 331.987 243.587 331.888 244.49C331.776 245.492 331.628 246.216 331.442 246.661C331.257 247.106 330.985 247.409 330.626 247.57C330.366 247.694 330.119 247.756 329.884 247.756ZM333.131 237.254C333.242 237.254 333.452 237.179 333.762 237.031C333.997 236.907 334.188 236.777 334.337 236.641C334.498 236.505 334.64 236.332 334.764 236.122C335.197 235.38 335.413 234.359 335.413 233.06C335.413 232.677 335.388 232.318 335.339 231.984C335.302 231.65 335.258 231.452 335.209 231.39H335.172C335.011 231.452 334.764 231.854 334.43 232.596C334.108 233.326 333.805 234.167 333.521 235.12C333.446 235.33 333.372 235.584 333.298 235.881C333.224 236.177 333.156 236.45 333.094 236.697C333.044 236.944 333.02 237.093 333.02 237.142C333.02 237.217 333.057 237.254 333.131 237.254ZM345.451 250.891C345.253 250.891 345.068 250.867 344.895 250.817C344.363 250.693 343.893 250.415 343.484 249.982C343.089 249.5 342.891 248.819 342.891 247.941C342.891 247.446 343.014 247.131 343.262 246.995C343.373 246.921 343.484 246.884 343.596 246.884C343.818 246.884 344.053 247.075 344.301 247.459C344.647 248.04 344.95 248.331 345.21 248.331C345.408 248.331 345.637 248.17 345.896 247.848C346.305 247.403 346.651 246.785 346.936 245.993C347.232 245.201 347.43 244.348 347.529 243.432C347.591 242.789 347.641 241.806 347.678 240.482C347.727 239.159 347.752 237.996 347.752 236.994C347.752 236.524 347.746 236.14 347.733 235.844C347.721 235.534 347.702 235.38 347.678 235.38C347.665 235.38 347.634 235.417 347.585 235.491C347.548 235.565 347.498 235.658 347.437 235.769C347.201 236.239 346.929 236.672 346.62 237.068C346.311 237.464 346.014 237.761 345.729 237.959C345.123 238.33 344.542 238.515 343.985 238.515C343.825 238.515 343.676 238.497 343.54 238.46C342.328 238.15 341.499 237.204 341.054 235.621C341.004 235.46 340.967 235.318 340.942 235.194C340.918 235.058 340.899 234.903 340.887 234.73C340.887 234.557 340.887 234.31 340.887 233.988C340.887 232.689 341.023 231.632 341.295 230.815C341.456 230.246 341.623 229.826 341.796 229.553C341.969 229.269 342.186 229.065 342.445 228.941C342.594 228.867 342.742 228.824 342.891 228.811H342.983C343.404 228.811 343.763 229.015 344.06 229.424C344.183 229.609 344.27 229.863 344.319 230.184C344.381 230.506 344.418 230.982 344.431 231.613C344.455 232.17 344.48 232.677 344.505 233.135C344.542 233.58 344.579 233.852 344.616 233.951C344.629 233.976 344.641 234 344.653 234.025C344.666 234.038 344.678 234.044 344.69 234.044C344.728 234.044 344.857 233.908 345.08 233.635C345.303 233.351 345.544 233.029 345.804 232.671C346.063 232.312 346.274 232.003 346.435 231.743C346.62 231.458 346.837 231.143 347.084 230.797C347.331 230.45 347.517 230.203 347.641 230.054C347.975 229.72 348.352 229.553 348.772 229.553C349.02 229.553 349.267 229.615 349.515 229.739C349.812 229.875 350.047 230.085 350.22 230.37C350.393 230.654 350.548 231.069 350.684 231.613C350.733 231.823 350.776 232.027 350.813 232.225C350.851 232.411 350.882 232.671 350.906 233.005C350.943 233.339 350.987 233.802 351.036 234.396C351.061 234.656 351.073 235.101 351.073 235.732C351.086 236.351 351.092 237.025 351.092 237.755C351.092 238.472 351.086 239.165 351.073 239.833C351.073 240.501 351.061 241.002 351.036 241.336C350.875 243.921 350.356 246.073 349.478 247.793C348.995 248.782 348.383 249.543 347.641 250.075C346.861 250.619 346.132 250.891 345.451 250.891Z" fill="black"/>
<defs>
<filter id="filter0_d" x="86" y="118" width="60" height="60" filterUnits="userSpaceOnUse" color-interpolation-filters="sRGB">
<feFlood flood-opacity="0" result="BackgroundImageFix"/>
<feColorMatrix in="SourceAlpha" type="matrix" values="0 0 0 0 0 0 0 0 0 0 0 0 0 0 0 0 0 0 127 0"/>
<feOffset/>
<feGaussianBlur stdDeviation="4.5"/>
<feColorMatrix type="matrix" values="0 0 0 0 0 0 0 0 0 0.837564 0 0 0 0 1 0 0 0 0.25 0"/>
<feBlend mode="normal" in2="BackgroundImageFix" result="effect1_dropShadow"/>
<feBlend mode="normal" in="SourceGraphic" in2="effect1_dropShadow" result="shape"/>
</filter>
<filter id="filter1_d" x="39" y="0" width="154" height="128.917" filterUnits="userSpaceOnUse" color-interpolation-filters="sRGB">
<feFlood flood-opacity="0" result="BackgroundImageFix"/>
<feColorMatrix in="SourceAlpha" type="matrix" values="0 0 0 0 0 0 0 0 0 0 0 0 0 0 0 0 0 0 127 0"/>
<feOffset dy="4"/>
<feGaussianBlur stdDeviation="10"/>
<feColorMatrix type="matrix" values="0 0 0 0 0 0 0 0 0 0 0 0 0 0 0 0 0 0 0.07 0"/>
<feBlend mode="normal" in2="BackgroundImageFix" result="effect1_dropShadow"/>
<feBlend mode="normal" in="SourceGraphic" in2="effect1_dropShadow" result="shape"/>
</filter>
</defs>
</svg>
