<svg width="533" height="644" viewBox="0 0 533 644" fill="none" xmlns="http://www.w3.org/2000/svg">
<path d="M88 62H315C325.493 62 334 70.5066 334 81V595" stroke="#EFEFEF" stroke-width="2"/>
<g filter="url(#filter0_d)">
<rect x="126" y="86" width="184" height="224" rx="3" fill="white"/>
</g>
<rect x="126" y="142" width="184" height="40" fill="white"/>
<path d="M150.196 156.976H151.512L153.99 164.242L154.326 165.236H154.382L154.732 164.242L157.322 156.976H158.638L154.97 167H153.738L150.196 156.976ZM160.127 158.544C159.894 158.544 159.693 158.46 159.525 158.292C159.357 158.124 159.273 157.923 159.273 157.69C159.273 157.457 159.357 157.261 159.525 157.102C159.693 156.934 159.894 156.85 160.127 156.85C160.36 156.85 160.561 156.934 160.729 157.102C160.897 157.261 160.981 157.457 160.981 157.69C160.981 157.923 160.897 158.124 160.729 158.292C160.57 158.46 160.37 158.544 160.127 158.544ZM159.539 159.86H160.715V167H159.539V159.86ZM165.695 167.224C165.013 167.224 164.402 167.061 163.861 166.734C163.319 166.407 162.895 165.959 162.587 165.39C162.288 164.811 162.139 164.163 162.139 163.444C162.139 162.753 162.279 162.119 162.559 161.54C162.848 160.961 163.254 160.499 163.777 160.154C164.299 159.809 164.906 159.636 165.597 159.636C166.297 159.636 166.903 159.795 167.417 160.112C167.93 160.42 168.322 160.849 168.593 161.4C168.873 161.951 169.013 162.581 169.013 163.29C169.013 163.43 168.999 163.551 168.971 163.654H163.329C163.357 164.195 163.487 164.653 163.721 165.026C163.954 165.399 164.248 165.679 164.603 165.866C164.967 166.053 165.345 166.146 165.737 166.146C166.651 166.146 167.356 165.717 167.851 164.858L168.859 165.348C168.551 165.927 168.131 166.384 167.599 166.72C167.076 167.056 166.441 167.224 165.695 167.224ZM167.753 162.674C167.734 162.375 167.65 162.077 167.501 161.778C167.351 161.479 167.113 161.227 166.787 161.022C166.469 160.817 166.068 160.714 165.583 160.714C165.023 160.714 164.547 160.896 164.155 161.26C163.772 161.615 163.52 162.086 163.399 162.674H167.753ZM169.485 159.86H170.703L172.411 165.502H172.425L174.217 159.86H175.449L177.255 165.488H177.269L178.963 159.86H180.167L177.857 167H176.653L174.805 161.302L172.971 167H171.781L169.485 159.86ZM189.018 167.224C188.057 167.224 187.184 166.991 186.4 166.524C185.616 166.057 185 165.427 184.552 164.634C184.104 163.831 183.88 162.949 183.88 161.988C183.88 161.036 184.104 160.159 184.552 159.356C185 158.553 185.616 157.919 186.4 157.452C187.184 156.985 188.057 156.752 189.018 156.752C189.979 156.752 190.852 156.985 191.636 157.452C192.42 157.919 193.036 158.553 193.484 159.356C193.941 160.159 194.17 161.036 194.17 161.988C194.17 162.949 193.946 163.831 193.498 164.634C193.05 165.427 192.429 166.057 191.636 166.524C190.852 166.991 189.979 167.224 189.018 167.224ZM189.018 166.09C189.737 166.09 190.395 165.917 190.992 165.572C191.599 165.217 192.075 164.732 192.42 164.116C192.775 163.491 192.952 162.781 192.952 161.988C192.952 161.195 192.775 160.49 192.42 159.874C192.075 159.249 191.599 158.763 190.992 158.418C190.395 158.063 189.737 157.886 189.018 157.886C188.299 157.886 187.641 158.063 187.044 158.418C186.447 158.763 185.971 159.249 185.616 159.874C185.261 160.499 185.084 161.204 185.084 161.988C185.084 162.772 185.261 163.477 185.616 164.102C185.971 164.727 186.447 165.217 187.044 165.572C187.641 165.917 188.299 166.09 189.018 166.09ZM195.616 159.86H196.75V160.91H196.806C197.002 160.555 197.315 160.257 197.744 160.014C198.174 159.762 198.631 159.636 199.116 159.636C199.975 159.636 200.628 159.888 201.076 160.392C201.534 160.887 201.762 161.563 201.762 162.422V167H200.572V162.604C200.572 161.941 200.414 161.461 200.096 161.162C199.779 160.863 199.345 160.714 198.794 160.714C198.412 160.714 198.066 160.821 197.758 161.036C197.46 161.251 197.226 161.535 197.058 161.89C196.89 162.235 196.806 162.599 196.806 162.982V167H195.616V159.86ZM203.464 156.976H204.654V167H203.464V156.976ZM208.601 166.552L205.647 159.86H206.935L209.175 165.166H209.203L211.359 159.86H212.647L208.237 170.024H207.005L208.601 166.552Z" fill="#222222"/>
<rect x="126" y="182" width="184" height="40" fill="white"/>
<path d="M151.12 196.976H154.508C155.059 196.976 155.572 197.102 156.048 197.354C156.524 197.606 156.902 197.961 157.182 198.418C157.471 198.866 157.616 199.375 157.616 199.944C157.616 200.411 157.509 200.845 157.294 201.246C157.089 201.647 156.799 201.983 156.426 202.254C156.062 202.525 155.656 202.707 155.208 202.8L155.18 202.842L158.008 206.944V207H156.608L153.878 202.912H152.296V207H151.12V196.976ZM154.438 201.806C154.783 201.806 155.105 201.727 155.404 201.568C155.712 201.409 155.955 201.19 156.132 200.91C156.319 200.621 156.412 200.299 156.412 199.944C156.412 199.636 156.333 199.342 156.174 199.062C156.015 198.782 155.791 198.553 155.502 198.376C155.222 198.199 154.895 198.11 154.522 198.11H152.296V201.806H154.438ZM162.126 207.224C161.445 207.224 160.834 207.061 160.292 206.734C159.751 206.407 159.326 205.959 159.018 205.39C158.72 204.811 158.57 204.163 158.57 203.444C158.57 202.753 158.71 202.119 158.99 201.54C159.28 200.961 159.686 200.499 160.208 200.154C160.731 199.809 161.338 199.636 162.028 199.636C162.728 199.636 163.335 199.795 163.848 200.112C164.362 200.42 164.754 200.849 165.024 201.4C165.304 201.951 165.444 202.581 165.444 203.29C165.444 203.43 165.43 203.551 165.402 203.654H159.76C159.788 204.195 159.919 204.653 160.152 205.026C160.386 205.399 160.68 205.679 161.034 205.866C161.398 206.053 161.776 206.146 162.168 206.146C163.083 206.146 163.788 205.717 164.282 204.858L165.29 205.348C164.982 205.927 164.562 206.384 164.03 206.72C163.508 207.056 162.873 207.224 162.126 207.224ZM164.184 202.674C164.166 202.375 164.082 202.077 163.932 201.778C163.783 201.479 163.545 201.227 163.218 201.022C162.901 200.817 162.5 200.714 162.014 200.714C161.454 200.714 160.978 200.896 160.586 201.26C160.204 201.615 159.952 202.086 159.83 202.674H164.184ZM166.837 199.86H167.971V200.91H168.027C168.223 200.555 168.536 200.257 168.965 200.014C169.394 199.762 169.852 199.636 170.337 199.636C171.196 199.636 171.849 199.888 172.297 200.392C172.754 200.887 172.983 201.563 172.983 202.422V207H171.793V202.604C171.793 201.941 171.634 201.461 171.317 201.162C171 200.863 170.566 200.714 170.015 200.714C169.632 200.714 169.287 200.821 168.979 201.036C168.68 201.251 168.447 201.535 168.279 201.89C168.111 202.235 168.027 202.599 168.027 202.982V207H166.837V199.86ZM176.898 207.224C176.376 207.224 175.909 207.121 175.498 206.916C175.088 206.711 174.77 206.431 174.546 206.076C174.322 205.712 174.21 205.301 174.21 204.844C174.21 204.088 174.495 203.5 175.064 203.08C175.634 202.651 176.352 202.436 177.22 202.436C177.65 202.436 178.046 202.483 178.41 202.576C178.784 202.669 179.068 202.777 179.264 202.898V202.464C179.264 201.932 179.078 201.507 178.704 201.19C178.331 200.863 177.86 200.7 177.29 200.7C176.889 200.7 176.52 200.789 176.184 200.966C175.848 201.134 175.582 201.372 175.386 201.68L174.49 201.008C174.77 200.579 175.153 200.243 175.638 200C176.133 199.757 176.679 199.636 177.276 199.636C178.247 199.636 179.008 199.893 179.558 200.406C180.118 200.91 180.398 201.601 180.398 202.478V207H179.264V205.978H179.208C179.003 206.323 178.695 206.617 178.284 206.86C177.874 207.103 177.412 207.224 176.898 207.224ZM177.01 206.174C177.412 206.174 177.785 206.071 178.13 205.866C178.476 205.661 178.751 205.385 178.956 205.04C179.162 204.695 179.264 204.317 179.264 203.906C179.04 203.757 178.765 203.635 178.438 203.542C178.112 203.449 177.766 203.402 177.402 203.402C176.749 203.402 176.254 203.537 175.918 203.808C175.592 204.079 175.428 204.429 175.428 204.858C175.428 205.25 175.578 205.567 175.876 205.81C176.175 206.053 176.553 206.174 177.01 206.174ZM182.054 199.86H183.188V200.91H183.244C183.449 200.546 183.757 200.243 184.168 200C184.579 199.757 185.013 199.636 185.47 199.636C185.993 199.636 186.445 199.762 186.828 200.014C187.22 200.266 187.5 200.602 187.668 201.022C187.92 200.602 188.251 200.266 188.662 200.014C189.082 199.762 189.567 199.636 190.118 199.636C190.939 199.636 191.555 199.888 191.966 200.392C192.386 200.887 192.596 201.563 192.596 202.422V207H191.42V202.604C191.42 201.941 191.285 201.461 191.014 201.162C190.743 200.863 190.342 200.714 189.81 200.714C189.455 200.714 189.133 200.817 188.844 201.022C188.555 201.227 188.326 201.503 188.158 201.848C187.999 202.193 187.92 202.567 187.92 202.968V207H186.73V202.618C186.73 201.946 186.595 201.461 186.324 201.162C186.053 200.863 185.657 200.714 185.134 200.714C184.779 200.714 184.457 200.821 184.168 201.036C183.879 201.241 183.65 201.521 183.482 201.876C183.323 202.221 183.244 202.595 183.244 202.996V207H182.054V199.86ZM197.482 207.224C196.801 207.224 196.189 207.061 195.648 206.734C195.107 206.407 194.682 205.959 194.374 205.39C194.075 204.811 193.926 204.163 193.926 203.444C193.926 202.753 194.066 202.119 194.346 201.54C194.635 200.961 195.041 200.499 195.564 200.154C196.087 199.809 196.693 199.636 197.384 199.636C198.084 199.636 198.691 199.795 199.204 200.112C199.717 200.42 200.109 200.849 200.38 201.4C200.66 201.951 200.8 202.581 200.8 203.29C200.8 203.43 200.786 203.551 200.758 203.654H195.116C195.144 204.195 195.275 204.653 195.508 205.026C195.741 205.399 196.035 205.679 196.39 205.866C196.754 206.053 197.132 206.146 197.524 206.146C198.439 206.146 199.143 205.717 199.638 204.858L200.646 205.348C200.338 205.927 199.918 206.384 199.386 206.72C198.863 207.056 198.229 207.224 197.482 207.224ZM199.54 202.674C199.521 202.375 199.437 202.077 199.288 201.778C199.139 201.479 198.901 201.227 198.574 201.022C198.257 200.817 197.855 200.714 197.37 200.714C196.81 200.714 196.334 200.896 195.942 201.26C195.559 201.615 195.307 202.086 195.186 202.674H199.54Z" fill="#222222"/>
<rect x="126" y="222" width="184" height="40" fill="white"/>
<path d="M151.12 236.976H154.144C155.171 236.976 156.067 237.191 156.832 237.62C157.597 238.04 158.185 238.628 158.596 239.384C159.007 240.14 159.212 241.008 159.212 241.988C159.212 242.968 159.007 243.836 158.596 244.592C158.185 245.348 157.597 245.941 156.832 246.37C156.067 246.79 155.171 247 154.144 247H151.12V236.976ZM154.144 245.866C155.329 245.866 156.267 245.525 156.958 244.844C157.658 244.163 158.008 243.211 158.008 241.988C158.008 240.765 157.658 239.813 156.958 239.132C156.267 238.451 155.329 238.11 154.144 238.11H152.296V245.866H154.144ZM163.699 247.224C163.017 247.224 162.406 247.061 161.865 246.734C161.323 246.407 160.899 245.959 160.591 245.39C160.292 244.811 160.143 244.163 160.143 243.444C160.143 242.753 160.283 242.119 160.563 241.54C160.852 240.961 161.258 240.499 161.781 240.154C162.303 239.809 162.91 239.636 163.601 239.636C164.301 239.636 164.907 239.795 165.421 240.112C165.934 240.42 166.326 240.849 166.597 241.4C166.877 241.951 167.017 242.581 167.017 243.29C167.017 243.43 167.003 243.551 166.975 243.654H161.333C161.361 244.195 161.491 244.653 161.725 245.026C161.958 245.399 162.252 245.679 162.607 245.866C162.971 246.053 163.349 246.146 163.741 246.146C164.655 246.146 165.36 245.717 165.855 244.858L166.863 245.348C166.555 245.927 166.135 246.384 165.603 246.72C165.08 247.056 164.445 247.224 163.699 247.224ZM165.757 242.674C165.738 242.375 165.654 242.077 165.505 241.778C165.355 241.479 165.117 241.227 164.791 241.022C164.473 240.817 164.072 240.714 163.587 240.714C163.027 240.714 162.551 240.896 162.159 241.26C161.776 241.615 161.524 242.086 161.403 242.674H165.757ZM168.409 236.976H169.599V247H168.409V236.976ZM174.472 247.224C173.791 247.224 173.18 247.061 172.638 246.734C172.097 246.407 171.672 245.959 171.364 245.39C171.066 244.811 170.916 244.163 170.916 243.444C170.916 242.753 171.056 242.119 171.336 241.54C171.626 240.961 172.032 240.499 172.554 240.154C173.077 239.809 173.684 239.636 174.374 239.636C175.074 239.636 175.681 239.795 176.194 240.112C176.708 240.42 177.1 240.849 177.37 241.4C177.65 241.951 177.79 242.581 177.79 243.29C177.79 243.43 177.776 243.551 177.748 243.654H172.106C172.134 244.195 172.265 244.653 172.498 245.026C172.732 245.399 173.026 245.679 173.38 245.866C173.744 246.053 174.122 246.146 174.514 246.146C175.429 246.146 176.134 245.717 176.628 244.858L177.636 245.348C177.328 245.927 176.908 246.384 176.376 246.72C175.854 247.056 175.219 247.224 174.472 247.224ZM176.53 242.674C176.512 242.375 176.428 242.077 176.278 241.778C176.129 241.479 175.891 241.227 175.564 241.022C175.247 240.817 174.846 240.714 174.36 240.714C173.8 240.714 173.324 240.896 172.932 241.26C172.55 241.615 172.298 242.086 172.176 242.674H176.53ZM181.722 247.112C181.432 247.112 181.162 247.065 180.91 246.972C180.667 246.879 180.462 246.753 180.294 246.594C180.107 246.417 179.967 246.211 179.874 245.978C179.78 245.745 179.734 245.46 179.734 245.124V240.938H178.488V239.86H179.734V237.844H180.924V239.86H182.66V240.938H180.924V244.83C180.924 245.222 180.998 245.511 181.148 245.698C181.325 245.903 181.582 246.006 181.918 246.006C182.188 246.006 182.45 245.927 182.702 245.768V246.93C182.562 246.995 182.417 247.042 182.268 247.07C182.128 247.098 181.946 247.112 181.722 247.112ZM186.968 247.224C186.287 247.224 185.676 247.061 185.134 246.734C184.593 246.407 184.168 245.959 183.86 245.39C183.562 244.811 183.412 244.163 183.412 243.444C183.412 242.753 183.552 242.119 183.832 241.54C184.122 240.961 184.528 240.499 185.05 240.154C185.573 239.809 186.18 239.636 186.87 239.636C187.57 239.636 188.177 239.795 188.69 240.112C189.204 240.42 189.596 240.849 189.866 241.4C190.146 241.951 190.286 242.581 190.286 243.29C190.286 243.43 190.272 243.551 190.244 243.654H184.602C184.63 244.195 184.761 244.653 184.994 245.026C185.228 245.399 185.522 245.679 185.876 245.866C186.24 246.053 186.618 246.146 187.01 246.146C187.925 246.146 188.63 245.717 189.124 244.858L190.132 245.348C189.824 245.927 189.404 246.384 188.872 246.72C188.35 247.056 187.715 247.224 186.968 247.224ZM189.026 242.674C189.008 242.375 188.924 242.077 188.774 241.778C188.625 241.479 188.387 241.227 188.06 241.022C187.743 240.817 187.342 240.714 186.856 240.714C186.296 240.714 185.82 240.896 185.428 241.26C185.046 241.615 184.794 242.086 184.672 242.674H189.026ZM195.171 236.976H196.627L201.653 244.956H201.709L201.653 243.024V236.976H202.843V247H201.611L196.347 238.642H196.291L196.347 240.574V247H195.171V236.976ZM208.135 247.224C207.435 247.224 206.805 247.056 206.245 246.72C205.685 246.384 205.246 245.927 204.929 245.348C204.621 244.769 204.467 244.13 204.467 243.43C204.467 242.73 204.621 242.091 204.929 241.512C205.246 240.933 205.685 240.476 206.245 240.14C206.805 239.804 207.435 239.636 208.135 239.636C208.835 239.636 209.465 239.804 210.025 240.14C210.585 240.476 211.019 240.933 211.327 241.512C211.644 242.091 211.803 242.73 211.803 243.43C211.803 244.13 211.644 244.769 211.327 245.348C211.019 245.927 210.585 246.384 210.025 246.72C209.465 247.056 208.835 247.224 208.135 247.224ZM208.135 246.146C208.574 246.146 208.98 246.039 209.353 245.824C209.736 245.6 210.039 245.283 210.263 244.872C210.496 244.461 210.613 243.981 210.613 243.43C210.613 242.879 210.496 242.399 210.263 241.988C210.039 241.577 209.736 241.265 209.353 241.05C208.98 240.826 208.574 240.714 208.135 240.714C207.696 240.714 207.286 240.826 206.903 241.05C206.52 241.265 206.212 241.577 205.979 241.988C205.755 242.399 205.643 242.879 205.643 243.43C205.643 243.981 205.755 244.461 205.979 244.872C206.212 245.283 206.52 245.6 206.903 245.824C207.286 246.039 207.696 246.146 208.135 246.146ZM215.724 247.112C215.434 247.112 215.164 247.065 214.912 246.972C214.669 246.879 214.464 246.753 214.296 246.594C214.109 246.417 213.969 246.211 213.876 245.978C213.782 245.745 213.736 245.46 213.736 245.124V240.938H212.49V239.86H213.736V237.844H214.926V239.86H216.662V240.938H214.926V244.83C214.926 245.222 215 245.511 215.15 245.698C215.327 245.903 215.584 246.006 215.92 246.006C216.19 246.006 216.452 245.927 216.704 245.768V246.93C216.564 246.995 216.419 247.042 216.27 247.07C216.13 247.098 215.948 247.112 215.724 247.112ZM220.97 247.224C220.289 247.224 219.678 247.061 219.136 246.734C218.595 246.407 218.17 245.959 217.862 245.39C217.564 244.811 217.414 244.163 217.414 243.444C217.414 242.753 217.554 242.119 217.834 241.54C218.124 240.961 218.53 240.499 219.052 240.154C219.575 239.809 220.182 239.636 220.872 239.636C221.572 239.636 222.179 239.795 222.692 240.112C223.206 240.42 223.598 240.849 223.868 241.4C224.148 241.951 224.288 242.581 224.288 243.29C224.288 243.43 224.274 243.551 224.246 243.654H218.604C218.632 244.195 218.763 244.653 218.996 245.026C219.23 245.399 219.524 245.679 219.878 245.866C220.242 246.053 220.62 246.146 221.012 246.146C221.927 246.146 222.632 245.717 223.126 244.858L224.134 245.348C223.826 245.927 223.406 246.384 222.874 246.72C222.352 247.056 221.717 247.224 220.97 247.224ZM223.028 242.674C223.01 242.375 222.926 242.077 222.776 241.778C222.627 241.479 222.389 241.227 222.062 241.022C221.745 240.817 221.344 240.714 220.858 240.714C220.298 240.714 219.822 240.896 219.43 241.26C219.048 241.615 218.796 242.086 218.674 242.674H223.028Z" fill="#222222"/>
<rect x="126" y="262" width="184" height="40" fill="white"/>
<path d="M151.12 276.976H152.296V281.316H157.476V276.976H158.652V287H157.476V282.436H152.296V287H151.12V276.976ZM163.835 287.224C163.154 287.224 162.543 287.061 162.001 286.734C161.46 286.407 161.035 285.959 160.727 285.39C160.429 284.811 160.279 284.163 160.279 283.444C160.279 282.753 160.419 282.119 160.699 281.54C160.989 280.961 161.395 280.499 161.917 280.154C162.44 279.809 163.047 279.636 163.737 279.636C164.437 279.636 165.044 279.795 165.557 280.112C166.071 280.42 166.463 280.849 166.733 281.4C167.013 281.951 167.153 282.581 167.153 283.29C167.153 283.43 167.139 283.551 167.111 283.654H161.469C161.497 284.195 161.628 284.653 161.861 285.026C162.095 285.399 162.389 285.679 162.743 285.866C163.107 286.053 163.485 286.146 163.877 286.146C164.792 286.146 165.497 285.717 165.991 284.858L166.999 285.348C166.691 285.927 166.271 286.384 165.739 286.72C165.217 287.056 164.582 287.224 163.835 287.224ZM165.893 282.674C165.875 282.375 165.791 282.077 165.641 281.778C165.492 281.479 165.254 281.227 164.927 281.022C164.61 280.817 164.209 280.714 163.723 280.714C163.163 280.714 162.687 280.896 162.295 281.26C161.913 281.615 161.661 282.086 161.539 282.674H165.893ZM168.546 276.976H169.736V287H168.546V276.976ZM171.443 279.86H172.577V280.924H172.633C172.848 280.56 173.17 280.257 173.599 280.014C174.038 279.762 174.528 279.636 175.069 279.636C175.704 279.636 176.283 279.799 176.805 280.126C177.328 280.453 177.739 280.905 178.037 281.484C178.336 282.063 178.485 282.711 178.485 283.43C178.485 284.158 178.336 284.811 178.037 285.39C177.739 285.959 177.328 286.407 176.805 286.734C176.283 287.061 175.704 287.224 175.069 287.224C174.528 287.224 174.038 287.103 173.599 286.86C173.17 286.608 172.848 286.305 172.633 285.95H172.577L172.633 286.93V290.024H171.443V279.86ZM174.929 286.146C175.34 286.146 175.727 286.034 176.091 285.81C176.455 285.586 176.745 285.269 176.959 284.858C177.183 284.438 177.295 283.962 177.295 283.43C177.295 282.898 177.183 282.427 176.959 282.016C176.745 281.596 176.455 281.274 176.091 281.05C175.727 280.826 175.34 280.714 174.929 280.714C174.519 280.714 174.131 280.826 173.767 281.05C173.403 281.274 173.114 281.591 172.899 282.002C172.685 282.413 172.577 282.889 172.577 283.43C172.577 283.971 172.685 284.447 172.899 284.858C173.114 285.269 173.403 285.586 173.767 285.81C174.131 286.034 174.519 286.146 174.929 286.146Z" fill="#222222"/>
<rect x="126" y="94" width="184" height="48" fill="white"/>
<path d="M225 114H211C209.34 114 208 115.34 208 117V123H212V127H224V123H228V117C228 115.34 226.66 114 225 114ZM222 125H214V120H222V125ZM225 118C224.45 118 224 117.55 224 117C224 116.45 224.45 116 225 116C225.55 116 226 116.45 226 117C226 117.55 225.55 118 225 118ZM224 109H212V113H224V109Z" fill="#222222"/>
<path d="M169 126H155V110H157V113H167V110H169V126ZM162 108C162.265 108 162.52 108.105 162.707 108.293C162.895 108.48 163 108.735 163 109C163 109.265 162.895 109.52 162.707 109.707C162.52 109.895 162.265 110 162 110C161.735 110 161.48 109.895 161.293 109.707C161.105 109.52 161 109.265 161 109C161 108.735 161.105 108.48 161.293 108.293C161.48 108.105 161.735 108 162 108V108ZM169 108H164.82C164.4 106.84 163.3 106 162 106C160.7 106 159.6 106.84 159.18 108H155C154.47 108 153.961 108.211 153.586 108.586C153.211 108.961 153 109.47 153 110V126C153 126.53 153.211 127.039 153.586 127.414C153.961 127.789 154.47 128 155 128H169C169.53 128 170.039 127.789 170.414 127.414C170.789 127.039 171 126.53 171 126V110C171 109.47 170.789 108.961 170.414 108.586C170.039 108.211 169.53 108 169 108Z" fill="#222222"/>
<path d="M280 122.08C279.24 122.08 278.56 122.38 278.04 122.85L270.91 118.7C270.96 118.47 271 118.24 271 118C271 117.76 270.96 117.53 270.91 117.3L277.96 113.19C278.5 113.69 279.21 114 280 114C281.66 114 283 112.66 283 111C283 109.34 281.66 108 280 108C278.34 108 277 109.34 277 111C277 111.24 277.04 111.47 277.09 111.7L270.04 115.81C269.5 115.31 268.79 115 268 115C266.34 115 265 116.34 265 118C265 119.66 266.34 121 268 121C268.79 121 269.5 120.69 270.04 120.19L277.16 124.35C277.11 124.56 277.08 124.78 277.08 125C277.08 126.61 278.39 127.92 280 127.92C281.61 127.92 282.92 126.61 282.92 125C282.92 123.39 281.61 122.08 280 122.08ZM280 110C280.55 110 281 110.45 281 111C281 111.55 280.55 112 280 112C279.45 112 279 111.55 279 111C279 110.45 279.45 110 280 110ZM268 119C267.45 119 267 118.55 267 118C267 117.45 267.45 117 268 117C268.55 117 269 117.45 269 118C269 118.55 268.55 119 268 119ZM280 126.02C279.45 126.02 279 125.57 279 125.02C279 124.47 279.45 124.02 280 124.02C280.55 124.02 281 124.47 281 125.02C281 125.57 280.55 126.02 280 126.02Z" fill="#222222"/>
<path d="M200.476 635V622.13H203.338L208.756 631.436V622.13H210.934V635H208.45L202.654 625.136V635H200.476ZM217.76 635.18C216.356 635.18 215.21 634.748 214.322 633.884C213.434 633.02 212.99 631.856 212.99 630.392V630.248C212.99 628.808 213.428 627.638 214.304 626.738C215.192 625.838 216.314 625.388 217.67 625.388C218.942 625.388 219.998 625.784 220.838 626.576C221.69 627.368 222.116 628.556 222.116 630.14V630.77H215.222C215.258 631.67 215.498 632.36 215.942 632.84C216.386 633.32 217.01 633.56 217.814 633.56C219.086 633.56 219.806 633.08 219.974 632.12H222.08C221.924 633.104 221.468 633.86 220.712 634.388C219.956 634.916 218.972 635.18 217.76 635.18ZM215.258 629.312H219.956C219.848 627.752 219.086 626.972 217.67 626.972C217.022 626.972 216.482 627.182 216.05 627.602C215.63 628.01 215.366 628.58 215.258 629.312ZM225.83 635L222.95 625.586H225.272L227.144 632.39L229.142 625.586H230.96L232.796 632.39L234.758 625.586H236.882L233.93 635H231.716L229.97 628.664L228.062 635H225.83Z" fill="#4B4B4B"/>
<path d="M104.989 41.2313C104.767 41.2196 104.553 41.1649 104.348 41.0673C103.926 40.8467 103.415 40.4295 102.816 39.8156C102.651 39.6582 102.503 39.5203 102.373 39.4019C102.243 39.2836 102.172 39.224 102.16 39.2234C102.135 39.2221 102.079 39.2377 101.99 39.2701C101.914 39.3033 101.825 39.3481 101.723 39.4046C100.67 39.8691 99.6992 40.0778 98.8098 40.0307L98.643 40.0219C98.3232 39.9801 97.9621 39.8991 97.5597 39.7786C97.1696 39.6589 96.842 39.53 96.5768 39.3921C96.1309 39.1579 95.673 38.7992 95.2031 38.316C94.7325 37.8451 94.3436 37.3538 94.0362 36.842C93.8439 36.4974 93.626 36.0523 93.3823 35.5068C93.1511 34.9619 92.9893 34.5074 92.8972 34.1432C92.4654 32.4729 92.2496 30.4671 92.2497 28.126L92.2735 26.9752C92.3265 25.9747 92.4576 24.9039 92.6667 23.763C92.9324 22.2535 93.3413 20.7329 93.8931 19.2014C94.4456 17.6575 95.0536 16.3519 95.7171 15.2846C96.002 14.8166 96.2905 14.3983 96.5826 14.0298C96.887 13.6619 97.2678 13.2547 97.725 12.8082C98.3493 12.2467 99.0876 11.9885 99.9399 12.0337L100.088 12.0415C101.31 12.131 102.449 12.7302 103.505 13.8391C103.773 14.1506 104.09 14.6009 104.455 15.1901C104.821 15.7669 105.133 16.3098 105.391 16.819C105.568 17.2124 105.818 17.8698 106.141 18.7911C106.464 19.7001 106.732 20.4947 106.944 21.1748C107.239 22.1443 107.432 23.2941 107.523 24.6243C107.54 25.0092 107.545 25.4864 107.54 26.056C107.534 26.6255 107.517 27.1882 107.488 27.744C107.45 28.4481 107.402 29.0154 107.342 29.4457C106.834 32.2431 106.111 34.4345 105.172 36.0199C105.078 36.1635 104.997 36.2955 104.929 36.4157C104.873 36.5243 104.845 36.5847 104.845 36.5971C104.844 36.6094 104.854 36.6471 104.876 36.7102C104.91 36.7616 104.956 36.8321 105.013 36.9219C105.024 36.9472 105.041 36.9791 105.064 37.0175C105.198 37.2847 105.376 37.6781 105.596 38.1977C105.829 38.7179 106.005 39.136 106.124 39.452C106.197 39.7036 106.229 39.9344 106.217 40.1444C106.193 40.6014 105.965 40.9362 105.533 41.1486C105.368 41.2142 105.187 41.2418 104.989 41.2313ZM99.1311 35.7184C99.2547 35.7249 99.3912 35.7198 99.5407 35.7029C99.6903 35.6861 99.8154 35.6618 99.9162 35.6299C99.9669 35.6078 100.011 35.5854 100.05 35.5627C100.101 35.5282 100.127 35.5048 100.128 35.4925L99.7342 34.5054C99.2152 33.3136 98.9424 32.5001 98.9159 32.0652C98.8867 31.915 98.8754 31.7781 98.8819 31.6546C98.8963 31.3829 98.9936 31.1836 99.1737 31.0569C99.2524 30.9744 99.3233 30.9224 99.3864 30.9009C99.4494 30.8795 99.5427 30.8721 99.6663 30.8786C99.8886 30.8904 100.119 30.9893 100.357 31.1753C100.594 31.3613 100.959 31.7337 101.449 32.2923C101.694 32.5778 101.905 32.8181 102.08 33.0132C102.269 33.1966 102.369 33.2886 102.381 33.2893C102.406 33.2906 102.487 33.1648 102.624 32.912C102.762 32.6468 102.908 32.3572 103.061 32.0432C103.226 31.7175 103.353 31.4393 103.439 31.2086C104.068 29.6315 104.443 28.0349 104.566 26.4187L104.595 25.8814C104.633 25.1526 104.618 24.5076 104.549 23.9465C104.492 23.3737 104.365 22.7352 104.167 22.0311C103.855 20.8997 103.526 19.9904 103.178 19.3031C102.831 18.6034 102.371 17.9411 101.797 17.3161C101.423 16.8999 101.092 16.5913 100.805 16.3903C100.519 16.1893 100.114 15.9882 99.5924 15.7872L99.0279 15.5714C98.9641 15.6052 98.9134 15.6273 98.8757 15.6377C98.812 15.6715 98.7541 15.7118 98.7021 15.7586C98.6507 15.793 98.5915 15.858 98.5245 15.9536C98.4699 16.0498 98.3934 16.2067 98.2952 16.4245C98.21 16.6306 98.0958 16.9156 97.9526 17.2797C96.7228 20.3856 96.0339 23.3344 95.886 26.1261C95.8022 27.7072 95.8872 29.2601 96.1409 30.7847C96.2667 31.6833 96.4784 32.4811 96.7759 33.1781C97.3352 34.5456 98.0341 35.3816 98.8727 35.6861C98.9462 35.7024 99.0323 35.7132 99.1311 35.7184ZM117.618 38.8903C117.433 38.8805 117.256 38.8278 117.088 38.7321C116.835 38.5949 116.625 38.3422 116.459 37.9742C116.306 37.5944 116.162 37.0232 116.029 36.2606C115.978 36.0597 115.938 35.8779 115.91 35.7154C115.871 35.5151 115.846 35.4023 115.835 35.377L115.546 35.9191C114.735 37.4245 113.688 38.1432 112.403 38.0752L112.162 38.0624C110.994 37.9014 110.162 37.2318 109.667 36.0536C109.457 35.5718 109.306 35.0435 109.212 34.4687C109.131 33.8946 109.095 33.1742 109.104 32.3076L109.133 31.3987C109.219 29.7806 109.457 28.3253 109.848 27.0329C110.027 26.4602 110.211 26.0302 110.399 25.7429C110.6 25.4563 110.84 25.2522 111.119 25.1307C111.297 25.0534 111.478 25.0197 111.663 25.0295L111.737 25.0334C112.341 25.1026 112.732 25.5568 112.91 26.3962C112.946 26.6582 112.913 27.7527 112.811 29.6797C112.762 30.5938 112.732 31.2735 112.721 31.7189C112.71 32.1642 112.705 32.4922 112.706 32.7028C112.72 32.9018 112.742 33.0825 112.77 33.2451C112.779 33.3075 112.789 33.3699 112.798 33.4323C112.816 33.5448 112.836 33.6449 112.856 33.7327C112.877 33.8081 112.893 33.8524 112.905 33.8654L112.923 33.8663C112.948 33.8676 112.987 33.8387 113.039 33.7796C113.16 33.6125 113.39 33.2407 113.73 32.6642C114.071 32.0753 114.419 31.462 114.775 30.8243C115.228 29.9936 115.585 29.3374 115.846 28.8557C116.119 28.3747 116.329 28.0266 116.477 27.8115C116.638 27.5846 116.77 27.4306 116.873 27.3494C116.99 27.2564 117.124 27.183 117.275 27.1291C117.376 27.0973 117.458 27.0707 117.521 27.0492C117.596 27.0285 117.683 27.0207 117.782 27.0259L117.985 27.0552C118.638 27.127 119.097 27.4672 119.362 28.0758C119.429 28.2156 119.476 28.3668 119.505 28.5293C119.546 28.6802 119.566 28.898 119.563 29.1827C119.573 29.4558 119.564 29.8641 119.535 30.4076L119.34 33.3887C119.125 36.2883 118.908 37.9243 118.69 38.2968C118.395 38.7147 118.038 38.9125 117.618 38.8903ZM123.945 23.9893C123.66 23.9742 123.386 23.8916 123.122 23.7413C122.929 23.632 122.775 23.5061 122.659 23.3637C122.555 23.2096 122.46 23.0249 122.372 22.8097C122.328 22.7083 122.295 22.626 122.274 22.5629C122.265 22.4882 122.264 22.3952 122.27 22.284L122.338 21.6931C122.386 21.262 122.453 20.9311 122.539 20.7004C122.639 20.4579 122.787 20.2428 122.982 20.0549C123.26 19.7228 123.665 19.5708 124.196 19.599L124.529 19.6166C124.628 19.6219 124.707 19.6446 124.767 19.685C124.84 19.7136 124.924 19.7614 125.02 19.8284C125.571 20.1797 125.825 20.8744 125.783 21.9127L125.774 22.0795C125.742 22.6724 125.609 23.0926 125.373 23.3403C124.964 23.8017 124.488 24.0181 123.945 23.9893ZM123.262 39.6724C123.028 39.66 122.814 39.5991 122.622 39.4898C121.907 39.1795 121.533 38.0634 121.498 36.1415C121.447 34.0825 121.462 32.2686 121.545 30.6999C121.603 29.6128 121.692 28.7566 121.811 28.1312C121.881 27.7509 121.987 27.3788 122.131 27.0147C122.274 26.6507 122.425 26.3676 122.584 26.1655C122.918 25.7124 123.357 25.5003 123.9 25.5291L124.14 25.5604C124.644 25.6366 125.007 25.9222 125.228 26.417C125.352 26.6589 125.435 26.9483 125.479 27.285C125.524 27.6218 125.53 28.0867 125.498 28.6796C125.462 29.3713 125.375 30.3082 125.238 31.4901C125.096 32.7708 124.993 34.0041 124.931 35.1899C124.897 35.8323 124.876 36.4629 124.868 37.0818L124.853 37.3598C124.836 37.6686 124.801 37.9826 124.747 38.3018C124.679 38.6574 124.584 38.9311 124.462 39.1228C124.34 39.3146 124.166 39.4601 123.937 39.5595C123.722 39.6472 123.497 39.6848 123.262 39.6724ZM131.915 40.1308C131.73 40.121 131.545 40.105 131.36 40.0828C130.008 39.8873 128.945 39.1497 128.17 37.87C127.852 37.3328 127.608 36.682 127.438 35.9173C127.28 35.1534 127.221 34.3884 127.262 33.6226C127.273 33.4126 127.29 33.2029 127.314 32.9936C127.376 32.5262 127.452 32.1462 127.541 31.8536C127.632 31.5488 127.783 31.148 127.995 30.6514C128.645 29.1498 129.507 27.9505 130.583 27.0537C130.881 26.8094 131.209 26.5728 131.568 26.3441C131.939 26.116 132.258 25.9533 132.523 25.8559C133.092 25.6383 133.648 25.5377 134.193 25.5541C135.107 25.6025 135.949 25.9445 136.721 26.5799C137.053 26.8577 137.3 27.2238 137.462 27.6783C137.636 28.1211 137.712 28.5648 137.688 29.0095C137.679 29.1948 137.65 29.3791 137.603 29.5624C137.542 29.7945 137.41 30.06 137.208 30.359C137.019 30.6587 136.814 30.908 136.593 31.1068C136.076 31.513 135.613 31.7053 135.206 31.6837C134.909 31.668 134.699 31.5392 134.576 31.2973C134.566 31.2472 134.563 31.1913 134.566 31.1295C134.571 31.0307 134.597 30.8896 134.644 30.7063C134.75 30.3527 134.812 29.9967 134.831 29.6385C134.848 29.3174 134.824 29.0745 134.758 28.91C134.703 28.7709 134.617 28.6486 134.499 28.5432C134.393 28.4262 134.28 28.352 134.157 28.3208L134.103 28.2993C133.918 28.2895 133.659 28.3811 133.327 28.574C133.007 28.7677 132.696 29.0114 132.396 29.3051C131.357 30.4393 130.801 31.7104 130.726 33.1186C130.697 33.6745 130.748 34.2284 130.88 34.7804C131.137 35.7603 131.567 36.4086 132.17 36.7255C132.303 36.7821 132.45 36.8146 132.611 36.8231C133.117 36.85 133.747 36.6603 134.499 36.2543C134.945 36.0178 135.335 35.6668 135.67 35.2014C135.895 34.9161 136.142 34.7062 136.409 34.5717C136.689 34.4255 136.953 34.359 137.2 34.372C137.41 34.3832 137.599 34.4489 137.766 34.5692C137.933 34.6896 138.047 34.869 138.109 35.1077C138.151 35.2462 138.168 35.3895 138.16 35.5378C138.142 35.8836 137.991 36.2844 137.706 36.74C136.928 38.0986 135.835 39.0874 134.428 39.7065C133.654 40.0371 132.817 40.1786 131.915 40.1308ZM142.048 40.7233C141.986 40.72 141.931 40.7109 141.882 40.696C141.87 40.6829 141.858 40.6761 141.846 40.6755C141.542 40.5603 141.248 40.2722 140.962 39.8111C140.771 39.4541 140.633 39.1248 140.55 38.8231C140.364 37.8966 140.298 35.5148 140.353 31.6776C140.353 31.4423 140.362 31.1455 140.381 30.7873C140.434 29.7867 140.54 28.504 140.697 26.9392C140.865 25.1644 141.026 23.7608 141.18 22.7284C141.669 19.8185 142.149 18.0045 142.62 17.2862C142.977 16.8592 143.329 16.6549 143.675 16.6732L143.767 16.6781C144.161 16.7361 144.486 17.032 144.742 17.5659C144.764 17.6166 144.784 17.7044 144.803 17.8292C144.833 17.9547 144.857 18.0798 144.876 18.2047C144.883 18.2918 144.89 18.3974 144.896 18.5216C144.902 18.6335 144.901 18.782 144.891 18.9673C144.868 19.3996 144.801 20.1889 144.691 21.335C144.613 22.1113 144.508 23.041 144.376 24.124C144.257 25.2078 144.143 26.1927 144.034 27.0788C143.863 28.4324 143.75 29.4049 143.694 29.9965L143.66 30.2735L143.695 30.3125C143.72 30.3138 143.784 30.28 143.887 30.2112C143.989 30.1423 144.157 30.0211 144.389 29.8476C144.815 29.5233 145.33 29.1604 145.933 28.7588C146.549 28.3579 147.112 28.0099 147.623 27.7149C148.748 27.0684 149.6 26.7605 150.181 26.7913L150.218 26.7933C150.402 26.8154 150.561 26.8672 150.693 26.9485C150.992 27.1378 151.133 27.4115 151.114 27.7698L151.111 27.8253C151.089 28.233 150.825 28.6587 150.318 29.1026C149.812 29.5465 148.939 30.1196 147.7 30.822C147.062 31.1845 146.511 31.5208 146.049 31.8308C145.587 32.1284 145.329 32.3253 145.274 32.4215L145.253 32.4761C145.252 32.5008 145.256 32.5382 145.266 32.5882C145.276 32.6259 145.293 32.664 145.315 32.7023C145.44 32.9195 145.695 33.2489 146.081 33.6905C146.478 34.1327 146.854 34.5181 147.208 34.8465C147.645 35.266 147.982 35.5688 148.219 35.7548C148.47 35.9415 148.728 36.0976 148.994 36.2231L149.466 36.434C149.766 36.3755 149.997 36.3321 150.16 36.3035C150.285 36.273 150.386 36.2535 150.46 36.2451C150.536 36.2243 150.611 36.2159 150.685 36.2198C150.722 36.2218 150.752 36.2296 150.776 36.2433C150.801 36.2446 150.825 36.2582 150.848 36.2843C151.041 36.3935 151.131 36.5532 151.12 36.7632L151.055 36.9455C151.013 37.0424 150.907 37.173 150.737 37.3374C150.568 37.4895 150.374 37.6341 150.157 37.7712C149.951 37.909 149.76 38.0103 149.583 38.0753C149.178 38.2396 148.734 38.309 148.253 38.2835L148.012 38.2708C147.161 38.2009 146.274 37.8752 145.351 37.2937C144.861 36.958 144.333 36.5213 143.767 35.9834C143.673 35.8793 143.585 35.7941 143.501 35.7278C143.431 35.6498 143.39 35.6104 143.378 35.6098L143.355 35.6829C143.347 35.8435 143.36 36.2901 143.396 37.0229C143.428 37.582 143.435 38.0283 143.418 38.3618L143.407 38.5656C143.378 38.8738 143.293 39.309 143.152 39.8714C143.056 40.2751 142.869 40.5315 142.591 40.6406C142.402 40.7049 142.221 40.7325 142.048 40.7233ZM162.804 41.3955C162.656 41.3877 162.52 41.3681 162.398 41.3369C161.556 41.1065 161.026 40.5829 160.809 39.7663C160.76 39.5283 160.745 39.2302 160.764 38.872C160.782 38.5138 160.832 38.1695 160.911 37.8393C161.16 36.8863 161.738 35.6782 162.645 34.215C164.297 31.5649 166.255 29.7859 168.521 28.8777C169.153 28.6387 169.846 28.5268 170.601 28.542L171.047 28.547C171.207 28.5555 171.324 28.5741 171.397 28.6027C171.47 28.619 171.561 28.6548 171.67 28.7101C171.67 28.7101 171.676 28.7104 171.688 28.7111C172.123 28.9199 172.331 29.2035 172.312 29.5617C172.309 29.6234 172.293 29.6969 172.263 29.7821C172.235 29.8549 172.213 29.9157 172.198 29.9644C172.146 30.0112 172.118 30.0778 172.113 30.1643L172.139 30.3701C172.146 30.4696 172.141 30.6922 172.123 31.0381C172.087 31.7051 171.987 32.9014 171.821 34.6268L171.702 36.1627C171.615 37.8179 171.665 39.0964 171.852 39.9983C171.872 40.0984 171.898 40.1803 171.932 40.244C171.967 40.2954 172.032 40.3484 172.128 40.4031C172.405 40.554 172.538 40.7406 172.526 40.963C172.517 41.1359 172.428 41.2922 172.259 41.432C172.103 41.5723 171.912 41.6737 171.686 41.736C171.586 41.7431 171.487 41.7441 171.388 41.7388C170.524 41.693 169.838 40.8392 169.332 39.1772C169.134 38.4607 169.037 37.6132 169.039 36.6348L169.04 35.9102C168.176 37.2641 167.387 38.3619 166.673 39.2036C165.96 40.0453 165.24 40.6451 164.515 41.0031C163.905 41.2929 163.335 41.4237 162.804 41.3955ZM164.041 38.0237C164.054 38.0243 164.092 38.0016 164.157 37.9555C164.234 37.8976 164.318 37.8278 164.409 37.7459C164.632 37.5223 164.948 37.1674 165.358 36.6813C165.768 36.1828 166.159 35.6956 166.531 35.2198C166.786 34.8617 167.074 34.4372 167.398 33.9465C167.721 33.4558 168.005 33.0063 168.249 32.5981C168.506 32.1905 168.637 31.9559 168.64 31.8941L168.622 31.8746C168.598 31.8733 168.481 31.96 168.274 32.1349C168.08 32.298 167.859 32.4783 167.614 32.6759C167.38 32.8741 167.198 33.044 167.066 33.1857C166.7 33.5627 166.31 34.0251 165.897 34.573C165.484 35.121 165.14 35.6354 164.867 36.1165C164.65 36.4766 164.457 36.8503 164.288 37.2378C164.118 37.6252 164.031 37.8745 164.025 37.9856C164.024 38.0104 164.029 38.023 164.041 38.0237ZM178.867 42.6181C178.682 42.6083 178.497 42.5923 178.312 42.5702C176.96 42.3747 175.897 41.637 175.122 40.3573C174.804 39.8202 174.559 39.1693 174.389 38.4047C174.232 37.6407 174.173 36.8758 174.214 36.1099C174.225 35.8999 174.242 35.6903 174.266 35.4809C174.327 35.0135 174.403 34.6335 174.493 34.341C174.584 34.0361 174.735 33.6353 174.947 33.1387C175.596 31.6371 176.459 30.4379 177.535 29.541C177.832 29.2967 178.161 29.0602 178.52 28.8314C178.891 28.6034 179.209 28.4406 179.475 28.3432C180.044 28.1256 180.6 28.025 181.144 28.0414C182.058 28.0899 182.901 28.4318 183.673 29.0673C184.005 29.345 184.252 29.7111 184.413 30.1656C184.588 30.6084 184.664 31.0522 184.64 31.4968C184.63 31.6821 184.602 31.8664 184.555 32.0498C184.493 32.2818 184.362 32.5474 184.16 32.8464C183.971 33.146 183.765 33.3953 183.544 33.5941C183.027 34.0003 182.565 34.1926 182.157 34.171C181.861 34.1553 181.651 34.0265 181.528 33.7846C181.518 33.7345 181.515 33.6786 181.518 33.6169C181.523 33.518 181.549 33.377 181.596 33.1936C181.701 32.84 181.764 32.4841 181.783 32.1258C181.8 31.8047 181.775 31.5618 181.71 31.3973C181.655 31.2582 181.569 31.1359 181.45 31.0306C181.345 30.9135 181.231 30.8394 181.109 30.8081L181.055 30.7866C180.869 30.7768 180.611 30.8684 180.278 31.0614C179.958 31.255 179.648 31.4987 179.348 31.7925C178.309 32.9266 177.752 34.1978 177.678 35.6059C177.648 36.1618 177.699 36.7157 177.831 37.2678C178.089 38.2476 178.519 38.896 179.122 39.2128C179.255 39.2694 179.402 39.3019 179.563 39.3105C180.069 39.3373 180.698 39.1477 181.451 38.7416C181.897 38.5051 182.287 38.1541 182.621 37.6888C182.847 37.4034 183.094 37.1935 183.361 37.059C183.641 36.9128 183.905 36.8463 184.152 36.8594C184.362 36.8705 184.55 36.9362 184.717 37.0566C184.884 37.1769 184.999 37.3564 185.06 37.595C185.103 37.7335 185.12 37.8769 185.112 38.0251C185.094 38.3709 184.942 38.7717 184.658 39.2274C183.88 40.5859 182.787 41.5747 181.379 42.1938C180.606 42.5245 179.769 42.6659 178.867 42.6181ZM192.265 43.6438C192.043 43.632 191.816 43.5952 191.584 43.5334C190.741 43.3029 190.027 42.7572 189.441 41.8962C189.256 41.6387 189.108 41.3955 188.996 41.1666C188.897 40.926 188.797 40.5986 188.695 40.1845C188.434 39.2664 188.273 38.335 188.211 37.3903C188.15 36.4456 188.158 35.133 188.234 33.4524L188.338 31.1353C186.911 30.9483 186.098 30.515 185.899 29.8355C185.868 29.7224 185.855 29.6102 185.861 29.4991C185.874 29.252 185.961 29.0212 186.121 28.8067C186.306 28.5812 186.619 28.3996 187.06 28.2619C187.514 28.1125 187.951 28.049 188.371 28.0712C188.445 28.0752 188.513 28.0788 188.574 28.082C188.637 28.0729 188.681 28.0629 188.706 28.0518C188.719 28.0401 188.755 27.943 188.814 27.7603C188.874 27.5776 188.929 27.3576 188.979 27.1001C189.384 25.3007 189.881 24.1069 190.47 23.5187C190.809 23.1898 191.146 23.0342 191.479 23.0519C192.034 23.1061 192.443 23.5736 192.706 24.4547C192.765 24.7304 192.803 25.0668 192.819 25.4641C192.849 25.8496 192.857 26.3951 192.844 27.1005C192.831 27.3599 192.819 27.576 192.81 27.749C192.814 27.9102 192.813 28.0402 192.808 28.1391C192.816 28.2262 192.824 28.2948 192.834 28.3448C192.844 28.3949 192.855 28.4264 192.866 28.4395C192.878 28.4525 192.896 28.4596 192.921 28.4609L193.654 28.6484C194.033 28.7428 194.409 28.8928 194.782 29.0984C195.156 29.2916 195.431 29.4858 195.606 29.6809C195.791 29.926 195.878 30.1598 195.866 30.3821C195.844 30.8021 195.511 31.1189 194.868 31.3326C194.403 31.4566 193.93 31.5059 193.448 31.4804L192.543 31.3767C192.517 31.6478 192.494 31.8324 192.477 31.9306C192.461 32.004 192.451 32.0778 192.447 32.1519C192.443 32.2137 192.432 32.3122 192.412 32.4474C192.406 32.5709 192.396 32.7562 192.383 33.0033C192.35 33.6209 192.326 34.3195 192.309 35.099C192.305 35.8792 192.318 36.4497 192.348 36.8105C192.406 37.5939 192.473 38.2044 192.549 38.642C192.637 39.0802 192.748 39.433 192.883 39.7002C192.982 39.9408 193.08 40.0637 193.179 40.069C193.241 40.0722 193.324 40.0271 193.428 39.9335C193.584 39.7931 193.729 39.6212 193.864 39.4178C194.012 39.2026 194.177 38.8893 194.36 38.4778C194.556 38.0547 194.72 37.7599 194.853 37.5935C194.985 37.4271 195.126 37.3478 195.274 37.3557C195.472 37.3661 195.604 37.4351 195.672 37.5626C195.752 37.6907 195.806 37.9475 195.835 38.333C195.86 38.5697 195.865 38.8239 195.851 39.0957C195.81 39.8615 195.658 40.6215 195.395 41.3755C195.151 42.0067 194.828 42.4975 194.426 42.8478C193.776 43.4203 193.056 43.6857 192.265 43.6438ZM200.505 28.0452C200.221 28.0301 199.947 27.9475 199.682 27.7972C199.49 27.6879 199.335 27.562 199.219 27.4196C199.116 27.2655 199.02 27.0808 198.933 26.8656C198.888 26.7642 198.856 26.6819 198.834 26.6188C198.826 26.5441 198.824 26.4511 198.83 26.3399L198.899 25.749C198.946 25.3179 199.014 24.987 199.1 24.7563C199.2 24.5138 199.347 24.2987 199.543 24.1108C199.821 23.7787 200.225 23.6267 200.756 23.6548L201.09 23.6725C201.189 23.6777 201.268 23.7005 201.328 23.7409C201.401 23.7695 201.485 23.8173 201.58 23.8843C202.132 24.2356 202.386 24.9303 202.343 25.9686L202.334 26.1354C202.303 26.7283 202.169 27.1485 201.933 27.3962C201.525 27.8576 201.049 28.074 200.505 28.0452ZM199.823 43.7283C199.588 43.7159 199.375 43.655 199.182 43.5457C198.468 43.2354 198.094 42.1193 198.059 40.1974C198.007 38.1384 198.023 36.3245 198.106 34.7558C198.163 33.6687 198.252 32.8125 198.372 32.1871C198.442 31.8068 198.548 31.4347 198.691 31.0706C198.834 30.7066 198.986 30.4235 199.145 30.2214C199.479 29.7683 199.917 29.5562 200.461 29.585L200.701 29.6163C201.205 29.6925 201.567 29.9781 201.789 30.4729C201.912 30.7148 201.996 31.0042 202.04 31.3409C202.084 31.6777 202.09 32.1426 202.059 32.7355C202.022 33.4272 201.936 34.3641 201.799 35.546C201.657 36.8267 201.554 38.06 201.491 39.2458C201.457 39.8882 201.436 40.5188 201.428 41.1377L201.413 41.4156C201.397 41.7245 201.362 42.0385 201.308 42.3577C201.239 42.7133 201.144 42.9869 201.023 43.1787C200.901 43.3704 200.726 43.516 200.498 43.6154C200.283 43.7031 200.058 43.7407 199.823 43.7283ZM207.71 43.5701C207.45 43.5564 207.223 43.5257 207.027 43.4782C206.917 43.4476 206.777 43.3968 206.608 43.3259C206.439 43.2426 206.276 43.1597 206.119 43.0771C205.914 42.9671 205.741 42.8588 205.598 42.7522C205.468 42.6338 205.315 42.477 205.139 42.2819C204.918 42.0225 204.739 41.7714 204.603 41.5289C204.467 41.2863 204.319 40.9316 204.158 40.4648C203.883 39.5831 203.773 38.6173 203.828 37.5673C203.9 36.2209 204.229 34.9067 204.818 33.6249C205.511 32.2371 206.375 31.23 207.412 30.6036C207.629 30.4788 207.825 30.3963 208.001 30.3561C208.177 30.3035 208.383 30.2834 208.617 30.2958L209.419 30.2454C209.605 30.2305 209.804 30.2286 210.014 30.2397C210.692 30.3004 211.301 30.4937 211.841 30.8196C212.249 31.0766 212.597 31.4047 212.885 31.804C213.186 32.2039 213.486 32.7463 213.784 33.431C214.135 34.2919 214.279 35.3091 214.217 36.4825C214.194 36.9025 214.144 37.2776 214.064 37.6079C213.985 37.9258 213.846 38.3395 213.645 38.8492C212.982 40.6102 211.973 41.9007 210.616 42.7207C209.976 43.1203 209.398 43.3808 208.884 43.5022C208.496 43.5684 208.105 43.591 207.71 43.5701ZM208.022 40.1306C208.145 40.1372 208.296 40.0956 208.474 40.006C208.716 39.8949 208.993 39.6928 209.306 39.3997C209.631 39.0949 209.895 38.7991 210.096 38.5125C210.297 38.2135 210.455 37.9369 210.567 37.6828C210.693 37.4169 210.795 37.1127 210.876 36.7701C210.969 36.4034 211.025 36.0595 211.042 35.7383C211.084 34.9478 210.906 34.319 210.51 33.8521C210.346 33.67 210.167 33.5367 209.974 33.4521C209.781 33.3551 209.524 33.292 209.203 33.2626L208.888 33.2459C208.765 33.2394 208.678 33.2472 208.627 33.2692C208.577 33.279 208.52 33.3069 208.455 33.3531C208.403 33.3998 208.331 33.4827 208.238 33.6017C208.145 33.7083 208.064 33.834 207.995 33.979C207.434 34.9774 207.122 36.0819 207.057 37.2924C206.992 38.5277 207.158 39.3664 207.556 39.8087C207.706 40.0148 207.861 40.1221 208.022 40.1306ZM224.885 45.1861C224.688 45.1756 224.493 45.1034 224.302 44.9694C224.087 44.8217 223.914 44.5772 223.784 44.2358C223.666 43.8951 223.563 43.3818 223.475 42.6959C223.384 42.0717 223.36 41.3705 223.401 40.5923C223.459 39.493 223.659 38.0543 224.001 36.2762L224.05 36.0559C223.762 36.3379 223.36 36.9297 222.841 37.8313C222.323 38.7205 221.834 39.6608 221.372 40.6521C220.979 41.5231 220.665 42.194 220.43 42.6646C220.206 43.1359 220.021 43.4853 219.872 43.7128C219.736 43.9409 219.603 44.1197 219.472 44.249C219.017 44.6584 218.549 44.8504 218.067 44.8249C217.919 44.817 217.778 44.791 217.644 44.7467C217.121 44.558 216.722 44.1405 216.447 43.4941C216.349 43.2288 216.257 42.8709 216.169 42.4203C216.081 41.9697 216.03 41.5335 216.015 41.1115C216.008 40.7767 216.022 40.2881 216.056 39.6458C216.087 39.0652 216.125 38.4541 216.172 37.8124C216.23 37.1714 216.289 36.6542 216.347 36.2609C216.45 35.486 216.591 34.6945 216.77 33.8864C216.961 33.079 217.128 32.4995 217.271 32.1478C217.482 31.6635 217.741 31.3428 218.046 31.1855C218.111 31.1394 218.168 31.1115 218.218 31.1017C218.281 31.0803 218.356 31.0719 218.442 31.0764L218.609 31.0853C219.053 31.1212 219.385 31.3989 219.605 31.9185C219.661 32.0452 219.698 32.1525 219.718 32.2403C219.752 32.3164 219.77 32.4289 219.775 32.5778C219.78 32.7143 219.775 32.9308 219.759 33.2272L219.741 33.5608C219.699 34.3637 219.571 35.4903 219.358 36.9407C219.25 37.8021 219.186 38.4366 219.164 38.8443C219.154 39.0295 219.155 39.1287 219.167 39.1417C219.192 39.143 219.252 39.0657 219.346 38.9097C219.441 38.7537 219.551 38.5613 219.674 38.3324C220.575 36.7575 221.674 35.193 222.97 33.6389C223.808 32.5561 224.672 32.0382 225.561 32.0853C226.438 32.1318 227.005 32.6449 227.263 33.6248C227.307 33.7386 227.332 33.8514 227.338 33.9632C227.345 34.075 227.342 34.2359 227.331 34.4459C227.332 34.6566 227.321 34.9904 227.297 35.4475C227.268 35.991 227.232 36.4412 227.188 36.7981C227.157 37.1433 227.107 37.5122 227.036 37.9049L226.633 40.2619C226.431 41.4899 226.247 42.5145 226.08 43.3355C225.925 44.1449 225.807 44.6218 225.725 44.7661C225.499 45.0637 225.219 45.2038 224.885 45.1861ZM232.489 45.4588C232.18 45.4425 231.867 45.3887 231.55 45.2976C230.464 44.9923 229.739 44.4089 229.376 43.5473C229.265 43.3061 229.174 43.0411 229.102 42.7524C229.031 42.4637 228.994 42.2141 228.993 42.0034L228.985 41.7986C229.021 41.1316 229.351 40.505 229.977 39.9188C230.003 39.8954 230.023 39.8716 230.036 39.8476C230.14 39.754 230.218 39.69 230.27 39.6556C230.334 39.6094 230.385 39.5812 230.423 39.5708C230.473 39.561 230.541 39.5585 230.628 39.563C230.924 39.5787 231.102 39.7183 231.163 39.9816C231.185 40.0323 231.193 40.1132 231.187 40.2244C231.18 40.3603 231.135 40.6181 231.053 40.9977L231 41.2922C230.985 41.5887 231.019 41.8754 231.104 42.1524C231.188 42.4294 231.308 42.6215 231.463 42.7289C231.655 42.8505 231.862 42.9172 232.084 42.929L232.383 42.9076C232.883 42.8226 233.279 42.5959 233.571 42.2273C233.677 42.0967 233.734 41.9511 233.743 41.7905C233.772 41.2347 233.218 40.3568 232.08 39.1569C230.918 37.931 230.241 36.805 230.048 35.779C229.996 35.5904 229.967 35.4279 229.962 35.2914C229.957 35.1548 229.961 34.9507 229.976 34.6789C229.994 34.3331 230.041 34.0321 230.117 33.7759C230.204 33.5205 230.356 33.225 230.572 32.8896C230.762 32.59 231.025 32.2881 231.363 31.9839C231.702 31.6798 232.017 31.4611 232.309 31.3279C232.867 31.085 233.423 30.9782 233.979 31.0077L234.072 31.0126C234.591 31.0401 235.085 31.1839 235.554 31.4441C235.723 31.5398 235.86 31.6338 235.967 31.7261C236.086 31.8068 236.216 31.919 236.358 32.0627C236.673 32.4139 236.886 32.7224 236.996 32.9884C237.106 33.2543 237.151 33.5726 237.131 33.9432C237.121 34.1408 237.1 34.2946 237.07 34.4044C237.051 34.5149 237.021 34.6186 236.979 34.7155C236.633 35.4032 236.198 35.7704 235.676 35.817L235.546 35.8102C235.398 35.8023 235.289 35.7532 235.219 35.6628C235.15 35.56 235.086 35.3708 235.026 35.0951C234.975 34.8942 234.921 34.7427 234.865 34.6406C234.82 34.5392 234.758 34.4368 234.676 34.3334C234.35 33.9568 234.026 33.7601 233.704 33.743C233.519 33.7332 233.355 33.7865 233.213 33.9028C233.137 33.9359 233.091 33.9769 233.076 34.0256C233.062 34.062 233.052 34.1235 233.048 34.2099C233.044 34.2841 233.047 34.3523 233.056 34.4147C233.065 34.4772 233.092 34.5529 233.136 34.642C233.194 34.7317 233.28 34.8602 233.395 35.0273C233.486 35.1684 233.596 35.3167 233.724 35.4721C233.865 35.6158 234.072 35.8064 234.344 36.0438C234.71 36.3852 235.016 36.6987 235.261 36.9842C235.519 37.258 235.757 37.5617 235.974 37.8953C236.754 39.0762 237.113 40.2473 237.052 41.4084L237.038 41.6678C236.922 42.6774 236.48 43.5459 235.711 44.2731C235.098 44.8476 234.329 45.2218 233.403 45.3958C233.09 45.4535 232.786 45.4745 232.489 45.4588ZM249.183 46.3432L249.146 46.3413C249.06 46.3367 248.968 46.3256 248.869 46.308C248.771 46.2904 248.704 46.2745 248.668 46.2602C248.145 46.0714 247.738 45.6906 247.446 45.1178C247.335 44.8765 247.206 44.4981 247.06 43.9825C246.927 43.4675 246.833 43.0105 246.78 42.6112C246.668 41.924 246.606 41.3385 246.594 40.8548C246.583 40.3711 246.606 39.5858 246.663 38.4987C246.712 37.5847 246.752 36.9365 246.785 36.5542C246.83 36.1726 246.889 35.7607 246.962 35.3187C247.463 32.1741 248.288 30.6323 249.437 30.6931C249.992 30.7226 250.382 31.09 250.604 31.7955C250.664 32.0835 250.677 32.524 250.646 33.1169C250.619 33.6234 250.564 34.1965 250.481 34.8362C250.265 36.336 250.129 37.6232 250.072 38.6979L250.015 40.1256C250.27 39.5074 250.565 38.8479 250.9 38.1472C251.234 37.4464 251.505 36.8971 251.712 36.4993C252.137 35.7291 252.571 35.015 253.014 34.3572C253.471 33.6878 253.842 33.2243 254.129 32.967C254.388 32.7454 254.606 32.6021 254.783 32.5371C254.973 32.4605 255.216 32.43 255.513 32.4457C255.723 32.4568 255.876 32.4774 255.974 32.5073C256.072 32.5249 256.181 32.5678 256.301 32.6361C256.457 32.7311 256.611 32.8693 256.763 33.0508C256.927 33.2205 257.048 33.388 257.126 33.5531C257.307 33.8848 257.37 34.5632 257.316 35.5885C257.293 36.0084 257.255 36.5019 257.2 37.0688L257.067 38.5296C257.092 38.5309 257.164 38.4481 257.284 38.281C257.405 38.114 257.546 37.9047 257.708 37.6531C258.044 37.163 258.431 36.6261 258.871 36.0425C259.324 35.4471 259.742 34.918 260.126 34.4553C260.522 33.9808 260.799 33.6734 260.955 33.533C261.392 33.2217 261.815 33.0769 262.223 33.0985C262.569 33.1168 262.878 33.2447 263.15 33.4821C263.423 33.7071 263.616 34.0332 263.73 34.4604C263.828 34.7133 263.862 35.1177 263.833 35.6736C263.789 36.5012 263.581 37.9766 263.208 40.0999C263.08 40.8858 262.957 41.6907 262.839 42.5144C262.721 43.3381 262.656 43.8549 262.645 44.0649C262.64 44.1637 262.64 44.2876 262.644 44.4364C262.661 44.586 262.679 44.717 262.698 44.8295C262.726 44.992 262.737 45.1351 262.731 45.2586C262.719 45.4809 262.641 45.6626 262.497 45.8036C262.289 45.9908 262.062 46.0779 261.815 46.0648C261.567 46.0517 261.319 45.958 261.068 45.7837C260.83 45.5976 260.645 45.3525 260.512 45.0481C260.294 44.4916 260.124 43.7269 260.002 42.7543C259.892 41.7823 259.861 40.8516 259.908 39.9622L259.988 39.1489C260.025 38.9279 260.054 38.7374 260.074 38.5775C260.096 38.4052 260.114 38.3008 260.128 38.2644L260.152 38.1728C260.153 38.1481 260.147 38.1354 260.135 38.1347C260.098 38.1328 259.991 38.2758 259.815 38.5637C259.639 38.8393 259.441 39.1942 259.22 39.6284C258.61 40.8473 258.126 41.6887 257.767 42.1528C257.408 42.6169 257.028 42.894 256.626 42.9842C256.45 43.0368 256.257 43.0576 256.047 43.0465C255.726 43.0294 255.433 42.952 255.168 42.814C254.228 42.3183 253.787 41.0439 253.847 38.9908L253.859 38.0624C253.639 38.4595 253.403 38.9549 253.148 39.5483C252.894 40.1418 252.535 41.0766 252.071 42.3527C252.026 42.4866 251.976 42.6202 251.919 42.7534C251.816 43.07 251.714 43.3619 251.613 43.6291C251.525 43.8846 251.459 44.0731 251.416 44.1946C250.891 45.6781 250.147 46.3943 249.183 46.3432ZM269.447 46.8407C269.188 46.827 268.96 46.7964 268.765 46.7488C268.655 46.7182 268.515 46.6675 268.345 46.5966C268.176 46.5133 268.014 46.4303 267.857 46.3477C267.652 46.2378 267.478 46.1295 267.335 46.0228C267.205 45.9044 267.053 45.7477 266.877 45.5526C266.655 45.2931 266.477 45.0421 266.341 44.7995C266.205 44.557 266.057 44.2023 265.896 43.7354C265.62 42.8537 265.51 41.8879 265.566 40.8379C265.637 39.4915 265.967 38.1774 266.555 36.8955C267.248 35.5077 268.113 34.5006 269.149 33.8742C269.367 33.7495 269.563 33.667 269.739 33.6267C269.915 33.5741 270.12 33.554 270.355 33.5665L271.157 33.516C271.343 33.5011 271.541 33.4992 271.751 33.5104C272.429 33.5711 273.039 33.7644 273.579 34.0903C273.986 34.3472 274.334 34.6753 274.623 35.0746C274.924 35.4746 275.223 36.0169 275.521 36.7016C275.872 37.5625 276.017 38.5797 275.954 39.7532C275.932 40.1732 275.881 40.5483 275.802 40.8785C275.723 41.1964 275.583 41.6102 275.383 42.1198C274.72 43.8808 273.71 45.1713 272.354 45.9913C271.713 46.391 271.136 46.6515 270.621 46.7729C270.234 46.8391 269.843 46.8617 269.447 46.8407ZM269.76 43.4013C269.883 43.4078 270.034 43.3663 270.212 43.2766C270.453 43.1655 270.73 42.9634 271.043 42.6703C271.369 42.3655 271.632 42.0698 271.833 41.7831C272.035 41.4841 272.192 41.2075 272.305 40.9534C272.43 40.6875 272.533 40.3833 272.613 40.0407C272.707 39.674 272.762 39.3301 272.779 39.009C272.821 38.2184 272.644 37.5897 272.248 37.1227C272.084 36.9406 271.905 36.8073 271.711 36.7227C271.518 36.6258 271.261 36.5626 270.941 36.5332L270.626 36.5166C270.502 36.51 270.415 36.5178 270.365 36.5399C270.315 36.5496 270.257 36.5775 270.193 36.6237C270.141 36.6705 270.068 36.7533 269.975 36.8723C269.883 36.9789 269.802 37.1047 269.732 37.2496C269.172 38.248 268.859 39.3525 268.795 40.5631C268.73 41.7983 268.896 42.6371 269.293 43.0793C269.444 43.2854 269.599 43.3928 269.76 43.4013ZM279.756 47.9628L279.48 47.9111C279.223 47.8479 278.982 47.7175 278.757 47.5198C278.546 47.3103 278.379 47.0662 278.257 46.7872C277.871 45.6643 277.742 43.8923 277.87 41.4712L277.95 40.3049C278.229 37.3839 278.67 35.3696 279.274 34.2619C279.695 33.5658 280.184 33.2077 280.743 33.1877L280.817 33.1917C281.064 33.2048 281.295 33.2975 281.508 33.4698C281.722 33.6422 281.889 33.8864 282.008 34.2024C282.142 34.4944 282.193 34.9368 282.161 35.5297L282.076 36.4357L281.861 38.0408C282.241 37.4168 282.551 36.9439 282.791 36.6222C283.031 36.2881 283.295 35.9924 283.581 35.735C283.879 35.4783 284.137 35.2999 284.353 35.1999C284.568 35.0998 284.813 35.0508 285.085 35.0529L285.289 35.0637C285.388 35.0689 285.473 35.0858 285.546 35.1145C285.62 35.1307 285.705 35.16 285.802 35.2023C286.38 35.5178 286.83 36.1424 287.152 37.0762C287.248 37.3662 287.291 37.6038 287.281 37.7891C287.266 38.0732 287.126 38.264 286.861 38.3614C286.746 38.4173 286.627 38.4419 286.504 38.4354C286.232 38.421 285.925 38.2499 285.583 37.9221C285.488 37.8428 285.399 37.7699 285.316 37.7036C285.233 37.6372 285.179 37.6034 285.154 37.6021C285.093 37.5988 284.964 37.6849 284.769 37.8604C284.586 38.0365 284.421 38.226 284.274 38.4288C283.488 39.4772 282.792 41.3913 282.186 44.1711C281.991 45.0526 281.839 45.7011 281.73 46.1165C281.622 46.5319 281.519 46.8238 281.424 46.9921C281.341 47.1488 281.222 47.2911 281.067 47.4191C280.65 47.8058 280.213 47.9871 279.756 47.9628ZM293.436 48.2231C293.09 48.2047 292.759 48.15 292.441 48.0589C290.793 47.6123 289.625 46.7329 288.939 45.4207C288.367 44.3003 288.113 43.1225 288.179 41.8872C288.239 40.7508 288.564 39.647 289.153 38.5758C289.755 37.5052 290.511 36.6781 291.422 36.0946C292.18 35.565 293.011 35.3241 293.912 35.3719L294.005 35.3768C295.006 35.4298 295.834 35.8019 296.492 36.4933C297.082 37.0448 297.354 37.7405 297.31 38.5805C297.266 39.4081 296.881 40.2486 296.154 41.102C295.824 41.4933 295.383 41.8663 294.832 42.2211C294.281 42.5635 293.78 42.7909 293.328 42.9032C293.189 42.9454 293.057 42.9818 292.932 43.0123C292.477 43.174 292.071 43.2454 291.713 43.2264C291.577 43.2193 291.442 43.1873 291.309 43.1307L291.236 43.1083C291.223 43.1076 291.217 43.1135 291.216 43.1258L291.23 43.2195C291.323 43.5712 291.51 43.8908 291.792 44.1783C291.981 44.3617 292.188 44.5399 292.414 44.7129C292.653 44.8866 292.881 45.0164 293.1 45.1023C293.486 45.2961 293.901 45.4049 294.346 45.4284C294.63 45.4435 294.911 45.4026 295.189 45.3058C295.289 45.274 295.505 45.1801 295.835 45.0242C296.179 44.8566 296.523 44.6643 296.869 44.4472C297.229 44.2062 297.498 44.0284 297.678 43.9141C297.87 43.8004 298.004 43.7269 298.08 43.6938C298.168 43.6613 298.249 43.6471 298.323 43.651C298.496 43.6601 298.611 43.7096 298.669 43.7993C298.726 43.8767 298.749 44.0328 298.737 44.2675L298.724 44.5083C298.655 45.1116 298.434 45.6574 298.061 46.1455C297.888 46.3717 297.653 46.607 297.355 46.8513C297.069 47.0963 296.779 47.3101 296.485 47.4927C295.49 48.0346 294.474 48.278 293.436 48.2231ZM291.582 40.4324C291.804 40.4442 292.016 40.4183 292.218 40.3546C292.899 40.1306 293.429 39.7065 293.809 39.0825C293.932 38.8537 293.999 38.6528 294.008 38.4799C294.014 38.3564 293.995 38.2501 293.951 38.161C293.882 38.0582 293.793 37.9792 293.684 37.9239C293.576 37.8563 293.467 37.8133 293.357 37.7951L293.246 37.7892C293.021 37.8145 292.773 37.9438 292.5 38.1771C292.229 38.398 291.985 38.6762 291.769 39.0116C291.647 39.2033 291.529 39.4387 291.415 39.7175C291.302 39.9964 291.242 40.1914 291.236 40.3026C291.234 40.3273 291.239 40.3523 291.25 40.3777C291.262 40.3907 291.292 40.4047 291.341 40.4197C291.39 40.4223 291.471 40.4265 291.582 40.4324ZM312.279 49.2399C312.217 49.2366 312.149 49.2268 312.076 49.2105C312.002 49.1942 311.905 49.1705 311.782 49.1392C311.343 49.0169 310.953 48.7856 310.611 48.4455C310.446 48.2881 310.267 48.0432 310.074 47.7109C309.881 47.3786 309.713 47.0415 309.57 46.6995C309.264 45.94 309.004 45.0034 308.79 43.8896C308.577 42.7635 308.455 41.6855 308.423 40.6557C308.413 40.3703 308.416 40.0855 308.431 39.8014C308.452 39.3938 308.491 39.018 308.546 38.6741C308.602 38.3178 308.673 38.0428 308.757 37.8491C309.068 37.1224 309.57 36.7773 310.261 36.814C310.94 36.8623 311.432 37.2786 311.737 38.0628C312.025 38.7097 312.237 39.8482 312.374 41.4782C312.415 41.8767 312.461 42.2879 312.513 42.7119C312.565 43.1358 312.614 43.5038 312.659 43.8159C312.717 44.1286 312.756 44.3165 312.778 44.3796C312.803 44.3685 312.91 44.2132 313.1 43.9135C313.289 43.6139 313.514 43.2294 313.774 42.7601C314.047 42.2914 314.314 41.8039 314.576 41.2975C315.304 39.9487 316.268 38.4762 317.467 36.8798C317.693 36.5945 317.865 36.3807 317.984 36.2383C318.104 36.0836 318.203 35.9712 318.281 35.901C318.359 35.8308 318.449 35.7675 318.551 35.7109C318.692 35.6193 318.837 35.5712 318.986 35.5667L319.06 35.5707C319.245 35.5805 319.402 35.6569 319.531 35.8C319.673 35.9314 319.738 36.1083 319.726 36.3306C319.723 36.3924 319.649 36.6238 319.503 37.0249C319.371 37.4266 319.197 37.9005 318.982 38.4466C318.639 39.3202 318.34 40.0476 318.086 40.6288C317.833 41.1976 317.556 41.7589 317.254 42.3127C317.061 42.6864 316.824 43.1818 316.543 43.7987C316.263 44.4155 316.016 44.9847 315.803 45.506C315.433 46.4031 315.125 47.0742 314.878 47.5195C314.632 47.9648 314.385 48.2985 314.138 48.5208C313.708 48.9192 313.237 49.1482 312.726 49.2078C312.551 49.2357 312.402 49.2464 312.279 49.2399ZM323.239 34.5472C322.955 34.5321 322.681 34.4495 322.416 34.2992C322.224 34.1899 322.07 34.064 321.953 33.9216C321.85 33.7675 321.754 33.5828 321.667 33.3676C321.623 33.2662 321.59 33.1839 321.568 33.1208C321.56 33.0461 321.559 32.9531 321.565 32.8419L321.633 32.251C321.681 31.8199 321.748 31.489 321.834 31.2583C321.934 31.0158 322.081 30.8006 322.277 30.6128C322.555 30.2807 322.959 30.1287 323.491 30.1568L323.824 30.1745C323.923 30.1797 324.002 30.2025 324.062 30.2429C324.135 30.2715 324.219 30.3193 324.314 30.3863C324.866 30.7376 325.12 31.4323 325.077 32.4706L325.069 32.6374C325.037 33.2303 324.903 33.6505 324.667 33.8982C324.259 34.3596 323.783 34.576 323.239 34.5472ZM322.557 50.2303C322.322 50.2179 322.109 50.157 321.917 50.0477C321.202 49.7374 320.828 48.6213 320.793 46.6994C320.741 44.6404 320.757 42.8265 320.84 41.2578C320.898 40.1707 320.986 39.3145 321.106 38.6891C321.176 38.3088 321.282 37.9367 321.425 37.5726C321.569 37.2086 321.72 36.9255 321.879 36.7234C322.213 36.2703 322.651 36.0582 323.195 36.087L323.435 36.1183C323.939 36.1945 324.301 36.4801 324.523 36.9749C324.646 37.2168 324.73 37.5061 324.774 37.8429C324.818 38.1797 324.825 38.6446 324.793 39.2375C324.757 39.9292 324.67 40.8661 324.533 42.048C324.391 43.3287 324.288 44.562 324.225 45.7478C324.191 46.3902 324.17 47.0208 324.162 47.6397L324.148 47.9176C324.131 48.2265 324.096 48.5405 324.042 48.8597C323.974 49.2153 323.879 49.4889 323.757 49.6807C323.635 49.8724 323.46 50.018 323.232 50.1174C323.017 50.2051 322.792 50.2427 322.557 50.2303ZM329.542 50.6004C329.234 50.584 328.921 50.5303 328.603 50.4391C327.517 50.1338 326.792 49.5504 326.429 48.6888C326.318 48.4476 326.227 48.1826 326.156 47.894C326.084 47.6053 326.048 47.3556 326.047 47.145L326.039 46.9402C326.074 46.2731 326.405 45.6465 327.03 45.0603C327.056 45.0369 327.076 45.0132 327.09 44.9891C327.194 44.8955 327.272 44.8315 327.323 44.7971C327.387 44.7509 327.438 44.7227 327.476 44.7123C327.526 44.7026 327.594 44.7 327.681 44.7046C327.977 44.7203 328.156 44.8598 328.216 45.1231C328.238 45.1738 328.246 45.2548 328.24 45.3659C328.233 45.5018 328.189 45.7596 328.107 46.1392L328.054 46.4337C328.038 46.7302 328.072 47.0169 328.157 47.2939C328.241 47.5709 328.361 47.7631 328.517 47.8704C328.708 47.992 328.915 48.0587 329.138 48.0705L329.436 48.0492C329.936 47.9642 330.332 47.7374 330.624 47.3689C330.73 47.2382 330.787 47.0926 330.796 46.932C330.825 46.3762 330.271 45.4983 329.133 44.2984C327.972 43.0725 327.294 41.9465 327.101 40.9205C327.049 40.732 327.02 40.5694 327.015 40.4329C327.01 40.2964 327.015 40.0922 327.029 39.8205C327.047 39.4746 327.094 39.1736 327.17 38.9175C327.258 38.662 327.41 38.3666 327.626 38.0312C327.815 37.7315 328.079 37.4296 328.417 37.1255C328.755 36.8213 329.07 36.6026 329.362 36.4695C329.92 36.2265 330.477 36.1197 331.033 36.1492L331.125 36.1541C331.644 36.1816 332.138 36.3254 332.608 36.5857C332.776 36.6813 332.913 36.7753 333.02 36.8676C333.14 36.9483 333.27 37.0605 333.411 37.2042C333.727 37.5554 333.94 37.864 334.049 38.1299C334.159 38.3959 334.204 38.7141 334.185 39.0847C334.174 39.2823 334.154 39.4361 334.123 39.5459C334.105 39.6565 334.074 39.7601 334.032 39.857C333.686 40.5447 333.252 40.9119 332.729 40.9585L332.599 40.9517C332.451 40.9438 332.342 40.8947 332.273 40.8043C332.204 40.7016 332.139 40.5123 332.08 40.2367C332.028 40.0358 331.974 39.8843 331.918 39.7822C331.874 39.6807 331.811 39.5783 331.73 39.4749C331.403 39.0984 331.079 38.9016 330.758 38.8846C330.572 38.8748 330.409 38.928 330.266 39.0443C330.19 39.0775 330.145 39.1184 330.13 39.1672C330.115 39.2036 330.106 39.265 330.101 39.3515C330.097 39.4256 330.1 39.4939 330.109 39.5563C330.118 39.6187 330.145 39.6944 330.19 39.7835C330.247 39.8733 330.333 40.0017 330.448 40.1688C330.54 40.3099 330.65 40.4582 330.778 40.6136C330.919 40.7574 331.125 40.9479 331.398 41.1853C331.764 41.5268 332.069 41.8402 332.314 42.1257C332.572 42.3995 332.81 42.7032 333.028 43.0368C333.807 44.2178 334.166 45.3888 334.105 46.5499L334.091 46.8093C333.976 47.8189 333.533 48.6874 332.764 49.4146C332.151 49.9891 331.382 50.3634 330.456 50.5373C330.144 50.595 329.839 50.6161 329.542 50.6004ZM344.78 50.9245C344.595 50.9147 344.418 50.862 344.25 50.7663C343.997 50.6291 343.787 50.3764 343.621 50.0084C343.468 49.6286 343.324 49.0574 343.191 48.2948C343.14 48.0939 343.1 47.9121 343.072 47.7496C343.033 47.5493 343.008 47.4365 342.997 47.4112L342.708 47.9533C341.897 49.4587 340.85 50.1774 339.565 50.1094L339.324 50.0966C338.156 49.9356 337.324 49.266 336.829 48.0878C336.619 47.606 336.468 47.0777 336.374 46.5029C336.293 45.9288 336.257 45.2084 336.266 44.3418L336.295 43.4329C336.381 41.8147 336.619 40.3595 337.01 39.0671C337.189 38.4944 337.373 38.0644 337.561 37.7771C337.762 37.4905 338.002 37.2864 338.281 37.1649C338.459 37.0876 338.64 37.0539 338.825 37.0637L338.899 37.0676C339.503 37.1367 339.894 37.591 340.072 38.4304C340.108 38.6924 340.075 39.7869 339.973 41.7139C339.924 42.628 339.894 43.3077 339.883 43.753C339.872 44.1984 339.867 44.5264 339.868 44.737C339.882 44.936 339.904 45.1167 339.932 45.2793C339.941 45.3417 339.95 45.4041 339.96 45.4665C339.978 45.579 339.998 45.6791 340.018 45.7669C340.039 45.8423 340.055 45.8865 340.067 45.8995L340.085 45.9005C340.11 45.9018 340.149 45.8729 340.201 45.8138C340.322 45.6467 340.552 45.2749 340.892 44.6984C341.233 44.1095 341.581 43.4962 341.937 42.8585C342.39 42.0278 342.747 41.3716 343.008 40.8899C343.281 40.4089 343.491 40.0608 343.639 39.8457C343.8 39.6188 343.932 39.4648 344.035 39.3836C344.151 39.2906 344.285 39.2172 344.437 39.1633C344.538 39.1315 344.62 39.1049 344.683 39.0834C344.758 39.0626 344.845 39.0549 344.944 39.0601L345.147 39.0894C345.8 39.1612 346.259 39.5014 346.524 40.11C346.59 40.2498 346.638 40.401 346.667 40.5635C346.708 40.7143 346.728 40.9322 346.725 41.2169C346.735 41.49 346.726 41.8983 346.697 42.4418L346.502 45.4229C346.287 48.3225 346.07 49.9585 345.852 50.331C345.557 50.7489 345.2 50.9467 344.78 50.9245ZM350.425 51.335C350.277 51.3272 350.142 51.3076 350.02 51.2764C349.177 51.046 348.648 50.5224 348.431 49.7058C348.381 49.4678 348.366 49.1697 348.385 48.8115C348.404 48.4532 348.453 48.109 348.533 47.7788C348.781 46.8257 349.36 45.6177 350.267 44.1545C351.919 41.5044 353.877 39.7253 356.143 38.8172C356.775 38.5782 357.468 38.4663 358.223 38.4815L358.668 38.4865C358.829 38.495 358.946 38.5136 359.019 38.5422C359.092 38.5585 359.183 38.5943 359.292 38.6496C359.292 38.6496 359.298 38.6499 359.31 38.6506C359.745 38.8594 359.953 39.143 359.934 39.5012C359.931 39.5629 359.914 39.6364 359.885 39.7216C359.856 39.7944 359.835 39.8551 359.82 39.9039C359.768 39.9507 359.739 40.0173 359.735 40.1038L359.761 40.3096C359.768 40.409 359.763 40.6317 359.744 40.9776C359.709 41.6446 359.608 42.8408 359.443 44.5663L359.324 46.1022C359.236 47.7574 359.286 49.0359 359.474 49.9377C359.493 50.0379 359.52 50.1198 359.554 50.1835C359.588 50.2349 359.654 50.2879 359.75 50.3426C360.027 50.4935 360.159 50.6801 360.147 50.9025C360.138 51.0754 360.05 51.2317 359.881 51.3715C359.725 51.5118 359.534 51.6132 359.308 51.6755C359.208 51.6826 359.109 51.6836 359.01 51.6783C358.145 51.6325 357.46 50.7787 356.953 49.1167C356.756 48.4002 356.658 47.5527 356.661 46.5742L356.662 45.8497C355.797 47.2036 355.008 48.3014 354.295 49.1431C353.581 49.9848 352.862 50.5846 352.137 50.9426C351.527 51.2324 350.957 51.3632 350.425 51.335ZM351.663 47.9632C351.676 47.9638 351.714 47.9411 351.778 47.895C351.856 47.8371 351.94 47.7673 352.031 47.6854C352.253 47.4618 352.569 47.1069 352.979 46.6208C353.39 46.1223 353.781 45.6351 354.153 45.1593C354.407 44.8012 354.696 44.3767 355.019 43.886C355.343 43.3953 355.627 42.9458 355.871 42.5376C356.128 42.13 356.258 41.8954 356.261 41.8336L356.244 41.8141C356.219 41.8128 356.103 41.8995 355.896 42.0744C355.701 42.2375 355.481 42.4178 355.235 42.6154C355.002 42.8136 354.819 42.9835 354.688 43.1252C354.321 43.5022 353.931 43.9646 353.518 44.5125C353.105 45.0605 352.762 45.5749 352.489 46.056C352.272 46.4161 352.078 46.7898 351.909 47.1772C351.74 47.5647 351.652 47.814 351.647 47.9251C351.645 47.9499 351.651 47.9625 351.663 47.9632ZM365.247 52.4919C365.087 52.4834 364.922 52.4436 364.752 52.3727C364.498 52.2602 364.269 52.1366 364.066 52.0019C363.875 51.8556 363.669 51.6588 363.446 51.4117C363.023 50.9928 362.73 50.4447 362.567 49.7672C362.418 49.078 362.338 48.0146 362.328 46.5772L362.285 41.7625C362.287 41.2548 362.309 40.6118 362.35 39.8336C362.385 39.1789 362.425 38.5431 362.47 37.9261C362.516 37.2968 362.565 36.8349 362.618 36.5404C362.639 36.3805 362.661 36.1958 362.684 35.9865C362.72 35.7778 362.749 35.5873 362.77 35.415C363.235 31.7855 364.084 29.7927 365.317 29.4369C365.404 29.4168 365.498 29.4093 365.597 29.4146L365.615 29.4155C366.257 29.4496 366.685 30.0235 366.899 31.1372C366.953 31.5117 366.965 31.9954 366.933 32.5884C366.898 33.2554 366.815 34.0128 366.683 34.8605C366.38 36.6034 366.049 38.9952 365.69 42.0358C365.644 42.4298 365.598 42.9476 365.552 43.5893C365.505 44.2309 365.464 44.8853 365.429 45.5523C365.393 46.2317 365.366 46.8558 365.349 47.4247C365.331 47.9936 365.328 48.4022 365.339 48.6505C365.383 49.458 365.453 50.0191 365.547 50.3338C365.642 50.6485 365.799 50.855 366.016 50.9532C366.332 51.0691 366.481 51.2938 366.464 51.6273C366.449 51.899 366.32 52.1152 366.076 52.2757C365.832 52.4362 365.556 52.5082 365.247 52.4919Z" fill="black"/>
<g clip-path="url(#clip0)">
<path fill-rule="evenodd" clip-rule="evenodd" d="M282.799 87.1628C292.385 85.2469 286.066 72.7422 278.972 71.0853C271.686 69.3833 261.572 70.8929 253.994 71.0378C239.52 71.316 224.679 72.2051 219.155 60.7594C218.788 59.9995 217.773 59.8691 217.005 60.1608C215.696 58.8048 211.923 60.1682 212.91 61.836C215.853 66.8061 198.491 69.4855 195.23 69.7358C191.303 70.0378 187.345 69.8754 183.417 69.8949C176.535 69.9252 169.178 69.9688 162.764 72.2121C154.518 75.0961 148.834 81.2273 151.975 87.6158C152.64 88.9685 155.969 88.6817 155.682 87.1074C152.284 68.3853 189.883 75.3525 204.038 71.8683C208.109 70.8662 214.297 68.3964 216.777 65.2414C219.218 70.3665 227.277 73.4929 234.768 74.302C241.705 75.0515 248.962 74.5447 255.974 74.411C260.144 74.329 264.755 73.8384 268.877 74.161C274.456 73.5068 278.866 75.2398 282.106 79.3633C282.51 81.0691 282.129 82.7233 280.964 84.3255C278.587 85.183 280.462 87.6291 282.799 87.1628Z" fill="#121514"/>
</g>
<defs>
<filter id="filter0_d" x="117" y="79" width="202" height="242" filterUnits="userSpaceOnUse" color-interpolation-filters="sRGB">
<feFlood flood-opacity="0" result="BackgroundImageFix"/>
<feColorMatrix in="SourceAlpha" type="matrix" values="0 0 0 0 0 0 0 0 0 0 0 0 0 0 0 0 0 0 127 0"/>
<feOffset dy="2"/>
<feGaussianBlur stdDeviation="4.5"/>
<feColorMatrix type="matrix" values="0 0 0 0 0 0 0 0 0 0 0 0 0 0 0 0 0 0 0.13 0"/>
<feBlend mode="normal" in2="BackgroundImageFix" result="effect1_dropShadow"/>
<feBlend mode="normal" in="SourceGraphic" in2="effect1_dropShadow" result="shape"/>
</filter>
<clipPath id="clip0">
<rect width="30.7284" height="137.639" fill="white" transform="translate(287.77 56.5161) rotate(87.6882)"/>
</clipPath>
</defs>
</svg>
