<svg width="112" height="130" viewBox="0 0 112 130" fill="none" xmlns="http://www.w3.org/2000/svg">
<path fill-rule="evenodd" clip-rule="evenodd" d="M56.7519 3.39497C56.7236 0.0412149 58.2012 0.0412182 58.2012 0.0412182C58.2012 0.0412182 59.5515 0.139756 60.6108 2.79083C68.2826 25.3961 72.6651 38.3101 80.3821 61.0478C80.9523 62.6445 79.5327 63.6162 79.0708 63.7281C74.7453 64.7776 71.8365 68.4977 70.8719 71.2235C68.6088 75.4683 67.6316 84.0522 69.0241 90.751C69.1631 91.4192 67.5714 93.6915 66.7239 93.6915H43.7513C42.9563 93.6915 41.5781 92.0224 41.6791 91.1908C42.9982 80.3637 43.9379 70.2315 32.0476 63.7415C31.5708 63.4814 30.3277 61.7087 30.8887 60.2217C38.3181 38.3131 42.7769 25.1659 50.4209 2.62546C51.4739 -0.39608 53.1949 0.0193202 53.1949 0.0193202C53.1949 0.0193202 54.4794 0.271466 54.3422 3.39497L54.3783 35.4845C54.2899 37.8696 54.0533 38.9604 52.0272 40.0621C49.4495 41.4629 48.6147 44.4207 49.481 47.2159C50.2244 49.6163 52.7237 51.4979 55.2689 51.5737C58.022 51.6559 60.4299 50.0234 61.4335 47.3947C62.4119 44.832 61.8069 41.7476 59.335 40.3647C56.8241 38.961 56.9824 38.8396 56.9577 35.601L56.7519 3.39497Z" fill="#FBFBFB"/>
<path d="M29.1941 77.188C28.5525 77.1977 27.941 77.4613 27.494 77.9209C27.047 78.3804 26.801 78.9984 26.8101 79.6389C26.8101 90.0559 25.7135 99.0106 22.1439 105.761C18.5744 112.511 12.6629 117.328 1.91409 119.802C1.60009 119.869 1.3026 119.998 1.03895 120.181C0.775294 120.364 0.550744 120.597 0.37837 120.868C0.205996 121.138 0.0892431 121.44 0.0349088 121.756C-0.0194255 122.072 -0.010257 122.396 0.0618841 122.708C0.134025 123.021 0.267698 123.316 0.455115 123.576C0.642532 123.836 0.879947 124.057 1.15354 124.224C1.42714 124.392 1.73145 124.504 2.04874 124.553C2.36604 124.603 2.68999 124.588 3.00173 124.512C14.7604 121.805 22.2355 115.941 26.4255 108.018C30.6154 100.094 31.6514 90.3801 31.6514 79.6389C31.656 79.3156 31.5956 78.9947 31.4737 78.6951C31.3518 78.3955 31.1709 78.1234 30.9418 77.8949C30.7127 77.6663 30.4399 77.486 30.1397 77.3646C29.8395 77.2432 29.518 77.1831 29.1941 77.188V77.188Z" fill="#94D9E7"/>
<path d="M47.1431 99.4812C46.5015 99.4909 45.89 99.7544 45.4429 100.214C44.9958 100.673 44.7497 101.291 44.7588 101.932C44.7588 113.75 38.5024 121.873 26.2809 125.249C25.9724 125.332 25.6834 125.475 25.4305 125.67C25.1776 125.864 24.9657 126.107 24.8073 126.384C24.6488 126.661 24.5467 126.966 24.507 127.283C24.4674 127.599 24.4908 127.92 24.576 128.228C24.6612 128.535 24.8064 128.823 25.0034 129.074C25.2004 129.325 25.4452 129.534 25.7237 129.69C26.0023 129.847 26.309 129.946 26.6262 129.983C26.9435 130.021 27.265 129.995 27.5722 129.908C41.4196 126.083 49.6004 115.574 49.6004 101.932C49.605 101.609 49.5445 101.288 49.4226 100.988C49.3007 100.689 49.1198 100.416 48.8907 100.188C48.6616 99.9595 48.3888 99.7792 48.0887 99.6578C47.7885 99.5364 47.467 99.4764 47.1431 99.4812V99.4812Z" fill="#94D9E7"/>
<path d="M82.009 77.1878C82.6506 77.1975 83.2621 77.4611 83.7091 77.9206C84.1562 78.3802 84.4022 78.9981 84.3931 79.6387C84.3931 90.0556 85.4897 99.0104 89.0592 105.761C92.6287 112.511 98.5402 117.327 109.289 119.802C109.603 119.869 109.901 119.998 110.164 120.181C110.428 120.364 110.652 120.597 110.825 120.868C110.997 121.138 111.114 121.44 111.168 121.756C111.223 122.072 111.213 122.396 111.141 122.708C111.069 123.02 110.935 123.315 110.748 123.576C110.561 123.836 110.323 124.056 110.05 124.224C109.776 124.392 109.472 124.504 109.154 124.553C108.837 124.602 108.513 124.588 108.201 124.511C96.4427 121.805 88.9676 115.941 84.7777 108.017C80.5877 100.094 79.5517 90.3799 79.5517 79.6387C79.5471 79.3154 79.6076 78.9944 79.7295 78.6948C79.8513 78.3953 80.0322 78.1232 80.2613 77.8946C80.4905 77.6661 80.7632 77.4858 81.0634 77.3644C81.3636 77.2429 81.6851 77.1829 82.009 77.1878V77.1878Z" fill="#94D9E7"/>
<path d="M64.06 99.481C64.7016 99.4906 65.3131 99.7541 65.7602 100.214C66.2073 100.673 66.4534 101.291 66.4444 101.932C66.4444 113.749 72.7007 121.873 84.9222 125.249C85.2307 125.332 85.5197 125.474 85.7727 125.669C86.0256 125.864 86.2374 126.107 86.3959 126.384C86.5544 126.661 86.6564 126.966 86.6961 127.283C86.7358 127.599 86.7124 127.92 86.6272 128.227C86.542 128.535 86.3967 128.822 86.1997 129.073C86.0027 129.324 85.7579 129.534 85.4794 129.69C85.2009 129.846 84.8941 129.946 84.5769 129.983C84.2596 130.02 83.9381 129.995 83.6309 129.907C69.7835 126.082 61.6027 115.573 61.6027 101.932C61.5982 101.608 61.6586 101.287 61.7805 100.988C61.9024 100.688 62.0833 100.416 62.3124 100.188C62.5416 99.9592 62.8143 99.7789 63.1145 99.6575C63.4146 99.5361 63.7362 99.4761 64.06 99.481V99.481Z" fill="#94D9E7"/>
</svg>
