<svg width="94" height="90" viewBox="0 0 94 90" fill="none" xmlns="http://www.w3.org/2000/svg">
<path d="M94 52.5C94 77.3528 69.8528 90 45 90C20.1472 90 0.5 65.8528 0.5 41C0.5 16.1472 20.1472 0 45 0C69.8528 0 94 27.6472 94 52.5Z" fill="#47DBE4"/>
<path d="M39.0068 59C52.2144 59 59.4384 48.2266 59.4384 38.884C59.4384 38.578 59.4384 38.2734 59.4174 37.9702C60.8228 36.9693 62.0359 35.7301 63 34.3106C61.6894 34.8823 60.2992 35.2573 58.8756 35.4229C60.3746 34.5394 61.4966 33.1497 62.0326 31.5125C60.623 32.336 59.0809 32.9164 57.4728 33.2286C56.3901 32.0951 54.9582 31.3445 53.3986 31.0931C51.839 30.8416 50.2387 31.1032 48.8454 31.8373C47.452 32.5715 46.3432 33.7374 45.6907 35.1545C45.0381 36.5716 44.8781 38.1609 45.2354 39.6766C42.3805 39.5357 39.5875 38.8052 37.0379 37.5326C34.4883 36.2601 32.239 34.4738 30.436 32.2899C29.5177 33.8463 29.2365 35.6888 29.6495 37.4422C30.0626 39.1956 31.1388 40.728 32.6592 41.7276C31.5164 41.6943 30.3986 41.3907 29.4 40.8427C29.4 40.8716 29.4 40.902 29.4 40.9323C29.4005 42.5646 29.9744 44.1465 31.0244 45.4096C32.0744 46.6728 33.5359 47.5395 35.161 47.8627C34.1038 48.1466 32.9946 48.1881 31.9186 47.984C32.3775 49.3888 33.2708 50.6173 34.4737 51.4976C35.6766 52.3779 37.1289 52.8661 38.6274 52.8938C36.0846 54.8613 32.9435 55.9294 29.7094 55.9262C29.1381 55.9251 28.5673 55.8911 28 55.8242C31.2839 57.8991 35.1049 58.9996 39.0068 58.9945" fill="white"/>
</svg>
