<?xml version="1.0" encoding="UTF-8"?>
<svg width="246px" height="246px" viewBox="0 0 246 246" version="1.1" xmlns="http://www.w3.org/2000/svg" xmlns:xlink="http://www.w3.org/1999/xlink">
    <!-- Generator: Sketch 48.2 (47327) - http://www.bohemiancoding.com/sketch -->
    <title>Combined Shape</title>
    <desc>Created with Sketch.</desc>
    <defs></defs>
    <g id="Artboard-2" stroke="none" stroke-width="1" fill="none" fill-rule="evenodd" transform="translate(-111.000000, -96.000000)">
        <path d="M199.856221,213 L111,213 C114.129059,147.85571 167.936865,96 233.856221,96 C301.787245,96 356.856221,151.068976 356.856221,219 C356.856221,286.931024 301.787245,342 233.856221,342 C168.274495,342 114.68057,290.674126 111.052066,226 L199.856221,226 L199.856221,250 C199.856221,252.761424 202.094797,255 204.856221,255 L264.856221,255 C267.617644,255 269.856221,252.761424 269.856221,250 L269.856221,190 C269.856221,187.238576 267.617644,185 264.856221,185 L204.856221,185 C202.094797,185 199.856221,187.238576 199.856221,190 L199.856221,213 Z" id="Combined-Shape" fill="#FFFFFF"></path>
    </g>
</svg>