<svg width="161" height="44" viewBox="0 0 161 44" version="1.1" xmlns="http://www.w3.org/2000/svg" xmlns:xlink="http://www.w3.org/1999/xlink" xmlns:figma="http://www.figma.com/figma/ns">
<title>Group</title>
<desc>Created using Figma</desc>
<g id="Canvas" transform="translate(-942 -1841)" figma:type="canvas">
<g id="Group" style="mix-blend-mode:normal;" figma:type="frame">
<g id="closet" style="mix-blend-mode:normal;" figma:type="text">
<use xlink:href="#path0_fill" transform="translate(1007 1849.5)" fill="#A0A0A0" style="mix-blend-mode:normal;"/>
</g>
<g id="Rectangle 10" style="mix-blend-mode:normal;" figma:type="rounded-rectangle">
<use xlink:href="#path1_fill" transform="translate(942 1841)" fill="#B3D2D0" style="mix-blend-mode:normal;"/>
</g>
</g>
</g>
<defs>
<path id="path0_fill" d="M 13.824 19.104C 12.864 20.384 11.456 21.44 9.472 21.44C 6.592 21.44 4.48 19.424 4.48 16.48C 4.48 13.632 6.56 11.52 9.28 11.52C 11.2 11.52 12.608 12.64 13.44 13.792L 15.68 11.904C 14.272 9.952 11.904 8.64 9.28 8.64C 4.768 8.64 1.44 12.032 1.44 16.48C 1.44 20.928 4.832 24.32 9.472 24.32C 12.224 24.32 14.912 22.88 16.16 20.8L 13.824 19.104ZM 21.2888 24L 24.3288 24L 24.3288 1.28L 21.2888 1.28L 21.2888 24ZM 30.0775 16.48C 30.0775 20.96 33.4055 24.32 37.8535 24.32C 42.3015 24.32 45.6295 20.96 45.6295 16.48C 45.6295 12 42.3015 8.64 37.8535 8.64C 33.4055 8.64 30.0775 12 30.0775 16.48ZM 33.1175 16.48C 33.1175 13.728 35.0695 11.52 37.8535 11.52C 40.6375 11.52 42.5895 13.728 42.5895 16.48C 42.5895 19.232 40.6375 21.44 37.8535 21.44C 35.0695 21.44 33.1175 19.232 33.1175 16.48ZM 49.955 22.24C 51.619 23.584 53.635 24.32 56.035 24.32C 58.979 24.32 61.635 22.56 61.635 19.712C 61.635 16.608 58.531 15.552 56.163 14.944C 54.659 14.56 53.475 14.208 53.475 13.184C 53.475 12 54.723 11.296 56.195 11.296C 57.411 11.296 58.499 11.776 59.427 12.48L 60.995 10.304C 59.811 9.344 58.211 8.64 56.003 8.64C 53.315 8.64 50.435 10.112 50.435 13.344C 50.435 15.456 52.067 16.608 53.891 17.216C 56.099 17.952 58.595 18.048 58.595 19.776C 58.595 20.96 57.283 21.664 55.971 21.664C 54.467 21.664 52.931 21.088 51.523 20L 49.955 22.24ZM 80.8055 17.12C 80.8375 16.832 80.8375 16.608 80.8375 16.48C 80.8375 12.032 77.7975 8.64 73.6055 8.64C 69.3495 8.64 66.2775 11.968 66.2775 16.48C 66.2775 20.992 69.6695 24.32 74.0535 24.32C 77.1255 24.32 79.2695 22.944 80.3895 21.504L 78.4055 19.616C 77.5415 20.576 76.3255 21.664 74.0855 21.664C 71.4615 21.664 69.3815 19.648 69.2215 17.12L 80.8055 17.12ZM 73.7015 11.296C 75.4935 11.296 77.2215 12.64 77.6695 14.56L 69.4775 14.56C 69.9895 12.608 71.7495 11.296 73.7015 11.296ZM 95.267 21.248C 94.819 21.376 94.051 21.44 93.603 21.44C 92.803 21.44 91.939 21.152 91.523 20.64C 91.139 20.192 91.075 19.52 91.075 18.72L 91.075 11.68L 95.875 11.68L 95.875 8.96L 91.075 8.96L 91.075 4.8L 88.035 4.8L 88.035 8.96L 84.195 8.96L 84.195 11.68L 88.035 11.68L 88.035 18.56C 88.035 20.192 88.355 21.568 89.251 22.56C 90.211 23.648 91.619 24.32 93.507 24.32C 94.371 24.32 95.299 24.192 95.875 24L 95.267 21.248Z"/>
<path id="path1_fill" d="M 0 22C 0 9.84974 9.84974 0 22 0C 34.1503 0 44 9.84974 44 22C 44 34.1503 34.1503 44 22 44C 9.84974 44 0 34.1503 0 22Z"/>
</defs>
</svg>
