<?xml version="1.0" encoding="UTF-8"?>
<svg width="512px" height="512px" viewBox="0 0 512 512" version="1.1" xmlns="http://www.w3.org/2000/svg" xmlns:xlink="http://www.w3.org/1999/xlink">
    <!-- Generator: Sketch 41.2 (35397) - http://www.bohemiancoding.com/sketch -->
    <title>golden-gate-bridge</title>
    <desc>Created with Sketch.</desc>
    <defs></defs>
    <g id="Page-1" stroke="none" stroke-width="1" fill="none" fill-rule="evenodd">
        <g id="golden-gate-bridge" fill="#FFFFFF">
            <g id="Group">
                <g id="Shape">
                    <g>
                        <path d="M512,256 C512,115.2 396.8,0 256,0 C115.2,0 0,115.2 0,256 C0,292.357 7.698,326.999 21.518,358.4 L21.333,358.4 L26.453,371.2 C33.728,384.538 41.882,397.43 50.88,409.6 L50.347,409.6 L52.913,412.337 C55.358,415.568 57.876,418.733 60.446,421.848 C61.122,423.462 62.26,424.736 63.755,425.567 L64.855,426.667 L65.619,426.667 C79.095,441.676 94.309,455.093 110.935,466.603 L110.935,466.774 L114.348,469.334 C123.735,475.307 133.121,480.427 142.508,485.547 L144.215,486.4 L144.757,486.4 C163.074,495.311 182.597,502.09 202.995,506.428 L204.801,506.88 L204.801,506.818 C221.355,510.214 238.479,512 256,512 C285.886,512 314.611,506.793 341.333,497.269 L341.333,497.493 L353.28,493.226 C363.96,488.755 374.34,483.541 384.358,477.687 L385.707,477.013 C387.661,475.792 389.615,474.568 391.57,473.326 C413.137,459.793 432.818,443.175 449.707,424.106 L461.654,409.599 L461.014,409.599 C470.542,397.183 478.725,383.992 485.548,370.346 L491.521,358.399 L490.483,358.399 C504.302,326.999 512,292.357 512,256 Z M256,17.067 C384.299,17.067 489.804,119.556 494.734,246.703 C461.272,240.816 435.2,201.554 435.2,153.6 L435.2,145.067 L392.533,145.067 L392.533,170.667 L384,170.667 L384,145.067 L341.333,145.067 L341.333,153.6 C341.333,218.453 314.026,273.067 281.6,273.067 C269.068,273.067 257.151,266.009 246.604,253.65 C246.06,252.503 245.272,251.544 244.282,250.811 C220.889,221.093 204.8,164.891 204.8,102.4 L204.8,85.333 L162.133,85.333 L162.133,110.933 L128,110.933 L128,85.333 L89.219,85.333 C132.36,43.161 191.276,17.067 256,17.067 Z M358.4,358.4 L358.4,162.133 L366.933,162.133 L366.933,187.733 L409.6,187.733 L409.6,162.133 L418.133,162.133 L418.133,358.4 L358.4,358.4 Z M418.133,375.467 L418.133,409.6 L384,409.6 L384,375.467 L418.133,375.467 L418.133,375.467 Z M341.333,240.168 L341.333,358.4 L315.733,358.4 L315.733,276.274 C325.698,267.638 334.418,255.293 341.333,240.168 Z M315.733,375.467 L315.733,409.6 L281.6,409.6 L281.6,375.467 L315.733,375.467 L315.733,375.467 Z M281.6,358.4 L281.6,290.133 C287.473,290.133 293.184,288.995 298.667,286.843 L298.667,358.4 L281.6,358.4 Z M230.4,375.467 L264.533,375.467 L264.533,409.6 L230.4,409.6 L230.4,375.467 Z M204.8,358.4 L204.8,211.76 C211.655,231.212 220.337,247.833 230.4,260.698 L230.4,358.4 L204.8,358.4 Z M247.466,358.4 L247.466,277.814 C252.911,281.935 258.614,285.095 264.533,287.177 L264.533,358.4 L247.466,358.4 Z M102.4,358.4 L102.4,102.4 L110.933,102.4 L110.933,128 L179.2,128 L179.2,102.4 L187.733,102.4 L187.733,358.4 L102.4,358.4 Z M162.133,375.467 L162.133,409.6 L128,409.6 L128,375.467 L162.133,375.467 L162.133,375.467 Z M17.212,263.877 C29.435,262.05 40.893,256.395 51.2,247.575 L51.2,358.4 L40.276,358.4 C26.482,329.56 18.318,297.573 17.212,263.877 Z M59.733,391.757 C56.078,386.454 52.687,381.056 49.493,375.467 L59.733,375.467 L59.733,391.757 Z M17.274,246.479 C19.695,185.511 45.239,130.234 85.333,89.219 L85.333,102.4 C85.333,175.365 55.11,237.999 17.274,246.479 Z M68.267,358.4 L68.267,228.656 C74.759,219.558 80.501,208.964 85.334,197.134 L85.334,358.4 L68.267,358.4 Z M76.8,375.467 L85.333,375.467 L110.933,375.467 L110.933,409.6 L76.8,409.6 L76.8,375.467 Z M162.133,469.333 L148.75,469.333 C143.498,466.673 138.356,463.827 133.333,460.8 L136.533,460.8 L136.533,452.267 L153.6,452.267 L153.6,460.8 L162.133,460.8 L162.133,469.333 L162.133,469.333 Z M179.2,481.98 L179.2,443.733 L170.667,443.733 L170.667,435.2 L119.467,435.2 L119.467,443.733 L110.934,443.733 L110.934,445.506 C103.324,439.659 96.073,433.366 89.22,426.667 L187.734,426.667 L187.734,484.693 C184.861,483.844 182.022,482.928 179.2,481.98 Z M179.2,409.6 L179.2,375.467 L204.8,375.467 L213.333,375.467 L213.333,409.6 L204.8,409.6 L179.2,409.6 Z M341.333,479.075 C314.799,489.305 286.027,494.933 256,494.933 C238.438,494.933 221.309,492.995 204.8,489.354 L204.8,426.666 L341.333,426.666 L341.333,479.075 L341.333,479.075 Z M341.333,409.6 L332.8,409.6 L332.8,375.467 L341.333,375.467 L366.933,375.467 L366.933,409.6 L341.333,409.6 Z M389.272,454.035 C387.357,455.152 385.676,456.269 384,457.387 L384,452.267 L391.821,452.267 C390.972,452.857 390.129,453.455 389.272,454.035 Z M409.6,438.637 L409.6,435.2 L366.933,435.2 L366.933,467.423 C364.12,468.91 361.277,470.348 358.4,471.724 L358.4,426.667 L422.781,426.667 C418.537,430.816 414.141,434.809 409.6,438.637 Z M438.637,409.6 L435.2,409.6 L435.2,375.467 L462.697,375.467 C455.667,387.551 447.603,398.966 438.637,409.6 Z M471.724,358.399 L435.2,358.399 L435.2,220.143 C449.16,244.285 470.508,260.762 494.785,263.963 C493.668,297.627 485.506,329.584 471.724,358.399 Z"></path>
                        <polygon points="168.130001 184.198295 120 184.198295 120 172.166148 132.032148 172.166148 132.032148 160.134 156.097853 160.134 156.097853 172.166148 168.130001 172.166148 168.130001 184.198295"></polygon>
                        <polygon points="168.130001 260.998295 120 260.998295 120 248.966148 132.032148 248.966148 132.032148 236.934 156.097853 236.934 156.097853 248.966148 168.130001 248.966148 168.130001 260.998295"></polygon>
                        <polygon points="168.130001 337.798295 120 337.798295 120 325.766148 132.032148 325.766148 132.032148 313.734 156.097853 313.734 156.097853 325.766148 168.130001 325.766148 168.130001 337.798295"></polygon>
                        <polygon points="380 213.333 395 213.333 395 228.333 380 228.333"></polygon>
                        <polygon points="380 264.533 395 264.533 395 279.533 380 279.533"></polygon>
                        <polygon points="380 315.733 395 315.733 395 330.733 380 330.733"></polygon>
                    </g>
                </g>
            </g>
        </g>
    </g>
</svg>