<?xml version="1.0" encoding="UTF-8" standalone="no"?>
<svg width="88px" height="108px" viewBox="0 0 88 108" version="1.1" xmlns="http://www.w3.org/2000/svg" xmlns:xlink="http://www.w3.org/1999/xlink">
    <!-- Generator: Sketch 39.1 (31720) - http://www.bohemiancoding.com/sketch -->
    <title>Group 3</title>
    <desc>Created with Sketch.</desc>
    <defs></defs>
    <g id="Page-1" stroke="none" stroke-width="1" fill="none" fill-rule="evenodd">
        <g id="Desktop-HD" transform="translate(-41.000000, -19.000000)" fill="#ffffff">
            <g id="Group" transform="translate(0.000000, 0.178431)">
                <g id="Group-3" transform="translate(41.000000, 18.821569)">
                    <path d="M25.8831474,0.569899078 C27.9213748,0.195721855 30.0241453,1.42108547e-14 32.1737638,1.42108547e-14 C50.8493167,1.42108547e-14 65.9888435,14.7728221 65.9888435,32.9960217 C65.9888435,51.2192213 50.8493167,65.9920434 32.1737638,65.9920434 C17.1403003,65.9920434 4.3981613,56.4193393 -1.37845291e-12,43.179979 L25.8831474,43.179979 L25.8831474,0.569899078 L25.8831474,0.569899078 Z" id="Combined-Shape" fill-opacity="0.75" transform="translate(32.994422, 32.996022) scale(-1, -1) translate(-32.994422, -32.996022) "></path>
                    <path d="M47.8817502,41.9766714 C49.9200764,41.6024942 52.0229488,41.4067723 54.1726715,41.4067723 C72.8491299,41.4067723 87.9893912,56.1795944 87.9893912,74.402794 C87.9893912,92.6259933 72.8491299,107.398816 54.1726715,107.398816 C39.1384792,107.398816 26.3957223,97.8261117 21.9973478,84.5867513 L47.8817502,84.5867513 L47.8817502,41.9766714 L47.8817502,41.9766714 Z" id="Combined-Shape" fill-opacity="0.75"></path>
                    <path d="M0.332125312,33.2775067 C0.332125312,14.8988472 15.3946106,0 33.9751278,0 C52.5556451,0 67.6181303,14.8988472 67.6181303,33.2775067 C67.6181303,34.0396836 67.5922255,34.795876 67.5412393,35.5452691 C64.0634331,34.3423222 60.325036,33.6883401 56.4322153,33.6883401 C38.6222472,33.6883401 24.0445702,47.3770764 22.8661041,64.6980817 C9.74426639,60.1593265 0.332125312,47.8056371 0.332125312,33.2775067 Z" id="Combined-Shape" fill-opacity="0.75"></path>
                    <path d="M20.7033862,76.5821462 C20.7033862,58.2034867 35.7658714,43.3046395 54.3463887,43.3046395 C72.9269059,43.3046395 87.9893912,58.2034867 87.9893912,76.5821462 C87.9893912,77.3443232 87.963486,78.1005155 87.9124999,78.8499086 C84.4346939,77.6469617 80.6962968,76.9929796 76.8034762,76.9929796 C58.9935081,76.9929796 44.415831,90.6817157 43.237365,108.002721 C30.1155272,103.463966 21.6523198,91.1102766 20.7033862,76.5821462 Z" id="Combined-Shape" fill-opacity="0.75" transform="translate(54.346389, 75.653680) scale(-1, -1) translate(-54.346389, -75.653680) "></path>
                </g>
            </g>
        </g>
    </g>
</svg>
