<?xml version="1.0" encoding="UTF-8"?>
<svg width="487px" height="158px" viewBox="0 0 487 158" version="1.1" xmlns="http://www.w3.org/2000/svg" xmlns:xlink="http://www.w3.org/1999/xlink">
    <!-- Generator: Sketch 42 (36781) - http://www.bohemiancoding.com/sketch -->
    <title>icon + text</title>
    <desc>Created with Sketch.</desc>
    <defs>
        <linearGradient x1="0%" y1="0%" x2="100%" y2="83.3126688%" id="linearGradient-1">
            <stop stop-color="#4A249B" offset="0%"></stop>
            <stop stop-color="#6F49FF" offset="100%"></stop>
        </linearGradient>
        <linearGradient x1="90.0623514%" y1="39.8846465%" x2="11.7045218%" y2="29.2549231%" id="linearGradient-2">
            <stop stop-color="#6F49FF" offset="0%"></stop>
            <stop stop-color="#A38FEF" offset="100%"></stop>
        </linearGradient>
    </defs>
    <g id="Symbols" stroke="none" stroke-width="1" fill="none" fill-rule="evenodd">
        <g id="layered-logo-+-text">
            <g id="icon-+-text">
                <path d="M220.132424,100.767957 L229.695988,100.767957 L229.695988,71.4161898 C229.695988,65.1580053 233.926873,60.5745462 239.832484,60.5745462 C245.429593,60.5745462 248.999402,64.100284 248.999402,69.653321 L248.999402,100.767957 L258.386679,100.767957 L258.386679,71.0636161 C258.386679,64.9376467 262.529421,60.5745462 268.39096,60.5745462 C274.340642,60.5745462 277.734165,64.1884274 277.734165,70.446612 L277.734165,100.767957 L287.253657,100.767957 L287.253657,68.1548824 C287.253657,58.5913187 281.083616,52.3772059 271.652267,52.3772059 C264.82115,52.3772059 259.17997,55.9029437 256.667882,61.6763393 L256.447523,61.6763393 C254.508367,55.7266568 249.70455,52.3772059 243.04972,52.3772059 C236.791535,52.3772059 231.635144,55.6385134 229.431558,61.0152635 L229.255271,61.0152635 L229.255271,52.9060666 L220.132424,52.9060666 L220.132424,100.767957 Z M321.250583,60.0897573 C314.375395,60.0897573 309.39529,65.1139336 308.866429,72.4739112 L333.149948,72.4739112 C332.92959,65.0257902 328.213915,60.0897573 321.250583,60.0897573 Z M333.105876,86.7531491 L342.228723,86.7531491 C340.862499,95.3471349 332.444801,101.340889 321.6913,101.340889 C307.808708,101.340889 299.17065,91.997684 299.17065,77.0132985 C299.17065,62.0289131 307.896851,52.2890625 321.294655,52.2890625 C334.428028,52.2890625 342.713512,61.411909 342.713512,75.9115055 L342.713512,79.2609564 L308.822358,79.2609564 L308.822358,79.8338887 C308.822358,88.1193725 314.022821,93.584266 321.867587,93.584266 C327.420624,93.584266 331.783725,90.9399627 333.105876,86.7531491 Z M354.894936,100.767957 L364.458499,100.767957 L364.458499,72.2094808 C364.458499,65.4665074 368.424954,61.1034069 374.727211,61.1034069 C376.137506,61.1034069 378.120733,61.411909 378.914024,61.720411 L378.914024,52.7738514 C378.164805,52.5534928 376.798582,52.4212777 375.74086,52.4212777 C370.09968,52.4212777 365.692508,55.6385134 364.194069,60.9711917 L364.017782,60.9711917 L364.017782,52.9060666 L354.894936,52.9060666 L354.894936,100.767957 Z M408.063061,92.7028316 C415.819684,92.7028316 420.976076,86.3565036 420.976076,76.7047965 C420.976076,67.0090176 415.819684,60.5304745 408.063061,60.5304745 C400.35051,60.5304745 395.370405,66.8768025 395.370405,76.7047965 C395.370405,86.4887188 400.35051,92.7028316 408.063061,92.7028316 Z M408.107133,118 C396.604413,118 388.407073,112.667322 387.481567,104.469981 L397.133274,104.469981 C398.190995,108.172006 402.642239,110.507807 408.503778,110.507807 C416.084115,110.507807 420.976076,106.541352 420.976076,100.283168 L420.976076,92.3943295 L420.755717,92.3943295 C417.979199,97.550721 412.338018,100.635742 405.550973,100.635742 C393.607536,100.635742 385.586483,91.2484647 385.586483,76.6607248 C385.586483,61.8966979 393.519393,52.4212777 405.771332,52.4212777 C412.558377,52.4212777 418.111414,55.5503699 421.064219,60.8389766 L421.240506,60.8389766 L421.240506,52.9060666 L430.495568,52.9060666 L430.495568,99.5339485 C430.495568,110.948524 421.901582,118 408.107133,118 Z M464.712853,60.0897573 C457.837664,60.0897573 452.857559,65.1139336 452.328699,72.4739112 L476.612218,72.4739112 C476.391859,65.0257902 471.676185,60.0897573 464.712853,60.0897573 Z M476.568146,86.7531491 L485.690992,86.7531491 C484.324769,95.3471349 475.90707,101.340889 465.15357,101.340889 C451.270977,101.340889 442.63292,91.997684 442.63292,77.0132985 C442.63292,62.0289131 451.359121,52.2890625 464.756924,52.2890625 C477.890298,52.2890625 486.175781,61.411909 486.175781,75.9115055 L486.175781,79.2609564 L452.284627,79.2609564 L452.284627,79.8338887 C452.284627,88.1193725 457.48509,93.584266 465.329857,93.584266 C470.882894,93.584266 475.245994,90.9399627 476.568146,86.7531491 Z" id="merge" fill="#6F49FF"></path>
                <g id="-layered-logo">
                    <g id="Logo">
                        <g id="Rectangle-5">
                            <path d="M51.0000419,0 L101.000042,0 C101.000042,0 101.000042,34.2570787 114.769405,66.3086362 C128.538768,98.3601936 152.248943,122.008606 152.248943,122.008606 L116.985906,157.318773 C116.985906,157.318773 88.2398726,130.856496 69.5219613,86.9378053 C50.8040501,43.0191148 51.0000419,0 51.0000419,0 Z" fill="url(#linearGradient-1)"></path>
                            <path d="M101.045128,5.68434189e-14 L51.0877328,5.68434189e-14 C51.0877328,5.68434189e-14 51.130192,34.2570787 37.4073634,66.3086362 C23.6797745,98.3601936 -2.27373675e-13,122.008606 -2.27373675e-13,122.008606 L35.2969124,157.318773 C35.2969124,157.318773 64.0082215,130.856496 82.6615029,86.9378053 C101.305917,43.0191148 101.045128,5.68434189e-14 101.045128,5.68434189e-14 Z" fill="url(#linearGradient-2)"></path>
                        </g>
                    </g>
                </g>
            </g>
        </g>
    </g>
</svg>