<?xml version="1.0" encoding="UTF-8"?>
<svg width="445px" height="447px" viewBox="0 0 445 447" version="1.1" xmlns="http://www.w3.org/2000/svg" xmlns:xlink="http://www.w3.org/1999/xlink">
    <!-- Generator: Sketch 40.1 (33804) - http://www.bohemiancoding.com/sketch -->
    <title>phone-call</title>
    <desc>Created with Sketch.</desc>
    <defs></defs>
    <g id="Page-1" stroke="none" stroke-width="1" fill="none" fill-rule="evenodd">
        <g id="phone-call" fill="#85bbd7">
            <g id="Group">
                <path d="M374.456,266.506 C364.756,256.406 353.056,251.006 340.656,251.006 C328.356,251.006 316.556,256.306 306.456,266.406 L274.856,297.906 C272.256,296.506 269.656,295.206 267.156,293.906 C263.556,292.106 260.156,290.406 257.256,288.606 C227.656,269.806 200.756,245.306 174.956,213.606 C162.456,197.806 154.056,184.506 147.956,171.006 C156.156,163.506 163.756,155.706 171.156,148.206 C173.956,145.406 176.756,142.506 179.556,139.706 C200.556,118.706 200.556,91.506 179.556,70.506 L152.256,43.206 C149.156,40.106 145.956,36.906 142.956,33.706 C136.956,27.506 130.656,21.106 124.156,15.106 C114.456,5.506 102.856,0.406 90.656,0.406 C78.456,0.406 66.656,5.506 56.656,15.106 C56.556,15.206 56.556,15.206 56.456,15.306 L22.456,49.606 C9.656,62.406 2.356,78.006 0.756,96.106 C-1.644,125.306 6.956,152.506 13.556,170.306 C29.756,214.006 53.956,254.506 90.056,297.906 C133.856,350.206 186.556,391.506 246.756,420.606 C269.756,431.506 300.456,444.406 334.756,446.606 C336.856,446.706 339.056,446.806 341.056,446.806 C364.156,446.806 383.556,438.506 398.756,422.006 C398.856,421.806 399.056,421.706 399.156,421.506 C404.356,415.206 410.356,409.506 416.656,403.406 C420.956,399.306 425.356,395.006 429.656,390.506 C439.556,380.206 444.756,368.206 444.756,355.906 C444.756,343.506 439.456,331.606 429.356,321.606 L374.456,266.506 L374.456,266.506 Z M410.256,371.806 C410.156,371.806 410.156,371.906 410.256,371.806 C406.356,376.006 402.356,379.806 398.056,384.006 C391.556,390.206 384.956,396.706 378.756,404.006 C368.656,414.806 356.756,419.906 341.156,419.906 C339.656,419.906 338.056,419.906 336.556,419.806 C306.856,417.906 279.256,406.306 258.556,396.406 C201.956,369.006 152.256,330.106 110.956,280.806 C76.856,239.706 54.056,201.706 38.956,160.906 C29.656,136.006 26.256,116.606 27.756,98.306 C28.756,86.606 33.256,76.906 41.556,68.606 L75.656,34.506 C80.556,29.906 85.756,27.406 90.856,27.406 C97.156,27.406 102.256,31.206 105.456,34.406 C105.556,34.506 105.656,34.606 105.756,34.706 C111.856,40.406 117.656,46.306 123.756,52.606 C126.856,55.806 130.056,59.006 133.256,62.306 L160.556,89.606 C171.156,100.206 171.156,110.006 160.556,120.606 C157.656,123.506 154.856,126.406 151.956,129.206 C143.556,137.806 135.556,145.806 126.856,153.606 C126.656,153.806 126.456,153.906 126.356,154.106 C117.756,162.706 119.356,171.106 121.156,176.806 C121.256,177.106 121.356,177.406 121.456,177.706 C128.556,194.906 138.556,211.106 153.756,230.406 L153.856,230.506 C181.456,264.506 210.556,291.006 242.656,311.306 C246.756,313.906 250.956,316.006 254.956,318.006 C258.556,319.806 261.956,321.506 264.856,323.306 C265.256,323.506 265.656,323.806 266.056,324.006 C269.456,325.706 272.656,326.506 275.956,326.506 C284.256,326.506 289.456,321.306 291.156,319.606 L325.356,285.406 C328.756,282.006 334.156,277.906 340.456,277.906 C346.656,277.906 351.756,281.806 354.856,285.206 L355.056,285.406 L410.156,340.506 C420.456,350.706 420.456,361.206 410.256,371.806 L410.256,371.806 Z" id="Shape"></path>
            </g>
        </g>
    </g>
</svg>
