<?xml version="1.0" encoding="UTF-8"?>
<svg width="410px" height="78px" viewBox="0 0 410 78" version="1.1" xmlns="http://www.w3.org/2000/svg" xmlns:xlink="http://www.w3.org/1999/xlink">
    <!-- Generator: Sketch 41.2 (35397) - http://www.bohemiancoding.com/sketch -->
    <title>Group</title>
    <desc>Created with Sketch.</desc>
    <defs></defs>
    <g id="Page-1" stroke="none" stroke-width="1" fill="none" fill-rule="evenodd">
        <g id="Group">
            <path d="M74.8998827,76.3775 L75.1473827,76.2125 C75.807386,76.5425017 76.5498785,76.7899992 77.3748827,76.955 C78.1998868,77.1200008 78.9973788,77.2025 79.7673827,77.2025 C81.637392,77.2025 83.4798736,76.6937551 85.2948827,75.67625 C87.1098917,74.6587449 88.8561243,73.352508 90.5336327,71.7575 C92.2111411,70.162492 93.8061251,68.3337603 95.3186327,66.27125 C96.8311402,64.2087397 98.2336262,62.1600102 99.5261327,60.125 C100.818639,58.0899898 101.973628,56.1237595 102.991133,54.22625 C104.008638,52.3287405 104.874879,50.7200066 105.589883,49.4 C105.589883,48.9599978 105.424884,48.9049984 105.094883,49.235 C104.59988,49.6750022 103.788638,50.3349956 102.661133,51.215 C101.533627,52.0950044 100.186141,52.9612457 98.6186327,53.81375 C97.0511248,54.6662543 95.2911424,55.4224967 93.3386327,56.0825 C91.3861229,56.7425033 89.3373934,57.0725 87.1923827,57.0725 C83.1773626,57.0725 80.138643,56.2337584 78.0761327,54.55625 C76.0136224,52.8787416 74.9823827,50.5825146 74.9823827,47.6675 C74.9823827,46.5124942 75.3123794,44.8075113 75.9723827,42.5525 C76.632386,40.2974887 77.732375,37.8775129 79.2723827,35.2925 C80.8123904,32.7074871 82.8336202,30.1912622 85.3361327,27.74375 C87.8386452,25.2962378 90.9323642,23.3025077 94.6173827,21.7625 C96.8173937,20.8824956 99.0036218,20.2775016 101.176133,19.9475 C103.348644,19.6174984 105.342374,19.4525 107.157383,19.4525 C108.092387,19.4525 109.109877,19.5074995 110.209883,19.6175 C111.309888,19.7275006 112.382377,19.9062488 113.427383,20.15375 C114.472388,20.4012512 115.434878,20.7449978 116.314883,21.185 C117.194887,21.6250022 117.88238,22.147497 118.377383,22.7525 C118.157382,23.6875047 117.813635,24.8287433 117.346133,26.17625 C116.87863,27.5237567 116.424885,28.692495 115.984883,29.6825 L115.407383,29.8475 L115.324883,29.6 C115.434883,29.2699984 115.517382,28.9400017 115.572383,28.61 C115.627383,28.2799983 115.654883,27.9225019 115.654883,27.5375 C115.654883,26.547495 115.366136,25.6125044 114.788633,24.7325 C114.21113,23.8524956 113.427388,23.0825033 112.437383,22.4225 C111.447378,21.7624967 110.292389,21.2537518 108.972383,20.89625 C107.652376,20.5387482 106.24989,20.36 104.764883,20.36 C101.959869,20.36 99.3473948,20.9512441 96.9273827,22.13375 C94.5073706,23.3162559 92.3073926,24.8974901 90.3273827,26.8775 C89.1173766,28.0325058 87.8248895,29.5312408 86.4498827,31.37375 C85.0748758,33.2162592 83.7961386,35.1962394 82.6136327,37.31375 C81.4311268,39.4312606 80.4548865,41.5624893 79.6848827,43.7075 C78.9148788,45.8525107 78.5298827,47.8324909 78.5298827,49.6475 C78.5298827,51.847511 79.2723752,53.5249942 80.7573827,54.68 C82.2423901,55.8350058 84.3873686,56.4125 87.1923827,56.4125 C89.6123948,56.4125 92.0323706,55.9037551 94.4523827,54.88625 C96.8723948,53.8687449 99.0861226,52.6037576 101.093633,51.09125 C103.101143,49.5787424 104.847375,47.9012592 106.332383,46.05875 C107.81739,44.2162408 108.86238,42.4700082 109.467383,40.82 C109.687384,40.2699973 109.783633,39.8575014 109.756133,39.5825 C109.728633,39.3074986 109.412386,39.17 108.807383,39.17 C107.872378,39.2250003 106.772389,39.3074994 105.507383,39.4175 C104.242376,39.5275005 102.86739,39.6374995 101.382383,39.7475 L101.134883,39.665 L101.382383,38.7575 C102.482388,38.7575 103.706126,38.7300003 105.053633,38.675 C106.401139,38.6199997 107.748626,38.5512504 109.096133,38.46875 C110.443639,38.3862496 111.736126,38.248751 112.973633,38.05625 C114.211139,37.863749 115.324878,37.6575011 116.314883,37.4375 C116.534884,37.6025008 116.534884,37.8499983 116.314883,38.18 C115.434878,38.4000011 114.829884,38.6612485 114.499883,38.96375 C114.169881,39.2662515 113.812385,39.8024962 113.427383,40.5725 C112.382377,42.6075102 111.186139,44.9312369 109.838633,47.54375 C108.491126,50.1562631 107.08864,52.7824868 105.631133,55.4225 C104.173625,58.0625132 102.70239,60.5512383 101.217383,62.88875 C99.7323752,65.2262617 98.3298893,67.1374926 97.0098827,68.6225 C96.4598799,69.2825033 95.6761378,70.1349948 94.6586327,71.18 C93.6411276,72.2250052 92.4173898,73.2287452 90.9873827,74.19125 C89.5573755,75.1537548 87.907392,75.9924964 86.0373827,76.7075 C84.1673733,77.4225036 82.0773942,77.78 79.7673827,77.78 C78.9973788,77.78 78.2273865,77.7250006 77.4573827,77.615 C76.6873788,77.5049995 75.8623871,77.2850017 74.9823827,76.955 L74.8998827,76.3775 Z M145.655765,41.975 C144.720761,43.2400063 143.579522,44.3812449 142.232015,45.39875 C140.884509,46.4162551 139.358274,46.925 137.653265,46.925 C136.718261,46.925 135.79702,46.6912523 134.889515,46.22375 C133.982011,45.7562477 133.253268,45.0550047 132.703265,44.12 C132.318263,45.0000044 131.823268,46.0037444 131.218265,47.13125 C130.613262,48.2587556 129.898269,49.3862444 129.073265,50.51375 C128.248261,51.6412556 127.32702,52.6724953 126.309515,53.6075 C125.29201,54.5425047 124.205771,55.312497 123.050765,55.9175 C122.06076,56.3575022 121.235769,56.5775 120.575765,56.5775 C118.595755,56.5775 117.605765,55.6975088 117.605765,53.9375 C117.605765,52.9474951 117.784514,51.9300052 118.142015,50.885 C118.499517,49.8399948 118.953263,48.822505 119.503265,47.8325 C120.053268,46.8424951 120.644512,45.9075044 121.277015,45.0275 C121.909518,44.1474956 122.500763,43.4325028 123.050765,42.8825 C124.205771,41.6174937 125.525758,40.5450044 127.010765,39.665 C128.495773,38.7849956 130.090757,38.2625008 131.795765,38.0975 C131.905766,37.6574978 132.070764,37.1487529 132.290765,36.57125 C132.510766,35.9937471 132.895763,35.6500005 133.445765,35.54 L134.270765,35.375 C134.545767,35.3199997 134.793264,35.2375006 135.013265,35.1275 C135.178266,35.0174995 135.343265,35.0037496 135.508265,35.08625 C135.673266,35.1687504 135.700766,35.3199989 135.590765,35.54 C135.205763,36.145003 134.917016,36.9149953 134.724515,37.85 C134.532014,38.7850047 134.435765,39.8024945 134.435765,40.9025 C134.435765,42.4425077 134.724512,43.7074951 135.302015,44.6975 C135.879518,45.687505 136.883258,46.1825 138.313265,46.1825 C139.743272,46.1825 141.03576,45.7150047 142.190765,44.78 C143.345771,43.8449953 144.308261,42.8275055 145.078265,41.7275 C145.188266,41.4524986 145.367014,41.3699995 145.614515,41.48 C145.862017,41.5900006 145.875766,41.7549989 145.655765,41.975 Z M132.043265,42.5525 C131.933265,42.0574975 131.850766,41.4800033 131.795765,40.82 C131.740765,40.1599967 131.713265,39.527503 131.713265,38.9225 C131.713265,38.6474986 131.603266,38.51 131.383265,38.51 C130.778262,38.51 130.145769,38.7162479 129.485765,39.12875 C128.825762,39.5412521 128.165769,40.0912466 127.505765,40.77875 C126.845762,41.4662534 126.185769,42.2499956 125.525765,43.13 C124.865762,44.0100044 124.260768,44.9174953 123.710765,45.8525 C122.995762,47.0625061 122.349518,48.368743 121.772015,49.77125 C121.194512,51.173757 120.933265,52.5074937 120.988265,53.7725 C120.988265,54.1575019 121.057015,54.5149983 121.194515,54.845 C121.332016,55.1750016 121.648263,55.34 122.143265,55.34 C123.07827,55.34 124.09576,54.8175052 125.195765,53.7725 C126.295771,52.7274948 127.34076,51.503757 128.330765,50.10125 C129.32077,48.698743 130.159512,47.2825072 130.847015,45.8525 C131.534519,44.4224928 131.933265,43.3225039 132.043265,42.5525 Z M179.451648,2.21 C179.451648,2.98000385 179.149151,4.10749257 178.544148,5.5925 C177.939145,7.07750742 177.072904,8.79624024 175.945398,10.74875 C174.817892,12.7012598 173.442906,14.7912389 171.820398,17.01875 C170.19789,19.2462611 168.355408,21.459989 166.292898,23.66 C164.230388,25.860011 161.96166,27.96374 159.486648,29.97125 C157.011636,31.97876 154.371662,33.7524923 151.566648,35.2925 C151.071646,36.1725044 150.384152,37.3549926 149.504148,38.84 C148.624144,40.3250074 147.757902,41.8924918 146.905398,43.5425 C146.052894,45.1925083 145.310401,46.814992 144.677898,48.41 C144.045395,50.005008 143.729148,51.3524945 143.729148,52.4525 C143.729148,54.2125088 144.52664,55.0925 146.121648,55.0925 C147.496655,55.0925 148.926641,54.7075039 150.411648,53.9375 C151.896655,53.1674962 153.312891,52.2325055 154.660398,51.1325 C156.007905,50.0324945 157.272892,48.8637562 158.455398,47.62625 C159.637904,46.3887438 160.641644,45.2750049 161.466648,44.285 C161.85165,43.8999981 162.071648,43.803749 162.126648,43.99625 C162.181648,44.188751 162.099149,44.3949989 161.879148,44.615 C160.889143,45.8250061 159.720405,47.1174931 158.372898,48.4925 C157.025391,49.8675069 155.595406,51.1324942 154.082898,52.2875 C152.57039,53.4425058 150.989156,54.4049962 149.339148,55.175 C147.68914,55.9450038 146.039156,56.33 144.389148,56.33 C142.959141,56.33 141.927901,55.9862534 141.295398,55.29875 C140.662895,54.6112466 140.346648,53.772505 140.346648,52.7825 C140.346648,51.7924951 140.772894,50.3762592 141.625398,48.53375 C142.477902,46.6912408 143.481642,44.7525102 144.636648,42.7175 C145.791654,40.6824898 146.946642,38.7575091 148.101648,36.9425 C149.256654,35.1274909 150.109145,33.7525047 150.659148,32.8175 C151.594153,31.222492 152.570393,29.5587587 153.587898,27.82625 C154.605403,26.0937413 155.609143,24.4025083 156.599148,22.7525 L159.445398,18.00875 C160.352903,16.4962424 161.191644,15.1625058 161.961648,14.0075 C162.896653,12.5774929 163.859143,11.2300063 164.849148,9.965 C165.839153,8.69999368 167.10414,7.43500632 168.644148,6.17 C170.734158,4.4099912 172.659139,3.06250468 174.419148,2.1275 C176.179157,1.19249532 177.361645,0.725 177.966648,0.725 C178.40665,0.725 178.764147,0.848748763 179.039148,1.09625 C179.314149,1.34375124 179.451648,1.71499753 179.451648,2.21 Z M175.739148,4.355 C175.739148,3.4749956 175.381652,3.035 174.666648,3.035 C174.391647,3.035 174.08915,3.11749918 173.759148,3.2825 C173.429146,3.44750083 173.002901,3.79124739 172.480398,4.31375 C171.957895,4.83625261 171.325402,5.56499532 170.582898,6.5 C169.840394,7.43500468 168.891654,8.64499258 167.736648,10.13 C167.296646,10.735003 166.677902,11.6149942 165.880398,12.77 C165.082894,13.9250058 164.065404,15.4512405 162.827898,17.34875 C161.590392,19.2462595 160.105407,21.5837361 158.372898,24.36125 C156.640389,27.1387639 154.59166,30.424981 152.226648,34.22 C155.526665,32.3499906 158.620384,30.0812633 161.507898,27.41375 C164.395412,24.7462367 166.884138,22.010014 168.974148,19.205 C171.064158,16.399986 172.714142,13.6775132 173.924148,11.0375 C175.134154,8.3974868 175.739148,6.17000907 175.739148,4.355 Z M210.772531,1.1375 C210.772531,1.46750165 210.607532,1.79749835 210.277531,2.1275 C209.947529,2.45750165 209.727531,2.92499697 209.617531,3.53 C209.50753,3.91500192 209.315032,4.1075 209.040031,4.1075 C208.87503,4.1075 208.710031,4.06625041 208.545031,3.98375 C208.38003,3.90124959 208.173782,3.80500055 207.926281,3.695 C207.678779,3.58499945 207.376282,3.48875041 207.018781,3.40625 C206.661279,3.32374959 206.152534,3.2825 205.492531,3.2825 C204.557526,3.2825 203.622535,3.40624876 202.687531,3.65375 C201.752526,3.90125124 200.900035,4.27249753 200.130031,4.7675 C198.590023,5.75750495 196.92629,7.15999092 195.138781,8.975 C193.351272,10.7900091 191.715038,12.7699893 190.230031,14.915 C186.545012,20.1950264 183.313795,25.131227 180.536281,29.72375 C177.758767,34.316273 175.43504,38.4274818 173.565031,42.0575 C171.695021,45.6875181 170.292535,48.7812372 169.357531,51.33875 C168.422526,53.8962628 167.955031,55.779994 167.955031,56.99 C167.955031,57.9250047 168.161279,58.694997 168.573781,59.3 C168.986283,59.905003 169.660026,60.2075 170.595031,60.2075 C172.080038,60.2075 173.496274,59.7400047 174.843781,58.805 C176.191287,57.8699953 177.470025,56.701257 178.680031,55.29875 C179.890037,53.896243 180.990026,52.3425085 181.980031,50.6375 C182.970036,48.9324915 183.822527,47.3375074 184.537531,45.8525 C184.647531,45.6324989 184.826279,45.5499997 185.073781,45.605 C185.321282,45.6600003 185.307532,45.8799981 185.032531,46.265 C184.042526,48.2450099 182.983786,50.1287411 181.856281,51.91625 C180.728775,53.7037589 179.546287,55.2712433 178.308781,56.61875 C177.071274,57.9662567 175.778787,59.0249961 174.431281,59.795 C173.083774,60.5650038 171.750037,60.95 170.430031,60.95 C168.945023,60.95 167.845034,60.551254 167.130031,59.75375 C166.415027,58.956246 166.057531,57.9250063 166.057531,56.66 C166.057531,55.3399934 166.318778,53.9237576 166.841281,52.41125 C167.363783,50.8987424 168.175025,49.042511 169.275031,46.8425 C167.735023,48.7125093 166.387536,50.2799937 165.232531,51.545 C164.077525,52.8100063 163.060035,53.7999964 162.180031,54.515 C161.300026,55.2300036 160.543784,55.7387485 159.911281,56.04125 C159.278778,56.3437515 158.715033,56.495 158.220031,56.495 C157.450027,56.495 156.927532,56.2887521 156.652531,55.87625 C156.377529,55.4637479 156.240031,54.9275033 156.240031,54.2675 C156.240031,53.7724975 156.377529,53.126254 156.652531,52.32875 C156.927532,51.531246 157.312528,50.7475039 157.807531,49.9775 C159.842541,46.6774835 162.111268,43.9825105 164.613781,41.8925 C167.116293,39.8024895 170.210012,38.4275033 173.895031,37.7675 C176.535044,33.1474769 179.065019,28.9950184 181.485031,25.31 C183.905043,21.6249816 186.545016,18.0225176 189.405031,14.5025 C191.770042,11.5324851 194.121269,8.92001127 196.458781,6.665 C198.796292,4.40998872 201.202518,2.70500577 203.677531,1.55 C205.54754,0.6699956 207.170024,0.23 208.545031,0.23 C209.205034,0.23 209.741279,0.312499175 210.153781,0.4775 C210.566283,0.642500825 210.772531,0.862498625 210.772531,1.1375 Z M173.235031,39.005 C171.14502,39.0600003 169.536286,39.4587463 168.408781,40.20125 C167.281275,40.9437537 166.277535,41.8649945 165.397531,42.965 C163.30752,45.5500129 161.822535,47.7637408 160.942531,49.60625 C160.062526,51.4487592 159.622531,52.8099956 159.622531,53.69 C159.622531,53.9650014 159.73253,54.1574994 159.952531,54.2675 C160.172532,54.3775006 160.33753,54.4325 160.447531,54.4325 C160.832533,54.4325 161.533776,54.0200041 162.551281,53.195 C163.568786,52.3699959 164.696274,51.256257 165.933781,49.85375 C167.171287,48.451243 168.450024,46.8150093 169.770031,44.945 C171.090037,43.0749907 172.245026,41.0950105 173.235031,39.005 Z M203.153413,46.1825 C202.218409,47.3375058 201.10467,48.5337438 199.812163,49.77125 C198.519657,51.0087562 197.117171,52.1362449 195.604663,53.15375 C194.092156,54.1712551 192.524671,54.9962468 190.902163,55.62875 C189.279655,56.2612532 187.670921,56.5775 186.075913,56.5775 C183.4909,56.5775 182.198413,55.4225115 182.198413,53.1125 C182.198413,51.5724923 182.597159,49.9087589 183.394663,48.12125 C184.192167,46.3337411 185.223407,44.6837576 186.488413,43.17125 C187.75342,41.6587424 189.142156,40.3937551 190.654663,39.37625 C192.167171,38.3587449 193.610906,37.85 194.985913,37.85 C195.755917,37.85 196.292162,37.9874986 196.594663,38.2625 C196.897165,38.5375014 197.048413,38.8949978 197.048413,39.335 C197.048413,39.9950033 196.842165,40.7099961 196.429663,41.48 C196.017161,42.2500038 195.398417,42.9787466 194.573413,43.66625 C193.748409,44.3537534 192.70342,44.9312477 191.438413,45.39875 C190.173407,45.8662523 188.660922,46.1 186.900913,46.1 C186.625912,46.5950025 186.323415,47.3787446 185.993413,48.45125 C185.663412,49.5237554 185.498413,50.6099945 185.498413,51.71 C185.498413,53.9650113 186.515903,55.0925 188.550913,55.0925 C189.81592,55.0925 191.122157,54.790003 192.469663,54.185 C193.81717,53.579997 195.123407,52.8237545 196.388413,51.91625 C197.65342,51.0087455 198.822158,50.0187554 199.894663,48.94625 C200.967169,47.8737446 201.86091,46.8700047 202.575913,45.935 C202.685914,45.8249994 202.809663,45.7974997 202.947163,45.8525 C203.084664,45.9075003 203.153413,46.0174992 203.153413,46.1825 Z M194.490913,39.7475 C194.490913,39.0324964 194.133417,38.675 193.418413,38.675 C192.868411,38.675 192.304666,38.8812479 191.727163,39.29375 C191.14966,39.7062521 190.585916,40.2424967 190.035913,40.9025 C189.485911,41.5625033 188.963416,42.2774961 188.468413,43.0475 C187.973411,43.8175039 187.560915,44.5599964 187.230913,45.275 C187.340914,45.3300003 187.533412,45.3712499 187.808413,45.39875 C188.083415,45.4262501 188.303413,45.44 188.468413,45.44 C190.063421,45.44 191.465907,44.8762556 192.675913,43.74875 C193.885919,42.6212444 194.490913,41.2875077 194.490913,39.7475 Z M226.636796,45.3575 C225.646791,46.7325069 224.505552,48.121243 223.213046,49.52375 C221.92054,50.926257 220.545553,52.1774945 219.088046,53.2775 C217.630539,54.3775055 216.145554,55.2849964 214.633046,56 C213.120538,56.7150036 211.649303,57.0725 210.219296,57.0725 C209.559293,57.0725 208.954299,56.976251 208.404296,56.78375 C207.854293,56.591249 207.579296,56.1100038 207.579296,55.34 C207.579296,54.5699962 207.854293,53.5937559 208.404296,52.41125 C208.954299,51.2287441 209.600542,49.9775066 210.343046,48.6575 C211.08555,47.3374934 211.855542,45.9900069 212.653046,44.615 C213.45055,43.2399931 214.096794,41.9750058 214.591796,40.82 C214.701797,40.5449986 214.715546,40.311251 214.633046,40.11875 C214.550546,39.926249 214.371797,39.9124992 214.096796,40.0775 C213.491793,40.4625019 212.7768,40.9849967 211.951796,41.645 C211.126792,42.3050033 210.28805,43.0062463 209.435546,43.74875 C208.583042,44.4912537 207.75805,45.2474961 206.960546,46.0175 C206.163042,46.7875039 205.516798,47.474997 205.021796,48.08 C204.141792,49.4550069 203.385549,50.7199942 202.753046,51.875 C202.120543,53.0300058 201.336801,54.3224929 200.401796,55.7525 C200.181795,56.0825016 200.016797,56.2475 199.906796,56.2475 C199.631795,56.2475 199.398047,55.945003 199.205546,55.34 C199.013045,54.734997 198.916796,54.3500008 198.916796,54.185 C198.916796,53.6899975 199.260543,53.0162543 199.948046,52.16375 C200.635549,51.3112457 201.391792,50.3625052 202.216796,49.3175 C203.0968,47.5574912 204.004291,45.7012598 204.939296,43.74875 C205.874301,41.7962402 206.671793,40.0500077 207.331796,38.51 C207.496797,38.2349986 207.744294,38.0975 208.074296,38.0975 C208.404298,38.0975 208.706795,38.2349986 208.981796,38.51 C209.256797,38.7850014 209.394296,39.0874984 209.394296,39.4175 C209.394296,39.6375011 208.99555,40.3937435 208.198046,41.68625 C207.400542,42.9787565 206.6168,44.4774915 205.846796,46.1825 C206.891801,45.2474953 208.03304,44.2575052 209.270546,43.2125 C210.508052,42.1674948 211.69054,41.2050044 212.818046,40.325 C213.945552,39.4449956 214.935542,38.7162529 215.788046,38.13875 C216.64055,37.5612471 217.231794,37.2725 217.561796,37.2725 C217.781797,37.2725 217.988045,37.3962488 218.180546,37.64375 C218.373047,37.8912512 218.469296,38.1249989 218.469296,38.345 C218.469296,38.5650011 218.331797,38.8949978 218.056796,39.335 C217.451793,40.2150044 216.7093,41.3424931 215.829296,42.7175 C214.949292,44.0925069 214.11055,45.5087427 213.313046,46.96625 C212.515542,48.4237573 211.841799,49.8124934 211.291796,51.1325 C210.741793,52.4525066 210.466796,53.4974961 210.466796,54.2675 C210.466796,54.9275033 210.604295,55.3812488 210.879296,55.62875 C211.154297,55.8762512 211.594293,56 212.199296,56 C213.134301,56 214.23429,55.6425036 215.499296,54.9275 C216.764302,54.2124964 218.070539,53.3187554 219.418046,52.24625 C220.765553,51.1737446 222.04429,49.9775066 223.254296,48.6575 C224.464302,47.3374934 225.454292,46.0725061 226.224296,44.8625 C226.334297,44.6974992 226.499295,44.6562496 226.719296,44.73875 C226.939297,44.8212504 226.911797,45.0274983 226.636796,45.3575 Z" id="Golden" fill="#DAD6A3"></path>
            <path d="M18.711,32.6525 L18.711,34.088 L10.5105,34.088 L10.5105,56 L8.8275,56 L8.8275,34.088 L0.5775,34.088 L0.5775,32.6525 L18.711,32.6525 Z M23.4173827,56 L23.4173827,31.9925 L24.9848827,31.9925 L24.9848827,42.3875 C25.7438865,41.4524953 26.6101278,40.7072528 27.5836327,40.15175 C28.5571375,39.5962472 29.6488766,39.3185 30.8588827,39.3185 C31.7608872,39.3185 32.5556292,39.4614986 33.2431327,39.7475 C33.9306361,40.0335014 34.4998804,40.4459973 34.9508827,40.985 C35.4018849,41.5240027 35.7428815,42.1729962 35.9738827,42.932 C36.2048838,43.6910038 36.3203827,44.5489952 36.3203827,45.506 L36.3203827,56 L34.7528827,56 L34.7528827,45.506 C34.7528827,43.9659923 34.4008862,42.7587544 33.6968827,41.88425 C32.9928791,41.0097456 31.9148899,40.5725 30.4628827,40.5725 C29.3848773,40.5725 28.3838873,40.8502472 27.4598827,41.40575 C26.535878,41.9612528 25.7108863,42.7229952 24.9848827,43.691 L24.9848827,56 L23.4173827,56 Z M48.9137653,39.3185 C49.83777,39.3185 50.6930114,39.4779984 51.4795153,39.797 C52.2660193,40.1160016 52.9480124,40.5807469 53.5255153,41.19125 C54.1030182,41.8017531 54.5540137,42.5524955 54.8785153,43.4435 C55.203017,44.3345045 55.3652653,45.3574942 55.3652653,46.5125 C55.3652653,46.7545012 55.3295157,46.9194996 55.2580153,47.0075 C55.186515,47.0955004 55.0737661,47.1395 54.9197653,47.1395 L43.0562653,47.1395 L43.0562653,47.453 C43.0562653,48.6850062 43.1992639,49.7684953 43.4852653,50.7035 C43.7712668,51.6385047 44.1782627,52.4222468 44.7062653,53.05475 C45.234268,53.6872532 45.8722616,54.1629984 46.6202653,54.482 C47.3682691,54.8010016 48.2042607,54.9605 49.1282653,54.9605 C49.9532695,54.9605 50.6682623,54.8697509 51.2732653,54.68825 C51.8782684,54.5067491 52.3870133,54.3032511 52.7995153,54.07775 C53.2120174,53.8522489 53.5392641,53.6487509 53.7812653,53.46725 C54.0232665,53.2857491 54.1992648,53.195 54.3092653,53.195 C54.4522661,53.195 54.562265,53.2499995 54.6392653,53.36 L55.0682653,53.888 C54.804264,54.2180017 54.4550175,54.5259986 54.0205153,54.812 C53.5860132,55.0980014 53.102018,55.342749 52.5685153,55.54625 C52.0350127,55.749751 51.4630184,55.9119994 50.8525153,56.033 C50.2420123,56.1540006 49.6287684,56.2145 49.0127653,56.2145 C47.8907597,56.2145 46.86777,56.019252 45.9437653,55.62875 C45.0197607,55.238248 44.2277686,54.6690037 43.5677653,53.921 C42.907762,53.1729963 42.3990171,52.2572554 42.0415153,51.17375 C41.6840135,50.0902446 41.5052653,48.850007 41.5052653,47.453 C41.5052653,46.2759941 41.6730137,45.189755 42.0085153,44.19425 C42.344017,43.198745 42.8280122,42.3407536 43.4605153,41.62025 C44.0930185,40.8997464 44.8685107,40.336002 45.7870153,39.929 C46.7055199,39.521998 47.7477595,39.3185 48.9137653,39.3185 Z M48.9302653,40.49 C48.0832611,40.49 47.3242687,40.6219987 46.6532653,40.886 C45.982262,41.1500013 45.4020178,41.5294975 44.9125153,42.0245 C44.4230129,42.5195025 44.0270168,43.1134965 43.7245153,43.8065 C43.4220138,44.4995035 43.2212658,45.2749957 43.1222653,46.133 L53.9462653,46.133 C53.9462653,45.2529956 53.8252665,44.4637535 53.5832653,43.76525 C53.3412641,43.0667465 53.0002675,42.4755024 52.5602653,41.9915 C52.1202631,41.5074976 51.5922684,41.1362513 50.9762653,40.87775 C50.3602623,40.6192487 49.6782691,40.49 48.9302653,40.49 Z" id="The" fill="#757575"></path>
            <path d="M252.457,32.6525 L252.457,34.055 L240.1645,34.055 L240.1645,43.493 L250.3945,43.493 L250.3945,44.8625 L240.1645,44.8625 L240.1645,54.5975 L252.457,54.5975 L252.457,56 L238.465,56 L238.465,32.6525 L252.457,32.6525 Z M262.476383,47.6015 L256.767383,39.5825 L258.268883,39.5825 C258.422883,39.5825 258.535632,39.6154997 258.607133,39.6815 C258.678633,39.7475003 258.741882,39.8244996 258.796883,39.9125 L263.614883,46.8755 C263.658883,46.6884991 263.752382,46.490501 263.895383,46.2815 L268.399883,39.929 C268.454883,39.8299995 268.523632,39.7475003 268.606133,39.6815 C268.688633,39.6154997 268.784882,39.5825 268.894883,39.5825 L270.346883,39.5825 L264.604883,47.519 L270.577883,56 L269.076383,56 C268.922382,56 268.801383,55.9532505 268.713383,55.85975 C268.625382,55.7662495 268.553883,55.6755004 268.498883,55.5875 L263.515883,48.3275 C263.460882,48.5475011 263.378383,48.7344992 263.268383,48.8885 L258.483383,55.6205 C258.406382,55.7195005 258.326633,55.8074996 258.244133,55.8845 C258.161632,55.9615004 258.059883,56 257.938883,56 L256.536383,56 L262.476383,47.6015 Z M275.284265,61.808 L275.284265,39.5825 L276.142265,39.5825 C276.285266,39.5825 276.400765,39.6127497 276.488765,39.67325 C276.576766,39.7337503 276.626265,39.8409992 276.637265,39.995 L276.785765,42.536 C277.511769,41.5459951 278.36151,40.7595029 279.335015,40.1765 C280.30852,39.5934971 281.400259,39.302 282.610265,39.302 C284.634275,39.302 286.20726,40.000493 287.329265,41.3975 C288.451271,42.794507 289.012265,44.889986 289.012265,47.684 C289.012265,48.883006 288.855517,50.0022448 288.542015,51.04175 C288.228514,52.0812552 287.769268,52.9832462 287.164265,53.74775 C286.559262,54.5122538 285.81402,55.1144978 284.928515,55.5545 C284.043011,55.9945022 283.022771,56.2145 281.867765,56.2145 C280.74576,56.2145 279.777769,56.011002 278.963765,55.604 C278.149761,55.196998 277.445768,54.592004 276.851765,53.789 L276.851765,61.808 L275.284265,61.808 Z M282.164765,40.5725 C281.07576,40.5725 280.08852,40.8557472 279.203015,41.42225 C278.317511,41.9887528 277.533769,42.7779949 276.851765,43.79 L276.851765,52.403 C277.478768,53.3490047 278.174512,54.0144981 278.939015,54.3995 C279.703519,54.7845019 280.57526,54.977 281.554265,54.977 C282.52227,54.977 283.369262,54.8010018 284.095265,54.449 C284.821269,54.0969982 285.429013,53.5992532 285.918515,52.95575 C286.408018,52.3122468 286.776514,51.5422545 287.024015,50.64575 C287.271517,49.7492455 287.395265,48.7620054 287.395265,47.684 C287.395265,45.2419878 286.94702,43.4462557 286.050515,42.29675 C285.154011,41.1472443 283.858774,40.5725 282.164765,40.5725 Z M300.582648,39.3185 C301.506653,39.3185 302.361894,39.4779984 303.148398,39.797 C303.934902,40.1160016 304.616895,40.5807469 305.194398,41.19125 C305.771901,41.8017531 306.222896,42.5524955 306.547398,43.4435 C306.8719,44.3345045 307.034148,45.3574942 307.034148,46.5125 C307.034148,46.7545012 306.998398,46.9194996 306.926898,47.0075 C306.855398,47.0955004 306.742649,47.1395 306.588648,47.1395 L294.725148,47.1395 L294.725148,47.453 C294.725148,48.6850062 294.868147,49.7684953 295.154148,50.7035 C295.440149,51.6385047 295.847145,52.4222468 296.375148,53.05475 C296.903151,53.6872532 297.541144,54.1629984 298.289148,54.482 C299.037152,54.8010016 299.873143,54.9605 300.797148,54.9605 C301.622152,54.9605 302.337145,54.8697509 302.942148,54.68825 C303.547151,54.5067491 304.055896,54.3032511 304.468398,54.07775 C304.8809,53.8522489 305.208147,53.6487509 305.450148,53.46725 C305.692149,53.2857491 305.868147,53.195 305.978148,53.195 C306.121149,53.195 306.231148,53.2499995 306.308148,53.36 L306.737148,53.888 C306.473147,54.2180016 306.1239,54.5259986 305.689398,54.812 C305.254896,55.0980014 304.770901,55.342749 304.237398,55.54625 C303.703895,55.749751 303.131901,55.9119994 302.521398,56.033 C301.910895,56.1540006 301.297651,56.2145 300.681648,56.2145 C299.559642,56.2145 298.536653,56.019252 297.612648,55.62875 C296.688643,55.238248 295.896651,54.6690037 295.236648,53.921 C294.576645,53.1729963 294.0679,52.2572554 293.710398,51.17375 C293.352896,50.0902446 293.174148,48.850007 293.174148,47.453 C293.174148,46.2759941 293.341896,45.189755 293.677398,44.19425 C294.0129,43.198745 294.496895,42.3407536 295.129398,41.62025 C295.761901,40.8997464 296.537393,40.336002 297.455898,39.929 C298.374403,39.521998 299.416642,39.3185 300.582648,39.3185 Z M300.599148,40.49 C299.752144,40.49 298.993151,40.6219987 298.322148,40.886 C297.651145,41.1500013 297.0709,41.5294975 296.581398,42.0245 C296.091896,42.5195025 295.6959,43.1134965 295.393398,43.8065 C295.090896,44.4995035 294.890149,45.2749957 294.791148,46.133 L305.615148,46.133 C305.615148,45.2529956 305.494149,44.4637535 305.252148,43.76525 C305.010147,43.0667465 304.66915,42.4755024 304.229148,41.9915 C303.789146,41.5074976 303.261151,41.1362513 302.645148,40.87775 C302.029145,40.6192487 301.347152,40.49 300.599148,40.49 Z M312.714031,56 L312.714031,39.5825 L313.539031,39.5825 C313.726032,39.5825 313.86078,39.6209996 313.943281,39.698 C314.025781,39.7750004 314.072531,39.9069991 314.083531,40.094 L314.215531,43.559 C314.743533,42.2279933 315.447526,41.1857538 316.327531,40.43225 C317.207535,39.6787462 318.291024,39.302 319.578031,39.302 C320.073033,39.302 320.529529,39.3542495 320.947531,39.45875 C321.365533,39.5632505 321.761529,39.714499 322.135531,39.9125 L321.921031,41.0015 C321.888031,41.1775009 321.778032,41.2655 321.591031,41.2655 C321.52503,41.2655 321.431531,41.2435002 321.310531,41.1995 C321.18953,41.1554998 321.038282,41.1060003 320.856781,41.051 C320.67528,40.9959997 320.452532,40.9465002 320.188531,40.9025 C319.924529,40.8584998 319.622032,40.8365 319.281031,40.8365 C318.038024,40.8365 317.017785,41.2214962 316.220281,41.9915 C315.422777,42.7615038 314.776533,43.8724927 314.281531,45.3245 L314.281531,56 L312.714031,56 Z M329.300413,39.5825 L329.300413,56 L327.732913,56 L327.732913,39.5825 L329.300413,39.5825 Z M329.993413,33.923 C329.993413,34.121001 329.952164,34.3052491 329.869663,34.47575 C329.787163,34.6462509 329.679914,34.7974993 329.547913,34.9295 C329.415913,35.0615007 329.261914,35.1659996 329.085913,35.243 C328.909912,35.3200004 328.722914,35.3585 328.524913,35.3585 C328.326912,35.3585 328.139914,35.3200004 327.963913,35.243 C327.787912,35.1659996 327.633914,35.0615007 327.501913,34.9295 C327.369913,34.7974993 327.265414,34.6462509 327.188413,34.47575 C327.111413,34.3052491 327.072913,34.121001 327.072913,33.923 C327.072913,33.724999 327.111413,33.5352509 327.188413,33.35375 C327.265414,33.1722491 327.369913,33.0155007 327.501913,32.8835 C327.633914,32.7514993 327.787912,32.6470004 327.963913,32.57 C328.139914,32.4929996 328.326912,32.4545 328.524913,32.4545 C328.722914,32.4545 328.909912,32.4929996 329.085913,32.57 C329.261914,32.6470004 329.415913,32.7514993 329.547913,32.8835 C329.679914,33.0155007 329.787163,33.1722491 329.869663,33.35375 C329.952164,33.5352509 329.993413,33.724999 329.993413,33.923 Z M336.564296,56 L336.564296,39.5825 L337.422296,39.5825 C337.708297,39.5825 337.873296,39.7199986 337.917296,39.995 L338.065796,42.371 C338.384798,41.9199977 338.725794,41.5075019 339.088796,41.1335 C339.451798,40.7594981 339.839544,40.4377513 340.252046,40.16825 C340.664548,39.8987487 341.104544,39.6897507 341.572046,39.54125 C342.039548,39.3927493 342.531793,39.3185 343.048796,39.3185 C344.247802,39.3185 345.204792,39.6677465 345.919796,40.36625 C346.6348,41.0647535 347.118795,42.0354938 347.371796,43.2785 C347.569797,42.5964966 347.847544,42.0080025 348.205046,41.513 C348.562548,41.0179975 348.972294,40.6082516 349.434296,40.28375 C349.896298,39.9592484 350.399543,39.7172508 350.944046,39.55775 C351.488549,39.3982492 352.046793,39.3185 352.618796,39.3185 C353.4328,39.3185 354.164293,39.4532487 354.813296,39.72275 C355.462299,39.9922513 356.015044,40.3909974 356.471546,40.919 C356.928048,41.4470026 357.277295,42.0959961 357.519296,42.866 C357.761297,43.6360039 357.882296,44.5159951 357.882296,45.506 L357.882296,56 L356.298296,56 L356.298296,45.506 C356.298296,43.899992 355.951799,42.6762542 355.258796,41.83475 C354.565793,40.9932458 353.575802,40.5725 352.288796,40.5725 C351.716793,40.5725 351.169549,40.676999 350.647046,40.886 C350.124543,41.095001 349.662548,41.4057479 349.261046,41.81825 C348.859544,42.2307521 348.540547,42.7449969 348.304046,43.361 C348.067545,43.9770031 347.949296,44.6919959 347.949296,45.506 L347.949296,56 L346.381796,56 L346.381796,45.506 C346.381796,43.910992 346.062799,42.6900042 345.424796,41.843 C344.786793,40.9959958 343.857302,40.5725 342.636296,40.5725 C341.745292,40.5725 340.9203,40.8392473 340.161296,41.37275 C339.402292,41.9062527 338.725799,42.6459953 338.131796,43.592 L338.131796,56 L336.564296,56 Z M370.459179,39.3185 C371.383183,39.3185 372.238425,39.4779984 373.024929,39.797 C373.811433,40.1160016 374.493426,40.5807469 375.070929,41.19125 C375.648432,41.8017531 376.099427,42.5524955 376.423929,43.4435 C376.74843,44.3345045 376.910679,45.3574942 376.910679,46.5125 C376.910679,46.7545012 376.874929,46.9194996 376.803429,47.0075 C376.731928,47.0955004 376.619179,47.1395 376.465179,47.1395 L364.601679,47.1395 L364.601679,47.453 C364.601679,48.6850062 364.744677,49.7684953 365.030679,50.7035 C365.31668,51.6385047 365.723676,52.4222468 366.251679,53.05475 C366.779681,53.6872532 367.417675,54.1629984 368.165679,54.482 C368.913682,54.8010016 369.749674,54.9605 370.673679,54.9605 C371.498683,54.9605 372.213676,54.8697509 372.818679,54.68825 C373.423682,54.5067491 373.932427,54.3032511 374.344929,54.07775 C374.757431,53.8522489 375.084677,53.6487509 375.326679,53.46725 C375.56868,53.2857491 375.744678,53.195 375.854679,53.195 C375.997679,53.195 376.107678,53.2499995 376.184679,53.36 L376.613679,53.888 C376.349677,54.2180016 376.000431,54.5259986 375.565929,54.812 C375.131427,55.0980014 374.647431,55.342749 374.113929,55.54625 C373.580426,55.749751 373.008432,55.9119994 372.397929,56.033 C371.787426,56.1540006 371.174182,56.2145 370.558179,56.2145 C369.436173,56.2145 368.413183,56.019252 367.489179,55.62875 C366.565174,55.238248 365.773182,54.6690037 365.113179,53.921 C364.453175,53.1729963 363.94443,52.2572554 363.586929,51.17375 C363.229427,50.0902446 363.050679,48.850007 363.050679,47.453 C363.050679,46.2759941 363.218427,45.189755 363.553929,44.19425 C363.88943,43.198745 364.373426,42.3407536 365.005929,41.62025 C365.638432,40.8997464 366.413924,40.336002 367.332429,39.929 C368.250933,39.521998 369.293173,39.3185 370.459179,39.3185 Z M370.475679,40.49 C369.628674,40.49 368.869682,40.6219987 368.198679,40.886 C367.527675,41.1500013 366.947431,41.5294975 366.457929,42.0245 C365.968426,42.5195025 365.57243,43.1134965 365.269929,43.8065 C364.967427,44.4995035 364.766679,45.2749957 364.667679,46.133 L375.491679,46.133 C375.491679,45.2529956 375.37068,44.4637535 375.128679,43.76525 C374.886677,43.0667465 374.545681,42.4755024 374.105679,41.9915 C373.665676,41.5074976 373.137682,41.1362513 372.521679,40.87775 C371.905676,40.6192487 371.223682,40.49 370.475679,40.49 Z M382.590561,56 L382.590561,39.5825 L383.448561,39.5825 C383.734563,39.5825 383.899561,39.7199986 383.943561,39.995 L384.092061,42.47 C384.840065,41.5239953 385.711806,40.7622529 386.707311,40.18475 C387.702816,39.6072471 388.811055,39.3185 390.032061,39.3185 C390.934066,39.3185 391.728808,39.4614986 392.416311,39.7475 C393.103815,40.0335014 393.673059,40.4459973 394.124061,40.985 C394.575064,41.5240027 394.91606,42.1729962 395.147061,42.932 C395.378063,43.6910038 395.493561,44.5489952 395.493561,45.506 L395.493561,56 L393.926061,56 L393.926061,45.506 C393.926061,43.9659923 393.574065,42.7587544 392.870061,41.88425 C392.166058,41.0097456 391.088069,40.5725 389.636061,40.5725 C388.558056,40.5725 387.557066,40.8502472 386.633061,41.40575 C385.709057,41.9612528 384.884065,42.7229952 384.158061,43.691 L384.158061,56 L382.590561,56 Z M406.387444,56.264 C405.276438,56.264 404.410197,55.9560031 403.788694,55.34 C403.167191,54.7239969 402.856444,53.7725064 402.856444,52.4855 L402.856444,41.2655 L400.496944,41.2655 C400.375943,41.2655 400.276944,41.2325003 400.199944,41.1665 C400.122944,41.1004997 400.084444,41.0070006 400.084444,40.886 L400.084444,40.2755 L402.889444,40.0775 L403.285444,34.2035 C403.296444,34.1044995 403.337694,34.0165004 403.409194,33.9395 C403.480694,33.8624996 403.576943,33.824 403.697944,33.824 L404.440444,33.824 L404.440444,40.094 L409.604944,40.094 L409.604944,41.2655 L404.440444,41.2655 L404.440444,52.403 C404.440444,52.8540023 404.498193,53.2417484 404.613694,53.56625 C404.729195,53.8907516 404.888693,54.157499 405.092194,54.3665 C405.295695,54.575501 405.534943,54.7294995 405.809944,54.8285 C406.084945,54.9275005 406.381942,54.977 406.700944,54.977 C407.096946,54.977 407.437943,54.9192506 407.723944,54.80375 C408.009945,54.6882494 408.257443,54.5617507 408.466444,54.42425 C408.675445,54.2867493 408.845943,54.1602506 408.977944,54.04475 C409.109945,53.9292494 409.214444,53.8715 409.291444,53.8715 C409.379444,53.8715 409.467444,53.9264995 409.555444,54.0365 L409.984444,54.7295 C409.566442,55.1915023 409.035697,55.5627486 408.392194,55.84325 C407.748691,56.1237514 407.080447,56.264 406.387444,56.264 Z" id="Experiment" fill="#757575"></path>
        </g>
    </g>
</svg>