<svg xmlns="http://www.w3.org/2000/svg" viewBox="0 0 367.19 66.81"><defs><style>.a{fill:#23376b;}.b{fill:#0071af;}.c{fill:#5b185e;}.d{fill:#ff574c;}.e{fill:#3cf;}.f{fill:#ffbf25;}</style></defs><title>zoomforth</title><path class="a" d="M184.84,101.67c0-8.71,6.1-16.09,16.21-16.09s16.28,7.38,16.28,16.09-6.1,16.15-16.28,16.15S184.84,110.44,184.84,101.67Zm24.1,0c0-4.77-2.86-8.9-7.88-8.9s-7.82,4.13-7.82,8.9,2.8,9,7.82,9S208.93,106.5,208.93,101.67Z" transform="translate(-66.49 -66.44)"/><path class="a" d="M219.88,101.67c0-8.71,6.1-16.09,16.21-16.09s16.28,7.38,16.28,16.09-6.1,16.15-16.28,16.15S219.88,110.44,219.88,101.67Zm24.1,0c0-4.77-2.86-8.9-7.88-8.9s-7.82,4.13-7.82,8.9,2.8,9,7.82,9S244,106.5,244,101.67Z" transform="translate(-66.49 -66.44)"/><path class="a" d="M294.15,117.05V97.66c0-2.86-1.27-4.9-4.58-4.9a8.15,8.15,0,0,0-6.36,3.56v20.73h-8.14V97.66c0-2.86-1.27-4.9-4.58-4.9a8.24,8.24,0,0,0-6.36,3.62v20.66h-8.08V86.34h8.08v4a13.43,13.43,0,0,1,10-4.77c4.51,0,7.37,2.1,8.52,5.6a13,13,0,0,1,10.55-5.6c5.66,0,9,3,9,9.28v22.19h-8.14Z" transform="translate(-66.49 -66.44)"/><path class="a" d="M309.32,117.05V84.69C309.32,78,313.65,74,319.69,74a13.06,13.06,0,0,1,5.85,1.27L323.88,81a5,5,0,0,0-2.61-.64c-2.29,0-3.81,1.53-3.81,4.45v2.27h6.23v7.06h-6.23v22.91h-8.14Z" transform="translate(-66.49 -66.44)"/><path class="a" d="M326.12,101.67c0-8.71,6.1-16.09,16.21-16.09s16.28,7.38,16.28,16.09-6.1,16.15-16.28,16.15S326.12,110.44,326.12,101.67Zm24.1,0c0-4.77-2.86-8.9-7.88-8.9s-7.82,4.13-7.82,8.9,2.8,9,7.82,9S350.22,106.5,350.22,101.67Z" transform="translate(-66.49 -66.44)"/><path class="a" d="M362.66,117.05V86.34h8.08v4.2a13.2,13.2,0,0,1,9.79-5v7.88a10.79,10.79,0,0,0-2.23-.19c-2.67,0-6.23,1.53-7.56,3.5v20.28h-8.08Z" transform="translate(-66.49 -66.44)"/><path class="a" d="M384.78,109.42V78h8.14v8.39h6.23V93.4h-6.23v13.86c0,1.91,1,3.37,2.8,3.37a4.41,4.41,0,0,0,2.8-.89l1.72,6.1c-1.21,1.08-3.37,2-6.74,2C387.83,117.81,384.78,114.89,384.78,109.42Z" transform="translate(-66.49 -66.44)"/><path class="a" d="M425.6,117.05V98.36c0-4.26-2.22-5.6-5.72-5.6a8.94,8.94,0,0,0-7,3.62v20.66h-8.08V74.64h8.08v15.7a14.21,14.21,0,0,1,10.81-4.77c6.74,0,10,3.69,10,9.66v21.81H425.6Z" transform="translate(-66.49 -66.44)"/><path class="a" d="M157.35,117V111L171.27,93.3H157.35V86.22h24.89v5.87L168.14,110H182.5V117H157.35Z" transform="translate(-66.49 -66.44)"/><rect class="a" width="22.27" height="22.27"/><rect class="b" x="22.27" width="22.27" height="22.27"/><rect class="c" x="44.54" y="44.54" width="22.27" height="22.27"/><rect class="d" x="22.27" y="44.54" width="22.27" height="22.27"/><polygon class="e" points="44.54 0 44.54 22.27 44.54 44.54 66.81 22.27 66.81 0 44.54 0"/><polygon class="f" points="0 44.54 0 66.81 22.27 66.81 22.27 44.54 22.27 22.27 0 44.54"/></svg>