<?xml version="1.0" encoding="UTF-8"?>
<svg width="169px" height="55px" viewBox="0 0 169 55" version="1.1" xmlns="http://www.w3.org/2000/svg" xmlns:xlink="http://www.w3.org/1999/xlink">
    <!-- Generator: Sketch 42 (36781) - http://www.bohemiancoding.com/sketch -->
    <title>layered logo + text</title>
    <desc>Created with Sketch.</desc>
    <defs>
        <linearGradient x1="0%" y1="0%" x2="100%" y2="83.3126688%" id="linearGradient-1">
            <stop stop-color="#4A249B" offset="0%"></stop>
            <stop stop-color="#6F49FF" offset="100%"></stop>
        </linearGradient>
        <linearGradient x1="84.3133335%" y1="51.7979881%" x2="11.7045218%" y2="29.2549231%" id="linearGradient-2">
            <stop stop-color="#7B58FC" offset="0%"></stop>
            <stop stop-color="#B6A4FA" offset="100%"></stop>
        </linearGradient>
    </defs>
    <g id="UI" stroke="none" stroke-width="1" fill="none" fill-rule="evenodd">
        <g id="Find" transform="translate(-60.000000, -55.000000)">
            <g id="layered-logo-+-text" transform="translate(60.000000, 55.000000)">
                <g id="icon-+-text">
                    <path d="M76.5094401,35.0774533 L79.8333617,35.0774533 L79.8333617,24.8600661 C79.8333617,22.6815841 81.3038523,21.0860762 83.3564121,21.0860762 C85.3017487,21.0860762 86.5424751,22.31339 86.5424751,24.2464092 L86.5424751,35.0774533 L89.8051262,35.0774533 L89.8051262,24.7373347 C89.8051262,22.604877 91.2449816,21.0860762 93.2822238,21.0860762 C95.3501013,21.0860762 96.5295573,22.3440728 96.5295573,24.5225548 L96.5295573,35.0774533 L99.8381612,35.0774533 L99.8381612,23.7248008 C99.8381612,20.3957122 97.6936957,18.2325717 94.415727,18.2325717 C92.0414974,18.2325717 90.0808432,19.4598855 89.2077394,21.4696118 L89.1311513,21.4696118 C88.4571765,19.3985198 86.7875569,18.2325717 84.4745977,18.2325717 C82.299497,18.2325717 80.5073365,19.3678369 79.741456,21.2394904 L79.6801855,21.2394904 L79.6801855,18.4166688 L76.5094401,18.4166688 L76.5094401,35.0774533 Z M111.654166,20.9173206 C109.264619,20.9173206 107.533729,22.6662427 107.349918,25.2282602 L115.789921,25.2282602 C115.713333,22.6355599 114.074349,20.9173206 111.654166,20.9173206 Z M115.774603,30.198881 L118.945349,30.198881 C118.470503,33.1904583 115.544839,35.2768918 111.807342,35.2768918 C106.982295,35.2768918 103.980043,32.0245103 103.980043,26.8084267 C103.980043,21.5923432 107.01293,18.2018888 111.669484,18.2018888 C116.234132,18.2018888 119.113843,21.3775632 119.113843,26.4248912 L119.113843,27.5908392 L107.3346,27.5908392 L107.3346,27.7902777 C107.3346,30.6744651 109.142078,32.5768015 111.868613,32.5768015 C113.798632,32.5768015 115.315075,31.6563161 115.774603,30.198881 Z M123.34763,35.0774533 L126.671552,35.0774533 L126.671552,25.1362117 C126.671552,22.7889741 128.050137,21.2701733 130.240555,21.2701733 C130.730718,21.2701733 131.420011,21.3775632 131.695728,21.4849532 L131.695728,18.3706445 C131.435329,18.2939374 130.960483,18.2479131 130.59286,18.2479131 C128.632206,18.2479131 127.100445,19.3678369 126.579646,21.224149 L126.518376,21.224149 L126.518376,18.4166688 L123.34763,18.4166688 L123.34763,35.0774533 Z M141.826796,32.269973 C144.522695,32.269973 146.314856,30.0608082 146.314856,26.7010368 C146.314856,23.3259239 144.522695,21.0707348 141.826796,21.0707348 C139.146214,21.0707348 137.415324,23.2798996 137.415324,26.7010368 C137.415324,30.1068325 139.146214,32.269973 141.826796,32.269973 Z M141.842113,41.0759494 C137.844217,41.0759494 134.995141,39.2196373 134.673471,36.3661327 L138.028028,36.3661327 C138.395651,37.6548122 139.94273,38.4679076 141.979972,38.4679076 C144.614601,38.4679076 146.314856,37.0871796 146.314856,34.9086976 L146.314856,32.1625831 L146.238268,32.1625831 C145.273258,33.9575295 143.312604,35.031429 140.953692,35.031429 C136.802619,35.031429 134.014814,31.7637061 134.014814,26.6856953 C134.014814,21.5463189 136.771984,18.2479131 141.03028,18.2479131 C143.389192,18.2479131 145.319211,19.3371541 146.345491,21.1781248 L146.406761,21.1781248 L146.406761,18.4166688 L149.623459,18.4166688 L149.623459,34.6478935 C149.623459,38.6213218 146.636525,41.0759494 141.842113,41.0759494 Z M161.516052,20.9173206 C159.126505,20.9173206 157.395615,22.6662427 157.211804,25.2282602 L165.651807,25.2282602 C165.575219,22.6355599 163.936235,20.9173206 161.516052,20.9173206 Z M165.63649,30.198881 L168.807235,30.198881 C168.332389,33.1904583 165.406726,35.2768918 161.669229,35.2768918 C156.844181,35.2768918 153.841929,32.0245103 153.841929,26.8084267 C153.841929,21.5923432 156.874816,18.2018888 161.53137,18.2018888 C166.096018,18.2018888 168.975729,21.3775632 168.975729,26.4248912 L168.975729,27.5908392 L157.196486,27.5908392 L157.196486,27.7902777 C157.196486,30.6744651 159.003964,32.5768015 161.730499,32.5768015 C163.660518,32.5768015 165.176961,31.6563161 165.63649,30.198881 Z" id="merge" fill="#6F49FF"></path>
                    <g id="-layered-logo">
                        <g id="Logo">
                            <g id="Rectangle-5">
                                <path d="M17.6666812,0 L34.9869426,0 C34.9869426,0 34.9869426,11.9249325 39.756722,23.0821202 C44.5265014,34.2393079 52.73983,42.4713502 52.73983,42.4713502 L40.5245297,54.762864 C40.5245297,54.762864 30.5667533,45.5513119 24.0827709,30.2631601 C17.5987886,14.9750083 17.6666812,0 17.6666812,0 Z" fill="url(#linearGradient-1)"></path>
                                <path d="M35.0025606,2.13162821e-14 L17.6970578,2.13162821e-14 C17.6970578,2.13162821e-14 17.7117659,11.9249325 12.9581063,23.0821202 C8.20279771,34.2393079 -7.81597009e-14,42.4713502 -7.81597009e-14,42.4713502 L12.227035,54.762864 C12.227035,54.762864 22.1727826,45.5513119 28.6343768,30.2631601 C35.0928995,14.9750083 35.0025606,2.13162821e-14 35.0025606,2.13162821e-14 Z" fill="url(#linearGradient-2)"></path>
                            </g>
                        </g>
                    </g>
                </g>
            </g>
        </g>
    </g>
</svg>