<?xml version="1.0" encoding="UTF-8"?>
<svg width="445px" height="572px" viewBox="0 0 445 572" version="1.1" xmlns="http://www.w3.org/2000/svg" xmlns:xlink="http://www.w3.org/1999/xlink">
    <!-- Generator: Sketch 46.2 (44496) - http://www.bohemiancoding.com/sketch -->
    <title>Group 2</title>
    <desc>Created with Sketch.</desc>
    <defs></defs>
    <g id="Page-1" stroke="none" stroke-width="1" fill="none" fill-rule="evenodd" fill-opacity="0.33">
        <g id="Artboard" transform="translate(-237.000000, -157.000000)" fill="#2D32DA">
            <g id="Group-2" transform="translate(237.000000, 157.000000)">
                <g id="Group">
                    <path d="M336.490785,116.898223 C313.229462,48.894327 248.763499,0 172.877654,0 C77.3999622,0 0,77.3999622 0,172.877654 C0,268.355346 77.3999622,345.755308 172.877654,345.755308 C181.556563,345.755308 190.0861,345.115769 198.421709,343.881247 L198.421709,116.898223 L336.490785,116.898223 Z" id="Combined-Shape"></path>
                    <path d="M102.849534,330.984259 C42.261267,304.108883 0,243.428593 0,172.877654 C0,77.3999622 77.3999622,0 172.877654,0 C268.355346,0 345.755308,77.3999622 345.755308,172.877654 C345.755308,178.414814 345.494986,183.891172 344.985913,189.295158 C323.579128,179.799666 299.884547,174.524108 274.957793,174.524108 C185.017261,174.524108 111.11845,243.206883 102.849534,330.984259 Z" id="Combined-Shape"></path>
                </g>
                <g id="Group" transform="translate(271.313259, 398.826087) scale(-1, -1) translate(-271.313259, -398.826087) translate(98.313259, 225.826087)">
                    <path d="M102.849534,330.984259 C42.261267,304.108883 0,243.428593 0,172.877654 C0,77.3999622 77.3999622,0 172.877654,0 C268.355346,0 345.755308,77.3999622 345.755308,172.877654 C345.755308,178.414814 345.494986,183.891172 344.985913,189.295158 C323.579128,179.799666 299.884547,174.524108 274.957793,174.524108 C185.017261,174.524108 111.11845,243.206883 102.849534,330.984259 Z" id="Combined-Shape"></path>
                    <path d="M336.490785,116.898223 C313.229462,48.894327 248.763499,0 172.877654,0 C77.3999622,0 0,77.3999622 0,172.877654 C0,268.355346 77.3999622,345.755308 172.877654,345.755308 C181.556563,345.755308 190.0861,345.115769 198.421709,343.881247 L198.421709,116.898223 L336.490785,116.898223 Z" id="Combined-Shape"></path>
                </g>
            </g>
        </g>
    </g>
</svg>