<?xml version="1.0" encoding="UTF-8"?>
<svg width="20px" height="20px" viewBox="0 0 20 20" version="1.1" xmlns="http://www.w3.org/2000/svg" xmlns:xlink="http://www.w3.org/1999/xlink">
    <!-- Generator: Sketch 52 (66869) - http://www.bohemiancoding.com/sketch -->
    <title>Shape</title>
    <desc>Created with Sketch.</desc>
    <g id="Welcome" stroke="none" stroke-width="1" fill="none" fill-rule="evenodd">
        <g id="Desktop-HD-Copy-8" transform="translate(-769.000000, -1962.000000)" fill="#D9C45B" fill-rule="nonzero">
            <path d="M779,1962 C773.47,1962 769,1966.47 769,1972 C769,1977.53 773.47,1982 779,1982 C784.53,1982 789,1977.53 789,1972 C789,1966.47 784.53,1962 779,1962 Z M783,1973 L775,1973 C774.45,1973 774,1972.55 774,1972 C774,1971.45 774.45,1971 775,1971 L783,1971 C783.55,1971 784,1971.45 784,1972 C784,1972.55 783.55,1973 783,1973 Z" id="Shape"></path>
        </g>
    </g>
</svg>