<svg width="74" height="102" viewBox="0 0 74 102" fill="none" xmlns="http://www.w3.org/2000/svg">
<path fill-rule="evenodd" clip-rule="evenodd" d="M62.0362 24.5308L69.6091 11.7117C71.8077 8.03213 70.4641 3.1656 66.6777 1.02908C62.8912 -1.10745 57.8834 0.198206 55.6848 3.87778L48.1119 16.6969C31.9889 11.7117 13.7896 18.1213 4.99524 33.0769C-0.623356 42.5726 -1.35622 53.3739 2.0638 62.9883L16.1103 39.3678C19.286 33.9078 24.5382 30.1095 30.7675 28.4478C36.9968 26.7861 43.4704 27.6169 49.089 30.8217C60.5705 37.2313 64.6012 51.7122 57.8834 62.8696C51.2876 74.027 36.5083 77.9439 24.9046 71.4157L32.9661 57.7657C36.7525 59.9022 41.7604 58.5965 43.959 54.917C46.1576 51.1187 44.814 46.3709 41.0276 44.2343C37.2411 42.0978 32.2332 43.4035 30.0346 47.083L4.38453 90.2883C2.18594 94.0866 3.52952 98.8344 7.31597 100.971C11.1024 103.107 16.1103 101.802 18.3089 98.1222L25.8818 85.3031C42.0047 90.2883 60.2041 83.8787 68.9984 68.9231C77.9149 54.0861 74.4949 35.6882 62.0362 24.5308Z" fill="white"/>
</svg>
