<svg width="353" height="317" viewBox="0 0 353 317" fill="none" xmlns="http://www.w3.org/2000/svg">
<path d="M27.4697 242.662C27.0739 242.662 26.709 242.619 26.375 242.532C25.3854 242.297 24.5628 241.703 23.9072 240.751C23.264 239.786 22.695 238.32 22.2002 236.354C22.1012 235.97 22.0023 235.549 21.9033 235.092C21.8167 234.622 21.7549 234.226 21.7178 233.904C21.7054 233.88 21.6992 233.849 21.6992 233.812C21.6745 233.663 21.6497 233.478 21.625 233.255C21.6003 233.032 21.5693 232.822 21.5322 232.624C21.3838 231.511 21.3096 230.317 21.3096 229.043C21.3096 227.843 21.3776 226.73 21.5137 225.703C21.5384 225.468 21.5755 225.184 21.625 224.85C21.6621 224.602 21.693 224.373 21.7178 224.163C21.8415 223.248 22.0085 222.314 22.2188 221.361C22.429 220.396 22.627 219.673 22.8125 219.19C23.0846 218.399 23.4867 218.003 24.0186 218.003H24.1113C24.8535 218.04 25.2988 218.949 25.4473 220.73C25.472 221.04 25.4844 221.51 25.4844 222.141C25.4844 223.279 25.4473 224.751 25.373 226.557C25.3236 227.509 25.2988 228.437 25.2988 229.34C25.2988 231.146 25.3792 232.581 25.54 233.645C25.639 234.288 25.7441 234.857 25.8555 235.352C25.9792 235.834 26.14 236.366 26.3379 236.947C26.5605 237.652 26.7708 238.16 26.9688 238.469C27.1667 238.778 27.4017 238.951 27.6738 238.988C28.0449 239.062 28.4346 239.1 28.8428 239.1C29.4489 239.1 30.0179 239.019 30.5498 238.858C30.7725 238.784 30.9766 238.747 31.1621 238.747C31.5951 238.747 31.8857 238.933 32.0342 239.304C32.0837 239.427 32.1084 239.551 32.1084 239.675C32.1084 240.034 31.8796 240.429 31.4219 240.862C31.2982 240.986 31.1436 241.122 30.958 241.271C30.7725 241.407 30.5993 241.524 30.4385 241.623C30.1169 241.821 29.752 242.013 29.3438 242.198C28.9479 242.371 28.6077 242.495 28.3232 242.569C28.0758 242.631 27.7913 242.662 27.4697 242.662ZM37.415 242.458C37.1553 242.458 36.9264 242.439 36.7285 242.402C36.6172 242.378 36.4749 242.334 36.3018 242.272C36.1286 242.198 35.9616 242.124 35.8008 242.05C35.5905 241.951 35.4111 241.852 35.2627 241.753C35.1266 241.642 34.9658 241.493 34.7803 241.308C34.5452 241.06 34.3535 240.819 34.2051 240.584C34.0566 240.349 33.8896 240.003 33.7041 239.545C33.3825 238.679 33.2217 237.72 33.2217 236.669C33.2217 235.321 33.4814 233.991 34.001 232.68C34.6195 231.257 35.4297 230.206 36.4316 229.525C36.6419 229.389 36.8337 229.297 37.0068 229.247C37.18 229.185 37.3841 229.154 37.6191 229.154L38.417 229.062C38.6025 229.037 38.8005 229.024 39.0107 229.024C39.6911 229.049 40.3096 229.21 40.8662 229.507C41.2868 229.742 41.6517 230.051 41.9609 230.435C42.2826 230.818 42.6104 231.344 42.9443 232.012C43.3402 232.853 43.5381 233.861 43.5381 235.036C43.5381 235.457 43.5072 235.834 43.4453 236.168C43.3835 236.49 43.266 236.91 43.0928 237.43C42.5238 239.223 41.5837 240.565 40.2725 241.456C39.654 241.889 39.0911 242.18 38.584 242.328C38.2005 242.415 37.8109 242.458 37.415 242.458ZM37.5449 239.007C37.6686 239.007 37.8171 238.957 37.9902 238.858C38.2253 238.735 38.4912 238.518 38.7881 238.209C39.0973 237.887 39.3447 237.578 39.5303 237.281C39.7158 236.972 39.8581 236.688 39.957 236.428C40.0684 236.156 40.1549 235.846 40.2168 235.5C40.291 235.129 40.3281 234.783 40.3281 234.461C40.3281 233.669 40.1178 233.051 39.6973 232.605C39.5241 232.432 39.3385 232.309 39.1406 232.234C38.9427 232.148 38.6829 232.098 38.3613 232.086H38.0459C37.9222 232.086 37.8356 232.098 37.7861 232.123C37.7367 232.135 37.681 232.166 37.6191 232.216C37.5697 232.265 37.5016 232.352 37.415 232.476C37.3285 232.587 37.2542 232.717 37.1924 232.865C36.6852 233.892 36.4316 235.011 36.4316 236.224C36.4316 237.461 36.6419 238.289 37.0625 238.71C37.2233 238.908 37.3841 239.007 37.5449 239.007ZM54.6523 243.163C54.4544 243.163 54.2565 243.101 54.0586 242.978C53.8359 242.841 53.6504 242.606 53.502 242.272C53.3659 241.938 53.236 241.431 53.1123 240.751C52.9886 240.132 52.9268 239.434 52.9268 238.654C52.9268 237.553 53.0505 236.106 53.2979 234.312L53.335 234.09C53.0628 234.387 52.6917 234.999 52.2217 235.927C51.7516 236.842 51.3125 237.807 50.9043 238.821C50.5579 239.712 50.2796 240.398 50.0693 240.881C49.8714 241.363 49.7044 241.722 49.5684 241.957C49.4447 242.192 49.321 242.378 49.1973 242.514C48.7643 242.947 48.3066 243.163 47.8242 243.163C47.6758 243.163 47.5335 243.145 47.3975 243.107C46.8656 242.947 46.445 242.551 46.1357 241.92C46.0244 241.66 45.9131 241.308 45.8018 240.862C45.6904 240.417 45.6162 239.984 45.5791 239.563C45.5544 239.229 45.542 238.741 45.542 238.098C45.542 237.516 45.5482 236.904 45.5605 236.261C45.5853 235.618 45.6162 235.098 45.6533 234.702C45.7152 233.923 45.8141 233.125 45.9502 232.309C46.0986 231.492 46.2347 230.905 46.3584 230.546C46.5439 230.051 46.7852 229.717 47.082 229.544C47.1439 229.494 47.1995 229.464 47.249 229.451C47.3109 229.426 47.3851 229.414 47.4717 229.414H47.6387C48.084 229.426 48.4303 229.686 48.6777 230.193C48.7396 230.317 48.7829 230.422 48.8076 230.509C48.8447 230.583 48.8695 230.694 48.8818 230.843C48.8942 230.979 48.9004 231.195 48.9004 231.492V231.826C48.9004 232.63 48.8324 233.762 48.6963 235.222C48.6344 236.088 48.6035 236.725 48.6035 237.133C48.6035 237.318 48.6097 237.417 48.6221 237.43C48.6468 237.43 48.7025 237.349 48.7891 237.188C48.8757 237.028 48.9746 236.83 49.0859 236.595C49.9023 234.974 50.9167 233.354 52.1289 231.733C52.9082 230.608 53.7432 230.045 54.6338 230.045C55.512 230.045 56.1058 230.527 56.415 231.492C56.4645 231.604 56.4954 231.715 56.5078 231.826C56.5202 231.938 56.5264 232.098 56.5264 232.309C56.5387 232.519 56.5449 232.853 56.5449 233.311C56.5449 233.855 56.5326 234.306 56.5078 234.665C56.4954 235.011 56.4645 235.382 56.415 235.778L56.1367 238.153C56.0007 239.39 55.8708 240.423 55.7471 241.252C55.6357 242.068 55.543 242.551 55.4688 242.699C55.2585 243.008 54.9863 243.163 54.6523 243.163ZM62.8164 249.991L62.4268 249.954C61.8825 249.855 61.431 249.626 61.0723 249.268C60.7259 248.921 60.5527 248.556 60.5527 248.173C60.5527 248.012 60.5898 247.851 60.6641 247.69C60.8496 247.369 61.1279 247.208 61.499 247.208C61.6598 247.208 61.8268 247.233 62 247.282C62.1608 247.344 62.2969 247.375 62.4082 247.375C62.5195 247.375 62.6185 247.332 62.7051 247.245C62.804 247.159 62.9215 247.016 63.0576 246.818C63.5029 246.212 63.8245 245.39 64.0225 244.351C64.2327 243.312 64.3379 241.945 64.3379 240.25L64.3193 239.081C64.307 238.586 64.2946 238.172 64.2822 237.838C64.2699 237.492 64.2575 237.3 64.2451 237.263C64.2204 237.263 64.1771 237.294 64.1152 237.355C64.0658 237.405 63.9977 237.479 63.9111 237.578C63.54 238.011 63.1257 238.333 62.668 238.543C62.2227 238.753 61.7773 238.858 61.332 238.858C60.8372 238.858 60.3734 238.729 59.9404 238.469C59.5075 238.197 59.1611 237.795 58.9014 237.263C58.6787 236.805 58.5674 236.285 58.5674 235.704C58.5674 235.37 58.6045 235.018 58.6787 234.646C58.7529 234.312 58.8457 233.985 58.957 233.663C59.0807 233.341 59.2539 232.958 59.4766 232.513C60.3919 230.731 61.5238 229.501 62.8721 228.82C63.3792 228.598 63.8617 228.486 64.3193 228.486C64.8018 228.511 65.1976 228.629 65.5068 228.839C65.6429 228.963 65.7542 229.105 65.8408 229.266C65.9274 229.414 65.9707 229.544 65.9707 229.655C65.9707 229.791 66.0449 229.94 66.1934 230.101C66.4779 230.435 66.75 231.096 67.0098 232.086C67.2819 233.076 67.4922 234.207 67.6406 235.481C67.7272 236.335 67.7705 237.337 67.7705 238.487C67.7705 240.355 67.6654 242.093 67.4551 243.701C67.1829 245.557 66.6696 247.041 65.915 248.154C65.5316 248.711 65.0553 249.156 64.4863 249.49C63.9297 249.824 63.373 249.991 62.8164 249.991ZM61.9258 235.147C61.9505 235.135 61.9691 235.117 61.9814 235.092C62.068 235.03 62.1484 234.956 62.2227 234.869C62.3092 234.77 62.4329 234.616 62.5938 234.405C63.1009 233.688 63.472 232.84 63.707 231.863C63.707 231.851 63.7132 231.832 63.7256 231.808C63.7627 231.634 63.7812 231.517 63.7812 231.455C63.7812 231.418 63.7751 231.399 63.7627 231.399H63.7441C63.7318 231.399 63.6637 231.461 63.54 231.585C63.1442 232.018 62.804 232.531 62.5195 233.125C62.235 233.706 62.0495 234.275 61.9629 234.832L61.9258 235.147ZM79.5156 248.173C79.3919 248.173 79.2682 248.154 79.1445 248.117C78.3776 247.969 77.8828 247.183 77.6602 245.761C77.4993 244.957 77.388 244.023 77.3262 242.959C77.2643 241.883 77.2272 240.361 77.2148 238.395L77.1963 236.706C77.1963 231.548 77.5303 228.326 78.1982 227.039C78.4704 226.544 78.792 226.297 79.1631 226.297H79.2002C79.5589 226.297 79.8682 226.526 80.1279 226.983C80.2393 227.218 80.3197 227.559 80.3691 228.004C80.4186 228.437 80.4434 229.111 80.4434 230.026C80.4434 230.472 80.4372 230.936 80.4248 231.418C80.4124 231.888 80.4001 232.247 80.3877 232.494C80.363 232.742 80.3444 233.007 80.332 233.292C80.332 233.576 80.332 233.805 80.332 233.979V234.609C81.0124 232.68 81.6556 231.239 82.2617 230.286C82.8678 229.321 83.5853 228.715 84.4141 228.468C84.5378 228.431 84.6491 228.406 84.748 228.394C84.847 228.381 84.9645 228.375 85.1006 228.375H85.3789C85.7376 228.387 86.0469 228.455 86.3066 228.579C86.5788 228.69 86.8633 228.895 87.1602 229.191C87.321 229.352 87.4508 229.501 87.5498 229.637C87.6488 229.773 87.7477 229.946 87.8467 230.156C88.2796 231.133 88.4961 232.222 88.4961 233.422C88.4961 234.312 88.3786 235.191 88.1436 236.057C88.0075 236.514 87.8219 236.991 87.5869 237.485C87.3519 237.98 87.1292 238.357 86.9189 238.617C86.4736 239.137 85.9912 239.526 85.4717 239.786C84.9769 240.034 84.4945 240.157 84.0244 240.157C83.6038 240.157 83.1523 240.058 82.6699 239.86C82.5462 239.811 82.4411 239.774 82.3545 239.749C82.2679 239.724 82.2246 239.712 82.2246 239.712C82.2122 239.749 82.1689 239.978 82.0947 240.398C82.07 240.646 82.0329 240.93 81.9834 241.252C81.9092 241.771 81.8473 242.229 81.7979 242.625C81.7113 243.243 81.6185 244.004 81.5195 244.907C81.4082 245.909 81.2598 246.633 81.0742 247.078C80.8887 247.523 80.6165 247.826 80.2578 247.987C79.998 248.111 79.7507 248.173 79.5156 248.173ZM82.7627 237.671C82.874 237.671 83.0843 237.597 83.3936 237.448C83.6286 237.325 83.8203 237.195 83.9688 237.059C84.1296 236.923 84.2718 236.749 84.3955 236.539C84.8285 235.797 85.0449 234.776 85.0449 233.478C85.0449 233.094 85.0202 232.735 84.9707 232.401C84.9336 232.067 84.8903 231.869 84.8408 231.808H84.8037C84.6429 231.869 84.3955 232.271 84.0615 233.014C83.7399 233.743 83.4368 234.585 83.1523 235.537C83.0781 235.747 83.0039 236.001 82.9297 236.298C82.8555 236.595 82.7874 236.867 82.7256 237.114C82.6761 237.362 82.6514 237.51 82.6514 237.56C82.6514 237.634 82.6885 237.671 82.7627 237.671ZM92.7451 243.033L92.4668 242.996C92.207 242.947 91.9596 242.829 91.7246 242.644C91.502 242.446 91.3226 242.211 91.1865 241.938C90.7412 240.838 90.5186 239.075 90.5186 236.65L90.5371 235.481C90.6608 232.55 90.9948 230.515 91.5391 229.377C91.9225 228.66 92.3926 228.276 92.9492 228.227H93.0234C93.2708 228.227 93.5059 228.307 93.7285 228.468C93.9512 228.629 94.1305 228.864 94.2666 229.173C94.415 229.457 94.4893 229.896 94.4893 230.49L94.4521 231.399L94.3223 233.014C94.6686 232.37 94.9531 231.882 95.1758 231.548C95.3984 231.201 95.6458 230.892 95.918 230.62C96.2025 230.348 96.4499 230.156 96.6602 230.045C96.8704 229.934 97.1117 229.872 97.3838 229.859H97.5879C97.6868 229.859 97.7734 229.872 97.8477 229.896C97.9219 229.909 98.0085 229.934 98.1074 229.971C98.7012 230.255 99.1836 230.855 99.5547 231.771C99.666 232.055 99.7217 232.29 99.7217 232.476C99.7217 232.76 99.5918 232.958 99.332 233.069C99.2207 233.131 99.1032 233.162 98.9795 233.162C98.7074 233.162 98.3919 233.007 98.0332 232.698C97.9342 232.624 97.8415 232.556 97.7549 232.494C97.6683 232.432 97.6126 232.401 97.5879 232.401C97.526 232.401 97.4023 232.494 97.2168 232.68C97.0436 232.865 96.889 233.063 96.7529 233.273C96.0231 234.362 95.4294 236.31 94.9717 239.118C94.8232 240.009 94.7057 240.664 94.6191 241.085C94.5326 241.506 94.446 241.802 94.3594 241.976C94.2852 242.136 94.1738 242.285 94.0254 242.421C93.6296 242.829 93.2028 243.033 92.7451 243.033ZM106.42 242.569C106.074 242.569 105.74 242.532 105.418 242.458C103.748 242.099 102.536 241.283 101.781 240.009C101.15 238.92 100.835 237.757 100.835 236.521C100.835 235.382 101.101 234.263 101.633 233.162C102.177 232.061 102.888 231.195 103.767 230.564C104.496 229.995 105.313 229.711 106.216 229.711H106.309C107.311 229.711 108.158 230.039 108.851 230.694C109.469 231.214 109.778 231.894 109.778 232.735C109.778 233.564 109.438 234.424 108.758 235.314C108.449 235.723 108.028 236.118 107.496 236.502C106.964 236.873 106.476 237.127 106.03 237.263C105.894 237.312 105.764 237.355 105.641 237.393C105.195 237.578 104.793 237.671 104.435 237.671C104.299 237.671 104.162 237.646 104.026 237.597L103.952 237.578C103.94 237.578 103.934 237.584 103.934 237.597L103.952 237.689C104.063 238.036 104.268 238.345 104.564 238.617C104.762 238.79 104.979 238.957 105.214 239.118C105.461 239.279 105.696 239.396 105.919 239.471C106.315 239.644 106.735 239.73 107.181 239.73C107.465 239.73 107.743 239.675 108.016 239.563C108.115 239.526 108.325 239.421 108.646 239.248C108.98 239.062 109.314 238.852 109.648 238.617C109.995 238.357 110.255 238.166 110.428 238.042C110.613 237.918 110.743 237.838 110.817 237.801C110.904 237.764 110.984 237.745 111.059 237.745C111.232 237.745 111.349 237.788 111.411 237.875C111.473 237.949 111.504 238.104 111.504 238.339V238.58C111.467 239.186 111.275 239.743 110.929 240.25C110.768 240.485 110.545 240.732 110.261 240.992C109.989 241.252 109.71 241.481 109.426 241.679C108.461 242.272 107.459 242.569 106.42 242.569ZM104.156 234.888C104.379 234.888 104.589 234.851 104.787 234.776C105.455 234.517 105.962 234.065 106.309 233.422C106.42 233.187 106.476 232.983 106.476 232.81C106.476 232.686 106.451 232.581 106.401 232.494C106.327 232.395 106.234 232.321 106.123 232.271C106.012 232.21 105.9 232.173 105.789 232.16H105.678C105.455 232.197 105.214 232.34 104.954 232.587C104.694 232.822 104.465 233.113 104.268 233.459C104.156 233.657 104.051 233.898 103.952 234.183C103.853 234.467 103.804 234.665 103.804 234.776C103.804 234.801 103.81 234.826 103.822 234.851C103.835 234.863 103.866 234.875 103.915 234.888C103.965 234.888 104.045 234.888 104.156 234.888ZM116.328 243.033C116.019 243.033 115.703 242.996 115.382 242.922C114.281 242.674 113.526 242.13 113.118 241.289C112.994 241.054 112.889 240.794 112.803 240.51C112.716 240.225 112.667 239.978 112.654 239.768L112.636 239.563C112.636 238.896 112.933 238.252 113.526 237.634C113.551 237.609 113.57 237.584 113.582 237.56C113.681 237.461 113.755 237.393 113.805 237.355C113.867 237.306 113.916 237.275 113.953 237.263C114.003 237.25 114.071 237.244 114.157 237.244C114.454 237.244 114.64 237.374 114.714 237.634C114.739 237.683 114.751 237.764 114.751 237.875C114.751 238.011 114.72 238.271 114.658 238.654L114.621 238.951C114.621 239.248 114.671 239.533 114.77 239.805C114.868 240.077 114.998 240.262 115.159 240.361C115.357 240.473 115.567 240.528 115.79 240.528L116.087 240.491C116.582 240.38 116.965 240.132 117.237 239.749C117.336 239.613 117.386 239.465 117.386 239.304C117.386 238.747 116.786 237.9 115.586 236.762C114.361 235.599 113.625 234.51 113.378 233.496C113.316 233.311 113.279 233.15 113.267 233.014C113.254 232.878 113.248 232.674 113.248 232.401C113.248 232.055 113.279 231.752 113.341 231.492C113.415 231.232 113.551 230.929 113.749 230.583C113.922 230.274 114.17 229.958 114.491 229.637C114.813 229.315 115.116 229.08 115.4 228.932C115.945 228.66 116.495 228.523 117.052 228.523H117.145C117.664 228.523 118.165 228.641 118.647 228.876C118.821 228.963 118.963 229.049 119.074 229.136C119.198 229.21 119.334 229.315 119.482 229.451C119.816 229.785 120.045 230.082 120.169 230.342C120.293 230.602 120.354 230.917 120.354 231.288C120.354 231.486 120.342 231.641 120.317 231.752C120.305 231.863 120.28 231.968 120.243 232.067C119.934 232.772 119.52 233.162 119 233.236H118.87C118.722 233.236 118.61 233.193 118.536 233.106C118.462 233.007 118.388 232.822 118.313 232.55C118.252 232.352 118.19 232.203 118.128 232.104C118.078 232.006 118.01 231.907 117.924 231.808C117.577 231.449 117.243 231.27 116.922 231.27C116.736 231.27 116.576 231.331 116.439 231.455C116.365 231.492 116.322 231.535 116.31 231.585C116.297 231.622 116.291 231.684 116.291 231.771C116.291 231.845 116.297 231.913 116.31 231.975C116.322 232.036 116.353 232.111 116.402 232.197C116.464 232.284 116.557 232.408 116.681 232.568C116.78 232.704 116.897 232.847 117.033 232.995C117.182 233.131 117.398 233.311 117.683 233.533C118.066 233.855 118.388 234.152 118.647 234.424C118.92 234.684 119.173 234.974 119.408 235.296C120.249 236.434 120.67 237.584 120.67 238.747V239.007C120.608 240.021 120.212 240.912 119.482 241.679C118.901 242.285 118.153 242.699 117.237 242.922C116.928 242.996 116.625 243.033 116.328 243.033ZM126.014 243.033C125.704 243.033 125.389 242.996 125.067 242.922C123.966 242.674 123.212 242.13 122.804 241.289C122.68 241.054 122.575 240.794 122.488 240.51C122.402 240.225 122.352 239.978 122.34 239.768L122.321 239.563C122.321 238.896 122.618 238.252 123.212 237.634C123.237 237.609 123.255 237.584 123.268 237.56C123.367 237.461 123.441 237.393 123.49 237.355C123.552 237.306 123.602 237.275 123.639 237.263C123.688 237.25 123.756 237.244 123.843 237.244C124.14 237.244 124.325 237.374 124.399 237.634C124.424 237.683 124.437 237.764 124.437 237.875C124.437 238.011 124.406 238.271 124.344 238.654L124.307 238.951C124.307 239.248 124.356 239.533 124.455 239.805C124.554 240.077 124.684 240.262 124.845 240.361C125.043 240.473 125.253 240.528 125.476 240.528L125.772 240.491C126.267 240.38 126.651 240.132 126.923 239.749C127.022 239.613 127.071 239.465 127.071 239.304C127.071 238.747 126.471 237.9 125.271 236.762C124.047 235.599 123.311 234.51 123.063 233.496C123.002 233.311 122.965 233.15 122.952 233.014C122.94 232.878 122.934 232.674 122.934 232.401C122.934 232.055 122.965 231.752 123.026 231.492C123.101 231.232 123.237 230.929 123.435 230.583C123.608 230.274 123.855 229.958 124.177 229.637C124.498 229.315 124.801 229.08 125.086 228.932C125.63 228.66 126.181 228.523 126.737 228.523H126.83C127.35 228.523 127.851 228.641 128.333 228.876C128.506 228.963 128.648 229.049 128.76 229.136C128.883 229.21 129.02 229.315 129.168 229.451C129.502 229.785 129.731 230.082 129.854 230.342C129.978 230.602 130.04 230.917 130.04 231.288C130.04 231.486 130.028 231.641 130.003 231.752C129.991 231.863 129.966 231.968 129.929 232.067C129.619 232.772 129.205 233.162 128.686 233.236H128.556C128.407 233.236 128.296 233.193 128.222 233.106C128.147 233.007 128.073 232.822 127.999 232.55C127.937 232.352 127.875 232.203 127.813 232.104C127.764 232.006 127.696 231.907 127.609 231.808C127.263 231.449 126.929 231.27 126.607 231.27C126.422 231.27 126.261 231.331 126.125 231.455C126.051 231.492 126.007 231.535 125.995 231.585C125.983 231.622 125.977 231.684 125.977 231.771C125.977 231.845 125.983 231.913 125.995 231.975C126.007 232.036 126.038 232.111 126.088 232.197C126.15 232.284 126.243 232.408 126.366 232.568C126.465 232.704 126.583 232.847 126.719 232.995C126.867 233.131 127.084 233.311 127.368 233.533C127.752 233.855 128.073 234.152 128.333 234.424C128.605 234.684 128.859 234.974 129.094 235.296C129.935 236.434 130.355 237.584 130.355 238.747V239.007C130.294 240.021 129.898 240.912 129.168 241.679C128.587 242.285 127.838 242.699 126.923 242.922C126.614 242.996 126.311 243.033 126.014 243.033ZM146.684 244.592C146.275 244.592 145.91 244.561 145.589 244.499C143.993 244.153 142.694 243.349 141.692 242.087C141.457 241.79 141.204 241.394 140.932 240.899C140.672 240.392 140.468 239.922 140.319 239.489C139.973 238.438 139.8 237.325 139.8 236.149C139.8 235.605 139.837 235.055 139.911 234.498C140.06 233.199 140.431 231.962 141.024 230.787C141.185 230.478 141.42 230.101 141.729 229.655C142.039 229.198 142.292 228.876 142.49 228.69C142.527 228.653 142.558 228.61 142.583 228.561C142.62 228.511 142.639 228.48 142.639 228.468C142.639 228.443 142.614 228.394 142.564 228.319C142.527 228.233 142.478 228.146 142.416 228.06C141.971 227.429 141.68 226.656 141.544 225.74C141.433 225.146 141.377 224.584 141.377 224.052C141.377 222.938 141.612 221.912 142.082 220.972C142.663 219.759 143.338 218.906 144.104 218.411C144.5 218.139 144.89 217.947 145.273 217.836C145.657 217.725 146.127 217.669 146.684 217.669C147.426 217.669 148.063 217.78 148.595 218.003C149.349 218.287 149.949 218.733 150.395 219.339C150.852 219.933 151.081 220.594 151.081 221.324C151.081 221.745 151.013 222.147 150.877 222.53C150.753 222.901 150.592 223.167 150.395 223.328C150.283 223.402 150.166 223.439 150.042 223.439C149.943 223.439 149.856 223.409 149.782 223.347C149.757 223.31 149.72 223.229 149.671 223.105C149.634 222.969 149.59 222.821 149.541 222.66C149.257 221.547 148.749 220.823 148.02 220.489C147.921 220.44 147.828 220.409 147.741 220.396C147.667 220.372 147.568 220.359 147.444 220.359C147.333 220.347 147.166 220.341 146.943 220.341C146.733 220.341 146.566 220.347 146.442 220.359C146.331 220.359 146.232 220.372 146.146 220.396C146.071 220.409 145.997 220.434 145.923 220.471C145.379 220.73 144.97 221.269 144.698 222.085C144.587 222.407 144.531 222.753 144.531 223.124C144.531 223.483 144.587 223.866 144.698 224.274C144.847 224.893 145.063 225.351 145.348 225.647C145.645 225.944 146.139 226.198 146.832 226.408C147.302 226.569 147.648 226.705 147.871 226.816C148.094 226.928 148.279 227.064 148.428 227.225C148.836 227.658 149.04 228.134 149.04 228.653C149.04 229.049 148.923 229.433 148.688 229.804C148.292 230.373 147.71 230.657 146.943 230.657L146.053 230.639C145.83 230.639 145.669 230.651 145.57 230.676C145.471 230.701 145.372 230.744 145.273 230.806C144.939 230.991 144.612 231.282 144.29 231.678C143.968 232.061 143.733 232.451 143.585 232.847C143.313 233.614 143.177 234.449 143.177 235.352C143.177 236.02 143.257 236.65 143.418 237.244C143.505 237.566 143.653 237.931 143.863 238.339C144.074 238.747 144.271 239.069 144.457 239.304C145.224 240.219 146.183 240.677 147.333 240.677C148.063 240.677 148.694 240.522 149.226 240.213C149.757 239.904 150.246 239.409 150.691 238.729C151.285 237.863 151.582 237.139 151.582 236.558C151.582 236.273 151.52 235.995 151.396 235.723C151.285 235.488 151.192 235.333 151.118 235.259C151.056 235.185 150.945 235.147 150.784 235.147L150.506 235.166C149.986 235.191 149.603 235.327 149.355 235.574C149.108 235.822 148.898 236.285 148.725 236.966L148.483 237.708C148.31 237.931 148.1 238.042 147.853 238.042C147.568 238.042 147.308 237.9 147.073 237.615C146.912 237.417 146.795 237.207 146.721 236.984C146.659 236.749 146.622 236.452 146.609 236.094V235.927C146.609 235.605 146.64 235.321 146.702 235.073C146.764 234.813 146.875 234.535 147.036 234.238C147.16 233.991 147.389 233.706 147.723 233.385C148.057 233.051 148.36 232.797 148.632 232.624C148.879 232.476 149.201 232.34 149.597 232.216C150.005 232.08 150.376 231.987 150.71 231.938C151.328 231.851 151.91 231.74 152.454 231.604C152.998 231.467 153.376 231.344 153.586 231.232C153.994 230.973 154.266 230.651 154.402 230.268C154.427 230.156 154.452 230.051 154.477 229.952C154.501 229.841 154.514 229.76 154.514 229.711C154.514 229.266 154.699 229.024 155.07 228.987C155.157 228.987 155.256 229.012 155.367 229.062C155.627 229.198 155.831 229.445 155.979 229.804C156.14 230.162 156.221 230.534 156.221 230.917L156.202 231.307C156.091 231.9 155.85 232.476 155.479 233.032C155.107 233.576 154.674 233.991 154.18 234.275C154.068 234.337 153.988 234.387 153.938 234.424C153.901 234.461 153.883 234.498 153.883 234.535L153.901 234.554C154.149 235.135 154.272 235.785 154.272 236.502C154.272 237.207 154.149 237.955 153.901 238.747C153.79 239.069 153.617 239.458 153.382 239.916C153.159 240.374 152.943 240.77 152.732 241.104C151.483 242.872 149.955 243.992 148.149 244.462C147.667 244.549 147.178 244.592 146.684 244.592ZM174.905 244.165C174.744 244.165 174.553 244.109 174.33 243.998C174.107 243.899 173.916 243.732 173.755 243.497C173.458 242.953 173.143 241.901 172.809 240.343C172.796 240.293 172.778 240.269 172.753 240.269C172.716 240.269 172.611 240.343 172.438 240.491C172.425 240.491 172.419 240.497 172.419 240.51C171.59 241.116 170.724 241.419 169.821 241.419C169.265 241.419 168.733 241.314 168.226 241.104C167.718 240.881 167.285 240.559 166.927 240.139C166.494 239.632 166.178 239.075 165.98 238.469C165.795 237.85 165.69 237.065 165.665 236.112C165.665 235.036 165.906 234.009 166.389 233.032C166.871 232.043 167.514 231.3 168.318 230.806C168.714 230.558 169.079 230.385 169.413 230.286C169.747 230.187 170.1 230.132 170.471 230.119C170.743 230.119 171.034 230.138 171.343 230.175C171.664 230.212 171.949 230.261 172.196 230.323C172.308 230.348 172.394 230.36 172.456 230.36C172.555 230.36 172.623 230.249 172.66 230.026C172.697 229.804 172.734 229.439 172.771 228.932C172.809 228.338 172.889 227.528 173.013 226.501C173.149 225.338 173.347 224.274 173.606 223.31C173.879 222.345 174.163 221.658 174.46 221.25C174.744 220.867 175.023 220.675 175.295 220.675C175.703 220.662 176.012 220.996 176.223 221.677C176.285 221.986 176.315 222.561 176.315 223.402C176.315 224.577 176.26 225.74 176.148 226.891C176.087 227.769 176.025 228.814 175.963 230.026C175.901 231.226 175.87 232.717 175.87 234.498C175.87 235.673 175.87 236.675 175.87 237.504C175.882 238.333 175.901 239.285 175.926 240.361C175.938 241.017 175.951 241.784 175.963 242.662C175.963 242.885 175.957 243.052 175.944 243.163C175.944 243.287 175.938 243.373 175.926 243.423C175.913 243.485 175.901 243.534 175.889 243.571C175.777 243.782 175.623 243.93 175.425 244.017C175.227 244.116 175.054 244.165 174.905 244.165ZM170.211 238.116C170.52 238.091 170.842 238.011 171.176 237.875C171.522 237.727 171.961 237.51 172.493 237.226C172.481 236.57 172.475 236.013 172.475 235.556C172.475 234.69 172.462 234.09 172.438 233.756C172.425 233.41 172.382 233.218 172.308 233.181C171.998 232.958 171.448 232.847 170.656 232.847C170.112 232.909 169.679 233.199 169.357 233.719C169.048 234.238 168.894 234.906 168.894 235.723C168.894 236.118 168.918 236.452 168.968 236.725C169.03 236.997 169.135 237.263 169.283 237.522C169.395 237.745 169.506 237.9 169.617 237.986C169.729 238.073 169.877 238.116 170.062 238.116H170.211ZM180.583 243.033L180.305 242.996C180.045 242.947 179.798 242.829 179.562 242.644C179.34 242.446 179.16 242.211 179.024 241.938C178.579 240.838 178.356 239.075 178.356 236.65L178.375 235.481C178.499 232.55 178.833 230.515 179.377 229.377C179.76 228.66 180.23 228.276 180.787 228.227H180.861C181.109 228.227 181.344 228.307 181.566 228.468C181.789 228.629 181.968 228.864 182.104 229.173C182.253 229.457 182.327 229.896 182.327 230.49L182.29 231.399L182.16 233.014C182.507 232.37 182.791 231.882 183.014 231.548C183.236 231.201 183.484 230.892 183.756 230.62C184.04 230.348 184.288 230.156 184.498 230.045C184.708 229.934 184.95 229.872 185.222 229.859H185.426C185.525 229.859 185.611 229.872 185.686 229.896C185.76 229.909 185.846 229.934 185.945 229.971C186.539 230.255 187.021 230.855 187.393 231.771C187.504 232.055 187.56 232.29 187.56 232.476C187.56 232.76 187.43 232.958 187.17 233.069C187.059 233.131 186.941 233.162 186.817 233.162C186.545 233.162 186.23 233.007 185.871 232.698C185.772 232.624 185.679 232.556 185.593 232.494C185.506 232.432 185.451 232.401 185.426 232.401C185.364 232.401 185.24 232.494 185.055 232.68C184.882 232.865 184.727 233.063 184.591 233.273C183.861 234.362 183.267 236.31 182.81 239.118C182.661 240.009 182.544 240.664 182.457 241.085C182.37 241.506 182.284 241.802 182.197 241.976C182.123 242.136 182.012 242.285 181.863 242.421C181.467 242.829 181.041 243.033 180.583 243.033ZM189.322 242.662C189.174 242.662 189.038 242.65 188.914 242.625C188.061 242.439 187.504 241.945 187.244 241.141C187.182 240.906 187.151 240.609 187.151 240.25C187.151 239.891 187.182 239.545 187.244 239.211C187.442 238.246 187.955 237.009 188.784 235.5C190.293 232.766 192.155 230.886 194.369 229.859C194.988 229.587 195.674 229.439 196.429 229.414L196.874 229.396C197.035 229.396 197.152 229.408 197.227 229.433C197.301 229.445 197.394 229.476 197.505 229.525C197.505 229.525 197.511 229.525 197.523 229.525C197.969 229.711 198.191 229.983 198.191 230.342C198.191 230.404 198.179 230.478 198.154 230.564C198.13 230.639 198.111 230.701 198.099 230.75C198.049 230.799 198.024 230.868 198.024 230.954L198.062 231.158C198.074 231.257 198.08 231.48 198.08 231.826C198.08 232.494 198.043 233.694 197.969 235.426L197.932 236.966C197.932 238.623 198.049 239.897 198.284 240.788C198.309 240.887 198.34 240.967 198.377 241.029C198.414 241.079 198.482 241.128 198.581 241.178C198.866 241.314 199.008 241.493 199.008 241.716C199.008 241.889 198.927 242.05 198.767 242.198C198.618 242.347 198.433 242.458 198.21 242.532C198.111 242.545 198.012 242.551 197.913 242.551C197.047 242.551 196.317 241.734 195.724 240.102C195.489 239.396 195.346 238.555 195.297 237.578L195.26 236.854C194.468 238.252 193.738 239.39 193.07 240.269C192.402 241.147 191.716 241.784 191.011 242.18C190.417 242.501 189.854 242.662 189.322 242.662ZM190.38 239.229C190.392 239.229 190.429 239.205 190.491 239.155C190.565 239.093 190.646 239.019 190.732 238.933C190.943 238.698 191.24 238.326 191.623 237.819C192.007 237.3 192.371 236.793 192.718 236.298C192.953 235.927 193.219 235.488 193.516 234.98C193.812 234.473 194.072 234.009 194.295 233.589C194.53 233.168 194.647 232.927 194.647 232.865L194.629 232.847C194.604 232.847 194.493 232.939 194.295 233.125C194.109 233.298 193.899 233.49 193.664 233.7C193.441 233.91 193.268 234.09 193.145 234.238C192.798 234.634 192.433 235.117 192.05 235.686C191.666 236.255 191.351 236.786 191.104 237.281C190.906 237.652 190.732 238.036 190.584 238.432C190.436 238.827 190.361 239.081 190.361 239.192C190.361 239.217 190.368 239.229 190.38 239.229ZM204.686 249.991L204.296 249.954C203.752 249.855 203.3 249.626 202.941 249.268C202.595 248.921 202.422 248.556 202.422 248.173C202.422 248.012 202.459 247.851 202.533 247.69C202.719 247.369 202.997 247.208 203.368 247.208C203.529 247.208 203.696 247.233 203.869 247.282C204.03 247.344 204.166 247.375 204.277 247.375C204.389 247.375 204.488 247.332 204.574 247.245C204.673 247.159 204.791 247.016 204.927 246.818C205.372 246.212 205.694 245.39 205.892 244.351C206.102 243.312 206.207 241.945 206.207 240.25L206.188 239.081C206.176 238.586 206.164 238.172 206.151 237.838C206.139 237.492 206.127 237.3 206.114 237.263C206.09 237.263 206.046 237.294 205.984 237.355C205.935 237.405 205.867 237.479 205.78 237.578C205.409 238.011 204.995 238.333 204.537 238.543C204.092 238.753 203.646 238.858 203.201 238.858C202.706 238.858 202.243 238.729 201.81 238.469C201.377 238.197 201.03 237.795 200.771 237.263C200.548 236.805 200.437 236.285 200.437 235.704C200.437 235.37 200.474 235.018 200.548 234.646C200.622 234.312 200.715 233.985 200.826 233.663C200.95 233.341 201.123 232.958 201.346 232.513C202.261 230.731 203.393 229.501 204.741 228.82C205.248 228.598 205.731 228.486 206.188 228.486C206.671 228.511 207.067 228.629 207.376 228.839C207.512 228.963 207.623 229.105 207.71 229.266C207.797 229.414 207.84 229.544 207.84 229.655C207.84 229.791 207.914 229.94 208.062 230.101C208.347 230.435 208.619 231.096 208.879 232.086C209.151 233.076 209.361 234.207 209.51 235.481C209.596 236.335 209.64 237.337 209.64 238.487C209.64 240.355 209.535 242.093 209.324 243.701C209.052 245.557 208.539 247.041 207.784 248.154C207.401 248.711 206.924 249.156 206.355 249.49C205.799 249.824 205.242 249.991 204.686 249.991ZM203.795 235.147C203.82 235.135 203.838 235.117 203.851 235.092C203.937 235.03 204.018 234.956 204.092 234.869C204.178 234.77 204.302 234.616 204.463 234.405C204.97 233.688 205.341 232.84 205.576 231.863C205.576 231.851 205.582 231.832 205.595 231.808C205.632 231.634 205.65 231.517 205.65 231.455C205.65 231.418 205.644 231.399 205.632 231.399H205.613C205.601 231.399 205.533 231.461 205.409 231.585C205.013 232.018 204.673 232.531 204.389 233.125C204.104 233.706 203.919 234.275 203.832 234.832L203.795 235.147ZM226.209 243.349C225.986 243.349 225.757 243.324 225.522 243.274C224.669 243.089 223.927 242.582 223.296 241.753C223.098 241.506 222.937 241.271 222.813 241.048C222.702 240.813 222.585 240.491 222.461 240.083C222.152 239.18 221.941 238.258 221.83 237.318C221.719 236.378 221.657 235.067 221.645 233.385L221.626 231.065C220.191 230.954 219.356 230.564 219.121 229.896C219.084 229.785 219.065 229.674 219.065 229.562C219.065 229.315 219.14 229.08 219.288 228.857C219.461 228.622 219.764 228.424 220.197 228.264C220.643 228.09 221.076 228.004 221.496 228.004C221.57 228.004 221.638 228.004 221.7 228.004C221.762 227.992 221.805 227.979 221.83 227.967C221.842 227.954 221.873 227.855 221.923 227.67C221.972 227.484 222.016 227.262 222.053 227.002C222.362 225.184 222.795 223.965 223.352 223.347C223.673 223 224.001 222.827 224.335 222.827C224.892 222.852 225.325 223.297 225.634 224.163C225.708 224.435 225.764 224.769 225.801 225.165C225.85 225.549 225.887 226.093 225.912 226.798C225.912 227.058 225.912 227.274 225.912 227.447C225.924 227.608 225.931 227.738 225.931 227.837C225.943 227.924 225.955 227.992 225.968 228.041C225.98 228.09 225.993 228.121 226.005 228.134C226.017 228.146 226.036 228.152 226.061 228.152L226.803 228.301C227.186 228.375 227.57 228.505 227.953 228.69C228.337 228.864 228.621 229.043 228.807 229.229C229.005 229.464 229.104 229.692 229.104 229.915C229.104 230.336 228.788 230.67 228.157 230.917C227.7 231.065 227.229 231.14 226.747 231.14L225.838 231.084C225.826 231.356 225.813 231.542 225.801 231.641C225.788 231.715 225.782 231.789 225.782 231.863C225.782 231.925 225.776 232.024 225.764 232.16C225.764 232.284 225.764 232.469 225.764 232.717C225.764 233.335 225.776 234.034 225.801 234.813C225.838 235.593 225.881 236.162 225.931 236.521C226.03 237.3 226.129 237.906 226.228 238.339C226.339 238.772 226.469 239.118 226.617 239.378C226.729 239.613 226.834 239.73 226.933 239.73C226.994 239.73 227.075 239.681 227.174 239.582C227.322 239.434 227.458 239.254 227.582 239.044C227.718 238.821 227.867 238.5 228.027 238.079C228.201 237.646 228.349 237.343 228.473 237.17C228.596 236.997 228.732 236.91 228.881 236.91C229.079 236.91 229.215 236.972 229.289 237.096C229.376 237.219 229.444 237.473 229.493 237.856C229.53 238.091 229.549 238.345 229.549 238.617C229.549 239.384 229.438 240.151 229.215 240.918C229.005 241.561 228.708 242.068 228.324 242.439C227.706 243.046 227.001 243.349 226.209 243.349ZM235.765 242.458C235.505 242.458 235.276 242.439 235.078 242.402C234.967 242.378 234.825 242.334 234.651 242.272C234.478 242.198 234.311 242.124 234.15 242.05C233.94 241.951 233.761 241.852 233.612 241.753C233.476 241.642 233.315 241.493 233.13 241.308C232.895 241.06 232.703 240.819 232.555 240.584C232.406 240.349 232.239 240.003 232.054 239.545C231.732 238.679 231.571 237.72 231.571 236.669C231.571 235.321 231.831 233.991 232.351 232.68C232.969 231.257 233.779 230.206 234.781 229.525C234.992 229.389 235.183 229.297 235.356 229.247C235.53 229.185 235.734 229.154 235.969 229.154L236.767 229.062C236.952 229.037 237.15 229.024 237.36 229.024C238.041 229.049 238.659 229.21 239.216 229.507C239.636 229.742 240.001 230.051 240.311 230.435C240.632 230.818 240.96 231.344 241.294 232.012C241.69 232.853 241.888 233.861 241.888 235.036C241.888 235.457 241.857 235.834 241.795 236.168C241.733 236.49 241.616 236.91 241.442 237.43C240.873 239.223 239.933 240.565 238.622 241.456C238.004 241.889 237.441 242.18 236.934 242.328C236.55 242.415 236.16 242.458 235.765 242.458ZM235.895 239.007C236.018 239.007 236.167 238.957 236.34 238.858C236.575 238.735 236.841 238.518 237.138 238.209C237.447 237.887 237.694 237.578 237.88 237.281C238.065 236.972 238.208 236.688 238.307 236.428C238.418 236.156 238.505 235.846 238.566 235.5C238.641 235.129 238.678 234.783 238.678 234.461C238.678 233.669 238.467 233.051 238.047 232.605C237.874 232.432 237.688 232.309 237.49 232.234C237.292 232.148 237.033 232.098 236.711 232.086H236.396C236.272 232.086 236.185 232.098 236.136 232.123C236.086 232.135 236.031 232.166 235.969 232.216C235.919 232.265 235.851 232.352 235.765 232.476C235.678 232.587 235.604 232.717 235.542 232.865C235.035 233.892 234.781 235.011 234.781 236.224C234.781 237.461 234.992 238.289 235.412 238.71C235.573 238.908 235.734 239.007 235.895 239.007ZM253.54 243.033L253.262 242.996C253.002 242.947 252.755 242.829 252.52 242.644C252.297 242.446 252.118 242.211 251.981 241.938C251.536 240.838 251.313 239.075 251.313 236.65L251.332 235.481C251.456 232.55 251.79 230.515 252.334 229.377C252.717 228.66 253.188 228.276 253.744 228.227H253.818C254.066 228.227 254.301 228.307 254.523 228.468C254.746 228.629 254.925 228.864 255.062 229.173C255.21 229.457 255.284 229.896 255.284 230.49L255.247 231.399L255.117 233.014C255.464 232.37 255.748 231.882 255.971 231.548C256.193 231.201 256.441 230.892 256.713 230.62C256.997 230.348 257.245 230.156 257.455 230.045C257.665 229.934 257.907 229.872 258.179 229.859H258.383C258.482 229.859 258.568 229.872 258.643 229.896C258.717 229.909 258.803 229.934 258.902 229.971C259.496 230.255 259.979 230.855 260.35 231.771C260.461 232.055 260.517 232.29 260.517 232.476C260.517 232.76 260.387 232.958 260.127 233.069C260.016 233.131 259.898 233.162 259.774 233.162C259.502 233.162 259.187 233.007 258.828 232.698C258.729 232.624 258.636 232.556 258.55 232.494C258.463 232.432 258.408 232.401 258.383 232.401C258.321 232.401 258.197 232.494 258.012 232.68C257.839 232.865 257.684 233.063 257.548 233.273C256.818 234.362 256.224 236.31 255.767 239.118C255.618 240.009 255.501 240.664 255.414 241.085C255.327 241.506 255.241 241.802 255.154 241.976C255.08 242.136 254.969 242.285 254.82 242.421C254.424 242.829 253.998 243.033 253.54 243.033ZM267.215 242.569C266.868 242.569 266.535 242.532 266.213 242.458C264.543 242.099 263.331 241.283 262.576 240.009C261.945 238.92 261.63 237.757 261.63 236.521C261.63 235.382 261.896 234.263 262.428 233.162C262.972 232.061 263.683 231.195 264.562 230.564C265.291 229.995 266.108 229.711 267.011 229.711H267.104C268.105 229.711 268.953 230.039 269.646 230.694C270.264 231.214 270.573 231.894 270.573 232.735C270.573 233.564 270.233 234.424 269.553 235.314C269.243 235.723 268.823 236.118 268.291 236.502C267.759 236.873 267.271 237.127 266.825 237.263C266.689 237.312 266.559 237.355 266.436 237.393C265.99 237.578 265.588 237.671 265.229 237.671C265.093 237.671 264.957 237.646 264.821 237.597L264.747 237.578C264.735 237.578 264.729 237.584 264.729 237.597L264.747 237.689C264.858 238.036 265.062 238.345 265.359 238.617C265.557 238.79 265.774 238.957 266.009 239.118C266.256 239.279 266.491 239.396 266.714 239.471C267.11 239.644 267.53 239.73 267.976 239.73C268.26 239.73 268.538 239.675 268.811 239.563C268.91 239.526 269.12 239.421 269.441 239.248C269.775 239.062 270.109 238.852 270.443 238.617C270.79 238.357 271.049 238.166 271.223 238.042C271.408 237.918 271.538 237.838 271.612 237.801C271.699 237.764 271.779 237.745 271.854 237.745C272.027 237.745 272.144 237.788 272.206 237.875C272.268 237.949 272.299 238.104 272.299 238.339V238.58C272.262 239.186 272.07 239.743 271.724 240.25C271.563 240.485 271.34 240.732 271.056 240.992C270.784 241.252 270.505 241.481 270.221 241.679C269.256 242.272 268.254 242.569 267.215 242.569ZM264.951 234.888C265.174 234.888 265.384 234.851 265.582 234.776C266.25 234.517 266.757 234.065 267.104 233.422C267.215 233.187 267.271 232.983 267.271 232.81C267.271 232.686 267.246 232.581 267.196 232.494C267.122 232.395 267.029 232.321 266.918 232.271C266.807 232.21 266.695 232.173 266.584 232.16H266.473C266.25 232.197 266.009 232.34 265.749 232.587C265.489 232.822 265.26 233.113 265.062 233.459C264.951 233.657 264.846 233.898 264.747 234.183C264.648 234.467 264.599 234.665 264.599 234.776C264.599 234.801 264.605 234.826 264.617 234.851C264.63 234.863 264.66 234.875 264.71 234.888C264.759 234.888 264.84 234.888 264.951 234.888ZM278.144 242.458C277.884 242.458 277.655 242.439 277.457 242.402C277.346 242.378 277.203 242.334 277.03 242.272C276.857 242.198 276.69 242.124 276.529 242.05C276.319 241.951 276.14 241.852 275.991 241.753C275.855 241.642 275.694 241.493 275.509 241.308C275.274 241.06 275.082 240.819 274.934 240.584C274.785 240.349 274.618 240.003 274.433 239.545C274.111 238.679 273.95 237.72 273.95 236.669C273.95 235.321 274.21 233.991 274.729 232.68C275.348 231.257 276.158 230.206 277.16 229.525C277.37 229.389 277.562 229.297 277.735 229.247C277.909 229.185 278.113 229.154 278.348 229.154L279.146 229.062C279.331 229.037 279.529 229.024 279.739 229.024C280.42 229.049 281.038 229.21 281.595 229.507C282.015 229.742 282.38 230.051 282.689 230.435C283.011 230.818 283.339 231.344 283.673 232.012C284.069 232.853 284.267 233.861 284.267 235.036C284.267 235.457 284.236 235.834 284.174 236.168C284.112 236.49 283.994 236.91 283.821 237.43C283.252 239.223 282.312 240.565 281.001 241.456C280.382 241.889 279.82 242.18 279.312 242.328C278.929 242.415 278.539 242.458 278.144 242.458ZM278.273 239.007C278.397 239.007 278.546 238.957 278.719 238.858C278.954 238.735 279.22 238.518 279.517 238.209C279.826 237.887 280.073 237.578 280.259 237.281C280.444 236.972 280.587 236.688 280.686 236.428C280.797 236.156 280.883 235.846 280.945 235.5C281.02 235.129 281.057 234.783 281.057 234.461C281.057 233.669 280.846 233.051 280.426 232.605C280.253 232.432 280.067 232.309 279.869 232.234C279.671 232.148 279.411 232.098 279.09 232.086H278.774C278.651 232.086 278.564 232.098 278.515 232.123C278.465 232.135 278.41 232.166 278.348 232.216C278.298 232.265 278.23 232.352 278.144 232.476C278.057 232.587 277.983 232.717 277.921 232.865C277.414 233.892 277.16 235.011 277.16 236.224C277.16 237.461 277.37 238.289 277.791 238.71C277.952 238.908 278.113 239.007 278.273 239.007ZM288.497 243.033L288.219 242.996C287.959 242.947 287.712 242.829 287.477 242.644C287.254 242.446 287.075 242.211 286.938 241.938C286.493 240.838 286.271 239.075 286.271 236.65L286.289 235.481C286.413 232.55 286.747 230.515 287.291 229.377C287.674 228.66 288.145 228.276 288.701 228.227H288.775C289.023 228.227 289.258 228.307 289.48 228.468C289.703 228.629 289.882 228.864 290.019 229.173C290.167 229.457 290.241 229.896 290.241 230.49L290.204 231.399L290.074 233.014C290.421 232.37 290.705 231.882 290.928 231.548C291.15 231.201 291.398 230.892 291.67 230.62C291.954 230.348 292.202 230.156 292.412 230.045C292.622 229.934 292.864 229.872 293.136 229.859H293.34C293.439 229.859 293.525 229.872 293.6 229.896C293.674 229.909 293.76 229.934 293.859 229.971C294.453 230.255 294.936 230.855 295.307 231.771C295.418 232.055 295.474 232.29 295.474 232.476C295.474 232.76 295.344 232.958 295.084 233.069C294.973 233.131 294.855 233.162 294.731 233.162C294.459 233.162 294.144 233.007 293.785 232.698C293.686 232.624 293.593 232.556 293.507 232.494C293.42 232.432 293.365 232.401 293.34 232.401C293.278 232.401 293.154 232.494 292.969 232.68C292.796 232.865 292.641 233.063 292.505 233.273C291.775 234.362 291.181 236.31 290.724 239.118C290.575 240.009 290.458 240.664 290.371 241.085C290.285 241.506 290.198 241.802 290.111 241.976C290.037 242.136 289.926 242.285 289.777 242.421C289.382 242.829 288.955 243.033 288.497 243.033ZM305.716 244.165C305.555 244.165 305.363 244.109 305.141 243.998C304.918 243.899 304.726 243.732 304.565 243.497C304.269 242.953 303.953 241.901 303.619 240.343C303.607 240.293 303.588 240.269 303.563 240.269C303.526 240.269 303.421 240.343 303.248 240.491C303.236 240.491 303.229 240.497 303.229 240.51C302.401 241.116 301.535 241.419 300.632 241.419C300.075 241.419 299.543 241.314 299.036 241.104C298.529 240.881 298.096 240.559 297.737 240.139C297.304 239.632 296.989 239.075 296.791 238.469C296.605 237.85 296.5 237.065 296.476 236.112C296.476 235.036 296.717 234.009 297.199 233.032C297.682 232.043 298.325 231.3 299.129 230.806C299.525 230.558 299.89 230.385 300.224 230.286C300.558 230.187 300.91 230.132 301.281 230.119C301.553 230.119 301.844 230.138 302.153 230.175C302.475 230.212 302.759 230.261 303.007 230.323C303.118 230.348 303.205 230.36 303.267 230.36C303.366 230.36 303.434 230.249 303.471 230.026C303.508 229.804 303.545 229.439 303.582 228.932C303.619 228.338 303.7 227.528 303.823 226.501C303.959 225.338 304.157 224.274 304.417 223.31C304.689 222.345 304.974 221.658 305.271 221.25C305.555 220.867 305.833 220.675 306.105 220.675C306.514 220.662 306.823 220.996 307.033 221.677C307.095 221.986 307.126 222.561 307.126 223.402C307.126 224.577 307.07 225.74 306.959 226.891C306.897 227.769 306.835 228.814 306.773 230.026C306.712 231.226 306.681 232.717 306.681 234.498C306.681 235.673 306.681 236.675 306.681 237.504C306.693 238.333 306.712 239.285 306.736 240.361C306.749 241.017 306.761 241.784 306.773 242.662C306.773 242.885 306.767 243.052 306.755 243.163C306.755 243.287 306.749 243.373 306.736 243.423C306.724 243.485 306.712 243.534 306.699 243.571C306.588 243.782 306.433 243.93 306.235 244.017C306.037 244.116 305.864 244.165 305.716 244.165ZM301.021 238.116C301.331 238.091 301.652 238.011 301.986 237.875C302.333 237.727 302.772 237.51 303.304 237.226C303.291 236.57 303.285 236.013 303.285 235.556C303.285 234.69 303.273 234.09 303.248 233.756C303.236 233.41 303.192 233.218 303.118 233.181C302.809 232.958 302.258 232.847 301.467 232.847C300.923 232.909 300.49 233.199 300.168 233.719C299.859 234.238 299.704 234.906 299.704 235.723C299.704 236.118 299.729 236.452 299.778 236.725C299.84 236.997 299.945 237.263 300.094 237.522C300.205 237.745 300.316 237.9 300.428 237.986C300.539 238.073 300.688 238.116 300.873 238.116H301.021ZM314.752 242.569C314.406 242.569 314.072 242.532 313.75 242.458C312.08 242.099 310.868 241.283 310.113 240.009C309.482 238.92 309.167 237.757 309.167 236.521C309.167 235.382 309.433 234.263 309.965 233.162C310.509 232.061 311.22 231.195 312.099 230.564C312.828 229.995 313.645 229.711 314.548 229.711H314.641C315.643 229.711 316.49 230.039 317.183 230.694C317.801 231.214 318.11 231.894 318.11 232.735C318.11 233.564 317.77 234.424 317.09 235.314C316.781 235.723 316.36 236.118 315.828 236.502C315.296 236.873 314.808 237.127 314.362 237.263C314.226 237.312 314.096 237.355 313.973 237.393C313.527 237.578 313.125 237.671 312.767 237.671C312.631 237.671 312.494 237.646 312.358 237.597L312.284 237.578C312.272 237.578 312.266 237.584 312.266 237.597L312.284 237.689C312.396 238.036 312.6 238.345 312.896 238.617C313.094 238.79 313.311 238.957 313.546 239.118C313.793 239.279 314.028 239.396 314.251 239.471C314.647 239.644 315.067 239.73 315.513 239.73C315.797 239.73 316.076 239.675 316.348 239.563C316.447 239.526 316.657 239.421 316.979 239.248C317.312 239.062 317.646 238.852 317.98 238.617C318.327 238.357 318.587 238.166 318.76 238.042C318.945 237.918 319.075 237.838 319.149 237.801C319.236 237.764 319.316 237.745 319.391 237.745C319.564 237.745 319.681 237.788 319.743 237.875C319.805 237.949 319.836 238.104 319.836 238.339V238.58C319.799 239.186 319.607 239.743 319.261 240.25C319.1 240.485 318.877 240.732 318.593 240.992C318.321 241.252 318.042 241.481 317.758 241.679C316.793 242.272 315.791 242.569 314.752 242.569ZM312.488 234.888C312.711 234.888 312.921 234.851 313.119 234.776C313.787 234.517 314.294 234.065 314.641 233.422C314.752 233.187 314.808 232.983 314.808 232.81C314.808 232.686 314.783 232.581 314.733 232.494C314.659 232.395 314.566 232.321 314.455 232.271C314.344 232.21 314.232 232.173 314.121 232.16H314.01C313.787 232.197 313.546 232.34 313.286 232.587C313.026 232.822 312.798 233.113 312.6 233.459C312.488 233.657 312.383 233.898 312.284 234.183C312.185 234.467 312.136 234.665 312.136 234.776C312.136 234.801 312.142 234.826 312.154 234.851C312.167 234.863 312.198 234.875 312.247 234.888C312.297 234.888 312.377 234.888 312.488 234.888ZM323.714 243.033L323.436 242.996C323.176 242.947 322.928 242.829 322.693 242.644C322.471 242.446 322.291 242.211 322.155 241.938C321.71 240.838 321.487 239.075 321.487 236.65L321.506 235.481C321.63 232.55 321.964 230.515 322.508 229.377C322.891 228.66 323.361 228.276 323.918 228.227H323.992C324.24 228.227 324.475 228.307 324.697 228.468C324.92 228.629 325.099 228.864 325.235 229.173C325.384 229.457 325.458 229.896 325.458 230.49L325.421 231.399L325.291 233.014C325.637 232.37 325.922 231.882 326.145 231.548C326.367 231.201 326.615 230.892 326.887 230.62C327.171 230.348 327.419 230.156 327.629 230.045C327.839 229.934 328.08 229.872 328.353 229.859H328.557C328.656 229.859 328.742 229.872 328.816 229.896C328.891 229.909 328.977 229.934 329.076 229.971C329.67 230.255 330.152 230.855 330.523 231.771C330.635 232.055 330.69 232.29 330.69 232.476C330.69 232.76 330.561 232.958 330.301 233.069C330.189 233.131 330.072 233.162 329.948 233.162C329.676 233.162 329.361 233.007 329.002 232.698C328.903 232.624 328.81 232.556 328.724 232.494C328.637 232.432 328.581 232.401 328.557 232.401C328.495 232.401 328.371 232.494 328.186 232.68C328.012 232.865 327.858 233.063 327.722 233.273C326.992 234.362 326.398 236.31 325.94 239.118C325.792 240.009 325.674 240.664 325.588 241.085C325.501 241.506 325.415 241.802 325.328 241.976C325.254 242.136 325.143 242.285 324.994 242.421C324.598 242.829 324.172 243.033 323.714 243.033Z" fill="black"/>
<rect x="14.5" y="116.5" width="323" height="63" rx="7.5" fill="white" stroke="#C2E9F0"/>
<circle cx="296" cy="148" r="18" fill="#F6F6F6"/>
<path d="M301.835 148.833H296.835V153.833H295.168V148.833H290.168V147.167H295.168V142.167H296.835V147.167H301.835V148.833Z" fill="#BCBCBC"/>
<mask id="mask0" mask-type="alpha" maskUnits="userSpaceOnUse" x="38" y="130" width="36" height="36">
<circle cx="56" cy="148" r="17.5" fill="#F9CF3E" stroke="#F0F0F0"/>
</mask>
<g mask="url(#mask0)">
<circle cx="56" cy="148" r="18" fill="white"/>
<path d="M51.4492 141.988V148.97H61.544V137.875L51.4492 141.988Z" fill="#F9CF3E"/>
<path d="M43.625 167.746V226.539H68.375V167.746C68.375 166.608 68.0336 163.99 66.6681 162.625C65.3026 161.259 63.2543 160.918 62.4009 160.918V148.97H50.5991V160.918C49.7457 160.918 46.6974 161.259 45.3319 162.625C43.9664 163.99 43.625 166.608 43.625 167.746Z" fill="white" stroke="black"/>
<circle cx="56" cy="148" r="17.5" stroke="#EBEBEB"/>
</g>
<g filter="url(#filter0_d)">
<mask id="mask1" mask-type="alpha" maskUnits="userSpaceOnUse" x="194" y="100" width="42" height="42">
<circle cx="215" cy="121" r="20.5" fill="#F9CF3E" stroke="#F0F0F0"/>
</mask>
<g mask="url(#mask1)">
<circle cx="215" cy="121" r="20.5" fill="white" stroke="#F0F0F0"/>
<path d="M215 111C213.594 111 210.5 120 210.5 124H219.5C219.5 120 216.406 111 215 111Z" fill="#C273F2"/>
<path d="M197 166V200H233V166L220 124H210L197 166Z" stroke="black" stroke-linecap="round" stroke-linejoin="round"/>
<circle cx="215" cy="121" r="20.5" stroke="#01A6C6"/>
</g>
</g>
<mask id="mask2" mask-type="alpha" maskUnits="userSpaceOnUse" x="98" y="130" width="36" height="36">
<circle cx="116" cy="148" r="17.5" fill="#F9CF3E" stroke="#F0F0F0"/>
</mask>
<g mask="url(#mask2)">
<circle cx="116" cy="148" r="17.5" stroke="#F0F0F0"/>
<path fill-rule="evenodd" clip-rule="evenodd" d="M111.342 139.253C111.821 138.805 112.449 138.556 113.102 138.556H123.407C124.839 138.556 126 139.731 126 141.181V156.18H125.259V141.181C125.259 140.145 124.43 139.306 123.407 139.306H113.102C112.636 139.306 112.187 139.484 111.845 139.804L107.335 144.026C106.956 144.381 106.741 144.88 106.741 145.403V156.18H106V145.403C106 144.671 106.302 143.973 106.832 143.476L111.342 139.253Z" fill="#484848"/>
<path d="M106 179.234V156.18H116H126V179.234C126 180.891 124.657 182.234 123 182.234H109C107.343 182.234 106 180.891 106 179.234Z" fill="#E9EEF4"/>
<path fill-rule="evenodd" clip-rule="evenodd" d="M106 180.198V156.18H106.741L106.796 179.432C106.796 180.537 107.625 181.433 108.648 181.433H123.352C124.375 181.433 125.204 180.537 125.204 179.432L125.258 156.18H126V180.198C126 181.746 124.839 183 123.407 183H108.593C107.161 183 106 181.746 106 180.198Z" fill="#CBD2DB"/>
<circle cx="116" cy="148" r="17.5" stroke="#F0F0F0"/>
</g>
<mask id="mask3" mask-type="alpha" maskUnits="userSpaceOnUse" x="158" y="130" width="36" height="36">
<circle cx="176" cy="148" r="17.5" fill="#F9CF3E" stroke="#F0F0F0"/>
</mask>
<g mask="url(#mask3)">
<circle cx="176" cy="148" r="17.5" stroke="#F0F0F0"/>
<path fill-rule="evenodd" clip-rule="evenodd" d="M173.603 151.183C171.691 150.348 170.295 151.505 168.493 150.717C165.326 149.332 164.519 146.499 165.799 143.571C167.079 140.644 170.685 139.393 173.852 140.778C175.653 141.566 176.451 144.093 178.15 144.836C179.849 145.579 181.608 144.17 183.41 144.957C186.577 146.342 187.47 149.56 186.189 152.488C184.909 155.416 181.303 156.667 178.136 155.282C176.335 154.494 174.877 151.741 173.603 151.183Z" fill="#FBFBFB" stroke="#1C6776" stroke-linecap="round" stroke-linejoin="round" stroke-dasharray="2 3"/>
</g>
<defs>
<filter id="filter0_d" x="185" y="91" width="60" height="60" filterUnits="userSpaceOnUse" color-interpolation-filters="sRGB">
<feFlood flood-opacity="0" result="BackgroundImageFix"/>
<feColorMatrix in="SourceAlpha" type="matrix" values="0 0 0 0 0 0 0 0 0 0 0 0 0 0 0 0 0 0 127 0"/>
<feOffset/>
<feGaussianBlur stdDeviation="4.5"/>
<feColorMatrix type="matrix" values="0 0 0 0 0 0 0 0 0 0.837564 0 0 0 0 1 0 0 0 0.25 0"/>
<feBlend mode="normal" in2="BackgroundImageFix" result="effect1_dropShadow"/>
<feBlend mode="normal" in="SourceGraphic" in2="effect1_dropShadow" result="shape"/>
</filter>
</defs>
</svg>
