<?xml version="1.0" encoding="UTF-8"?>
<svg width="960px" height="660px" viewBox="0 0 960 660" version="1.1" xmlns="http://www.w3.org/2000/svg" xmlns:xlink="http://www.w3.org/1999/xlink">
    <!-- Generator: Sketch 48.2 (47327) - http://www.bohemiancoding.com/sketch -->
    <title>Group 6</title>
    <desc>Created with Sketch.</desc>
    <defs></defs>
    <g id="Desktop-HD-Copy" stroke="none" stroke-width="1" fill="none" fill-rule="evenodd" transform="translate(-480.000000, 0.000000)">
        <g id="Group-6" transform="translate(501.000000, -300.000000)">
            <g id="jupyter" transform="translate(404.000000, 384.000000)" fill="#FFFFFF" fill-rule="nonzero">
                <g id="path" transform="translate(105.000000, 0.000000)">
                    <g id="path7-fill">
                        <g id="path0_fill-link" transform="translate(0.497895, 0.029223)">
                            <path d="M20.4722621,9.8791579 C20.5603547,11.9204684 20.0461105,13.9422221 18.9946263,15.6887211 C17.9431421,17.4351853 16.4016253,18.8278895 14.5651232,19.6906137 C12.7286211,20.5533726 10.6796337,20.8473505 8.67743684,20.5354137 C6.67524,20.2234421 4.80976737,19.3195895 3.31701411,17.93814 C1.82427474,16.5567253 0.771352421,14.7597884 0.291454958,12.7747168 C-0.188441463,10.7896453 -0.0737463156,8.70564316 0.621028737,6.78632842 C1.31580726,4.86697895 2.55944179,3.19862747 4.19461263,1.9922899 C5.82974526,0.785952316 7.78296316,0.095845548 9.80711368,0.0092826922 C12.5187758,-0.106682052 15.1651674,0.867688106 17.1649326,2.71833505 C19.1646979,4.56897158 20.3542611,7.14453474 20.4722621,9.8791579 Z" id="path0_fill"></path>
                        </g>
                    </g>
                </g>
                <g id="path" transform="translate(4.000000, 104.000000)">
                    <g id="path8-fill">
                        <g id="path1_fill-link" transform="translate(0.892863, 0.005867)">
                            <path d="M62.7222768,24.0657311 C35.7643283,24.0657311 12.2209641,14.362304 0,0 C4.5515083,12.8874827 13.0342939,24.0545991 24.2742072,31.9556879 C35.5143266,39.856608 48.9553541,44.100936 62.7373868,44.100936 C76.5194194,44.100936 89.9604469,39.856608 101.200566,31.9556879 C112.440342,24.0545991 120.923231,12.8874827 125.474774,0 C113.223658,14.362304 89.6805686,24.0657311 62.7222768,24.0657311 Z" id="path1_fill"></path>
                        </g>
                    </g>
                </g>
                <g id="path" transform="translate(4.000000, 14.000000)">
                    <g id="path9-fill">
                        <g id="path2_fill-link" transform="translate(0.858522, 0.469200)">
                            <path d="M62.7521534,20.0352724 C89.7104452,20.0352724 113.253878,29.7387332 125.474774,44.100936 C120.923231,31.2135545 112.440342,20.0464381 101.200566,12.1453493 C89.9604469,4.24426053 76.5194194,0 62.7373868,0 C48.9553541,0 35.5143266,4.24426053 24.2742072,12.1453493 C13.0342939,20.0464381 4.5515083,31.2135545 0,44.100936 C12.2509437,29.7684185 35.7942049,20.0352724 62.7521534,20.0352724 Z" id="path2_fill"></path>
                        </g>
                    </g>
                </g>
                <g id="path" transform="translate(5.000000, 145.000000)">
                    <g id="path10-fill">
                        <g id="path3_fill-link" transform="translate(0.047963, 0.399130)">
                            <path d="M25.997615,12.1523322 C26.11028,14.6650174 25.457425,17.1538617 24.121755,19.3037452 C22.786085,21.4536287 20.827625,23.1678991 18.494385,24.229513 C16.161145,25.291093 13.557985,25.6523009 11.01457,25.2673539 C8.47112,24.882407 6.10176,23.7686348 4.20644,22.0670478 C2.311148,20.3654609 0.975135001,18.152567 0.367559501,15.7085896 C-0.240014949,13.2645783 -0.0918263494,10.6993617 0.793362501,8.33772522 C1.6785545,5.97605478 3.2609395,3.92418 5.34016,2.44185104 C7.419405,0.959518696 9.90199,0.113403522 12.473615,0.0106264492 C15.913345,-0.126845973 19.268515,1.07404644 21.803635,3.35004913 C24.338755,5.62603826 25.84694,8.79144783 25.997615,12.1523322 Z" id="path3_fill"></path>
                        </g>
                    </g>
                </g>
                <g id="path" transform="translate(0.000000, 16.000000)">
                    <g id="path11-fill">
                        <g id="path4_fill-link" transform="translate(0.734542, 0.204000)">
                            <path d="M8.21738988,14.947386 C6.66011338,15.011272 5.11786488,14.63513 3.78586388,13.866662 C2.45385565,13.09816 1.3919974,11.971876 0.734677738,10.630304 C0.0773566307,9.288732 -0.145872027,7.792222 0.0932444057,6.330154 C0.332361199,4.86812 1.02307445,3.506284 2.07795696,2.4170022 C3.13283948,1.327734 4.50446238,0.560007199 6.01921975,0.211001279 C7.53397713,-0.138004981 9.12376613,-0.0526027606 10.5873705,0.456398999 C12.0509749,0.965399399 13.322611,1.875117 14.2412698,3.070404 C15.1599285,4.265708 15.6843551,5.692824 15.7481519,7.171144 C15.8335514,9.149638 15.0886178,11.079546 13.6768166,12.537364 C12.2650155,13.995216 10.3016218,14.861944 8.21738988,14.947386 Z" id="path4_fill"></path>
                        </g>
                    </g>
                </g>
            </g>
            <g id="Group-5" stroke="#FFFFFF" stroke-opacity="0.66686481">
                <circle id="Oval" stroke-width="42" cx="453.5" cy="454.5" r="293.5"></circle>
                <circle id="Oval" stroke-width="42" cx="470.5" cy="440.5" r="254.5"></circle>
                <circle id="Oval" stroke-width="49" cx="470.5" cy="465.5" r="221.5"></circle>
                <circle id="Oval" stroke-width="42" cx="451.5" cy="491.5" r="330.5"></circle>
                <circle id="Oval" stroke-width="42" cx="457.5" cy="467.5" r="358.5"></circle>
                <circle id="Oval" stroke-width="42" cx="474.5" cy="438.5" r="385.5"></circle>
                <circle id="Oval" stroke-width="25" cx="482" cy="472" r="413"></circle>
                <path d="M469.5,939 C728.79769,939 939,728.79769 939,469.5 C939,210.20231 728.79769,0 469.5,0 C210.20231,0 0,210.20231 0,469.5 C0,728.79769 210.20231,939 469.5,939 Z" id="Oval" stroke-width="42"></path>
            </g>
        </g>
    </g>
</svg>